ISO-10303-21;
HEADER;
/* Generated by software containing ST-Developer
 * from STEP Tools, Inc. (www.steptools.com) 
 */

FILE_DESCRIPTION(
/* description */ (''),
/* implementation_level */ '2;1');

FILE_NAME(
/* name */ 'upper_joints.step',
/* time_stamp */ '2026-09-02T23:05:24+09:00',
/* author */ (''),
/* organization */ (''),
/* preprocessor_version */ 'ST-DEVELOPER v20.1',
/* originating_system */ 'Autodesk Translation Framework v15.8.0.0',
/* authorisation */ '');

FILE_SCHEMA (('AUTOMOTIVE_DESIGN { 1 0 10303 214 3 1 1 }'));
ENDSEC;

DATA;
#10=MECHANICAL_DESIGN_GEOMETRIC_PRESENTATION_REPRESENTATION('',(#29,#30,
#31,#32,#33,#34),#1131);
#11=ITEM_DEFINED_TRANSFORMATION($,$,#587,#668);
#12=ITEM_DEFINED_TRANSFORMATION($,$,#614,#669);
#13=ITEM_DEFINED_TRANSFORMATION($,$,#641,#670);
#14=(
REPRESENTATION_RELATIONSHIP($,$,#1148,#1147)
REPRESENTATION_RELATIONSHIP_WITH_TRANSFORMATION(#11)
SHAPE_REPRESENTATION_RELATIONSHIP()
);
#15=(
REPRESENTATION_RELATIONSHIP($,$,#1149,#1147)
REPRESENTATION_RELATIONSHIP_WITH_TRANSFORMATION(#12)
SHAPE_REPRESENTATION_RELATIONSHIP()
);
#16=(
REPRESENTATION_RELATIONSHIP($,$,#1150,#1147)
REPRESENTATION_RELATIONSHIP_WITH_TRANSFORMATION(#13)
SHAPE_REPRESENTATION_RELATIONSHIP()
);
#17=CONTEXT_DEPENDENT_SHAPE_REPRESENTATION(#14,#1144);
#18=CONTEXT_DEPENDENT_SHAPE_REPRESENTATION(#15,#1145);
#19=CONTEXT_DEPENDENT_SHAPE_REPRESENTATION(#16,#1146);
#20=NEXT_ASSEMBLY_USAGE_OCCURRENCE('A1_PHS6_AND_JAM_NUT:1',
'A1_PHS6_AND_JAM_NUT:1','A1_PHS6_AND_JAM_NUT:1',#1152,#1153,
'A1_PHS6_AND_JAM_NUT:1');
#21=NEXT_ASSEMBLY_USAGE_OCCURRENCE('A2_PHS6_AND_JAM_NUT:1',
'A2_PHS6_AND_JAM_NUT:1','A2_PHS6_AND_JAM_NUT:1',#1152,#1154,
'A2_PHS6_AND_JAM_NUT:1');
#22=NEXT_ASSEMBLY_USAGE_OCCURRENCE('A3_PHS6_AND_JAM_NUT:1',
'A3_PHS6_AND_JAM_NUT:1','A3_PHS6_AND_JAM_NUT:1',#1152,#1155,
'A3_PHS6_AND_JAM_NUT:1');
#23=SHAPE_REPRESENTATION_RELATIONSHIP('SRR','None',#1148,#26);
#24=SHAPE_REPRESENTATION_RELATIONSHIP('SRR','None',#1149,#27);
#25=SHAPE_REPRESENTATION_RELATIONSHIP('SRR','None',#1150,#28);
#26=ADVANCED_BREP_SHAPE_REPRESENTATION('',(#35,#36),#1128);
#27=ADVANCED_BREP_SHAPE_REPRESENTATION('',(#37,#38),#1129);
#28=ADVANCED_BREP_SHAPE_REPRESENTATION('',(#39,#40),#1130);
#29=STYLED_ITEM('',(#1171),#35);
#30=STYLED_ITEM('',(#1171),#36);
#31=STYLED_ITEM('',(#1171),#37);
#32=STYLED_ITEM('',(#1171),#38);
#33=STYLED_ITEM('',(#1171),#39);
#34=STYLED_ITEM('',(#1171),#40);
#35=MANIFOLD_SOLID_BREP('A1_PHS6_AND_JAM_NUT_BODY_01',#546);
#36=MANIFOLD_SOLID_BREP('A1_PHS6_AND_JAM_NUT_BODY_02',#547);
#37=MANIFOLD_SOLID_BREP('A2_PHS6_AND_JAM_NUT_BODY_01',#548);
#38=MANIFOLD_SOLID_BREP('A2_PHS6_AND_JAM_NUT_BODY_02',#549);
#39=MANIFOLD_SOLID_BREP('A3_PHS6_AND_JAM_NUT_BODY_01',#550);
#40=MANIFOLD_SOLID_BREP('A3_PHS6_AND_JAM_NUT_BODY_02',#551);
#41=FACE_BOUND('',#119,.T.);
#42=FACE_BOUND('',#122,.T.);
#43=FACE_BOUND('',#124,.T.);
#44=FACE_BOUND('',#128,.T.);
#45=FACE_BOUND('',#130,.T.);
#46=FACE_BOUND('',#137,.T.);
#47=FACE_BOUND('',#140,.T.);
#48=FACE_BOUND('',#142,.T.);
#49=FACE_BOUND('',#146,.T.);
#50=FACE_BOUND('',#148,.T.);
#51=FACE_BOUND('',#155,.T.);
#52=FACE_BOUND('',#158,.T.);
#53=FACE_BOUND('',#160,.T.);
#54=FACE_BOUND('',#164,.T.);
#55=FACE_BOUND('',#166,.T.);
#56=PLANE('',#597);
#57=PLANE('',#600);
#58=PLANE('',#604);
#59=PLANE('',#605);
#60=PLANE('',#612);
#61=PLANE('',#613);
#62=PLANE('',#624);
#63=PLANE('',#627);
#64=PLANE('',#631);
#65=PLANE('',#632);
#66=PLANE('',#639);
#67=PLANE('',#640);
#68=PLANE('',#651);
#69=PLANE('',#654);
#70=PLANE('',#658);
#71=PLANE('',#659);
#72=PLANE('',#666);
#73=PLANE('',#667);
#74=FACE_OUTER_BOUND('',#113,.T.);
#75=FACE_OUTER_BOUND('',#114,.T.);
#76=FACE_OUTER_BOUND('',#115,.T.);
#77=FACE_OUTER_BOUND('',#116,.T.);
#78=FACE_OUTER_BOUND('',#117,.T.);
#79=FACE_OUTER_BOUND('',#118,.T.);
#80=FACE_OUTER_BOUND('',#120,.T.);
#81=FACE_OUTER_BOUND('',#121,.T.);
#82=FACE_OUTER_BOUND('',#123,.T.);
#83=FACE_OUTER_BOUND('',#125,.T.);
#84=FACE_OUTER_BOUND('',#126,.T.);
#85=FACE_OUTER_BOUND('',#127,.T.);
#86=FACE_OUTER_BOUND('',#129,.T.);
#87=FACE_OUTER_BOUND('',#131,.T.);
#88=FACE_OUTER_BOUND('',#132,.T.);
#89=FACE_OUTER_BOUND('',#133,.T.);
#90=FACE_OUTER_BOUND('',#134,.T.);
#91=FACE_OUTER_BOUND('',#135,.T.);
#92=FACE_OUTER_BOUND('',#136,.T.);
#93=FACE_OUTER_BOUND('',#138,.T.);
#94=FACE_OUTER_BOUND('',#139,.T.);
#95=FACE_OUTER_BOUND('',#141,.T.);
#96=FACE_OUTER_BOUND('',#143,.T.);
#97=FACE_OUTER_BOUND('',#144,.T.);
#98=FACE_OUTER_BOUND('',#145,.T.);
#99=FACE_OUTER_BOUND('',#147,.T.);
#100=FACE_OUTER_BOUND('',#149,.T.);
#101=FACE_OUTER_BOUND('',#150,.T.);
#102=FACE_OUTER_BOUND('',#151,.T.);
#103=FACE_OUTER_BOUND('',#152,.T.);
#104=FACE_OUTER_BOUND('',#153,.T.);
#105=FACE_OUTER_BOUND('',#154,.T.);
#106=FACE_OUTER_BOUND('',#156,.T.);
#107=FACE_OUTER_BOUND('',#157,.T.);
#108=FACE_OUTER_BOUND('',#159,.T.);
#109=FACE_OUTER_BOUND('',#161,.T.);
#110=FACE_OUTER_BOUND('',#162,.T.);
#111=FACE_OUTER_BOUND('',#163,.T.);
#112=FACE_OUTER_BOUND('',#165,.T.);
#113=EDGE_LOOP('',(#356,#357,#358,#359));
#114=EDGE_LOOP('',(#360,#361,#362,#363));
#115=EDGE_LOOP('',(#364,#365,#366,#367));
#116=EDGE_LOOP('',(#368));
#117=EDGE_LOOP('',(#369,#370,#371,#372,#373));
#118=EDGE_LOOP('',(#374));
#119=EDGE_LOOP('',(#375));
#120=EDGE_LOOP('',(#376,#377,#378,#379));
#121=EDGE_LOOP('',(#380,#381));
#122=EDGE_LOOP('',(#382));
#123=EDGE_LOOP('',(#383,#384));
#124=EDGE_LOOP('',(#385));
#125=EDGE_LOOP('',(#386,#387,#388,#389));
#126=EDGE_LOOP('',(#390,#391,#392,#393));
#127=EDGE_LOOP('',(#394));
#128=EDGE_LOOP('',(#395));
#129=EDGE_LOOP('',(#396));
#130=EDGE_LOOP('',(#397));
#131=EDGE_LOOP('',(#398,#399,#400,#401,#402));
#132=EDGE_LOOP('',(#403,#404,#405,#406));
#133=EDGE_LOOP('',(#407,#408,#409,#410));
#134=EDGE_LOOP('',(#411));
#135=EDGE_LOOP('',(#412,#413,#414,#415,#416,#417));
#136=EDGE_LOOP('',(#418));
#137=EDGE_LOOP('',(#419));
#138=EDGE_LOOP('',(#420,#421,#422,#423));
#139=EDGE_LOOP('',(#424,#425));
#140=EDGE_LOOP('',(#426));
#141=EDGE_LOOP('',(#427,#428));
#142=EDGE_LOOP('',(#429));
#143=EDGE_LOOP('',(#430,#431,#432,#433));
#144=EDGE_LOOP('',(#434,#435,#436,#437));
#145=EDGE_LOOP('',(#438));
#146=EDGE_LOOP('',(#439));
#147=EDGE_LOOP('',(#440));
#148=EDGE_LOOP('',(#441));
#149=EDGE_LOOP('',(#442,#443,#444,#445));
#150=EDGE_LOOP('',(#446,#447,#448,#449));
#151=EDGE_LOOP('',(#450,#451,#452,#453));
#152=EDGE_LOOP('',(#454));
#153=EDGE_LOOP('',(#455,#456,#457,#458,#459,#460));
#154=EDGE_LOOP('',(#461));
#155=EDGE_LOOP('',(#462));
#156=EDGE_LOOP('',(#463,#464,#465,#466,#467));
#157=EDGE_LOOP('',(#468,#469));
#158=EDGE_LOOP('',(#470));
#159=EDGE_LOOP('',(#471,#472));
#160=EDGE_LOOP('',(#473));
#161=EDGE_LOOP('',(#474,#475,#476,#477));
#162=EDGE_LOOP('',(#478,#479,#480,#481));
#163=EDGE_LOOP('',(#482));
#164=EDGE_LOOP('',(#483));
#165=EDGE_LOOP('',(#484));
#166=EDGE_LOOP('',(#485));
#167=B_SPLINE_CURVE_WITH_KNOTS('',3,(#868,#869,#870,#871,#872,#873,#874,
#875,#876,#877,#878,#879,#880,#881,#882,#883,#884,#885,#886),
 .UNSPECIFIED.,.F.,.F.,(4,2,2,2,3,2,2,2,4),(2.07570898136036,2.24844863785709,
2.42118829435382,2.59440013475048,2.76761197514714,2.94082381554381,3.11403565594047,
3.2867753124372,3.45951496893393),.UNSPECIFIED.);
#168=B_SPLINE_CURVE_WITH_KNOTS('',3,(#905,#906,#907,#908,#909,#910,#911,
#912,#913,#914,#915,#916,#917,#918,#919,#920,#921,#922),.UNSPECIFIED.,.F.,
 .F.,(4,2,2,2,2,2,2,2,4),(0.691902993786786,0.864642650283517,1.03738230678025,
1.21059414717691,1.38380598757357,1.55701782797024,1.7302296683669,1.90296932486363,
2.07570898136036),.UNSPECIFIED.);
#169=B_SPLINE_CURVE_WITH_KNOTS('',3,(#951,#952,#953,#954,#955,#956,#957,
#958,#959,#960,#961,#962,#963,#964,#965),.UNSPECIFIED.,.F.,.F.,(4,2,2,2,
3,2,4),(2.07570898136036,2.24844863785709,2.42118829435382,2.59440013475048,
2.76761197514714,2.94082381554381,2.99637721153736),.UNSPECIFIED.);
#170=B_SPLINE_CURVE_WITH_KNOTS('',3,(#967,#968,#969,#970,#971,#972,#973,
#974),.UNSPECIFIED.,.F.,.F.,(4,2,2,4),(2.99637721153736,3.11403565594047,
3.2867753124372,3.45951496893393),.UNSPECIFIED.);
#171=B_SPLINE_CURVE_WITH_KNOTS('',3,(#993,#994,#995,#996,#997,#998,#999,
#1000,#1001,#1002,#1003,#1004,#1005,#1006,#1007,#1008,#1009,#1010),
 .UNSPECIFIED.,.F.,.F.,(4,2,2,2,2,2,2,2,4),(0.691902993786788,0.864642650283517,
1.03738230678025,1.21059414717691,1.38380598757357,1.55701782797023,1.7302296683669,
1.90296932486363,2.07570898136036),.UNSPECIFIED.);
#172=B_SPLINE_CURVE_WITH_KNOTS('',3,(#1039,#1040,#1041,#1042,#1043,#1044,
#1045,#1046,#1047,#1048,#1049,#1050,#1051,#1052,#1053,#1054,#1055,#1056,
#1057),.UNSPECIFIED.,.F.,.F.,(4,2,2,2,3,2,2,2,4),(2.07570898136036,2.24844863785709,
2.42118829435382,2.59440013475048,2.76761197514714,2.94082381554381,3.11403565594047,
3.2867753124372,3.45951496893393),.UNSPECIFIED.);
#173=B_SPLINE_CURVE_WITH_KNOTS('',3,(#1077,#1078,#1079,#1080,#1081,#1082,
#1083,#1084),.UNSPECIFIED.,.F.,.F.,(4,2,2,4),(0.691902993786784,0.864642650283514,
1.03738230678024,1.15504075118335),.UNSPECIFIED.);
#174=B_SPLINE_CURVE_WITH_KNOTS('',3,(#1085,#1086,#1087,#1088,#1089,#1090,
#1091,#1092,#1093,#1094,#1095,#1096,#1097,#1098),.UNSPECIFIED.,.F.,.F.,
(4,2,2,2,2,2,4),(1.15504075118335,1.21059414717691,1.38380598757357,1.55701782797023,
1.7302296683669,1.90296932486363,2.07570898136036),.UNSPECIFIED.);
#175=CIRCLE('',#589,9.);
#176=CIRCLE('',#590,9.);
#177=CIRCLE('',#592,3.2);
#178=CIRCLE('',#593,3.2);
#179=CIRCLE('',#595,2.5);
#180=CIRCLE('',#596,2.5);
#181=CIRCLE('',#599,4.5);
#182=CIRCLE('',#602,9.);
#183=CIRCLE('',#603,9.);
#184=CIRCLE('',#607,3.2);
#185=CIRCLE('',#608,3.2);
#186=CIRCLE('',#610,7.);
#187=CIRCLE('',#611,7.);
#188=CIRCLE('',#616,9.);
#189=CIRCLE('',#617,9.);
#190=CIRCLE('',#619,3.2);
#191=CIRCLE('',#620,3.2);
#192=CIRCLE('',#622,2.5);
#193=CIRCLE('',#623,2.5);
#194=CIRCLE('',#626,4.5);
#195=CIRCLE('',#629,9.);
#196=CIRCLE('',#630,9.);
#197=CIRCLE('',#634,3.2);
#198=CIRCLE('',#635,3.2);
#199=CIRCLE('',#637,7.);
#200=CIRCLE('',#638,7.);
#201=CIRCLE('',#643,9.);
#202=CIRCLE('',#644,9.);
#203=CIRCLE('',#646,3.2);
#204=CIRCLE('',#647,3.2);
#205=CIRCLE('',#649,2.5);
#206=CIRCLE('',#650,2.5);
#207=CIRCLE('',#653,4.5);
#208=CIRCLE('',#656,9.);
#209=CIRCLE('',#657,9.);
#210=CIRCLE('',#661,3.2);
#211=CIRCLE('',#662,3.2);
#212=CIRCLE('',#664,7.);
#213=CIRCLE('',#665,7.);
#214=LINE('',#864,#232);
#215=LINE('',#892,#233);
#216=LINE('',#898,#234);
#217=LINE('',#904,#235);
#218=LINE('',#933,#236);
#219=LINE('',#939,#237);
#220=LINE('',#947,#238);
#221=LINE('',#980,#239);
#222=LINE('',#986,#240);
#223=LINE('',#992,#241);
#224=LINE('',#1021,#242);
#225=LINE('',#1027,#243);
#226=LINE('',#1035,#244);
#227=LINE('',#1063,#245);
#228=LINE('',#1069,#246);
#229=LINE('',#1076,#247);
#230=LINE('',#1109,#248);
#231=LINE('',#1115,#249);
#232=VECTOR('',#677,9.);
#233=VECTOR('',#686,3.2);
#234=VECTOR('',#693,2.5);
#235=VECTOR('',#702,4.5);
#236=VECTOR('',#719,3.2);
#237=VECTOR('',#726,7.);
#238=VECTOR('',#737,9.);
#239=VECTOR('',#746,3.2);
#240=VECTOR('',#753,2.5);
#241=VECTOR('',#762,4.5);
#242=VECTOR('',#779,3.2);
#243=VECTOR('',#786,7.);
#244=VECTOR('',#797,9.);
#245=VECTOR('',#806,3.2);
#246=VECTOR('',#813,2.5);
#247=VECTOR('',#822,4.5);
#248=VECTOR('',#839,3.2);
#249=VECTOR('',#846,7.);
#250=VERTEX_POINT('',#862);
#251=VERTEX_POINT('',#863);
#252=VERTEX_POINT('',#865);
#253=VERTEX_POINT('',#867);
#254=VERTEX_POINT('',#889);
#255=VERTEX_POINT('',#891);
#256=VERTEX_POINT('',#895);
#257=VERTEX_POINT('',#897);
#258=VERTEX_POINT('',#902);
#259=VERTEX_POINT('',#930);
#260=VERTEX_POINT('',#932);
#261=VERTEX_POINT('',#936);
#262=VERTEX_POINT('',#938);
#263=VERTEX_POINT('',#945);
#264=VERTEX_POINT('',#946);
#265=VERTEX_POINT('',#948);
#266=VERTEX_POINT('',#950);
#267=VERTEX_POINT('',#966);
#268=VERTEX_POINT('',#977);
#269=VERTEX_POINT('',#979);
#270=VERTEX_POINT('',#983);
#271=VERTEX_POINT('',#985);
#272=VERTEX_POINT('',#990);
#273=VERTEX_POINT('',#1018);
#274=VERTEX_POINT('',#1020);
#275=VERTEX_POINT('',#1024);
#276=VERTEX_POINT('',#1026);
#277=VERTEX_POINT('',#1033);
#278=VERTEX_POINT('',#1034);
#279=VERTEX_POINT('',#1036);
#280=VERTEX_POINT('',#1038);
#281=VERTEX_POINT('',#1060);
#282=VERTEX_POINT('',#1062);
#283=VERTEX_POINT('',#1066);
#284=VERTEX_POINT('',#1068);
#285=VERTEX_POINT('',#1073);
#286=VERTEX_POINT('',#1075);
#287=VERTEX_POINT('',#1106);
#288=VERTEX_POINT('',#1108);
#289=VERTEX_POINT('',#1112);
#290=VERTEX_POINT('',#1114);
#291=EDGE_CURVE('',#250,#251,#214,.T.);
#292=EDGE_CURVE('',#252,#250,#175,.T.);
#293=EDGE_CURVE('',#252,#253,#167,.T.);
#294=EDGE_CURVE('',#251,#253,#176,.T.);
#295=EDGE_CURVE('',#254,#254,#177,.T.);
#296=EDGE_CURVE('',#254,#255,#215,.T.);
#297=EDGE_CURVE('',#255,#255,#178,.T.);
#298=EDGE_CURVE('',#256,#256,#179,.T.);
#299=EDGE_CURVE('',#256,#257,#216,.T.);
#300=EDGE_CURVE('',#257,#257,#180,.T.);
#301=EDGE_CURVE('',#258,#258,#181,.T.);
#302=EDGE_CURVE('',#258,#252,#217,.T.);
#303=EDGE_CURVE('',#253,#252,#168,.T.);
#304=EDGE_CURVE('',#253,#251,#182,.T.);
#305=EDGE_CURVE('',#250,#252,#183,.T.);
#306=EDGE_CURVE('',#259,#259,#184,.T.);
#307=EDGE_CURVE('',#259,#260,#218,.T.);
#308=EDGE_CURVE('',#260,#260,#185,.T.);
#309=EDGE_CURVE('',#261,#261,#186,.T.);
#310=EDGE_CURVE('',#261,#262,#219,.T.);
#311=EDGE_CURVE('',#262,#262,#187,.T.);
#312=EDGE_CURVE('',#263,#264,#220,.T.);
#313=EDGE_CURVE('',#265,#263,#188,.T.);
#314=EDGE_CURVE('',#265,#266,#169,.T.);
#315=EDGE_CURVE('',#266,#267,#170,.T.);
#316=EDGE_CURVE('',#264,#267,#189,.T.);
#317=EDGE_CURVE('',#268,#268,#190,.T.);
#318=EDGE_CURVE('',#268,#269,#221,.T.);
#319=EDGE_CURVE('',#269,#269,#191,.T.);
#320=EDGE_CURVE('',#270,#270,#192,.T.);
#321=EDGE_CURVE('',#270,#271,#222,.T.);
#322=EDGE_CURVE('',#271,#271,#193,.T.);
#323=EDGE_CURVE('',#272,#272,#194,.T.);
#324=EDGE_CURVE('',#272,#266,#223,.T.);
#325=EDGE_CURVE('',#267,#265,#171,.T.);
#326=EDGE_CURVE('',#267,#264,#195,.T.);
#327=EDGE_CURVE('',#263,#265,#196,.T.);
#328=EDGE_CURVE('',#273,#273,#197,.T.);
#329=EDGE_CURVE('',#273,#274,#224,.T.);
#330=EDGE_CURVE('',#274,#274,#198,.T.);
#331=EDGE_CURVE('',#275,#275,#199,.T.);
#332=EDGE_CURVE('',#275,#276,#225,.T.);
#333=EDGE_CURVE('',#276,#276,#200,.T.);
#334=EDGE_CURVE('',#277,#278,#226,.T.);
#335=EDGE_CURVE('',#279,#277,#201,.T.);
#336=EDGE_CURVE('',#279,#280,#172,.T.);
#337=EDGE_CURVE('',#278,#280,#202,.T.);
#338=EDGE_CURVE('',#281,#281,#203,.T.);
#339=EDGE_CURVE('',#281,#282,#227,.T.);
#340=EDGE_CURVE('',#282,#282,#204,.T.);
#341=EDGE_CURVE('',#283,#283,#205,.T.);
#342=EDGE_CURVE('',#283,#284,#228,.T.);
#343=EDGE_CURVE('',#284,#284,#206,.T.);
#344=EDGE_CURVE('',#285,#285,#207,.T.);
#345=EDGE_CURVE('',#285,#286,#229,.T.);
#346=EDGE_CURVE('',#280,#286,#173,.T.);
#347=EDGE_CURVE('',#286,#279,#174,.T.);
#348=EDGE_CURVE('',#280,#278,#208,.T.);
#349=EDGE_CURVE('',#277,#279,#209,.T.);
#350=EDGE_CURVE('',#287,#287,#210,.T.);
#351=EDGE_CURVE('',#287,#288,#230,.T.);
#352=EDGE_CURVE('',#288,#288,#211,.T.);
#353=EDGE_CURVE('',#289,#289,#212,.T.);
#354=EDGE_CURVE('',#289,#290,#231,.T.);
#355=EDGE_CURVE('',#290,#290,#213,.T.);
#356=ORIENTED_EDGE('',*,*,#291,.F.);
#357=ORIENTED_EDGE('',*,*,#292,.F.);
#358=ORIENTED_EDGE('',*,*,#293,.T.);
#359=ORIENTED_EDGE('',*,*,#294,.F.);
#360=ORIENTED_EDGE('',*,*,#295,.F.);
#361=ORIENTED_EDGE('',*,*,#296,.T.);
#362=ORIENTED_EDGE('',*,*,#297,.F.);
#363=ORIENTED_EDGE('',*,*,#296,.F.);
#364=ORIENTED_EDGE('',*,*,#298,.T.);
#365=ORIENTED_EDGE('',*,*,#299,.T.);
#366=ORIENTED_EDGE('',*,*,#300,.F.);
#367=ORIENTED_EDGE('',*,*,#299,.F.);
#368=ORIENTED_EDGE('',*,*,#298,.F.);
#369=ORIENTED_EDGE('',*,*,#301,.F.);
#370=ORIENTED_EDGE('',*,*,#302,.T.);
#371=ORIENTED_EDGE('',*,*,#303,.F.);
#372=ORIENTED_EDGE('',*,*,#293,.F.);
#373=ORIENTED_EDGE('',*,*,#302,.F.);
#374=ORIENTED_EDGE('',*,*,#301,.T.);
#375=ORIENTED_EDGE('',*,*,#300,.T.);
#376=ORIENTED_EDGE('',*,*,#291,.T.);
#377=ORIENTED_EDGE('',*,*,#304,.F.);
#378=ORIENTED_EDGE('',*,*,#303,.T.);
#379=ORIENTED_EDGE('',*,*,#305,.F.);
#380=ORIENTED_EDGE('',*,*,#304,.T.);
#381=ORIENTED_EDGE('',*,*,#294,.T.);
#382=ORIENTED_EDGE('',*,*,#295,.T.);
#383=ORIENTED_EDGE('',*,*,#292,.T.);
#384=ORIENTED_EDGE('',*,*,#305,.T.);
#385=ORIENTED_EDGE('',*,*,#297,.T.);
#386=ORIENTED_EDGE('',*,*,#306,.F.);
#387=ORIENTED_EDGE('',*,*,#307,.T.);
#388=ORIENTED_EDGE('',*,*,#308,.F.);
#389=ORIENTED_EDGE('',*,*,#307,.F.);
#390=ORIENTED_EDGE('',*,*,#309,.F.);
#391=ORIENTED_EDGE('',*,*,#310,.T.);
#392=ORIENTED_EDGE('',*,*,#311,.F.);
#393=ORIENTED_EDGE('',*,*,#310,.F.);
#394=ORIENTED_EDGE('',*,*,#311,.T.);
#395=ORIENTED_EDGE('',*,*,#306,.T.);
#396=ORIENTED_EDGE('',*,*,#309,.T.);
#397=ORIENTED_EDGE('',*,*,#308,.T.);
#398=ORIENTED_EDGE('',*,*,#312,.F.);
#399=ORIENTED_EDGE('',*,*,#313,.F.);
#400=ORIENTED_EDGE('',*,*,#314,.T.);
#401=ORIENTED_EDGE('',*,*,#315,.T.);
#402=ORIENTED_EDGE('',*,*,#316,.F.);
#403=ORIENTED_EDGE('',*,*,#317,.F.);
#404=ORIENTED_EDGE('',*,*,#318,.T.);
#405=ORIENTED_EDGE('',*,*,#319,.F.);
#406=ORIENTED_EDGE('',*,*,#318,.F.);
#407=ORIENTED_EDGE('',*,*,#320,.T.);
#408=ORIENTED_EDGE('',*,*,#321,.T.);
#409=ORIENTED_EDGE('',*,*,#322,.F.);
#410=ORIENTED_EDGE('',*,*,#321,.F.);
#411=ORIENTED_EDGE('',*,*,#320,.F.);
#412=ORIENTED_EDGE('',*,*,#323,.F.);
#413=ORIENTED_EDGE('',*,*,#324,.T.);
#414=ORIENTED_EDGE('',*,*,#314,.F.);
#415=ORIENTED_EDGE('',*,*,#325,.F.);
#416=ORIENTED_EDGE('',*,*,#315,.F.);
#417=ORIENTED_EDGE('',*,*,#324,.F.);
#418=ORIENTED_EDGE('',*,*,#323,.T.);
#419=ORIENTED_EDGE('',*,*,#322,.T.);
#420=ORIENTED_EDGE('',*,*,#312,.T.);
#421=ORIENTED_EDGE('',*,*,#326,.F.);
#422=ORIENTED_EDGE('',*,*,#325,.T.);
#423=ORIENTED_EDGE('',*,*,#327,.F.);
#424=ORIENTED_EDGE('',*,*,#326,.T.);
#425=ORIENTED_EDGE('',*,*,#316,.T.);
#426=ORIENTED_EDGE('',*,*,#317,.T.);
#427=ORIENTED_EDGE('',*,*,#313,.T.);
#428=ORIENTED_EDGE('',*,*,#327,.T.);
#429=ORIENTED_EDGE('',*,*,#319,.T.);
#430=ORIENTED_EDGE('',*,*,#328,.F.);
#431=ORIENTED_EDGE('',*,*,#329,.T.);
#432=ORIENTED_EDGE('',*,*,#330,.F.);
#433=ORIENTED_EDGE('',*,*,#329,.F.);
#434=ORIENTED_EDGE('',*,*,#331,.F.);
#435=ORIENTED_EDGE('',*,*,#332,.T.);
#436=ORIENTED_EDGE('',*,*,#333,.F.);
#437=ORIENTED_EDGE('',*,*,#332,.F.);
#438=ORIENTED_EDGE('',*,*,#333,.T.);
#439=ORIENTED_EDGE('',*,*,#328,.T.);
#440=ORIENTED_EDGE('',*,*,#331,.T.);
#441=ORIENTED_EDGE('',*,*,#330,.T.);
#442=ORIENTED_EDGE('',*,*,#334,.F.);
#443=ORIENTED_EDGE('',*,*,#335,.F.);
#444=ORIENTED_EDGE('',*,*,#336,.T.);
#445=ORIENTED_EDGE('',*,*,#337,.F.);
#446=ORIENTED_EDGE('',*,*,#338,.F.);
#447=ORIENTED_EDGE('',*,*,#339,.T.);
#448=ORIENTED_EDGE('',*,*,#340,.F.);
#449=ORIENTED_EDGE('',*,*,#339,.F.);
#450=ORIENTED_EDGE('',*,*,#341,.T.);
#451=ORIENTED_EDGE('',*,*,#342,.T.);
#452=ORIENTED_EDGE('',*,*,#343,.F.);
#453=ORIENTED_EDGE('',*,*,#342,.F.);
#454=ORIENTED_EDGE('',*,*,#341,.F.);
#455=ORIENTED_EDGE('',*,*,#344,.F.);
#456=ORIENTED_EDGE('',*,*,#345,.T.);
#457=ORIENTED_EDGE('',*,*,#346,.F.);
#458=ORIENTED_EDGE('',*,*,#336,.F.);
#459=ORIENTED_EDGE('',*,*,#347,.F.);
#460=ORIENTED_EDGE('',*,*,#345,.F.);
#461=ORIENTED_EDGE('',*,*,#344,.T.);
#462=ORIENTED_EDGE('',*,*,#343,.T.);
#463=ORIENTED_EDGE('',*,*,#334,.T.);
#464=ORIENTED_EDGE('',*,*,#348,.F.);
#465=ORIENTED_EDGE('',*,*,#346,.T.);
#466=ORIENTED_EDGE('',*,*,#347,.T.);
#467=ORIENTED_EDGE('',*,*,#349,.F.);
#468=ORIENTED_EDGE('',*,*,#348,.T.);
#469=ORIENTED_EDGE('',*,*,#337,.T.);
#470=ORIENTED_EDGE('',*,*,#338,.T.);
#471=ORIENTED_EDGE('',*,*,#335,.T.);
#472=ORIENTED_EDGE('',*,*,#349,.T.);
#473=ORIENTED_EDGE('',*,*,#340,.T.);
#474=ORIENTED_EDGE('',*,*,#350,.F.);
#475=ORIENTED_EDGE('',*,*,#351,.T.);
#476=ORIENTED_EDGE('',*,*,#352,.F.);
#477=ORIENTED_EDGE('',*,*,#351,.F.);
#478=ORIENTED_EDGE('',*,*,#353,.F.);
#479=ORIENTED_EDGE('',*,*,#354,.T.);
#480=ORIENTED_EDGE('',*,*,#355,.F.);
#481=ORIENTED_EDGE('',*,*,#354,.F.);
#482=ORIENTED_EDGE('',*,*,#355,.T.);
#483=ORIENTED_EDGE('',*,*,#350,.T.);
#484=ORIENTED_EDGE('',*,*,#353,.T.);
#485=ORIENTED_EDGE('',*,*,#352,.T.);
#486=CYLINDRICAL_SURFACE('',#588,9.);
#487=CYLINDRICAL_SURFACE('',#591,3.2);
#488=CYLINDRICAL_SURFACE('',#594,2.5);
#489=CYLINDRICAL_SURFACE('',#598,4.5);
#490=CYLINDRICAL_SURFACE('',#601,9.);
#491=CYLINDRICAL_SURFACE('',#606,3.2);
#492=CYLINDRICAL_SURFACE('',#609,7.);
#493=CYLINDRICAL_SURFACE('',#615,9.);
#494=CYLINDRICAL_SURFACE('',#618,3.2);
#495=CYLINDRICAL_SURFACE('',#621,2.5);
#496=CYLINDRICAL_SURFACE('',#625,4.5);
#497=CYLINDRICAL_SURFACE('',#628,9.);
#498=CYLINDRICAL_SURFACE('',#633,3.2);
#499=CYLINDRICAL_SURFACE('',#636,7.);
#500=CYLINDRICAL_SURFACE('',#642,9.);
#501=CYLINDRICAL_SURFACE('',#645,3.2);
#502=CYLINDRICAL_SURFACE('',#648,2.5);
#503=CYLINDRICAL_SURFACE('',#652,4.5);
#504=CYLINDRICAL_SURFACE('',#655,9.);
#505=CYLINDRICAL_SURFACE('',#660,3.2);
#506=CYLINDRICAL_SURFACE('',#663,7.);
#507=ADVANCED_FACE('',(#74),#486,.T.);
#508=ADVANCED_FACE('',(#75),#487,.F.);
#509=ADVANCED_FACE('',(#76),#488,.F.);
#510=ADVANCED_FACE('',(#77),#56,.F.);
#511=ADVANCED_FACE('',(#78),#489,.T.);
#512=ADVANCED_FACE('',(#79,#41),#57,.T.);
#513=ADVANCED_FACE('',(#80),#490,.T.);
#514=ADVANCED_FACE('',(#81,#42),#58,.T.);
#515=ADVANCED_FACE('',(#82,#43),#59,.T.);
#516=ADVANCED_FACE('',(#83),#491,.F.);
#517=ADVANCED_FACE('',(#84),#492,.T.);
#518=ADVANCED_FACE('',(#85,#44),#60,.T.);
#519=ADVANCED_FACE('',(#86,#45),#61,.T.);
#520=ADVANCED_FACE('',(#87),#493,.T.);
#521=ADVANCED_FACE('',(#88),#494,.F.);
#522=ADVANCED_FACE('',(#89),#495,.F.);
#523=ADVANCED_FACE('',(#90),#62,.F.);
#524=ADVANCED_FACE('',(#91),#496,.T.);
#525=ADVANCED_FACE('',(#92,#46),#63,.T.);
#526=ADVANCED_FACE('',(#93),#497,.T.);
#527=ADVANCED_FACE('',(#94,#47),#64,.T.);
#528=ADVANCED_FACE('',(#95,#48),#65,.T.);
#529=ADVANCED_FACE('',(#96),#498,.F.);
#530=ADVANCED_FACE('',(#97),#499,.T.);
#531=ADVANCED_FACE('',(#98,#49),#66,.T.);
#532=ADVANCED_FACE('',(#99,#50),#67,.T.);
#533=ADVANCED_FACE('',(#100),#500,.T.);
#534=ADVANCED_FACE('',(#101),#501,.F.);
#535=ADVANCED_FACE('',(#102),#502,.F.);
#536=ADVANCED_FACE('',(#103),#68,.F.);
#537=ADVANCED_FACE('',(#104),#503,.T.);
#538=ADVANCED_FACE('',(#105,#51),#69,.T.);
#539=ADVANCED_FACE('',(#106),#504,.T.);
#540=ADVANCED_FACE('',(#107,#52),#70,.T.);
#541=ADVANCED_FACE('',(#108,#53),#71,.T.);
#542=ADVANCED_FACE('',(#109),#505,.F.);
#543=ADVANCED_FACE('',(#110),#506,.T.);
#544=ADVANCED_FACE('',(#111,#54),#72,.T.);
#545=ADVANCED_FACE('',(#112,#55),#73,.T.);
#546=CLOSED_SHELL('',(#507,#508,#509,#510,#511,#512,#513,#514,#515));
#547=CLOSED_SHELL('',(#516,#517,#518,#519));
#548=CLOSED_SHELL('',(#520,#521,#522,#523,#524,#525,#526,#527,#528));
#549=CLOSED_SHELL('',(#529,#530,#531,#532));
#550=CLOSED_SHELL('',(#533,#534,#535,#536,#537,#538,#539,#540,#541));
#551=CLOSED_SHELL('',(#542,#543,#544,#545));
#552=DERIVED_UNIT_ELEMENT(#558,1.);
#553=DERIVED_UNIT_ELEMENT(#1133,-3.);
#554=DERIVED_UNIT_ELEMENT(#558,1.);
#555=DERIVED_UNIT_ELEMENT(#1133,-3.);
#556=DERIVED_UNIT_ELEMENT(#558,1.);
#557=DERIVED_UNIT_ELEMENT(#1133,-3.);
#558=(
MASS_UNIT()
NAMED_UNIT(*)
SI_UNIT(.KILO.,.GRAM.)
);
#559=DERIVED_UNIT((#552,#553));
#560=DERIVED_UNIT((#554,#555));
#561=DERIVED_UNIT((#556,#557));
#562=MEASURE_REPRESENTATION_ITEM('density measure',
POSITIVE_RATIO_MEASURE(7850.),#559);
#563=MEASURE_REPRESENTATION_ITEM('density measure',
POSITIVE_RATIO_MEASURE(7850.),#560);
#564=MEASURE_REPRESENTATION_ITEM('density measure',
POSITIVE_RATIO_MEASURE(7850.),#561);
#565=PROPERTY_DEFINITION_REPRESENTATION(#580,#571);
#566=PROPERTY_DEFINITION_REPRESENTATION(#581,#572);
#567=PROPERTY_DEFINITION_REPRESENTATION(#582,#573);
#568=PROPERTY_DEFINITION_REPRESENTATION(#583,#574);
#569=PROPERTY_DEFINITION_REPRESENTATION(#584,#575);
#570=PROPERTY_DEFINITION_REPRESENTATION(#585,#576);
#571=REPRESENTATION('material name',(#577),#1128);
#572=REPRESENTATION('density',(#562),#1128);
#573=REPRESENTATION('material name',(#578),#1129);
#574=REPRESENTATION('density',(#563),#1129);
#575=REPRESENTATION('material name',(#579),#1130);
#576=REPRESENTATION('density',(#564),#1130);
#577=DESCRIPTIVE_REPRESENTATION_ITEM('\X2\AC15CCA0\X0\','\X2\AC15CCA0\X0\');
#578=DESCRIPTIVE_REPRESENTATION_ITEM('\X2\AC15CCA0\X0\','\X2\AC15CCA0\X0\');
#579=DESCRIPTIVE_REPRESENTATION_ITEM('\X2\AC15CCA0\X0\','\X2\AC15CCA0\X0\');
#580=PROPERTY_DEFINITION('material property','material name',#1153);
#581=PROPERTY_DEFINITION('material property','density of part',#1153);
#582=PROPERTY_DEFINITION('material property','material name',#1154);
#583=PROPERTY_DEFINITION('material property','density of part',#1154);
#584=PROPERTY_DEFINITION('material property','material name',#1155);
#585=PROPERTY_DEFINITION('material property','density of part',#1155);
#586=AXIS2_PLACEMENT_3D('',#859,#671,#672);
#587=AXIS2_PLACEMENT_3D('',#860,#673,#674);
#588=AXIS2_PLACEMENT_3D('',#861,#675,#676);
#589=AXIS2_PLACEMENT_3D('',#866,#678,#679);
#590=AXIS2_PLACEMENT_3D('',#887,#680,#681);
#591=AXIS2_PLACEMENT_3D('',#888,#682,#683);
#592=AXIS2_PLACEMENT_3D('',#890,#684,#685);
#593=AXIS2_PLACEMENT_3D('',#893,#687,#688);
#594=AXIS2_PLACEMENT_3D('',#894,#689,#690);
#595=AXIS2_PLACEMENT_3D('',#896,#691,#692);
#596=AXIS2_PLACEMENT_3D('',#899,#694,#695);
#597=AXIS2_PLACEMENT_3D('',#900,#696,#697);
#598=AXIS2_PLACEMENT_3D('',#901,#698,#699);
#599=AXIS2_PLACEMENT_3D('',#903,#700,#701);
#600=AXIS2_PLACEMENT_3D('',#923,#703,#704);
#601=AXIS2_PLACEMENT_3D('',#924,#705,#706);
#602=AXIS2_PLACEMENT_3D('',#925,#707,#708);
#603=AXIS2_PLACEMENT_3D('',#926,#709,#710);
#604=AXIS2_PLACEMENT_3D('',#927,#711,#712);
#605=AXIS2_PLACEMENT_3D('',#928,#713,#714);
#606=AXIS2_PLACEMENT_3D('',#929,#715,#716);
#607=AXIS2_PLACEMENT_3D('',#931,#717,#718);
#608=AXIS2_PLACEMENT_3D('',#934,#720,#721);
#609=AXIS2_PLACEMENT_3D('',#935,#722,#723);
#610=AXIS2_PLACEMENT_3D('',#937,#724,#725);
#611=AXIS2_PLACEMENT_3D('',#940,#727,#728);
#612=AXIS2_PLACEMENT_3D('',#941,#729,#730);
#613=AXIS2_PLACEMENT_3D('',#942,#731,#732);
#614=AXIS2_PLACEMENT_3D('',#943,#733,#734);
#615=AXIS2_PLACEMENT_3D('',#944,#735,#736);
#616=AXIS2_PLACEMENT_3D('',#949,#738,#739);
#617=AXIS2_PLACEMENT_3D('',#975,#740,#741);
#618=AXIS2_PLACEMENT_3D('',#976,#742,#743);
#619=AXIS2_PLACEMENT_3D('',#978,#744,#745);
#620=AXIS2_PLACEMENT_3D('',#981,#747,#748);
#621=AXIS2_PLACEMENT_3D('',#982,#749,#750);
#622=AXIS2_PLACEMENT_3D('',#984,#751,#752);
#623=AXIS2_PLACEMENT_3D('',#987,#754,#755);
#624=AXIS2_PLACEMENT_3D('',#988,#756,#757);
#625=AXIS2_PLACEMENT_3D('',#989,#758,#759);
#626=AXIS2_PLACEMENT_3D('',#991,#760,#761);
#627=AXIS2_PLACEMENT_3D('',#1011,#763,#764);
#628=AXIS2_PLACEMENT_3D('',#1012,#765,#766);
#629=AXIS2_PLACEMENT_3D('',#1013,#767,#768);
#630=AXIS2_PLACEMENT_3D('',#1014,#769,#770);
#631=AXIS2_PLACEMENT_3D('',#1015,#771,#772);
#632=AXIS2_PLACEMENT_3D('',#1016,#773,#774);
#633=AXIS2_PLACEMENT_3D('',#1017,#775,#776);
#634=AXIS2_PLACEMENT_3D('',#1019,#777,#778);
#635=AXIS2_PLACEMENT_3D('',#1022,#780,#781);
#636=AXIS2_PLACEMENT_3D('',#1023,#782,#783);
#637=AXIS2_PLACEMENT_3D('',#1025,#784,#785);
#638=AXIS2_PLACEMENT_3D('',#1028,#787,#788);
#639=AXIS2_PLACEMENT_3D('',#1029,#789,#790);
#640=AXIS2_PLACEMENT_3D('',#1030,#791,#792);
#641=AXIS2_PLACEMENT_3D('',#1031,#793,#794);
#642=AXIS2_PLACEMENT_3D('',#1032,#795,#796);
#643=AXIS2_PLACEMENT_3D('',#1037,#798,#799);
#644=AXIS2_PLACEMENT_3D('',#1058,#800,#801);
#645=AXIS2_PLACEMENT_3D('',#1059,#802,#803);
#646=AXIS2_PLACEMENT_3D('',#1061,#804,#805);
#647=AXIS2_PLACEMENT_3D('',#1064,#807,#808);
#648=AXIS2_PLACEMENT_3D('',#1065,#809,#810);
#649=AXIS2_PLACEMENT_3D('',#1067,#811,#812);
#650=AXIS2_PLACEMENT_3D('',#1070,#814,#815);
#651=AXIS2_PLACEMENT_3D('',#1071,#816,#817);
#652=AXIS2_PLACEMENT_3D('',#1072,#818,#819);
#653=AXIS2_PLACEMENT_3D('',#1074,#820,#821);
#654=AXIS2_PLACEMENT_3D('',#1099,#823,#824);
#655=AXIS2_PLACEMENT_3D('',#1100,#825,#826);
#656=AXIS2_PLACEMENT_3D('',#1101,#827,#828);
#657=AXIS2_PLACEMENT_3D('',#1102,#829,#830);
#658=AXIS2_PLACEMENT_3D('',#1103,#831,#832);
#659=AXIS2_PLACEMENT_3D('',#1104,#833,#834);
#660=AXIS2_PLACEMENT_3D('',#1105,#835,#836);
#661=AXIS2_PLACEMENT_3D('',#1107,#837,#838);
#662=AXIS2_PLACEMENT_3D('',#1110,#840,#841);
#663=AXIS2_PLACEMENT_3D('',#1111,#842,#843);
#664=AXIS2_PLACEMENT_3D('',#1113,#844,#845);
#665=AXIS2_PLACEMENT_3D('',#1116,#847,#848);
#666=AXIS2_PLACEMENT_3D('',#1117,#849,#850);
#667=AXIS2_PLACEMENT_3D('',#1118,#851,#852);
#668=AXIS2_PLACEMENT_3D('',#1119,#853,#854);
#669=AXIS2_PLACEMENT_3D('',#1120,#855,#856);
#670=AXIS2_PLACEMENT_3D('',#1121,#857,#858);
#671=DIRECTION('axis',(0.,0.,1.));
#672=DIRECTION('refdir',(1.,0.,0.));
#673=DIRECTION('axis',(0.,0.,1.));
#674=DIRECTION('refdir',(1.,0.,0.));
#675=DIRECTION('center_axis',(-1.,0.,0.));
#676=DIRECTION('ref_axis',(0.,0.,1.));
#677=DIRECTION('',(1.,0.,0.));
#678=DIRECTION('center_axis',(-1.,0.,0.));
#679=DIRECTION('ref_axis',(0.,0.,1.));
#680=DIRECTION('center_axis',(1.,0.,0.));
#681=DIRECTION('ref_axis',(0.,0.,1.));
#682=DIRECTION('center_axis',(-1.,0.,0.));
#683=DIRECTION('ref_axis',(0.,0.,1.));
#684=DIRECTION('center_axis',(-1.,0.,0.));
#685=DIRECTION('ref_axis',(0.,0.,1.));
#686=DIRECTION('',(-1.,0.,0.));
#687=DIRECTION('center_axis',(1.,0.,0.));
#688=DIRECTION('ref_axis',(0.,0.,1.));
#689=DIRECTION('center_axis',(0.,0.,1.));
#690=DIRECTION('ref_axis',(1.,0.,0.));
#691=DIRECTION('center_axis',(0.,0.,-1.));
#692=DIRECTION('ref_axis',(1.,0.,0.));
#693=DIRECTION('',(0.,0.,1.));
#694=DIRECTION('center_axis',(0.,0.,-1.));
#695=DIRECTION('ref_axis',(1.,0.,0.));
#696=DIRECTION('center_axis',(0.,0.,-1.));
#697=DIRECTION('ref_axis',(-1.,0.,0.));
#698=DIRECTION('center_axis',(0.,0.,1.));
#699=DIRECTION('ref_axis',(1.,0.,0.));
#700=DIRECTION('center_axis',(0.,0.,1.));
#701=DIRECTION('ref_axis',(1.,0.,0.));
#702=DIRECTION('',(0.,0.,-1.));
#703=DIRECTION('center_axis',(0.,0.,1.));
#704=DIRECTION('ref_axis',(1.,0.,0.));
#705=DIRECTION('center_axis',(-1.,0.,0.));
#706=DIRECTION('ref_axis',(0.,0.,1.));
#707=DIRECTION('center_axis',(1.,0.,0.));
#708=DIRECTION('ref_axis',(0.,0.,1.));
#709=DIRECTION('center_axis',(-1.,0.,0.));
#710=DIRECTION('ref_axis',(0.,0.,1.));
#711=DIRECTION('center_axis',(1.,0.,0.));
#712=DIRECTION('ref_axis',(0.,0.,-1.));
#713=DIRECTION('center_axis',(-1.,0.,0.));
#714=DIRECTION('ref_axis',(0.,0.,1.));
#715=DIRECTION('center_axis',(0.,0.,1.));
#716=DIRECTION('ref_axis',(1.,0.,0.));
#717=DIRECTION('center_axis',(0.,0.,1.));
#718=DIRECTION('ref_axis',(1.,0.,0.));
#719=DIRECTION('',(0.,0.,1.));
#720=DIRECTION('center_axis',(0.,0.,-1.));
#721=DIRECTION('ref_axis',(1.,0.,0.));
#722=DIRECTION('center_axis',(0.,0.,1.));
#723=DIRECTION('ref_axis',(1.,0.,0.));
#724=DIRECTION('center_axis',(0.,0.,1.));
#725=DIRECTION('ref_axis',(1.,0.,0.));
#726=DIRECTION('',(0.,0.,-1.));
#727=DIRECTION('center_axis',(0.,0.,-1.));
#728=DIRECTION('ref_axis',(1.,0.,0.));
#729=DIRECTION('center_axis',(0.,0.,-1.));
#730=DIRECTION('ref_axis',(-1.,0.,0.));
#731=DIRECTION('center_axis',(0.,0.,1.));
#732=DIRECTION('ref_axis',(1.,0.,0.));
#733=DIRECTION('axis',(0.,0.,1.));
#734=DIRECTION('refdir',(1.,0.,0.));
#735=DIRECTION('center_axis',(0.499999999999999,-0.866025403784439,0.));
#736=DIRECTION('ref_axis',(0.866025403784439,0.499999999999999,0.));
#737=DIRECTION('',(-0.499999999999999,0.866025403784439,0.));
#738=DIRECTION('center_axis',(0.499999999999999,-0.866025403784439,0.));
#739=DIRECTION('ref_axis',(0.866025403784439,0.499999999999999,0.));
#740=DIRECTION('center_axis',(-0.499999999999999,0.866025403784439,0.));
#741=DIRECTION('ref_axis',(0.866025403784439,0.499999999999999,0.));
#742=DIRECTION('center_axis',(0.500000000000001,-0.866025403784438,0.));
#743=DIRECTION('ref_axis',(0.866025403784438,0.500000000000001,0.));
#744=DIRECTION('center_axis',(0.499999999999999,-0.866025403784439,0.));
#745=DIRECTION('ref_axis',(0.866025403784438,0.500000000000001,0.));
#746=DIRECTION('',(0.500000000000001,-0.866025403784438,0.));
#747=DIRECTION('center_axis',(-0.499999999999999,0.866025403784439,0.));
#748=DIRECTION('ref_axis',(0.866025403784438,0.500000000000001,0.));
#749=DIRECTION('center_axis',(0.,0.,1.));
#750=DIRECTION('ref_axis',(1.,0.,0.));
#751=DIRECTION('center_axis',(0.,0.,-1.));
#752=DIRECTION('ref_axis',(1.,0.,0.));
#753=DIRECTION('',(0.,0.,1.));
#754=DIRECTION('center_axis',(0.,0.,-1.));
#755=DIRECTION('ref_axis',(1.,0.,0.));
#756=DIRECTION('center_axis',(0.,0.,-1.));
#757=DIRECTION('ref_axis',(-1.,0.,0.));
#758=DIRECTION('center_axis',(0.,0.,1.));
#759=DIRECTION('ref_axis',(1.,0.,0.));
#760=DIRECTION('center_axis',(0.,0.,1.));
#761=DIRECTION('ref_axis',(1.,0.,0.));
#762=DIRECTION('',(0.,0.,-1.));
#763=DIRECTION('center_axis',(0.,0.,1.));
#764=DIRECTION('ref_axis',(1.,0.,0.));
#765=DIRECTION('center_axis',(0.499999999999999,-0.866025403784439,0.));
#766=DIRECTION('ref_axis',(0.866025403784439,0.499999999999999,0.));
#767=DIRECTION('center_axis',(-0.499999999999999,0.866025403784439,0.));
#768=DIRECTION('ref_axis',(0.866025403784439,0.499999999999999,0.));
#769=DIRECTION('center_axis',(0.499999999999999,-0.866025403784439,0.));
#770=DIRECTION('ref_axis',(0.866025403784439,0.499999999999999,0.));
#771=DIRECTION('center_axis',(-0.499999999999999,0.866025403784439,0.));
#772=DIRECTION('ref_axis',(-0.866025403784439,-0.499999999999999,0.));
#773=DIRECTION('center_axis',(0.499999999999999,-0.866025403784439,0.));
#774=DIRECTION('ref_axis',(0.866025403784439,0.499999999999999,0.));
#775=DIRECTION('center_axis',(0.,0.,1.));
#776=DIRECTION('ref_axis',(1.,0.,0.));
#777=DIRECTION('center_axis',(0.,0.,1.));
#778=DIRECTION('ref_axis',(1.,0.,0.));
#779=DIRECTION('',(0.,0.,1.));
#780=DIRECTION('center_axis',(0.,0.,-1.));
#781=DIRECTION('ref_axis',(1.,0.,0.));
#782=DIRECTION('center_axis',(0.,0.,1.));
#783=DIRECTION('ref_axis',(1.,0.,0.));
#784=DIRECTION('center_axis',(0.,0.,1.));
#785=DIRECTION('ref_axis',(1.,0.,0.));
#786=DIRECTION('',(0.,0.,-1.));
#787=DIRECTION('center_axis',(0.,0.,-1.));
#788=DIRECTION('ref_axis',(1.,0.,0.));
#789=DIRECTION('center_axis',(0.,0.,-1.));
#790=DIRECTION('ref_axis',(-1.,0.,0.));
#791=DIRECTION('center_axis',(0.,0.,1.));
#792=DIRECTION('ref_axis',(1.,0.,0.));
#793=DIRECTION('axis',(0.,0.,1.));
#794=DIRECTION('refdir',(1.,0.,0.));
#795=DIRECTION('center_axis',(0.499999999999999,0.866025403784439,0.));
#796=DIRECTION('ref_axis',(0.866025403784439,-0.499999999999999,0.));
#797=DIRECTION('',(-0.499999999999999,-0.866025403784439,0.));
#798=DIRECTION('center_axis',(0.499999999999999,0.866025403784439,0.));
#799=DIRECTION('ref_axis',(0.866025403784439,-0.499999999999999,0.));
#800=DIRECTION('center_axis',(-0.499999999999999,-0.866025403784439,0.));
#801=DIRECTION('ref_axis',(0.866025403784439,-0.499999999999999,0.));
#802=DIRECTION('center_axis',(0.500000000000001,0.866025403784438,0.));
#803=DIRECTION('ref_axis',(0.866025403784438,-0.500000000000001,0.));
#804=DIRECTION('center_axis',(0.499999999999999,0.866025403784439,0.));
#805=DIRECTION('ref_axis',(0.866025403784438,-0.500000000000001,0.));
#806=DIRECTION('',(0.500000000000001,0.866025403784438,0.));
#807=DIRECTION('center_axis',(-0.499999999999999,-0.866025403784439,0.));
#808=DIRECTION('ref_axis',(0.866025403784438,-0.500000000000001,0.));
#809=DIRECTION('center_axis',(0.,0.,1.));
#810=DIRECTION('ref_axis',(1.,0.,0.));
#811=DIRECTION('center_axis',(0.,0.,-1.));
#812=DIRECTION('ref_axis',(1.,0.,0.));
#813=DIRECTION('',(0.,0.,1.));
#814=DIRECTION('center_axis',(0.,0.,-1.));
#815=DIRECTION('ref_axis',(1.,0.,0.));
#816=DIRECTION('center_axis',(0.,0.,-1.));
#817=DIRECTION('ref_axis',(-1.,0.,0.));
#818=DIRECTION('center_axis',(0.,0.,1.));
#819=DIRECTION('ref_axis',(1.,0.,0.));
#820=DIRECTION('center_axis',(0.,0.,1.));
#821=DIRECTION('ref_axis',(1.,0.,0.));
#822=DIRECTION('',(0.,0.,-1.));
#823=DIRECTION('center_axis',(0.,0.,1.));
#824=DIRECTION('ref_axis',(1.,0.,0.));
#825=DIRECTION('center_axis',(0.499999999999999,0.866025403784439,0.));
#826=DIRECTION('ref_axis',(0.866025403784439,-0.499999999999999,0.));
#827=DIRECTION('center_axis',(-0.499999999999999,-0.866025403784439,0.));
#828=DIRECTION('ref_axis',(0.866025403784439,-0.499999999999999,0.));
#829=DIRECTION('center_axis',(0.499999999999999,0.866025403784439,0.));
#830=DIRECTION('ref_axis',(0.866025403784439,-0.499999999999999,0.));
#831=DIRECTION('center_axis',(-0.499999999999999,-0.866025403784439,0.));
#832=DIRECTION('ref_axis',(-0.866025403784439,0.499999999999999,0.));
#833=DIRECTION('center_axis',(0.499999999999999,0.866025403784439,0.));
#834=DIRECTION('ref_axis',(0.866025403784439,-0.499999999999999,0.));
#835=DIRECTION('center_axis',(0.,0.,1.));
#836=DIRECTION('ref_axis',(1.,0.,0.));
#837=DIRECTION('center_axis',(0.,0.,1.));
#838=DIRECTION('ref_axis',(1.,0.,0.));
#839=DIRECTION('',(0.,0.,1.));
#840=DIRECTION('center_axis',(0.,0.,-1.));
#841=DIRECTION('ref_axis',(1.,0.,0.));
#842=DIRECTION('center_axis',(0.,0.,1.));
#843=DIRECTION('ref_axis',(1.,0.,0.));
#844=DIRECTION('center_axis',(0.,0.,1.));
#845=DIRECTION('ref_axis',(1.,0.,0.));
#846=DIRECTION('',(0.,0.,-1.));
#847=DIRECTION('center_axis',(0.,0.,-1.));
#848=DIRECTION('ref_axis',(1.,0.,0.));
#849=DIRECTION('center_axis',(0.,0.,-1.));
#850=DIRECTION('ref_axis',(-1.,0.,0.));
#851=DIRECTION('center_axis',(0.,0.,1.));
#852=DIRECTION('ref_axis',(1.,0.,0.));
#853=DIRECTION('',(0.,0.,1.));
#854=DIRECTION('',(1.,0.,0.));
#855=DIRECTION('',(0.,0.,1.));
#856=DIRECTION('',(1.,0.,0.));
#857=DIRECTION('',(0.,0.,1.));
#858=DIRECTION('',(1.,0.,0.));
#859=CARTESIAN_POINT('',(0.,0.,0.));
#860=CARTESIAN_POINT('',(0.,0.,0.));
#861=CARTESIAN_POINT('Origin',(1.49880108324396E-14,250.,246.));
#862=CARTESIAN_POINT('',(-4.49999999999999,250.,237.));
#863=CARTESIAN_POINT('',(4.50000000000002,250.,237.));
#864=CARTESIAN_POINT('',(1.49880108324396E-14,250.,237.));
#865=CARTESIAN_POINT('',(-4.49999999999998,250.,255.));
#866=CARTESIAN_POINT('Origin',(-4.49999999999998,250.,246.));
#867=CARTESIAN_POINT('',(4.50000000000002,250.,255.));
#868=CARTESIAN_POINT('Ctrl Pts',(-4.49999999999998,250.,255.));
#869=CARTESIAN_POINT('Ctrl Pts',(-4.49999999999998,250.575798854989,255.));
#870=CARTESIAN_POINT('Ctrl Pts',(-4.38283757641106,251.1832528397,254.939663857578));
#871=CARTESIAN_POINT('Ctrl Pts',(-3.92024285966058,252.289333411515,254.722191784678));
#872=CARTESIAN_POINT('Ctrl Pts',(-3.57532601655073,252.788635014128,254.567399745317));
#873=CARTESIAN_POINT('Ctrl Pts',(-2.78755980408926,253.57640122659,254.26965210397));
#874=CARTESIAN_POINT('Ctrl Pts',(-2.28862061778517,253.920529193813,254.105382056073));
#875=CARTESIAN_POINT('Ctrl Pts',(-1.18412370568476,254.382485130145,253.865214461788));
#876=CARTESIAN_POINT('Ctrl Pts',(-0.577372801322194,254.5,253.79422863406));
#877=CARTESIAN_POINT('Ctrl Pts',(1.53080849893419E-14,254.5,253.79422863406));
#878=CARTESIAN_POINT('Ctrl Pts',(0.577372801322224,254.5,253.79422863406));
#879=CARTESIAN_POINT('Ctrl Pts',(1.18412370568479,254.382485130145,253.865214461788));
#880=CARTESIAN_POINT('Ctrl Pts',(2.28862061778521,253.920529193813,254.105382056073));
#881=CARTESIAN_POINT('Ctrl Pts',(2.78755980408929,253.57640122659,254.26965210397));
#882=CARTESIAN_POINT('Ctrl Pts',(3.57532601655076,252.788635014128,254.567399745317));
#883=CARTESIAN_POINT('Ctrl Pts',(3.92024285966064,252.289333411515,254.722191784678));
#884=CARTESIAN_POINT('Ctrl Pts',(4.3828375764111,251.1832528397,254.939663857578));
#885=CARTESIAN_POINT('Ctrl Pts',(4.50000000000002,250.575798854989,255.));
#886=CARTESIAN_POINT('Ctrl Pts',(4.50000000000002,250.,255.));
#887=CARTESIAN_POINT('Origin',(4.50000000000002,250.,246.));
#888=CARTESIAN_POINT('Origin',(1.49880108324396E-14,250.,246.));
#889=CARTESIAN_POINT('',(4.50000000000002,250.,242.8));
#890=CARTESIAN_POINT('Origin',(4.50000000000002,250.,246.));
#891=CARTESIAN_POINT('',(-4.49999999999998,250.,242.8));
#892=CARTESIAN_POINT('',(1.49880108324396E-14,250.,242.8));
#893=CARTESIAN_POINT('Origin',(-4.49999999999998,250.,246.));
#894=CARTESIAN_POINT('Origin',(1.53080849893419E-14,250.,261.));
#895=CARTESIAN_POINT('',(-2.49999999999998,250.,256.));
#896=CARTESIAN_POINT('Origin',(1.53080849893419E-14,250.,256.));
#897=CARTESIAN_POINT('',(-2.49999999999998,250.,265.));
#898=CARTESIAN_POINT('',(-2.49999999999998,250.,261.));
#899=CARTESIAN_POINT('Origin',(1.53080849893419E-14,250.,265.));
#900=CARTESIAN_POINT('Origin',(1.53080849893419E-14,250.,256.));
#901=CARTESIAN_POINT('Origin',(1.53080849893419E-14,250.,254.5));
#902=CARTESIAN_POINT('',(-4.49999999999998,250.,265.));
#903=CARTESIAN_POINT('Origin',(1.53080849893419E-14,250.,265.));
#904=CARTESIAN_POINT('',(-4.49999999999998,250.,254.5));
#905=CARTESIAN_POINT('Ctrl Pts',(4.50000000000002,250.,255.));
#906=CARTESIAN_POINT('Ctrl Pts',(4.50000000000002,249.424201145011,255.));
#907=CARTESIAN_POINT('Ctrl Pts',(4.38283757641109,248.8167471603,254.939663857578));
#908=CARTESIAN_POINT('Ctrl Pts',(3.92024285966061,247.710666588485,254.722191784678));
#909=CARTESIAN_POINT('Ctrl Pts',(3.57532601655076,247.211364985872,254.567399745317));
#910=CARTESIAN_POINT('Ctrl Pts',(2.78755980408929,246.42359877341,254.26965210397));
#911=CARTESIAN_POINT('Ctrl Pts',(2.28862061778521,246.079470806187,254.105382056073));
#912=CARTESIAN_POINT('Ctrl Pts',(1.18412370568479,245.617514869855,253.865214461788));
#913=CARTESIAN_POINT('Ctrl Pts',(0.577372801322224,245.5,253.79422863406));
#914=CARTESIAN_POINT('Ctrl Pts',(-0.577372801322194,245.5,253.79422863406));
#915=CARTESIAN_POINT('Ctrl Pts',(-1.18412370568476,245.617514869855,253.865214461788));
#916=CARTESIAN_POINT('Ctrl Pts',(-2.28862061778518,246.079470806187,254.105382056073));
#917=CARTESIAN_POINT('Ctrl Pts',(-2.78755980408926,246.42359877341,254.26965210397));
#918=CARTESIAN_POINT('Ctrl Pts',(-3.57532601655073,247.211364985872,254.567399745317));
#919=CARTESIAN_POINT('Ctrl Pts',(-3.92024285966058,247.710666588485,254.722191784678));
#920=CARTESIAN_POINT('Ctrl Pts',(-4.38283757641106,248.8167471603,254.939663857578));
#921=CARTESIAN_POINT('Ctrl Pts',(-4.49999999999999,249.424201145011,255.));
#922=CARTESIAN_POINT('Ctrl Pts',(-4.49999999999999,250.,255.));
#923=CARTESIAN_POINT('Origin',(1.53080849893419E-14,250.,265.));
#924=CARTESIAN_POINT('Origin',(1.49880108324396E-14,250.,246.));
#925=CARTESIAN_POINT('Origin',(4.50000000000002,250.,246.));
#926=CARTESIAN_POINT('Origin',(-4.49999999999998,250.,246.));
#927=CARTESIAN_POINT('Origin',(4.50000000000002,250.,246.));
#928=CARTESIAN_POINT('Origin',(-4.49999999999998,250.,246.));
#929=CARTESIAN_POINT('Origin',(1.53080849893419E-14,250.,267.5));
#930=CARTESIAN_POINT('',(-3.19999999999998,250.,265.));
#931=CARTESIAN_POINT('Origin',(1.53080849893419E-14,250.,265.));
#932=CARTESIAN_POINT('',(-3.19999999999998,250.,270.));
#933=CARTESIAN_POINT('',(-3.19999999999998,250.,267.5));
#934=CARTESIAN_POINT('Origin',(1.53080849893419E-14,250.,270.));
#935=CARTESIAN_POINT('Origin',(1.53080849893419E-14,250.,267.5));
#936=CARTESIAN_POINT('',(-6.99999999999998,250.,270.));
#937=CARTESIAN_POINT('Origin',(1.53080849893419E-14,250.,270.));
#938=CARTESIAN_POINT('',(-6.99999999999998,250.,265.));
#939=CARTESIAN_POINT('',(-6.99999999999998,250.,267.5));
#940=CARTESIAN_POINT('Origin',(1.53080849893419E-14,250.,265.));
#941=CARTESIAN_POINT('Origin',(1.53080849893419E-14,250.,265.));
#942=CARTESIAN_POINT('Origin',(1.53080849893419E-14,250.,270.));
#943=CARTESIAN_POINT('',(0.,0.,0.));
#944=CARTESIAN_POINT('Origin',(-216.50635094611,-125.,246.));
#945=CARTESIAN_POINT('',(-222.05057958017,-133.39711431703,246.));
#946=CARTESIAN_POINT('',(-226.55057958017,-125.60288568297,246.));
#947=CARTESIAN_POINT('',(-224.30057958017,-129.5,246.));
#948=CARTESIAN_POINT('',(-214.25635094611,-128.89711431703,255.));
#949=CARTESIAN_POINT('Origin',(-214.25635094611,-128.89711431703,246.));
#950=CARTESIAN_POINT('',(-221.00635094611,-125.,254.112490369794));
#951=CARTESIAN_POINT('Ctrl Pts',(-214.25635094611,-128.89711431703,255.));
#952=CARTESIAN_POINT('Ctrl Pts',(-214.755007382,-129.185013744525,255.));
#953=CARTESIAN_POINT('Ctrl Pts',(-215.339659176184,-129.387275101683,254.939663857578));
#954=CARTESIAN_POINT('Ctrl Pts',(-216.528850408384,-129.539696611228,254.722191784678));
#955=CARTESIAN_POINT('Ctrl Pts',(-217.133716701952,-129.490640664208,254.567399745317));
#956=CARTESIAN_POINT('Ctrl Pts',(-218.209825360417,-129.202298218205,254.26965210397));
#957=CARTESIAN_POINT('Ctrl Pts',(-218.757318515338,-128.942268191533,254.105382056073));
#958=CARTESIAN_POINT('Ctrl Pts',(-219.709632547681,-128.216723775419,253.865214461788));
#959=CARTESIAN_POINT('Ctrl Pts',(-220.114778862479,-127.750019513399,253.79422863406));
#960=CARTESIAN_POINT('Ctrl Pts',(-220.40346526314,-127.25,253.79422863406));
#961=CARTESIAN_POINT('Ctrl Pts',(-220.692151663801,-126.749980486601,253.79422863406));
#962=CARTESIAN_POINT('Ctrl Pts',(-220.893756253366,-126.165761354726,253.865214461788));
#963=CARTESIAN_POINT('Ctrl Pts',(-220.994252132812,-125.3815805556,254.023812154515));
#964=CARTESIAN_POINT('Ctrl Pts',(-221.00635094611,-125.190070113543,254.066837005231));
#965=CARTESIAN_POINT('Ctrl Pts',(-221.00635094611,-125.000000000001,254.112490369794));
#966=CARTESIAN_POINT('',(-218.75635094611,-121.10288568297,255.));
#967=CARTESIAN_POINT('Ctrl Pts',(-221.00635094611,-125.000000000001,254.112490369794));
#968=CARTESIAN_POINT('Ctrl Pts',(-221.00635094611,-124.597443981831,254.209181197783));
#969=CARTESIAN_POINT('Ctrl Pts',(-220.951082713937,-124.201299910342,254.317464854527));
#970=CARTESIAN_POINT('Ctrl Pts',(-220.709042718503,-123.29799434992,254.567399745317));
#971=CARTESIAN_POINT('Ctrl Pts',(-220.449093268044,-122.749636800287,254.722191784678));
#972=CARTESIAN_POINT('Ctrl Pts',(-219.722496752595,-121.795977738017,254.939663857578));
#973=CARTESIAN_POINT('Ctrl Pts',(-219.255007382,-121.390785110465,255.));
#974=CARTESIAN_POINT('Ctrl Pts',(-218.75635094611,-121.10288568297,255.));
#975=CARTESIAN_POINT('Origin',(-218.75635094611,-121.10288568297,246.));
#976=CARTESIAN_POINT('Origin',(-216.50635094611,-125.,246.));
#977=CARTESIAN_POINT('',(-221.52763223822,-122.70288568297,246.));
#978=CARTESIAN_POINT('Origin',(-218.75635094611,-121.10288568297,246.));
#979=CARTESIAN_POINT('',(-217.02763223822,-130.49711431703,246.));
#980=CARTESIAN_POINT('',(-219.27763223822,-126.6,246.));
#981=CARTESIAN_POINT('Origin',(-214.25635094611,-128.89711431703,246.));
#982=CARTESIAN_POINT('Origin',(-216.50635094611,-125.,261.));
#983=CARTESIAN_POINT('',(-219.00635094611,-125.,256.));
#984=CARTESIAN_POINT('Origin',(-216.50635094611,-125.,256.));
#985=CARTESIAN_POINT('',(-219.00635094611,-125.,265.));
#986=CARTESIAN_POINT('',(-219.00635094611,-125.,261.));
#987=CARTESIAN_POINT('Origin',(-216.50635094611,-125.,265.));
#988=CARTESIAN_POINT('Origin',(-216.50635094611,-125.,256.));
#989=CARTESIAN_POINT('Origin',(-216.50635094611,-125.,254.5));
#990=CARTESIAN_POINT('',(-221.00635094611,-125.,265.));
#991=CARTESIAN_POINT('Origin',(-216.50635094611,-125.,265.));
#992=CARTESIAN_POINT('',(-221.00635094611,-125.,254.5));
#993=CARTESIAN_POINT('Ctrl Pts',(-218.75635094611,-121.10288568297,255.));
#994=CARTESIAN_POINT('Ctrl Pts',(-218.257694510219,-120.814986255476,255.));
#995=CARTESIAN_POINT('Ctrl Pts',(-217.673042716035,-120.612724898317,254.939663857578));
#996=CARTESIAN_POINT('Ctrl Pts',(-216.483851483836,-120.460303388772,254.722191784678));
#997=CARTESIAN_POINT('Ctrl Pts',(-215.878985190267,-120.509359335792,254.567399745317));
#998=CARTESIAN_POINT('Ctrl Pts',(-214.802876531802,-120.797701781796,254.26965210397));
#999=CARTESIAN_POINT('Ctrl Pts',(-214.255383376882,-121.057731808467,254.105382056073));
#1000=CARTESIAN_POINT('Ctrl Pts',(-213.303069344539,-121.783276224581,253.865214461788));
#1001=CARTESIAN_POINT('Ctrl Pts',(-212.897923029741,-122.249980486601,253.79422863406));
#1002=CARTESIAN_POINT('Ctrl Pts',(-212.320550228419,-123.250019513399,253.79422863406));
#1003=CARTESIAN_POINT('Ctrl Pts',(-212.118945638854,-123.834238645274,253.865214461788));
#1004=CARTESIAN_POINT('Ctrl Pts',(-211.966762759096,-125.02173899772,254.105382056073));
#1005=CARTESIAN_POINT('Ctrl Pts',(-212.015316727713,-125.625896991615,254.26965210397));
#1006=CARTESIAN_POINT('Ctrl Pts',(-212.303659173716,-126.70200565008,254.567399745317));
#1007=CARTESIAN_POINT('Ctrl Pts',(-212.563608624175,-127.250363199713,254.722191784678));
#1008=CARTESIAN_POINT('Ctrl Pts',(-213.290205139624,-128.204022261983,254.939663857578));
#1009=CARTESIAN_POINT('Ctrl Pts',(-213.757694510219,-128.609214889535,255.));
#1010=CARTESIAN_POINT('Ctrl Pts',(-214.25635094611,-128.89711431703,255.));
#1011=CARTESIAN_POINT('Origin',(-216.50635094611,-125.,265.));
#1012=CARTESIAN_POINT('Origin',(-216.50635094611,-125.,246.));
#1013=CARTESIAN_POINT('Origin',(-218.75635094611,-121.10288568297,246.));
#1014=CARTESIAN_POINT('Origin',(-214.25635094611,-128.89711431703,246.));
#1015=CARTESIAN_POINT('Origin',(-218.75635094611,-121.10288568297,246.));
#1016=CARTESIAN_POINT('Origin',(-214.25635094611,-128.89711431703,246.));
#1017=CARTESIAN_POINT('Origin',(-216.50635094611,-125.,267.5));
#1018=CARTESIAN_POINT('',(-219.70635094611,-125.,265.));
#1019=CARTESIAN_POINT('Origin',(-216.50635094611,-125.,265.));
#1020=CARTESIAN_POINT('',(-219.70635094611,-125.,270.));
#1021=CARTESIAN_POINT('',(-219.70635094611,-125.,267.5));
#1022=CARTESIAN_POINT('Origin',(-216.50635094611,-125.,270.));
#1023=CARTESIAN_POINT('Origin',(-216.50635094611,-125.,267.5));
#1024=CARTESIAN_POINT('',(-223.50635094611,-125.,270.));
#1025=CARTESIAN_POINT('Origin',(-216.50635094611,-125.,270.));
#1026=CARTESIAN_POINT('',(-223.50635094611,-125.,265.));
#1027=CARTESIAN_POINT('',(-223.50635094611,-125.,267.5));
#1028=CARTESIAN_POINT('Origin',(-216.50635094611,-125.,265.));
#1029=CARTESIAN_POINT('Origin',(-216.50635094611,-125.,265.));
#1030=CARTESIAN_POINT('Origin',(-216.50635094611,-125.,270.));
#1031=CARTESIAN_POINT('',(0.,0.,0.));
#1032=CARTESIAN_POINT('Origin',(216.50635094611,-125.,246.));
#1033=CARTESIAN_POINT('',(210.96212231205,-116.60288568297,246.));
#1034=CARTESIAN_POINT('',(206.46212231205,-124.39711431703,246.));
#1035=CARTESIAN_POINT('',(208.71212231205,-120.5,246.));
#1036=CARTESIAN_POINT('',(218.75635094611,-121.10288568297,255.));
#1037=CARTESIAN_POINT('Origin',(218.75635094611,-121.10288568297,246.));
#1038=CARTESIAN_POINT('',(214.25635094611,-128.89711431703,255.));
#1039=CARTESIAN_POINT('Ctrl Pts',(218.75635094611,-121.10288568297,255.));
#1040=CARTESIAN_POINT('Ctrl Pts',(219.255007382,-121.390785110465,255.));
#1041=CARTESIAN_POINT('Ctrl Pts',(219.722496752595,-121.795977738017,254.939663857578));
#1042=CARTESIAN_POINT('Ctrl Pts',(220.449093268044,-122.749636800287,254.722191784678));
#1043=CARTESIAN_POINT('Ctrl Pts',(220.709042718503,-123.29799434992,254.567399745317));
#1044=CARTESIAN_POINT('Ctrl Pts',(220.997385164507,-124.374103008385,254.26965210397));
#1045=CARTESIAN_POINT('Ctrl Pts',(221.045939133123,-124.97826100228,254.105382056073));
#1046=CARTESIAN_POINT('Ctrl Pts',(220.893756253365,-126.165761354726,253.865214461788));
#1047=CARTESIAN_POINT('Ctrl Pts',(220.692151663801,-126.749980486601,253.79422863406));
#1048=CARTESIAN_POINT('Ctrl Pts',(220.40346526314,-127.25,253.79422863406));
#1049=CARTESIAN_POINT('Ctrl Pts',(220.114778862478,-127.750019513399,253.79422863406));
#1050=CARTESIAN_POINT('Ctrl Pts',(219.709632547681,-128.216723775419,253.865214461788));
#1051=CARTESIAN_POINT('Ctrl Pts',(218.757318515338,-128.942268191533,254.105382056073));
#1052=CARTESIAN_POINT('Ctrl Pts',(218.209825360417,-129.202298218205,254.26965210397));
#1053=CARTESIAN_POINT('Ctrl Pts',(217.133716701952,-129.490640664209,254.567399745317));
#1054=CARTESIAN_POINT('Ctrl Pts',(216.528850408384,-129.539696611228,254.722191784678));
#1055=CARTESIAN_POINT('Ctrl Pts',(215.339659176184,-129.387275101683,254.939663857578));
#1056=CARTESIAN_POINT('Ctrl Pts',(214.755007382,-129.185013744525,255.));
#1057=CARTESIAN_POINT('Ctrl Pts',(214.25635094611,-128.89711431703,255.));
#1058=CARTESIAN_POINT('Origin',(214.25635094611,-128.89711431703,246.));
#1059=CARTESIAN_POINT('Origin',(216.50635094611,-125.,246.));
#1060=CARTESIAN_POINT('',(211.485069653999,-127.29711431703,246.));
#1061=CARTESIAN_POINT('Origin',(214.25635094611,-128.89711431703,246.));
#1062=CARTESIAN_POINT('',(215.985069653999,-119.50288568297,246.));
#1063=CARTESIAN_POINT('',(213.735069653999,-123.4,246.));
#1064=CARTESIAN_POINT('Origin',(218.75635094611,-121.10288568297,246.));
#1065=CARTESIAN_POINT('Origin',(216.50635094611,-125.,261.));
#1066=CARTESIAN_POINT('',(214.00635094611,-125.,256.));
#1067=CARTESIAN_POINT('Origin',(216.50635094611,-125.,256.));
#1068=CARTESIAN_POINT('',(214.00635094611,-125.,265.));
#1069=CARTESIAN_POINT('',(214.00635094611,-125.,261.));
#1070=CARTESIAN_POINT('Origin',(216.50635094611,-125.,265.));
#1071=CARTESIAN_POINT('Origin',(216.50635094611,-125.,256.));
#1072=CARTESIAN_POINT('Origin',(216.50635094611,-125.,254.5));
#1073=CARTESIAN_POINT('',(212.00635094611,-125.,265.));
#1074=CARTESIAN_POINT('Origin',(216.50635094611,-125.,265.));
#1075=CARTESIAN_POINT('',(212.00635094611,-125.,254.112490369794));
#1076=CARTESIAN_POINT('',(212.00635094611,-125.,254.5));
#1077=CARTESIAN_POINT('Ctrl Pts',(214.25635094611,-128.89711431703,255.));
#1078=CARTESIAN_POINT('Ctrl Pts',(213.757694510219,-128.609214889536,255.));
#1079=CARTESIAN_POINT('Ctrl Pts',(213.290205139624,-128.204022261983,254.939663857578));
#1080=CARTESIAN_POINT('Ctrl Pts',(212.563608624175,-127.250363199713,254.722191784678));
#1081=CARTESIAN_POINT('Ctrl Pts',(212.303659173716,-126.70200565008,254.567399745317));
#1082=CARTESIAN_POINT('Ctrl Pts',(212.061619178283,-125.798700089658,254.317464854527));
#1083=CARTESIAN_POINT('Ctrl Pts',(212.00635094611,-125.402556018169,254.209181197783));
#1084=CARTESIAN_POINT('Ctrl Pts',(212.00635094611,-125.,254.112490369794));
#1085=CARTESIAN_POINT('Ctrl Pts',(212.00635094611,-125.,254.112490369794));
#1086=CARTESIAN_POINT('Ctrl Pts',(212.00635094611,-124.809929886457,254.066837005231));
#1087=CARTESIAN_POINT('Ctrl Pts',(212.018449759408,-124.618419444401,254.023812154515));
#1088=CARTESIAN_POINT('Ctrl Pts',(212.118945638854,-123.834238645274,253.865214461788));
#1089=CARTESIAN_POINT('Ctrl Pts',(212.320550228418,-123.250019513399,253.79422863406));
#1090=CARTESIAN_POINT('Ctrl Pts',(212.897923029741,-122.249980486601,253.79422863406));
#1091=CARTESIAN_POINT('Ctrl Pts',(213.303069344538,-121.783276224581,253.865214461788));
#1092=CARTESIAN_POINT('Ctrl Pts',(214.255383376882,-121.057731808467,254.105382056073));
#1093=CARTESIAN_POINT('Ctrl Pts',(214.802876531802,-120.797701781796,254.26965210397));
#1094=CARTESIAN_POINT('Ctrl Pts',(215.878985190267,-120.509359335792,254.567399745317));
#1095=CARTESIAN_POINT('Ctrl Pts',(216.483851483836,-120.460303388772,254.722191784678));
#1096=CARTESIAN_POINT('Ctrl Pts',(217.673042716035,-120.612724898317,254.939663857578));
#1097=CARTESIAN_POINT('Ctrl Pts',(218.257694510219,-120.814986255476,255.));
#1098=CARTESIAN_POINT('Ctrl Pts',(218.75635094611,-121.10288568297,255.));
#1099=CARTESIAN_POINT('Origin',(216.50635094611,-125.,265.));
#1100=CARTESIAN_POINT('Origin',(216.50635094611,-125.,246.));
#1101=CARTESIAN_POINT('Origin',(214.25635094611,-128.89711431703,246.));
#1102=CARTESIAN_POINT('Origin',(218.75635094611,-121.10288568297,246.));
#1103=CARTESIAN_POINT('Origin',(214.25635094611,-128.89711431703,246.));
#1104=CARTESIAN_POINT('Origin',(218.75635094611,-121.10288568297,246.));
#1105=CARTESIAN_POINT('Origin',(216.50635094611,-125.,267.5));
#1106=CARTESIAN_POINT('',(213.30635094611,-125.,265.));
#1107=CARTESIAN_POINT('Origin',(216.50635094611,-125.,265.));
#1108=CARTESIAN_POINT('',(213.30635094611,-125.,270.));
#1109=CARTESIAN_POINT('',(213.30635094611,-125.,267.5));
#1110=CARTESIAN_POINT('Origin',(216.50635094611,-125.,270.));
#1111=CARTESIAN_POINT('Origin',(216.50635094611,-125.,267.5));
#1112=CARTESIAN_POINT('',(209.50635094611,-125.,270.));
#1113=CARTESIAN_POINT('Origin',(216.50635094611,-125.,270.));
#1114=CARTESIAN_POINT('',(209.50635094611,-125.,265.));
#1115=CARTESIAN_POINT('',(209.50635094611,-125.,267.5));
#1116=CARTESIAN_POINT('Origin',(216.50635094611,-125.,265.));
#1117=CARTESIAN_POINT('Origin',(216.50635094611,-125.,265.));
#1118=CARTESIAN_POINT('Origin',(216.50635094611,-125.,270.));
#1119=CARTESIAN_POINT('',(0.,0.,0.));
#1120=CARTESIAN_POINT('',(0.,0.,0.));
#1121=CARTESIAN_POINT('',(0.,0.,0.));
#1122=UNCERTAINTY_MEASURE_WITH_UNIT(LENGTH_MEASURE(0.01),#1132,
'DISTANCE_ACCURACY_VALUE',
'Maximum model space distance between geometric entities at asserted c
onnectivities');
#1123=UNCERTAINTY_MEASURE_WITH_UNIT(LENGTH_MEASURE(0.01),#1132,
'DISTANCE_ACCURACY_VALUE',
'Maximum model space distance between geometric entities at asserted c
onnectivities');
#1124=UNCERTAINTY_MEASURE_WITH_UNIT(LENGTH_MEASURE(0.01),#1132,
'DISTANCE_ACCURACY_VALUE',
'Maximum model space distance between geometric entities at asserted c
onnectivities');
#1125=UNCERTAINTY_MEASURE_WITH_UNIT(LENGTH_MEASURE(0.01),#1132,
'DISTANCE_ACCURACY_VALUE',
'Maximum model space distance between geometric entities at asserted c
onnectivities');
#1126=UNCERTAINTY_MEASURE_WITH_UNIT(LENGTH_MEASURE(0.01),#1132,
'DISTANCE_ACCURACY_VALUE',
'Maximum model space distance between geometric entities at asserted c
onnectivities');
#1127=(
GEOMETRIC_REPRESENTATION_CONTEXT(3)
GLOBAL_UNCERTAINTY_ASSIGNED_CONTEXT((#1122))
GLOBAL_UNIT_ASSIGNED_CONTEXT((#1132,#1134,#1135))
REPRESENTATION_CONTEXT('','3D')
);
#1128=(
GEOMETRIC_REPRESENTATION_CONTEXT(3)
GLOBAL_UNCERTAINTY_ASSIGNED_CONTEXT((#1123))
GLOBAL_UNIT_ASSIGNED_CONTEXT((#1132,#1134,#1135))
REPRESENTATION_CONTEXT('','3D')
);
#1129=(
GEOMETRIC_REPRESENTATION_CONTEXT(3)
GLOBAL_UNCERTAINTY_ASSIGNED_CONTEXT((#1124))
GLOBAL_UNIT_ASSIGNED_CONTEXT((#1132,#1134,#1135))
REPRESENTATION_CONTEXT('','3D')
);
#1130=(
GEOMETRIC_REPRESENTATION_CONTEXT(3)
GLOBAL_UNCERTAINTY_ASSIGNED_CONTEXT((#1125))
GLOBAL_UNIT_ASSIGNED_CONTEXT((#1132,#1134,#1135))
REPRESENTATION_CONTEXT('','3D')
);
#1131=(
GEOMETRIC_REPRESENTATION_CONTEXT(3)
GLOBAL_UNCERTAINTY_ASSIGNED_CONTEXT((#1126))
GLOBAL_UNIT_ASSIGNED_CONTEXT((#1132,#1134,#1135))
REPRESENTATION_CONTEXT('','3D')
);
#1132=(
LENGTH_UNIT()
NAMED_UNIT(*)
SI_UNIT(.MILLI.,.METRE.)
);
#1133=(
LENGTH_UNIT()
NAMED_UNIT(*)
SI_UNIT($,.METRE.)
);
#1134=(
NAMED_UNIT(*)
PLANE_ANGLE_UNIT()
SI_UNIT($,.RADIAN.)
);
#1135=(
NAMED_UNIT(*)
SI_UNIT($,.STERADIAN.)
SOLID_ANGLE_UNIT()
);
#1136=SHAPE_DEFINITION_REPRESENTATION(#1140,#1147);
#1137=SHAPE_DEFINITION_REPRESENTATION(#1141,#1148);
#1138=SHAPE_DEFINITION_REPRESENTATION(#1142,#1149);
#1139=SHAPE_DEFINITION_REPRESENTATION(#1143,#1150);
#1140=PRODUCT_DEFINITION_SHAPE('',$,#1152);
#1141=PRODUCT_DEFINITION_SHAPE('',$,#1153);
#1142=PRODUCT_DEFINITION_SHAPE('',$,#1154);
#1143=PRODUCT_DEFINITION_SHAPE('',$,#1155);
#1144=PRODUCT_DEFINITION_SHAPE($,$,#20);
#1145=PRODUCT_DEFINITION_SHAPE($,$,#21);
#1146=PRODUCT_DEFINITION_SHAPE($,$,#22);
#1147=SHAPE_REPRESENTATION('',(#586,#668,#669,#670),#1127);
#1148=SHAPE_REPRESENTATION('',(#587),#1128);
#1149=SHAPE_REPRESENTATION('',(#614),#1129);
#1150=SHAPE_REPRESENTATION('',(#641),#1130);
#1151=PRODUCT_DEFINITION_CONTEXT('part definition',#1165,'design');
#1152=PRODUCT_DEFINITION('08_UPPER_PHS6_JOINTS','08_UPPER_PHS6_JOINTS',
#1156,#1151);
#1153=PRODUCT_DEFINITION('A1_PHS6_AND_JAM_NUT','A1_PHS6_AND_JAM_NUT',#1157,
#1151);
#1154=PRODUCT_DEFINITION('A2_PHS6_AND_JAM_NUT','A2_PHS6_AND_JAM_NUT',#1158,
#1151);
#1155=PRODUCT_DEFINITION('A3_PHS6_AND_JAM_NUT','A3_PHS6_AND_JAM_NUT',#1159,
#1151);
#1156=PRODUCT_DEFINITION_FORMATION('',$,#1167);
#1157=PRODUCT_DEFINITION_FORMATION('',$,#1168);
#1158=PRODUCT_DEFINITION_FORMATION('',$,#1169);
#1159=PRODUCT_DEFINITION_FORMATION('',$,#1170);
#1160=PRODUCT_RELATED_PRODUCT_CATEGORY('08_UPPER_PHS6_JOINTS',
'08_UPPER_PHS6_JOINTS',(#1167));
#1161=PRODUCT_RELATED_PRODUCT_CATEGORY('A1_PHS6_AND_JAM_NUT',
'A1_PHS6_AND_JAM_NUT',(#1168));
#1162=PRODUCT_RELATED_PRODUCT_CATEGORY('A2_PHS6_AND_JAM_NUT',
'A2_PHS6_AND_JAM_NUT',(#1169));
#1163=PRODUCT_RELATED_PRODUCT_CATEGORY('A3_PHS6_AND_JAM_NUT',
'A3_PHS6_AND_JAM_NUT',(#1170));
#1164=APPLICATION_PROTOCOL_DEFINITION('international standard',
'automotive_design',2009,#1165);
#1165=APPLICATION_CONTEXT(
'Core Data for Automotive Mechanical Design Process');
#1166=PRODUCT_CONTEXT('part definition',#1165,'mechanical');
#1167=PRODUCT('08_UPPER_PHS6_JOINTS','08_UPPER_PHS6_JOINTS',$,(#1166));
#1168=PRODUCT('A1_PHS6_AND_JAM_NUT','A1_PHS6_AND_JAM_NUT',$,(#1166));
#1169=PRODUCT('A2_PHS6_AND_JAM_NUT','A2_PHS6_AND_JAM_NUT',$,(#1166));
#1170=PRODUCT('A3_PHS6_AND_JAM_NUT','A3_PHS6_AND_JAM_NUT',$,(#1166));
#1171=PRESENTATION_STYLE_ASSIGNMENT((#1172));
#1172=SURFACE_STYLE_USAGE(.BOTH.,#1173);
#1173=SURFACE_SIDE_STYLE('',(#1174));
#1174=SURFACE_STYLE_FILL_AREA(#1175);
#1175=FILL_AREA_STYLE('\X2\AC15CCA0\X0\ - \X2\C0C8D2F4\X0\',(#1176));
#1176=FILL_AREA_STYLE_COLOUR('\X2\AC15CCA0\X0\ - \X2\C0C8D2F4\X0\',#1177);
#1177=COLOUR_RGB('\X2\AC15CCA0\X0\ - \X2\C0C8D2F4\X0\',0.627450980392157,
0.627450980392157,0.627450980392157);
ENDSEC;
END-ISO-10303-21;
