ISO-10303-21;
HEADER;
/* Generated by software containing ST-Developer
 * from STEP Tools, Inc. (www.steptools.com) 
 */

FILE_DESCRIPTION(
/* description */ (''),
/* implementation_level */ '2;1');

FILE_NAME(
/* name */ 'lower_joints.step',
/* time_stamp */ '2026-09-02T00:29:11+09:00',
/* author */ (''),
/* organization */ (''),
/* preprocessor_version */ 'ST-DEVELOPER v20.1',
/* originating_system */ 'Autodesk Translation Framework v15.8.0.0',
/* authorisation */ '');

FILE_SCHEMA (('AUTOMOTIVE_DESIGN { 1 0 10303 214 3 1 1 }'));
ENDSEC;

DATA;
#10=MECHANICAL_DESIGN_GEOMETRIC_PRESENTATION_REPRESENTATION('',(#29,#30,
#31),#1873);
#11=ITEM_DEFINED_TRANSFORMATION($,$,#1165,#1252);
#12=ITEM_DEFINED_TRANSFORMATION($,$,#1194,#1253);
#13=ITEM_DEFINED_TRANSFORMATION($,$,#1223,#1254);
#14=(
REPRESENTATION_RELATIONSHIP($,$,#1890,#1889)
REPRESENTATION_RELATIONSHIP_WITH_TRANSFORMATION(#11)
SHAPE_REPRESENTATION_RELATIONSHIP()
);
#15=(
REPRESENTATION_RELATIONSHIP($,$,#1891,#1889)
REPRESENTATION_RELATIONSHIP_WITH_TRANSFORMATION(#12)
SHAPE_REPRESENTATION_RELATIONSHIP()
);
#16=(
REPRESENTATION_RELATIONSHIP($,$,#1892,#1889)
REPRESENTATION_RELATIONSHIP_WITH_TRANSFORMATION(#13)
SHAPE_REPRESENTATION_RELATIONSHIP()
);
#17=CONTEXT_DEPENDENT_SHAPE_REPRESENTATION(#14,#1886);
#18=CONTEXT_DEPENDENT_SHAPE_REPRESENTATION(#15,#1887);
#19=CONTEXT_DEPENDENT_SHAPE_REPRESENTATION(#16,#1888);
#20=NEXT_ASSEMBLY_USAGE_OCCURRENCE('A1_LOWER_ONE_PIECE_CLEVIS_A6061:1',
'A1_LOWER_ONE_PIECE_CLEVIS_A6061:1','A1_LOWER_ONE_PIECE_CLEVIS_A6061:1',
#1894,#1895,'A1_LOWER_ONE_PIECE_CLEVIS_A6061:1');
#21=NEXT_ASSEMBLY_USAGE_OCCURRENCE('A2_LOWER_ONE_PIECE_CLEVIS_A6061:1',
'A2_LOWER_ONE_PIECE_CLEVIS_A6061:1','A2_LOWER_ONE_PIECE_CLEVIS_A6061:1',
#1894,#1896,'A2_LOWER_ONE_PIECE_CLEVIS_A6061:1');
#22=NEXT_ASSEMBLY_USAGE_OCCURRENCE('A3_LOWER_ONE_PIECE_CLEVIS_A6061:1',
'A3_LOWER_ONE_PIECE_CLEVIS_A6061:1','A3_LOWER_ONE_PIECE_CLEVIS_A6061:1',
#1894,#1897,'A3_LOWER_ONE_PIECE_CLEVIS_A6061:1');
#23=SHAPE_REPRESENTATION_RELATIONSHIP('SRR','None',#1890,#26);
#24=SHAPE_REPRESENTATION_RELATIONSHIP('SRR','None',#1891,#27);
#25=SHAPE_REPRESENTATION_RELATIONSHIP('SRR','None',#1892,#28);
#26=ADVANCED_BREP_SHAPE_REPRESENTATION('',(#32),#1870);
#27=ADVANCED_BREP_SHAPE_REPRESENTATION('',(#33),#1871);
#28=ADVANCED_BREP_SHAPE_REPRESENTATION('',(#34),#1872);
#29=STYLED_ITEM('',(#1914),#32);
#30=STYLED_ITEM('',(#1914),#33);
#31=STYLED_ITEM('',(#1914),#34);
#32=MANIFOLD_SOLID_BREP('A1_LOWER_ONE_PIECE_CLEVIS_A6061_BODY',#1127);
#33=MANIFOLD_SOLID_BREP('A2_LOWER_ONE_PIECE_CLEVIS_A6061_BODY',#1128);
#34=MANIFOLD_SOLID_BREP('A3_LOWER_ONE_PIECE_CLEVIS_A6061_BODY',#1129);
#35=FACE_BOUND('',#177,.T.);
#36=FACE_BOUND('',#180,.T.);
#37=FACE_BOUND('',#184,.T.);
#38=FACE_BOUND('',#187,.T.);
#39=FACE_BOUND('',#192,.T.);
#40=FACE_BOUND('',#193,.T.);
#41=FACE_BOUND('',#194,.T.);
#42=FACE_BOUND('',#195,.T.);
#43=FACE_BOUND('',#197,.T.);
#44=FACE_BOUND('',#198,.T.);
#45=FACE_BOUND('',#207,.T.);
#46=FACE_BOUND('',#210,.T.);
#47=FACE_BOUND('',#214,.T.);
#48=FACE_BOUND('',#217,.T.);
#49=FACE_BOUND('',#222,.T.);
#50=FACE_BOUND('',#223,.T.);
#51=FACE_BOUND('',#224,.T.);
#52=FACE_BOUND('',#225,.T.);
#53=FACE_BOUND('',#227,.T.);
#54=FACE_BOUND('',#228,.T.);
#55=FACE_BOUND('',#237,.T.);
#56=FACE_BOUND('',#240,.T.);
#57=FACE_BOUND('',#244,.T.);
#58=FACE_BOUND('',#247,.T.);
#59=FACE_BOUND('',#252,.T.);
#60=FACE_BOUND('',#253,.T.);
#61=FACE_BOUND('',#254,.T.);
#62=FACE_BOUND('',#255,.T.);
#63=FACE_BOUND('',#257,.T.);
#64=FACE_BOUND('',#258,.T.);
#65=PLANE('',#1172);
#66=PLANE('',#1173);
#67=PLANE('',#1174);
#68=PLANE('',#1175);
#69=PLANE('',#1176);
#70=PLANE('',#1177);
#71=PLANE('',#1178);
#72=PLANE('',#1179);
#73=PLANE('',#1180);
#74=PLANE('',#1181);
#75=PLANE('',#1188);
#76=PLANE('',#1189);
#77=PLANE('',#1190);
#78=PLANE('',#1191);
#79=PLANE('',#1192);
#80=PLANE('',#1193);
#81=PLANE('',#1201);
#82=PLANE('',#1202);
#83=PLANE('',#1203);
#84=PLANE('',#1204);
#85=PLANE('',#1205);
#86=PLANE('',#1206);
#87=PLANE('',#1207);
#88=PLANE('',#1208);
#89=PLANE('',#1209);
#90=PLANE('',#1210);
#91=PLANE('',#1217);
#92=PLANE('',#1218);
#93=PLANE('',#1219);
#94=PLANE('',#1220);
#95=PLANE('',#1221);
#96=PLANE('',#1222);
#97=PLANE('',#1230);
#98=PLANE('',#1231);
#99=PLANE('',#1232);
#100=PLANE('',#1233);
#101=PLANE('',#1234);
#102=PLANE('',#1235);
#103=PLANE('',#1236);
#104=PLANE('',#1237);
#105=PLANE('',#1238);
#106=PLANE('',#1239);
#107=PLANE('',#1246);
#108=PLANE('',#1247);
#109=PLANE('',#1248);
#110=PLANE('',#1249);
#111=PLANE('',#1250);
#112=PLANE('',#1251);
#113=FACE_OUTER_BOUND('',#173,.T.);
#114=FACE_OUTER_BOUND('',#174,.T.);
#115=FACE_OUTER_BOUND('',#175,.T.);
#116=FACE_OUTER_BOUND('',#176,.T.);
#117=FACE_OUTER_BOUND('',#178,.T.);
#118=FACE_OUTER_BOUND('',#179,.T.);
#119=FACE_OUTER_BOUND('',#181,.T.);
#120=FACE_OUTER_BOUND('',#182,.T.);
#121=FACE_OUTER_BOUND('',#183,.T.);
#122=FACE_OUTER_BOUND('',#185,.T.);
#123=FACE_OUTER_BOUND('',#186,.T.);
#124=FACE_OUTER_BOUND('',#188,.T.);
#125=FACE_OUTER_BOUND('',#189,.T.);
#126=FACE_OUTER_BOUND('',#190,.T.);
#127=FACE_OUTER_BOUND('',#191,.T.);
#128=FACE_OUTER_BOUND('',#196,.T.);
#129=FACE_OUTER_BOUND('',#199,.T.);
#130=FACE_OUTER_BOUND('',#200,.T.);
#131=FACE_OUTER_BOUND('',#201,.T.);
#132=FACE_OUTER_BOUND('',#202,.T.);
#133=FACE_OUTER_BOUND('',#203,.T.);
#134=FACE_OUTER_BOUND('',#204,.T.);
#135=FACE_OUTER_BOUND('',#205,.T.);
#136=FACE_OUTER_BOUND('',#206,.T.);
#137=FACE_OUTER_BOUND('',#208,.T.);
#138=FACE_OUTER_BOUND('',#209,.T.);
#139=FACE_OUTER_BOUND('',#211,.T.);
#140=FACE_OUTER_BOUND('',#212,.T.);
#141=FACE_OUTER_BOUND('',#213,.T.);
#142=FACE_OUTER_BOUND('',#215,.T.);
#143=FACE_OUTER_BOUND('',#216,.T.);
#144=FACE_OUTER_BOUND('',#218,.T.);
#145=FACE_OUTER_BOUND('',#219,.T.);
#146=FACE_OUTER_BOUND('',#220,.T.);
#147=FACE_OUTER_BOUND('',#221,.T.);
#148=FACE_OUTER_BOUND('',#226,.T.);
#149=FACE_OUTER_BOUND('',#229,.T.);
#150=FACE_OUTER_BOUND('',#230,.T.);
#151=FACE_OUTER_BOUND('',#231,.T.);
#152=FACE_OUTER_BOUND('',#232,.T.);
#153=FACE_OUTER_BOUND('',#233,.T.);
#154=FACE_OUTER_BOUND('',#234,.T.);
#155=FACE_OUTER_BOUND('',#235,.T.);
#156=FACE_OUTER_BOUND('',#236,.T.);
#157=FACE_OUTER_BOUND('',#238,.T.);
#158=FACE_OUTER_BOUND('',#239,.T.);
#159=FACE_OUTER_BOUND('',#241,.T.);
#160=FACE_OUTER_BOUND('',#242,.T.);
#161=FACE_OUTER_BOUND('',#243,.T.);
#162=FACE_OUTER_BOUND('',#245,.T.);
#163=FACE_OUTER_BOUND('',#246,.T.);
#164=FACE_OUTER_BOUND('',#248,.T.);
#165=FACE_OUTER_BOUND('',#249,.T.);
#166=FACE_OUTER_BOUND('',#250,.T.);
#167=FACE_OUTER_BOUND('',#251,.T.);
#168=FACE_OUTER_BOUND('',#256,.T.);
#169=FACE_OUTER_BOUND('',#259,.T.);
#170=FACE_OUTER_BOUND('',#260,.T.);
#171=FACE_OUTER_BOUND('',#261,.T.);
#172=FACE_OUTER_BOUND('',#262,.T.);
#173=EDGE_LOOP('',(#767,#768,#769,#770));
#174=EDGE_LOOP('',(#771,#772,#773,#774));
#175=EDGE_LOOP('',(#775,#776,#777,#778));
#176=EDGE_LOOP('',(#779,#780,#781,#782));
#177=EDGE_LOOP('',(#783));
#178=EDGE_LOOP('',(#784,#785,#786,#787));
#179=EDGE_LOOP('',(#788,#789,#790,#791));
#180=EDGE_LOOP('',(#792));
#181=EDGE_LOOP('',(#793,#794,#795,#796));
#182=EDGE_LOOP('',(#797,#798,#799,#800));
#183=EDGE_LOOP('',(#801,#802,#803,#804));
#184=EDGE_LOOP('',(#805));
#185=EDGE_LOOP('',(#806,#807,#808,#809));
#186=EDGE_LOOP('',(#810,#811,#812,#813));
#187=EDGE_LOOP('',(#814));
#188=EDGE_LOOP('',(#815,#816,#817,#818));
#189=EDGE_LOOP('',(#819,#820,#821,#822));
#190=EDGE_LOOP('',(#823,#824,#825,#826));
#191=EDGE_LOOP('',(#827,#828,#829,#830));
#192=EDGE_LOOP('',(#831,#832,#833,#834));
#193=EDGE_LOOP('',(#835,#836,#837,#838));
#194=EDGE_LOOP('',(#839));
#195=EDGE_LOOP('',(#840));
#196=EDGE_LOOP('',(#841,#842,#843,#844));
#197=EDGE_LOOP('',(#845));
#198=EDGE_LOOP('',(#846));
#199=EDGE_LOOP('',(#847,#848,#849,#850));
#200=EDGE_LOOP('',(#851,#852,#853,#854));
#201=EDGE_LOOP('',(#855,#856,#857,#858));
#202=EDGE_LOOP('',(#859,#860,#861,#862));
#203=EDGE_LOOP('',(#863,#864,#865,#866));
#204=EDGE_LOOP('',(#867,#868,#869,#870));
#205=EDGE_LOOP('',(#871,#872,#873,#874));
#206=EDGE_LOOP('',(#875,#876,#877,#878));
#207=EDGE_LOOP('',(#879));
#208=EDGE_LOOP('',(#880,#881,#882,#883));
#209=EDGE_LOOP('',(#884,#885,#886,#887));
#210=EDGE_LOOP('',(#888));
#211=EDGE_LOOP('',(#889,#890,#891,#892));
#212=EDGE_LOOP('',(#893,#894,#895,#896));
#213=EDGE_LOOP('',(#897,#898,#899,#900));
#214=EDGE_LOOP('',(#901));
#215=EDGE_LOOP('',(#902,#903,#904,#905));
#216=EDGE_LOOP('',(#906,#907,#908,#909));
#217=EDGE_LOOP('',(#910));
#218=EDGE_LOOP('',(#911,#912,#913,#914));
#219=EDGE_LOOP('',(#915,#916,#917,#918));
#220=EDGE_LOOP('',(#919,#920,#921,#922));
#221=EDGE_LOOP('',(#923,#924,#925,#926));
#222=EDGE_LOOP('',(#927,#928,#929,#930));
#223=EDGE_LOOP('',(#931,#932,#933,#934));
#224=EDGE_LOOP('',(#935));
#225=EDGE_LOOP('',(#936));
#226=EDGE_LOOP('',(#937,#938,#939,#940));
#227=EDGE_LOOP('',(#941));
#228=EDGE_LOOP('',(#942));
#229=EDGE_LOOP('',(#943,#944,#945,#946));
#230=EDGE_LOOP('',(#947,#948,#949,#950));
#231=EDGE_LOOP('',(#951,#952,#953,#954));
#232=EDGE_LOOP('',(#955,#956,#957,#958));
#233=EDGE_LOOP('',(#959,#960,#961,#962));
#234=EDGE_LOOP('',(#963,#964,#965,#966));
#235=EDGE_LOOP('',(#967,#968,#969,#970));
#236=EDGE_LOOP('',(#971,#972,#973,#974));
#237=EDGE_LOOP('',(#975));
#238=EDGE_LOOP('',(#976,#977,#978,#979));
#239=EDGE_LOOP('',(#980,#981,#982,#983));
#240=EDGE_LOOP('',(#984));
#241=EDGE_LOOP('',(#985,#986,#987,#988));
#242=EDGE_LOOP('',(#989,#990,#991,#992));
#243=EDGE_LOOP('',(#993,#994,#995,#996));
#244=EDGE_LOOP('',(#997));
#245=EDGE_LOOP('',(#998,#999,#1000,#1001));
#246=EDGE_LOOP('',(#1002,#1003,#1004,#1005));
#247=EDGE_LOOP('',(#1006));
#248=EDGE_LOOP('',(#1007,#1008,#1009,#1010));
#249=EDGE_LOOP('',(#1011,#1012,#1013,#1014));
#250=EDGE_LOOP('',(#1015,#1016,#1017,#1018));
#251=EDGE_LOOP('',(#1019,#1020,#1021,#1022));
#252=EDGE_LOOP('',(#1023,#1024,#1025,#1026));
#253=EDGE_LOOP('',(#1027,#1028,#1029,#1030));
#254=EDGE_LOOP('',(#1031));
#255=EDGE_LOOP('',(#1032));
#256=EDGE_LOOP('',(#1033,#1034,#1035,#1036));
#257=EDGE_LOOP('',(#1037));
#258=EDGE_LOOP('',(#1038));
#259=EDGE_LOOP('',(#1039,#1040,#1041,#1042));
#260=EDGE_LOOP('',(#1043,#1044,#1045,#1046));
#261=EDGE_LOOP('',(#1047,#1048,#1049,#1050));
#262=EDGE_LOOP('',(#1051,#1052,#1053,#1054));
#263=LINE('',#1563,#383);
#264=LINE('',#1569,#384);
#265=LINE('',#1574,#385);
#266=LINE('',#1576,#386);
#267=LINE('',#1578,#387);
#268=LINE('',#1579,#388);
#269=LINE('',#1582,#389);
#270=LINE('',#1584,#390);
#271=LINE('',#1585,#391);
#272=LINE('',#1588,#392);
#273=LINE('',#1589,#393);
#274=LINE('',#1592,#394);
#275=LINE('',#1593,#395);
#276=LINE('',#1595,#396);
#277=LINE('',#1599,#397);
#278=LINE('',#1601,#398);
#279=LINE('',#1603,#399);
#280=LINE('',#1604,#400);
#281=LINE('',#1607,#401);
#282=LINE('',#1609,#402);
#283=LINE('',#1610,#403);
#284=LINE('',#1613,#404);
#285=LINE('',#1614,#405);
#286=LINE('',#1617,#406);
#287=LINE('',#1618,#407);
#288=LINE('',#1620,#408);
#289=LINE('',#1625,#409);
#290=LINE('',#1631,#410);
#291=LINE('',#1636,#411);
#292=LINE('',#1638,#412);
#293=LINE('',#1640,#413);
#294=LINE('',#1641,#414);
#295=LINE('',#1645,#415);
#296=LINE('',#1647,#416);
#297=LINE('',#1649,#417);
#298=LINE('',#1650,#418);
#299=LINE('',#1652,#419);
#300=LINE('',#1653,#420);
#301=LINE('',#1655,#421);
#302=LINE('',#1657,#422);
#303=LINE('',#1664,#423);
#304=LINE('',#1670,#424);
#305=LINE('',#1675,#425);
#306=LINE('',#1677,#426);
#307=LINE('',#1679,#427);
#308=LINE('',#1680,#428);
#309=LINE('',#1683,#429);
#310=LINE('',#1685,#430);
#311=LINE('',#1686,#431);
#312=LINE('',#1689,#432);
#313=LINE('',#1690,#433);
#314=LINE('',#1693,#434);
#315=LINE('',#1694,#435);
#316=LINE('',#1696,#436);
#317=LINE('',#1700,#437);
#318=LINE('',#1702,#438);
#319=LINE('',#1704,#439);
#320=LINE('',#1705,#440);
#321=LINE('',#1708,#441);
#322=LINE('',#1710,#442);
#323=LINE('',#1711,#443);
#324=LINE('',#1714,#444);
#325=LINE('',#1715,#445);
#326=LINE('',#1718,#446);
#327=LINE('',#1719,#447);
#328=LINE('',#1721,#448);
#329=LINE('',#1726,#449);
#330=LINE('',#1732,#450);
#331=LINE('',#1737,#451);
#332=LINE('',#1739,#452);
#333=LINE('',#1741,#453);
#334=LINE('',#1742,#454);
#335=LINE('',#1746,#455);
#336=LINE('',#1748,#456);
#337=LINE('',#1750,#457);
#338=LINE('',#1751,#458);
#339=LINE('',#1753,#459);
#340=LINE('',#1754,#460);
#341=LINE('',#1756,#461);
#342=LINE('',#1758,#462);
#343=LINE('',#1765,#463);
#344=LINE('',#1771,#464);
#345=LINE('',#1776,#465);
#346=LINE('',#1778,#466);
#347=LINE('',#1780,#467);
#348=LINE('',#1781,#468);
#349=LINE('',#1784,#469);
#350=LINE('',#1786,#470);
#351=LINE('',#1787,#471);
#352=LINE('',#1790,#472);
#353=LINE('',#1791,#473);
#354=LINE('',#1794,#474);
#355=LINE('',#1795,#475);
#356=LINE('',#1797,#476);
#357=LINE('',#1801,#477);
#358=LINE('',#1803,#478);
#359=LINE('',#1805,#479);
#360=LINE('',#1806,#480);
#361=LINE('',#1809,#481);
#362=LINE('',#1811,#482);
#363=LINE('',#1812,#483);
#364=LINE('',#1815,#484);
#365=LINE('',#1816,#485);
#366=LINE('',#1819,#486);
#367=LINE('',#1820,#487);
#368=LINE('',#1822,#488);
#369=LINE('',#1827,#489);
#370=LINE('',#1833,#490);
#371=LINE('',#1838,#491);
#372=LINE('',#1840,#492);
#373=LINE('',#1842,#493);
#374=LINE('',#1843,#494);
#375=LINE('',#1847,#495);
#376=LINE('',#1849,#496);
#377=LINE('',#1851,#497);
#378=LINE('',#1852,#498);
#379=LINE('',#1854,#499);
#380=LINE('',#1855,#500);
#381=LINE('',#1857,#501);
#382=LINE('',#1859,#502);
#383=VECTOR('',#1263,4.1);
#384=VECTOR('',#1270,4.1);
#385=VECTOR('',#1275,10.);
#386=VECTOR('',#1276,10.);
#387=VECTOR('',#1277,10.);
#388=VECTOR('',#1278,10.);
#389=VECTOR('',#1281,10.);
#390=VECTOR('',#1282,10.);
#391=VECTOR('',#1283,10.);
#392=VECTOR('',#1286,10.);
#393=VECTOR('',#1287,10.);
#394=VECTOR('',#1290,10.);
#395=VECTOR('',#1291,10.);
#396=VECTOR('',#1294,10.);
#397=VECTOR('',#1297,10.);
#398=VECTOR('',#1298,10.);
#399=VECTOR('',#1299,10.);
#400=VECTOR('',#1300,10.);
#401=VECTOR('',#1303,10.);
#402=VECTOR('',#1304,10.);
#403=VECTOR('',#1305,10.);
#404=VECTOR('',#1308,10.);
#405=VECTOR('',#1309,10.);
#406=VECTOR('',#1312,10.);
#407=VECTOR('',#1313,10.);
#408=VECTOR('',#1316,10.);
#409=VECTOR('',#1321,4.3);
#410=VECTOR('',#1328,4.3);
#411=VECTOR('',#1333,10.);
#412=VECTOR('',#1334,10.);
#413=VECTOR('',#1335,10.);
#414=VECTOR('',#1336,10.);
#415=VECTOR('',#1339,10.);
#416=VECTOR('',#1340,10.);
#417=VECTOR('',#1341,10.);
#418=VECTOR('',#1342,10.);
#419=VECTOR('',#1345,10.);
#420=VECTOR('',#1346,10.);
#421=VECTOR('',#1349,10.);
#422=VECTOR('',#1352,10.);
#423=VECTOR('',#1361,4.1);
#424=VECTOR('',#1368,4.1);
#425=VECTOR('',#1373,10.);
#426=VECTOR('',#1374,10.);
#427=VECTOR('',#1375,10.);
#428=VECTOR('',#1376,10.);
#429=VECTOR('',#1379,10.);
#430=VECTOR('',#1380,10.);
#431=VECTOR('',#1381,10.);
#432=VECTOR('',#1384,10.);
#433=VECTOR('',#1385,10.);
#434=VECTOR('',#1388,10.);
#435=VECTOR('',#1389,10.);
#436=VECTOR('',#1392,10.);
#437=VECTOR('',#1395,10.);
#438=VECTOR('',#1396,10.);
#439=VECTOR('',#1397,10.);
#440=VECTOR('',#1398,10.);
#441=VECTOR('',#1401,10.);
#442=VECTOR('',#1402,10.);
#443=VECTOR('',#1403,10.);
#444=VECTOR('',#1406,10.);
#445=VECTOR('',#1407,10.);
#446=VECTOR('',#1410,10.);
#447=VECTOR('',#1411,10.);
#448=VECTOR('',#1414,10.);
#449=VECTOR('',#1419,4.3);
#450=VECTOR('',#1426,4.3);
#451=VECTOR('',#1431,10.);
#452=VECTOR('',#1432,10.);
#453=VECTOR('',#1433,10.);
#454=VECTOR('',#1434,10.);
#455=VECTOR('',#1437,10.);
#456=VECTOR('',#1438,10.);
#457=VECTOR('',#1439,10.);
#458=VECTOR('',#1440,10.);
#459=VECTOR('',#1443,10.);
#460=VECTOR('',#1444,10.);
#461=VECTOR('',#1447,10.);
#462=VECTOR('',#1450,10.);
#463=VECTOR('',#1459,4.1);
#464=VECTOR('',#1466,4.1);
#465=VECTOR('',#1471,10.);
#466=VECTOR('',#1472,10.);
#467=VECTOR('',#1473,10.);
#468=VECTOR('',#1474,10.);
#469=VECTOR('',#1477,10.);
#470=VECTOR('',#1478,10.);
#471=VECTOR('',#1479,10.);
#472=VECTOR('',#1482,10.);
#473=VECTOR('',#1483,10.);
#474=VECTOR('',#1486,10.);
#475=VECTOR('',#1487,10.);
#476=VECTOR('',#1490,10.);
#477=VECTOR('',#1493,10.);
#478=VECTOR('',#1494,10.);
#479=VECTOR('',#1495,10.);
#480=VECTOR('',#1496,10.);
#481=VECTOR('',#1499,10.);
#482=VECTOR('',#1500,10.);
#483=VECTOR('',#1501,10.);
#484=VECTOR('',#1504,10.);
#485=VECTOR('',#1505,10.);
#486=VECTOR('',#1508,10.);
#487=VECTOR('',#1509,10.);
#488=VECTOR('',#1512,10.);
#489=VECTOR('',#1517,4.3);
#490=VECTOR('',#1524,4.3);
#491=VECTOR('',#1529,10.);
#492=VECTOR('',#1530,10.);
#493=VECTOR('',#1531,10.);
#494=VECTOR('',#1532,10.);
#495=VECTOR('',#1535,10.);
#496=VECTOR('',#1536,10.);
#497=VECTOR('',#1537,10.);
#498=VECTOR('',#1538,10.);
#499=VECTOR('',#1541,10.);
#500=VECTOR('',#1542,10.);
#501=VECTOR('',#1545,10.);
#502=VECTOR('',#1548,10.);
#503=CIRCLE('',#1167,4.1);
#504=CIRCLE('',#1168,4.1);
#505=CIRCLE('',#1170,4.1);
#506=CIRCLE('',#1171,4.1);
#507=CIRCLE('',#1183,4.3);
#508=CIRCLE('',#1184,4.3);
#509=CIRCLE('',#1186,4.3);
#510=CIRCLE('',#1187,4.3);
#511=CIRCLE('',#1196,4.1);
#512=CIRCLE('',#1197,4.1);
#513=CIRCLE('',#1199,4.1);
#514=CIRCLE('',#1200,4.1);
#515=CIRCLE('',#1212,4.3);
#516=CIRCLE('',#1213,4.3);
#517=CIRCLE('',#1215,4.3);
#518=CIRCLE('',#1216,4.3);
#519=CIRCLE('',#1225,4.1);
#520=CIRCLE('',#1226,4.1);
#521=CIRCLE('',#1228,4.1);
#522=CIRCLE('',#1229,4.1);
#523=CIRCLE('',#1241,4.3);
#524=CIRCLE('',#1242,4.3);
#525=CIRCLE('',#1244,4.3);
#526=CIRCLE('',#1245,4.3);
#527=VERTEX_POINT('',#1560);
#528=VERTEX_POINT('',#1562);
#529=VERTEX_POINT('',#1566);
#530=VERTEX_POINT('',#1568);
#531=VERTEX_POINT('',#1572);
#532=VERTEX_POINT('',#1573);
#533=VERTEX_POINT('',#1575);
#534=VERTEX_POINT('',#1577);
#535=VERTEX_POINT('',#1581);
#536=VERTEX_POINT('',#1583);
#537=VERTEX_POINT('',#1587);
#538=VERTEX_POINT('',#1591);
#539=VERTEX_POINT('',#1597);
#540=VERTEX_POINT('',#1598);
#541=VERTEX_POINT('',#1600);
#542=VERTEX_POINT('',#1602);
#543=VERTEX_POINT('',#1606);
#544=VERTEX_POINT('',#1608);
#545=VERTEX_POINT('',#1612);
#546=VERTEX_POINT('',#1616);
#547=VERTEX_POINT('',#1622);
#548=VERTEX_POINT('',#1624);
#549=VERTEX_POINT('',#1628);
#550=VERTEX_POINT('',#1630);
#551=VERTEX_POINT('',#1634);
#552=VERTEX_POINT('',#1635);
#553=VERTEX_POINT('',#1637);
#554=VERTEX_POINT('',#1639);
#555=VERTEX_POINT('',#1643);
#556=VERTEX_POINT('',#1644);
#557=VERTEX_POINT('',#1646);
#558=VERTEX_POINT('',#1648);
#559=VERTEX_POINT('',#1661);
#560=VERTEX_POINT('',#1663);
#561=VERTEX_POINT('',#1667);
#562=VERTEX_POINT('',#1669);
#563=VERTEX_POINT('',#1673);
#564=VERTEX_POINT('',#1674);
#565=VERTEX_POINT('',#1676);
#566=VERTEX_POINT('',#1678);
#567=VERTEX_POINT('',#1682);
#568=VERTEX_POINT('',#1684);
#569=VERTEX_POINT('',#1688);
#570=VERTEX_POINT('',#1692);
#571=VERTEX_POINT('',#1698);
#572=VERTEX_POINT('',#1699);
#573=VERTEX_POINT('',#1701);
#574=VERTEX_POINT('',#1703);
#575=VERTEX_POINT('',#1707);
#576=VERTEX_POINT('',#1709);
#577=VERTEX_POINT('',#1713);
#578=VERTEX_POINT('',#1717);
#579=VERTEX_POINT('',#1723);
#580=VERTEX_POINT('',#1725);
#581=VERTEX_POINT('',#1729);
#582=VERTEX_POINT('',#1731);
#583=VERTEX_POINT('',#1735);
#584=VERTEX_POINT('',#1736);
#585=VERTEX_POINT('',#1738);
#586=VERTEX_POINT('',#1740);
#587=VERTEX_POINT('',#1744);
#588=VERTEX_POINT('',#1745);
#589=VERTEX_POINT('',#1747);
#590=VERTEX_POINT('',#1749);
#591=VERTEX_POINT('',#1762);
#592=VERTEX_POINT('',#1764);
#593=VERTEX_POINT('',#1768);
#594=VERTEX_POINT('',#1770);
#595=VERTEX_POINT('',#1774);
#596=VERTEX_POINT('',#1775);
#597=VERTEX_POINT('',#1777);
#598=VERTEX_POINT('',#1779);
#599=VERTEX_POINT('',#1783);
#600=VERTEX_POINT('',#1785);
#601=VERTEX_POINT('',#1789);
#602=VERTEX_POINT('',#1793);
#603=VERTEX_POINT('',#1799);
#604=VERTEX_POINT('',#1800);
#605=VERTEX_POINT('',#1802);
#606=VERTEX_POINT('',#1804);
#607=VERTEX_POINT('',#1808);
#608=VERTEX_POINT('',#1810);
#609=VERTEX_POINT('',#1814);
#610=VERTEX_POINT('',#1818);
#611=VERTEX_POINT('',#1824);
#612=VERTEX_POINT('',#1826);
#613=VERTEX_POINT('',#1830);
#614=VERTEX_POINT('',#1832);
#615=VERTEX_POINT('',#1836);
#616=VERTEX_POINT('',#1837);
#617=VERTEX_POINT('',#1839);
#618=VERTEX_POINT('',#1841);
#619=VERTEX_POINT('',#1845);
#620=VERTEX_POINT('',#1846);
#621=VERTEX_POINT('',#1848);
#622=VERTEX_POINT('',#1850);
#623=EDGE_CURVE('',#527,#527,#503,.T.);
#624=EDGE_CURVE('',#527,#528,#263,.T.);
#625=EDGE_CURVE('',#528,#528,#504,.T.);
#626=EDGE_CURVE('',#529,#529,#505,.T.);
#627=EDGE_CURVE('',#529,#530,#264,.T.);
#628=EDGE_CURVE('',#530,#530,#506,.T.);
#629=EDGE_CURVE('',#531,#532,#265,.T.);
#630=EDGE_CURVE('',#533,#531,#266,.T.);
#631=EDGE_CURVE('',#534,#533,#267,.T.);
#632=EDGE_CURVE('',#534,#532,#268,.T.);
#633=EDGE_CURVE('',#535,#531,#269,.T.);
#634=EDGE_CURVE('',#536,#535,#270,.T.);
#635=EDGE_CURVE('',#533,#536,#271,.T.);
#636=EDGE_CURVE('',#536,#537,#272,.T.);
#637=EDGE_CURVE('',#537,#534,#273,.T.);
#638=EDGE_CURVE('',#532,#538,#274,.T.);
#639=EDGE_CURVE('',#537,#538,#275,.T.);
#640=EDGE_CURVE('',#538,#535,#276,.T.);
#641=EDGE_CURVE('',#539,#540,#277,.T.);
#642=EDGE_CURVE('',#541,#539,#278,.T.);
#643=EDGE_CURVE('',#542,#541,#279,.T.);
#644=EDGE_CURVE('',#542,#540,#280,.T.);
#645=EDGE_CURVE('',#543,#539,#281,.T.);
#646=EDGE_CURVE('',#544,#543,#282,.T.);
#647=EDGE_CURVE('',#541,#544,#283,.T.);
#648=EDGE_CURVE('',#544,#545,#284,.T.);
#649=EDGE_CURVE('',#545,#542,#285,.T.);
#650=EDGE_CURVE('',#540,#546,#286,.T.);
#651=EDGE_CURVE('',#545,#546,#287,.T.);
#652=EDGE_CURVE('',#546,#543,#288,.T.);
#653=EDGE_CURVE('',#547,#547,#507,.T.);
#654=EDGE_CURVE('',#547,#548,#289,.T.);
#655=EDGE_CURVE('',#548,#548,#508,.T.);
#656=EDGE_CURVE('',#549,#549,#509,.T.);
#657=EDGE_CURVE('',#549,#550,#290,.T.);
#658=EDGE_CURVE('',#550,#550,#510,.T.);
#659=EDGE_CURVE('',#551,#552,#291,.T.);
#660=EDGE_CURVE('',#552,#553,#292,.T.);
#661=EDGE_CURVE('',#553,#554,#293,.T.);
#662=EDGE_CURVE('',#554,#551,#294,.T.);
#663=EDGE_CURVE('',#555,#556,#295,.T.);
#664=EDGE_CURVE('',#556,#557,#296,.T.);
#665=EDGE_CURVE('',#557,#558,#297,.T.);
#666=EDGE_CURVE('',#558,#555,#298,.T.);
#667=EDGE_CURVE('',#554,#557,#299,.T.);
#668=EDGE_CURVE('',#551,#556,#300,.T.);
#669=EDGE_CURVE('',#553,#558,#301,.T.);
#670=EDGE_CURVE('',#552,#555,#302,.T.);
#671=EDGE_CURVE('',#559,#559,#511,.T.);
#672=EDGE_CURVE('',#559,#560,#303,.T.);
#673=EDGE_CURVE('',#560,#560,#512,.T.);
#674=EDGE_CURVE('',#561,#561,#513,.T.);
#675=EDGE_CURVE('',#561,#562,#304,.T.);
#676=EDGE_CURVE('',#562,#562,#514,.T.);
#677=EDGE_CURVE('',#563,#564,#305,.T.);
#678=EDGE_CURVE('',#565,#563,#306,.T.);
#679=EDGE_CURVE('',#566,#565,#307,.T.);
#680=EDGE_CURVE('',#566,#564,#308,.T.);
#681=EDGE_CURVE('',#567,#563,#309,.T.);
#682=EDGE_CURVE('',#568,#567,#310,.T.);
#683=EDGE_CURVE('',#565,#568,#311,.T.);
#684=EDGE_CURVE('',#568,#569,#312,.T.);
#685=EDGE_CURVE('',#569,#566,#313,.T.);
#686=EDGE_CURVE('',#564,#570,#314,.T.);
#687=EDGE_CURVE('',#569,#570,#315,.T.);
#688=EDGE_CURVE('',#570,#567,#316,.T.);
#689=EDGE_CURVE('',#571,#572,#317,.T.);
#690=EDGE_CURVE('',#573,#571,#318,.T.);
#691=EDGE_CURVE('',#574,#573,#319,.T.);
#692=EDGE_CURVE('',#574,#572,#320,.T.);
#693=EDGE_CURVE('',#575,#571,#321,.T.);
#694=EDGE_CURVE('',#576,#575,#322,.T.);
#695=EDGE_CURVE('',#573,#576,#323,.T.);
#696=EDGE_CURVE('',#576,#577,#324,.T.);
#697=EDGE_CURVE('',#577,#574,#325,.T.);
#698=EDGE_CURVE('',#572,#578,#326,.T.);
#699=EDGE_CURVE('',#577,#578,#327,.T.);
#700=EDGE_CURVE('',#578,#575,#328,.T.);
#701=EDGE_CURVE('',#579,#579,#515,.T.);
#702=EDGE_CURVE('',#579,#580,#329,.T.);
#703=EDGE_CURVE('',#580,#580,#516,.T.);
#704=EDGE_CURVE('',#581,#581,#517,.T.);
#705=EDGE_CURVE('',#581,#582,#330,.T.);
#706=EDGE_CURVE('',#582,#582,#518,.T.);
#707=EDGE_CURVE('',#583,#584,#331,.T.);
#708=EDGE_CURVE('',#584,#585,#332,.T.);
#709=EDGE_CURVE('',#585,#586,#333,.T.);
#710=EDGE_CURVE('',#586,#583,#334,.T.);
#711=EDGE_CURVE('',#587,#588,#335,.T.);
#712=EDGE_CURVE('',#588,#589,#336,.T.);
#713=EDGE_CURVE('',#589,#590,#337,.T.);
#714=EDGE_CURVE('',#590,#587,#338,.T.);
#715=EDGE_CURVE('',#586,#589,#339,.T.);
#716=EDGE_CURVE('',#583,#588,#340,.T.);
#717=EDGE_CURVE('',#585,#590,#341,.T.);
#718=EDGE_CURVE('',#584,#587,#342,.T.);
#719=EDGE_CURVE('',#591,#591,#519,.T.);
#720=EDGE_CURVE('',#591,#592,#343,.T.);
#721=EDGE_CURVE('',#592,#592,#520,.T.);
#722=EDGE_CURVE('',#593,#593,#521,.T.);
#723=EDGE_CURVE('',#593,#594,#344,.T.);
#724=EDGE_CURVE('',#594,#594,#522,.T.);
#725=EDGE_CURVE('',#595,#596,#345,.T.);
#726=EDGE_CURVE('',#597,#595,#346,.T.);
#727=EDGE_CURVE('',#598,#597,#347,.T.);
#728=EDGE_CURVE('',#598,#596,#348,.T.);
#729=EDGE_CURVE('',#599,#595,#349,.T.);
#730=EDGE_CURVE('',#600,#599,#350,.T.);
#731=EDGE_CURVE('',#597,#600,#351,.T.);
#732=EDGE_CURVE('',#600,#601,#352,.T.);
#733=EDGE_CURVE('',#601,#598,#353,.T.);
#734=EDGE_CURVE('',#596,#602,#354,.T.);
#735=EDGE_CURVE('',#601,#602,#355,.T.);
#736=EDGE_CURVE('',#602,#599,#356,.T.);
#737=EDGE_CURVE('',#603,#604,#357,.T.);
#738=EDGE_CURVE('',#605,#603,#358,.T.);
#739=EDGE_CURVE('',#606,#605,#359,.T.);
#740=EDGE_CURVE('',#606,#604,#360,.T.);
#741=EDGE_CURVE('',#607,#603,#361,.T.);
#742=EDGE_CURVE('',#608,#607,#362,.T.);
#743=EDGE_CURVE('',#605,#608,#363,.T.);
#744=EDGE_CURVE('',#608,#609,#364,.T.);
#745=EDGE_CURVE('',#609,#606,#365,.T.);
#746=EDGE_CURVE('',#604,#610,#366,.T.);
#747=EDGE_CURVE('',#609,#610,#367,.T.);
#748=EDGE_CURVE('',#610,#607,#368,.T.);
#749=EDGE_CURVE('',#611,#611,#523,.T.);
#750=EDGE_CURVE('',#611,#612,#369,.T.);
#751=EDGE_CURVE('',#612,#612,#524,.T.);
#752=EDGE_CURVE('',#613,#613,#525,.T.);
#753=EDGE_CURVE('',#613,#614,#370,.T.);
#754=EDGE_CURVE('',#614,#614,#526,.T.);
#755=EDGE_CURVE('',#615,#616,#371,.T.);
#756=EDGE_CURVE('',#616,#617,#372,.T.);
#757=EDGE_CURVE('',#617,#618,#373,.T.);
#758=EDGE_CURVE('',#618,#615,#374,.T.);
#759=EDGE_CURVE('',#619,#620,#375,.T.);
#760=EDGE_CURVE('',#620,#621,#376,.T.);
#761=EDGE_CURVE('',#621,#622,#377,.T.);
#762=EDGE_CURVE('',#622,#619,#378,.T.);
#763=EDGE_CURVE('',#618,#621,#379,.T.);
#764=EDGE_CURVE('',#615,#620,#380,.T.);
#765=EDGE_CURVE('',#617,#622,#381,.T.);
#766=EDGE_CURVE('',#616,#619,#382,.T.);
#767=ORIENTED_EDGE('',*,*,#623,.F.);
#768=ORIENTED_EDGE('',*,*,#624,.T.);
#769=ORIENTED_EDGE('',*,*,#625,.F.);
#770=ORIENTED_EDGE('',*,*,#624,.F.);
#771=ORIENTED_EDGE('',*,*,#626,.F.);
#772=ORIENTED_EDGE('',*,*,#627,.T.);
#773=ORIENTED_EDGE('',*,*,#628,.F.);
#774=ORIENTED_EDGE('',*,*,#627,.F.);
#775=ORIENTED_EDGE('',*,*,#629,.F.);
#776=ORIENTED_EDGE('',*,*,#630,.F.);
#777=ORIENTED_EDGE('',*,*,#631,.F.);
#778=ORIENTED_EDGE('',*,*,#632,.T.);
#779=ORIENTED_EDGE('',*,*,#633,.F.);
#780=ORIENTED_EDGE('',*,*,#634,.F.);
#781=ORIENTED_EDGE('',*,*,#635,.F.);
#782=ORIENTED_EDGE('',*,*,#630,.T.);
#783=ORIENTED_EDGE('',*,*,#626,.T.);
#784=ORIENTED_EDGE('',*,*,#636,.T.);
#785=ORIENTED_EDGE('',*,*,#637,.T.);
#786=ORIENTED_EDGE('',*,*,#631,.T.);
#787=ORIENTED_EDGE('',*,*,#635,.T.);
#788=ORIENTED_EDGE('',*,*,#638,.F.);
#789=ORIENTED_EDGE('',*,*,#632,.F.);
#790=ORIENTED_EDGE('',*,*,#637,.F.);
#791=ORIENTED_EDGE('',*,*,#639,.T.);
#792=ORIENTED_EDGE('',*,*,#628,.T.);
#793=ORIENTED_EDGE('',*,*,#640,.F.);
#794=ORIENTED_EDGE('',*,*,#639,.F.);
#795=ORIENTED_EDGE('',*,*,#636,.F.);
#796=ORIENTED_EDGE('',*,*,#634,.T.);
#797=ORIENTED_EDGE('',*,*,#641,.F.);
#798=ORIENTED_EDGE('',*,*,#642,.F.);
#799=ORIENTED_EDGE('',*,*,#643,.F.);
#800=ORIENTED_EDGE('',*,*,#644,.T.);
#801=ORIENTED_EDGE('',*,*,#645,.F.);
#802=ORIENTED_EDGE('',*,*,#646,.F.);
#803=ORIENTED_EDGE('',*,*,#647,.F.);
#804=ORIENTED_EDGE('',*,*,#642,.T.);
#805=ORIENTED_EDGE('',*,*,#623,.T.);
#806=ORIENTED_EDGE('',*,*,#648,.T.);
#807=ORIENTED_EDGE('',*,*,#649,.T.);
#808=ORIENTED_EDGE('',*,*,#643,.T.);
#809=ORIENTED_EDGE('',*,*,#647,.T.);
#810=ORIENTED_EDGE('',*,*,#650,.F.);
#811=ORIENTED_EDGE('',*,*,#644,.F.);
#812=ORIENTED_EDGE('',*,*,#649,.F.);
#813=ORIENTED_EDGE('',*,*,#651,.T.);
#814=ORIENTED_EDGE('',*,*,#625,.T.);
#815=ORIENTED_EDGE('',*,*,#652,.F.);
#816=ORIENTED_EDGE('',*,*,#651,.F.);
#817=ORIENTED_EDGE('',*,*,#648,.F.);
#818=ORIENTED_EDGE('',*,*,#646,.T.);
#819=ORIENTED_EDGE('',*,*,#653,.F.);
#820=ORIENTED_EDGE('',*,*,#654,.T.);
#821=ORIENTED_EDGE('',*,*,#655,.F.);
#822=ORIENTED_EDGE('',*,*,#654,.F.);
#823=ORIENTED_EDGE('',*,*,#656,.F.);
#824=ORIENTED_EDGE('',*,*,#657,.T.);
#825=ORIENTED_EDGE('',*,*,#658,.F.);
#826=ORIENTED_EDGE('',*,*,#657,.F.);
#827=ORIENTED_EDGE('',*,*,#659,.T.);
#828=ORIENTED_EDGE('',*,*,#660,.T.);
#829=ORIENTED_EDGE('',*,*,#661,.T.);
#830=ORIENTED_EDGE('',*,*,#662,.T.);
#831=ORIENTED_EDGE('',*,*,#633,.T.);
#832=ORIENTED_EDGE('',*,*,#629,.T.);
#833=ORIENTED_EDGE('',*,*,#638,.T.);
#834=ORIENTED_EDGE('',*,*,#640,.T.);
#835=ORIENTED_EDGE('',*,*,#645,.T.);
#836=ORIENTED_EDGE('',*,*,#641,.T.);
#837=ORIENTED_EDGE('',*,*,#650,.T.);
#838=ORIENTED_EDGE('',*,*,#652,.T.);
#839=ORIENTED_EDGE('',*,*,#655,.T.);
#840=ORIENTED_EDGE('',*,*,#658,.T.);
#841=ORIENTED_EDGE('',*,*,#663,.T.);
#842=ORIENTED_EDGE('',*,*,#664,.T.);
#843=ORIENTED_EDGE('',*,*,#665,.T.);
#844=ORIENTED_EDGE('',*,*,#666,.T.);
#845=ORIENTED_EDGE('',*,*,#653,.T.);
#846=ORIENTED_EDGE('',*,*,#656,.T.);
#847=ORIENTED_EDGE('',*,*,#667,.T.);
#848=ORIENTED_EDGE('',*,*,#664,.F.);
#849=ORIENTED_EDGE('',*,*,#668,.F.);
#850=ORIENTED_EDGE('',*,*,#662,.F.);
#851=ORIENTED_EDGE('',*,*,#669,.T.);
#852=ORIENTED_EDGE('',*,*,#665,.F.);
#853=ORIENTED_EDGE('',*,*,#667,.F.);
#854=ORIENTED_EDGE('',*,*,#661,.F.);
#855=ORIENTED_EDGE('',*,*,#670,.T.);
#856=ORIENTED_EDGE('',*,*,#666,.F.);
#857=ORIENTED_EDGE('',*,*,#669,.F.);
#858=ORIENTED_EDGE('',*,*,#660,.F.);
#859=ORIENTED_EDGE('',*,*,#668,.T.);
#860=ORIENTED_EDGE('',*,*,#663,.F.);
#861=ORIENTED_EDGE('',*,*,#670,.F.);
#862=ORIENTED_EDGE('',*,*,#659,.F.);
#863=ORIENTED_EDGE('',*,*,#671,.F.);
#864=ORIENTED_EDGE('',*,*,#672,.T.);
#865=ORIENTED_EDGE('',*,*,#673,.F.);
#866=ORIENTED_EDGE('',*,*,#672,.F.);
#867=ORIENTED_EDGE('',*,*,#674,.F.);
#868=ORIENTED_EDGE('',*,*,#675,.T.);
#869=ORIENTED_EDGE('',*,*,#676,.F.);
#870=ORIENTED_EDGE('',*,*,#675,.F.);
#871=ORIENTED_EDGE('',*,*,#677,.F.);
#872=ORIENTED_EDGE('',*,*,#678,.F.);
#873=ORIENTED_EDGE('',*,*,#679,.F.);
#874=ORIENTED_EDGE('',*,*,#680,.T.);
#875=ORIENTED_EDGE('',*,*,#681,.F.);
#876=ORIENTED_EDGE('',*,*,#682,.F.);
#877=ORIENTED_EDGE('',*,*,#683,.F.);
#878=ORIENTED_EDGE('',*,*,#678,.T.);
#879=ORIENTED_EDGE('',*,*,#674,.T.);
#880=ORIENTED_EDGE('',*,*,#684,.T.);
#881=ORIENTED_EDGE('',*,*,#685,.T.);
#882=ORIENTED_EDGE('',*,*,#679,.T.);
#883=ORIENTED_EDGE('',*,*,#683,.T.);
#884=ORIENTED_EDGE('',*,*,#686,.F.);
#885=ORIENTED_EDGE('',*,*,#680,.F.);
#886=ORIENTED_EDGE('',*,*,#685,.F.);
#887=ORIENTED_EDGE('',*,*,#687,.T.);
#888=ORIENTED_EDGE('',*,*,#676,.T.);
#889=ORIENTED_EDGE('',*,*,#688,.F.);
#890=ORIENTED_EDGE('',*,*,#687,.F.);
#891=ORIENTED_EDGE('',*,*,#684,.F.);
#892=ORIENTED_EDGE('',*,*,#682,.T.);
#893=ORIENTED_EDGE('',*,*,#689,.F.);
#894=ORIENTED_EDGE('',*,*,#690,.F.);
#895=ORIENTED_EDGE('',*,*,#691,.F.);
#896=ORIENTED_EDGE('',*,*,#692,.T.);
#897=ORIENTED_EDGE('',*,*,#693,.F.);
#898=ORIENTED_EDGE('',*,*,#694,.F.);
#899=ORIENTED_EDGE('',*,*,#695,.F.);
#900=ORIENTED_EDGE('',*,*,#690,.T.);
#901=ORIENTED_EDGE('',*,*,#671,.T.);
#902=ORIENTED_EDGE('',*,*,#696,.T.);
#903=ORIENTED_EDGE('',*,*,#697,.T.);
#904=ORIENTED_EDGE('',*,*,#691,.T.);
#905=ORIENTED_EDGE('',*,*,#695,.T.);
#906=ORIENTED_EDGE('',*,*,#698,.F.);
#907=ORIENTED_EDGE('',*,*,#692,.F.);
#908=ORIENTED_EDGE('',*,*,#697,.F.);
#909=ORIENTED_EDGE('',*,*,#699,.T.);
#910=ORIENTED_EDGE('',*,*,#673,.T.);
#911=ORIENTED_EDGE('',*,*,#700,.F.);
#912=ORIENTED_EDGE('',*,*,#699,.F.);
#913=ORIENTED_EDGE('',*,*,#696,.F.);
#914=ORIENTED_EDGE('',*,*,#694,.T.);
#915=ORIENTED_EDGE('',*,*,#701,.F.);
#916=ORIENTED_EDGE('',*,*,#702,.T.);
#917=ORIENTED_EDGE('',*,*,#703,.F.);
#918=ORIENTED_EDGE('',*,*,#702,.F.);
#919=ORIENTED_EDGE('',*,*,#704,.F.);
#920=ORIENTED_EDGE('',*,*,#705,.T.);
#921=ORIENTED_EDGE('',*,*,#706,.F.);
#922=ORIENTED_EDGE('',*,*,#705,.F.);
#923=ORIENTED_EDGE('',*,*,#707,.T.);
#924=ORIENTED_EDGE('',*,*,#708,.T.);
#925=ORIENTED_EDGE('',*,*,#709,.T.);
#926=ORIENTED_EDGE('',*,*,#710,.T.);
#927=ORIENTED_EDGE('',*,*,#681,.T.);
#928=ORIENTED_EDGE('',*,*,#677,.T.);
#929=ORIENTED_EDGE('',*,*,#686,.T.);
#930=ORIENTED_EDGE('',*,*,#688,.T.);
#931=ORIENTED_EDGE('',*,*,#693,.T.);
#932=ORIENTED_EDGE('',*,*,#689,.T.);
#933=ORIENTED_EDGE('',*,*,#698,.T.);
#934=ORIENTED_EDGE('',*,*,#700,.T.);
#935=ORIENTED_EDGE('',*,*,#703,.T.);
#936=ORIENTED_EDGE('',*,*,#706,.T.);
#937=ORIENTED_EDGE('',*,*,#711,.T.);
#938=ORIENTED_EDGE('',*,*,#712,.T.);
#939=ORIENTED_EDGE('',*,*,#713,.T.);
#940=ORIENTED_EDGE('',*,*,#714,.T.);
#941=ORIENTED_EDGE('',*,*,#701,.T.);
#942=ORIENTED_EDGE('',*,*,#704,.T.);
#943=ORIENTED_EDGE('',*,*,#715,.T.);
#944=ORIENTED_EDGE('',*,*,#712,.F.);
#945=ORIENTED_EDGE('',*,*,#716,.F.);
#946=ORIENTED_EDGE('',*,*,#710,.F.);
#947=ORIENTED_EDGE('',*,*,#717,.T.);
#948=ORIENTED_EDGE('',*,*,#713,.F.);
#949=ORIENTED_EDGE('',*,*,#715,.F.);
#950=ORIENTED_EDGE('',*,*,#709,.F.);
#951=ORIENTED_EDGE('',*,*,#718,.T.);
#952=ORIENTED_EDGE('',*,*,#714,.F.);
#953=ORIENTED_EDGE('',*,*,#717,.F.);
#954=ORIENTED_EDGE('',*,*,#708,.F.);
#955=ORIENTED_EDGE('',*,*,#716,.T.);
#956=ORIENTED_EDGE('',*,*,#711,.F.);
#957=ORIENTED_EDGE('',*,*,#718,.F.);
#958=ORIENTED_EDGE('',*,*,#707,.F.);
#959=ORIENTED_EDGE('',*,*,#719,.F.);
#960=ORIENTED_EDGE('',*,*,#720,.T.);
#961=ORIENTED_EDGE('',*,*,#721,.F.);
#962=ORIENTED_EDGE('',*,*,#720,.F.);
#963=ORIENTED_EDGE('',*,*,#722,.F.);
#964=ORIENTED_EDGE('',*,*,#723,.T.);
#965=ORIENTED_EDGE('',*,*,#724,.F.);
#966=ORIENTED_EDGE('',*,*,#723,.F.);
#967=ORIENTED_EDGE('',*,*,#725,.F.);
#968=ORIENTED_EDGE('',*,*,#726,.F.);
#969=ORIENTED_EDGE('',*,*,#727,.F.);
#970=ORIENTED_EDGE('',*,*,#728,.T.);
#971=ORIENTED_EDGE('',*,*,#729,.F.);
#972=ORIENTED_EDGE('',*,*,#730,.F.);
#973=ORIENTED_EDGE('',*,*,#731,.F.);
#974=ORIENTED_EDGE('',*,*,#726,.T.);
#975=ORIENTED_EDGE('',*,*,#722,.T.);
#976=ORIENTED_EDGE('',*,*,#732,.T.);
#977=ORIENTED_EDGE('',*,*,#733,.T.);
#978=ORIENTED_EDGE('',*,*,#727,.T.);
#979=ORIENTED_EDGE('',*,*,#731,.T.);
#980=ORIENTED_EDGE('',*,*,#734,.F.);
#981=ORIENTED_EDGE('',*,*,#728,.F.);
#982=ORIENTED_EDGE('',*,*,#733,.F.);
#983=ORIENTED_EDGE('',*,*,#735,.T.);
#984=ORIENTED_EDGE('',*,*,#724,.T.);
#985=ORIENTED_EDGE('',*,*,#736,.F.);
#986=ORIENTED_EDGE('',*,*,#735,.F.);
#987=ORIENTED_EDGE('',*,*,#732,.F.);
#988=ORIENTED_EDGE('',*,*,#730,.T.);
#989=ORIENTED_EDGE('',*,*,#737,.F.);
#990=ORIENTED_EDGE('',*,*,#738,.F.);
#991=ORIENTED_EDGE('',*,*,#739,.F.);
#992=ORIENTED_EDGE('',*,*,#740,.T.);
#993=ORIENTED_EDGE('',*,*,#741,.F.);
#994=ORIENTED_EDGE('',*,*,#742,.F.);
#995=ORIENTED_EDGE('',*,*,#743,.F.);
#996=ORIENTED_EDGE('',*,*,#738,.T.);
#997=ORIENTED_EDGE('',*,*,#719,.T.);
#998=ORIENTED_EDGE('',*,*,#744,.T.);
#999=ORIENTED_EDGE('',*,*,#745,.T.);
#1000=ORIENTED_EDGE('',*,*,#739,.T.);
#1001=ORIENTED_EDGE('',*,*,#743,.T.);
#1002=ORIENTED_EDGE('',*,*,#746,.F.);
#1003=ORIENTED_EDGE('',*,*,#740,.F.);
#1004=ORIENTED_EDGE('',*,*,#745,.F.);
#1005=ORIENTED_EDGE('',*,*,#747,.T.);
#1006=ORIENTED_EDGE('',*,*,#721,.T.);
#1007=ORIENTED_EDGE('',*,*,#748,.F.);
#1008=ORIENTED_EDGE('',*,*,#747,.F.);
#1009=ORIENTED_EDGE('',*,*,#744,.F.);
#1010=ORIENTED_EDGE('',*,*,#742,.T.);
#1011=ORIENTED_EDGE('',*,*,#749,.F.);
#1012=ORIENTED_EDGE('',*,*,#750,.T.);
#1013=ORIENTED_EDGE('',*,*,#751,.F.);
#1014=ORIENTED_EDGE('',*,*,#750,.F.);
#1015=ORIENTED_EDGE('',*,*,#752,.F.);
#1016=ORIENTED_EDGE('',*,*,#753,.T.);
#1017=ORIENTED_EDGE('',*,*,#754,.F.);
#1018=ORIENTED_EDGE('',*,*,#753,.F.);
#1019=ORIENTED_EDGE('',*,*,#755,.T.);
#1020=ORIENTED_EDGE('',*,*,#756,.T.);
#1021=ORIENTED_EDGE('',*,*,#757,.T.);
#1022=ORIENTED_EDGE('',*,*,#758,.T.);
#1023=ORIENTED_EDGE('',*,*,#729,.T.);
#1024=ORIENTED_EDGE('',*,*,#725,.T.);
#1025=ORIENTED_EDGE('',*,*,#734,.T.);
#1026=ORIENTED_EDGE('',*,*,#736,.T.);
#1027=ORIENTED_EDGE('',*,*,#741,.T.);
#1028=ORIENTED_EDGE('',*,*,#737,.T.);
#1029=ORIENTED_EDGE('',*,*,#746,.T.);
#1030=ORIENTED_EDGE('',*,*,#748,.T.);
#1031=ORIENTED_EDGE('',*,*,#751,.T.);
#1032=ORIENTED_EDGE('',*,*,#754,.T.);
#1033=ORIENTED_EDGE('',*,*,#759,.T.);
#1034=ORIENTED_EDGE('',*,*,#760,.T.);
#1035=ORIENTED_EDGE('',*,*,#761,.T.);
#1036=ORIENTED_EDGE('',*,*,#762,.T.);
#1037=ORIENTED_EDGE('',*,*,#749,.T.);
#1038=ORIENTED_EDGE('',*,*,#752,.T.);
#1039=ORIENTED_EDGE('',*,*,#763,.T.);
#1040=ORIENTED_EDGE('',*,*,#760,.F.);
#1041=ORIENTED_EDGE('',*,*,#764,.F.);
#1042=ORIENTED_EDGE('',*,*,#758,.F.);
#1043=ORIENTED_EDGE('',*,*,#765,.T.);
#1044=ORIENTED_EDGE('',*,*,#761,.F.);
#1045=ORIENTED_EDGE('',*,*,#763,.F.);
#1046=ORIENTED_EDGE('',*,*,#757,.F.);
#1047=ORIENTED_EDGE('',*,*,#766,.T.);
#1048=ORIENTED_EDGE('',*,*,#762,.F.);
#1049=ORIENTED_EDGE('',*,*,#765,.F.);
#1050=ORIENTED_EDGE('',*,*,#756,.F.);
#1051=ORIENTED_EDGE('',*,*,#764,.T.);
#1052=ORIENTED_EDGE('',*,*,#759,.F.);
#1053=ORIENTED_EDGE('',*,*,#766,.F.);
#1054=ORIENTED_EDGE('',*,*,#755,.F.);
#1055=CYLINDRICAL_SURFACE('',#1166,4.1);
#1056=CYLINDRICAL_SURFACE('',#1169,4.1);
#1057=CYLINDRICAL_SURFACE('',#1182,4.3);
#1058=CYLINDRICAL_SURFACE('',#1185,4.3);
#1059=CYLINDRICAL_SURFACE('',#1195,4.1);
#1060=CYLINDRICAL_SURFACE('',#1198,4.1);
#1061=CYLINDRICAL_SURFACE('',#1211,4.3);
#1062=CYLINDRICAL_SURFACE('',#1214,4.3);
#1063=CYLINDRICAL_SURFACE('',#1224,4.1);
#1064=CYLINDRICAL_SURFACE('',#1227,4.1);
#1065=CYLINDRICAL_SURFACE('',#1240,4.3);
#1066=CYLINDRICAL_SURFACE('',#1243,4.3);
#1067=ADVANCED_FACE('',(#113),#1055,.F.);
#1068=ADVANCED_FACE('',(#114),#1056,.F.);
#1069=ADVANCED_FACE('',(#115),#65,.F.);
#1070=ADVANCED_FACE('',(#116,#35),#66,.F.);
#1071=ADVANCED_FACE('',(#117),#67,.T.);
#1072=ADVANCED_FACE('',(#118,#36),#68,.F.);
#1073=ADVANCED_FACE('',(#119),#69,.F.);
#1074=ADVANCED_FACE('',(#120),#70,.F.);
#1075=ADVANCED_FACE('',(#121,#37),#71,.F.);
#1076=ADVANCED_FACE('',(#122),#72,.T.);
#1077=ADVANCED_FACE('',(#123,#38),#73,.F.);
#1078=ADVANCED_FACE('',(#124),#74,.F.);
#1079=ADVANCED_FACE('',(#125),#1057,.F.);
#1080=ADVANCED_FACE('',(#126),#1058,.F.);
#1081=ADVANCED_FACE('',(#127,#39,#40,#41,#42),#75,.T.);
#1082=ADVANCED_FACE('',(#128,#43,#44),#76,.F.);
#1083=ADVANCED_FACE('',(#129),#77,.F.);
#1084=ADVANCED_FACE('',(#130),#78,.F.);
#1085=ADVANCED_FACE('',(#131),#79,.F.);
#1086=ADVANCED_FACE('',(#132),#80,.F.);
#1087=ADVANCED_FACE('',(#133),#1059,.F.);
#1088=ADVANCED_FACE('',(#134),#1060,.F.);
#1089=ADVANCED_FACE('',(#135),#81,.F.);
#1090=ADVANCED_FACE('',(#136,#45),#82,.F.);
#1091=ADVANCED_FACE('',(#137),#83,.T.);
#1092=ADVANCED_FACE('',(#138,#46),#84,.F.);
#1093=ADVANCED_FACE('',(#139),#85,.F.);
#1094=ADVANCED_FACE('',(#140),#86,.F.);
#1095=ADVANCED_FACE('',(#141,#47),#87,.F.);
#1096=ADVANCED_FACE('',(#142),#88,.T.);
#1097=ADVANCED_FACE('',(#143,#48),#89,.F.);
#1098=ADVANCED_FACE('',(#144),#90,.F.);
#1099=ADVANCED_FACE('',(#145),#1061,.F.);
#1100=ADVANCED_FACE('',(#146),#1062,.F.);
#1101=ADVANCED_FACE('',(#147,#49,#50,#51,#52),#91,.T.);
#1102=ADVANCED_FACE('',(#148,#53,#54),#92,.F.);
#1103=ADVANCED_FACE('',(#149),#93,.F.);
#1104=ADVANCED_FACE('',(#150),#94,.F.);
#1105=ADVANCED_FACE('',(#151),#95,.F.);
#1106=ADVANCED_FACE('',(#152),#96,.F.);
#1107=ADVANCED_FACE('',(#153),#1063,.F.);
#1108=ADVANCED_FACE('',(#154),#1064,.F.);
#1109=ADVANCED_FACE('',(#155),#97,.F.);
#1110=ADVANCED_FACE('',(#156,#55),#98,.F.);
#1111=ADVANCED_FACE('',(#157),#99,.T.);
#1112=ADVANCED_FACE('',(#158,#56),#100,.F.);
#1113=ADVANCED_FACE('',(#159),#101,.F.);
#1114=ADVANCED_FACE('',(#160),#102,.F.);
#1115=ADVANCED_FACE('',(#161,#57),#103,.F.);
#1116=ADVANCED_FACE('',(#162),#104,.T.);
#1117=ADVANCED_FACE('',(#163,#58),#105,.F.);
#1118=ADVANCED_FACE('',(#164),#106,.F.);
#1119=ADVANCED_FACE('',(#165),#1065,.F.);
#1120=ADVANCED_FACE('',(#166),#1066,.F.);
#1121=ADVANCED_FACE('',(#167,#59,#60,#61,#62),#107,.T.);
#1122=ADVANCED_FACE('',(#168,#63,#64),#108,.F.);
#1123=ADVANCED_FACE('',(#169),#109,.F.);
#1124=ADVANCED_FACE('',(#170),#110,.F.);
#1125=ADVANCED_FACE('',(#171),#111,.F.);
#1126=ADVANCED_FACE('',(#172),#112,.F.);
#1127=CLOSED_SHELL('',(#1067,#1068,#1069,#1070,#1071,#1072,#1073,#1074,
#1075,#1076,#1077,#1078,#1079,#1080,#1081,#1082,#1083,#1084,#1085,#1086));
#1128=CLOSED_SHELL('',(#1087,#1088,#1089,#1090,#1091,#1092,#1093,#1094,
#1095,#1096,#1097,#1098,#1099,#1100,#1101,#1102,#1103,#1104,#1105,#1106));
#1129=CLOSED_SHELL('',(#1107,#1108,#1109,#1110,#1111,#1112,#1113,#1114,
#1115,#1116,#1117,#1118,#1119,#1120,#1121,#1122,#1123,#1124,#1125,#1126));
#1130=DERIVED_UNIT_ELEMENT(#1136,1.);
#1131=DERIVED_UNIT_ELEMENT(#1875,-3.);
#1132=DERIVED_UNIT_ELEMENT(#1136,1.);
#1133=DERIVED_UNIT_ELEMENT(#1875,-3.);
#1134=DERIVED_UNIT_ELEMENT(#1136,1.);
#1135=DERIVED_UNIT_ELEMENT(#1875,-3.);
#1136=(
MASS_UNIT()
NAMED_UNIT(*)
SI_UNIT(.KILO.,.GRAM.)
);
#1137=DERIVED_UNIT((#1130,#1131));
#1138=DERIVED_UNIT((#1132,#1133));
#1139=DERIVED_UNIT((#1134,#1135));
#1140=MEASURE_REPRESENTATION_ITEM('density measure',
POSITIVE_RATIO_MEASURE(7850.),#1137);
#1141=MEASURE_REPRESENTATION_ITEM('density measure',
POSITIVE_RATIO_MEASURE(7850.),#1138);
#1142=MEASURE_REPRESENTATION_ITEM('density measure',
POSITIVE_RATIO_MEASURE(7850.),#1139);
#1143=PROPERTY_DEFINITION_REPRESENTATION(#1158,#1149);
#1144=PROPERTY_DEFINITION_REPRESENTATION(#1159,#1150);
#1145=PROPERTY_DEFINITION_REPRESENTATION(#1160,#1151);
#1146=PROPERTY_DEFINITION_REPRESENTATION(#1161,#1152);
#1147=PROPERTY_DEFINITION_REPRESENTATION(#1162,#1153);
#1148=PROPERTY_DEFINITION_REPRESENTATION(#1163,#1154);
#1149=REPRESENTATION('material name',(#1155),#1870);
#1150=REPRESENTATION('density',(#1140),#1870);
#1151=REPRESENTATION('material name',(#1156),#1871);
#1152=REPRESENTATION('density',(#1141),#1871);
#1153=REPRESENTATION('material name',(#1157),#1872);
#1154=REPRESENTATION('density',(#1142),#1872);
#1155=DESCRIPTIVE_REPRESENTATION_ITEM('\X2\AC15CCA0\X0\','\X2\AC15CCA0\X0\');
#1156=DESCRIPTIVE_REPRESENTATION_ITEM('\X2\AC15CCA0\X0\','\X2\AC15CCA0\X0\');
#1157=DESCRIPTIVE_REPRESENTATION_ITEM('\X2\AC15CCA0\X0\','\X2\AC15CCA0\X0\');
#1158=PROPERTY_DEFINITION('material property','material name',#1895);
#1159=PROPERTY_DEFINITION('material property','density of part',#1895);
#1160=PROPERTY_DEFINITION('material property','material name',#1896);
#1161=PROPERTY_DEFINITION('material property','density of part',#1896);
#1162=PROPERTY_DEFINITION('material property','material name',#1897);
#1163=PROPERTY_DEFINITION('material property','density of part',#1897);
#1164=AXIS2_PLACEMENT_3D('',#1557,#1255,#1256);
#1165=AXIS2_PLACEMENT_3D('',#1558,#1257,#1258);
#1166=AXIS2_PLACEMENT_3D('',#1559,#1259,#1260);
#1167=AXIS2_PLACEMENT_3D('',#1561,#1261,#1262);
#1168=AXIS2_PLACEMENT_3D('',#1564,#1264,#1265);
#1169=AXIS2_PLACEMENT_3D('',#1565,#1266,#1267);
#1170=AXIS2_PLACEMENT_3D('',#1567,#1268,#1269);
#1171=AXIS2_PLACEMENT_3D('',#1570,#1271,#1272);
#1172=AXIS2_PLACEMENT_3D('',#1571,#1273,#1274);
#1173=AXIS2_PLACEMENT_3D('',#1580,#1279,#1280);
#1174=AXIS2_PLACEMENT_3D('',#1586,#1284,#1285);
#1175=AXIS2_PLACEMENT_3D('',#1590,#1288,#1289);
#1176=AXIS2_PLACEMENT_3D('',#1594,#1292,#1293);
#1177=AXIS2_PLACEMENT_3D('',#1596,#1295,#1296);
#1178=AXIS2_PLACEMENT_3D('',#1605,#1301,#1302);
#1179=AXIS2_PLACEMENT_3D('',#1611,#1306,#1307);
#1180=AXIS2_PLACEMENT_3D('',#1615,#1310,#1311);
#1181=AXIS2_PLACEMENT_3D('',#1619,#1314,#1315);
#1182=AXIS2_PLACEMENT_3D('',#1621,#1317,#1318);
#1183=AXIS2_PLACEMENT_3D('',#1623,#1319,#1320);
#1184=AXIS2_PLACEMENT_3D('',#1626,#1322,#1323);
#1185=AXIS2_PLACEMENT_3D('',#1627,#1324,#1325);
#1186=AXIS2_PLACEMENT_3D('',#1629,#1326,#1327);
#1187=AXIS2_PLACEMENT_3D('',#1632,#1329,#1330);
#1188=AXIS2_PLACEMENT_3D('',#1633,#1331,#1332);
#1189=AXIS2_PLACEMENT_3D('',#1642,#1337,#1338);
#1190=AXIS2_PLACEMENT_3D('',#1651,#1343,#1344);
#1191=AXIS2_PLACEMENT_3D('',#1654,#1347,#1348);
#1192=AXIS2_PLACEMENT_3D('',#1656,#1350,#1351);
#1193=AXIS2_PLACEMENT_3D('',#1658,#1353,#1354);
#1194=AXIS2_PLACEMENT_3D('',#1659,#1355,#1356);
#1195=AXIS2_PLACEMENT_3D('',#1660,#1357,#1358);
#1196=AXIS2_PLACEMENT_3D('',#1662,#1359,#1360);
#1197=AXIS2_PLACEMENT_3D('',#1665,#1362,#1363);
#1198=AXIS2_PLACEMENT_3D('',#1666,#1364,#1365);
#1199=AXIS2_PLACEMENT_3D('',#1668,#1366,#1367);
#1200=AXIS2_PLACEMENT_3D('',#1671,#1369,#1370);
#1201=AXIS2_PLACEMENT_3D('',#1672,#1371,#1372);
#1202=AXIS2_PLACEMENT_3D('',#1681,#1377,#1378);
#1203=AXIS2_PLACEMENT_3D('',#1687,#1382,#1383);
#1204=AXIS2_PLACEMENT_3D('',#1691,#1386,#1387);
#1205=AXIS2_PLACEMENT_3D('',#1695,#1390,#1391);
#1206=AXIS2_PLACEMENT_3D('',#1697,#1393,#1394);
#1207=AXIS2_PLACEMENT_3D('',#1706,#1399,#1400);
#1208=AXIS2_PLACEMENT_3D('',#1712,#1404,#1405);
#1209=AXIS2_PLACEMENT_3D('',#1716,#1408,#1409);
#1210=AXIS2_PLACEMENT_3D('',#1720,#1412,#1413);
#1211=AXIS2_PLACEMENT_3D('',#1722,#1415,#1416);
#1212=AXIS2_PLACEMENT_3D('',#1724,#1417,#1418);
#1213=AXIS2_PLACEMENT_3D('',#1727,#1420,#1421);
#1214=AXIS2_PLACEMENT_3D('',#1728,#1422,#1423);
#1215=AXIS2_PLACEMENT_3D('',#1730,#1424,#1425);
#1216=AXIS2_PLACEMENT_3D('',#1733,#1427,#1428);
#1217=AXIS2_PLACEMENT_3D('',#1734,#1429,#1430);
#1218=AXIS2_PLACEMENT_3D('',#1743,#1435,#1436);
#1219=AXIS2_PLACEMENT_3D('',#1752,#1441,#1442);
#1220=AXIS2_PLACEMENT_3D('',#1755,#1445,#1446);
#1221=AXIS2_PLACEMENT_3D('',#1757,#1448,#1449);
#1222=AXIS2_PLACEMENT_3D('',#1759,#1451,#1452);
#1223=AXIS2_PLACEMENT_3D('',#1760,#1453,#1454);
#1224=AXIS2_PLACEMENT_3D('',#1761,#1455,#1456);
#1225=AXIS2_PLACEMENT_3D('',#1763,#1457,#1458);
#1226=AXIS2_PLACEMENT_3D('',#1766,#1460,#1461);
#1227=AXIS2_PLACEMENT_3D('',#1767,#1462,#1463);
#1228=AXIS2_PLACEMENT_3D('',#1769,#1464,#1465);
#1229=AXIS2_PLACEMENT_3D('',#1772,#1467,#1468);
#1230=AXIS2_PLACEMENT_3D('',#1773,#1469,#1470);
#1231=AXIS2_PLACEMENT_3D('',#1782,#1475,#1476);
#1232=AXIS2_PLACEMENT_3D('',#1788,#1480,#1481);
#1233=AXIS2_PLACEMENT_3D('',#1792,#1484,#1485);
#1234=AXIS2_PLACEMENT_3D('',#1796,#1488,#1489);
#1235=AXIS2_PLACEMENT_3D('',#1798,#1491,#1492);
#1236=AXIS2_PLACEMENT_3D('',#1807,#1497,#1498);
#1237=AXIS2_PLACEMENT_3D('',#1813,#1502,#1503);
#1238=AXIS2_PLACEMENT_3D('',#1817,#1506,#1507);
#1239=AXIS2_PLACEMENT_3D('',#1821,#1510,#1511);
#1240=AXIS2_PLACEMENT_3D('',#1823,#1513,#1514);
#1241=AXIS2_PLACEMENT_3D('',#1825,#1515,#1516);
#1242=AXIS2_PLACEMENT_3D('',#1828,#1518,#1519);
#1243=AXIS2_PLACEMENT_3D('',#1829,#1520,#1521);
#1244=AXIS2_PLACEMENT_3D('',#1831,#1522,#1523);
#1245=AXIS2_PLACEMENT_3D('',#1834,#1525,#1526);
#1246=AXIS2_PLACEMENT_3D('',#1835,#1527,#1528);
#1247=AXIS2_PLACEMENT_3D('',#1844,#1533,#1534);
#1248=AXIS2_PLACEMENT_3D('',#1853,#1539,#1540);
#1249=AXIS2_PLACEMENT_3D('',#1856,#1543,#1544);
#1250=AXIS2_PLACEMENT_3D('',#1858,#1546,#1547);
#1251=AXIS2_PLACEMENT_3D('',#1860,#1549,#1550);
#1252=AXIS2_PLACEMENT_3D('',#1861,#1551,#1552);
#1253=AXIS2_PLACEMENT_3D('',#1862,#1553,#1554);
#1254=AXIS2_PLACEMENT_3D('',#1863,#1555,#1556);
#1255=DIRECTION('axis',(0.,0.,1.));
#1256=DIRECTION('refdir',(1.,0.,0.));
#1257=DIRECTION('axis',(0.,0.,1.));
#1258=DIRECTION('refdir',(1.,0.,0.));
#1259=DIRECTION('center_axis',(-1.,0.,0.));
#1260=DIRECTION('ref_axis',(0.,0.,1.));
#1261=DIRECTION('center_axis',(-1.,6.12323399573677E-17,0.));
#1262=DIRECTION('ref_axis',(0.,0.,1.));
#1263=DIRECTION('',(-1.,0.,0.));
#1264=DIRECTION('center_axis',(1.,-6.12323399573677E-17,0.));
#1265=DIRECTION('ref_axis',(0.,0.,1.));
#1266=DIRECTION('center_axis',(-1.,0.,0.));
#1267=DIRECTION('ref_axis',(0.,0.,1.));
#1268=DIRECTION('center_axis',(-1.,6.12323399573677E-17,0.));
#1269=DIRECTION('ref_axis',(0.,0.,1.));
#1270=DIRECTION('',(-1.,0.,0.));
#1271=DIRECTION('center_axis',(1.,-6.12323399573677E-17,0.));
#1272=DIRECTION('ref_axis',(0.,0.,1.));
#1273=DIRECTION('center_axis',(6.12323399573677E-17,1.,0.));
#1274=DIRECTION('ref_axis',(0.,0.,-1.));
#1275=DIRECTION('',(-1.,6.12323399573677E-17,0.));
#1276=DIRECTION('',(0.,0.,-1.));
#1277=DIRECTION('',(1.,-6.12323399573677E-17,0.));
#1278=DIRECTION('',(0.,0.,-1.));
#1279=DIRECTION('center_axis',(-1.,6.12323399573677E-17,0.));
#1280=DIRECTION('ref_axis',(0.,0.,1.));
#1281=DIRECTION('',(-6.12323399573677E-17,-1.,0.));
#1282=DIRECTION('',(0.,0.,-1.));
#1283=DIRECTION('',(6.12323399573677E-17,1.,0.));
#1284=DIRECTION('center_axis',(0.,0.,1.));
#1285=DIRECTION('ref_axis',(6.12323399573677E-17,1.,0.));
#1286=DIRECTION('',(-1.,6.12323399573677E-17,0.));
#1287=DIRECTION('',(-6.12323399573677E-17,-1.,0.));
#1288=DIRECTION('center_axis',(1.,-6.12323399573677E-17,0.));
#1289=DIRECTION('ref_axis',(0.,0.,-1.));
#1290=DIRECTION('',(6.12323399573677E-17,1.,0.));
#1291=DIRECTION('',(0.,0.,-1.));
#1292=DIRECTION('center_axis',(-6.12323399573677E-17,-1.,0.));
#1293=DIRECTION('ref_axis',(0.,0.,1.));
#1294=DIRECTION('',(1.,-6.12323399573677E-17,0.));
#1295=DIRECTION('center_axis',(6.12323399573677E-17,1.,0.));
#1296=DIRECTION('ref_axis',(0.,0.,-1.));
#1297=DIRECTION('',(-1.,6.12323399573677E-17,0.));
#1298=DIRECTION('',(0.,0.,-1.));
#1299=DIRECTION('',(1.,-6.12323399573677E-17,0.));
#1300=DIRECTION('',(0.,0.,-1.));
#1301=DIRECTION('center_axis',(-1.,6.12323399573677E-17,0.));
#1302=DIRECTION('ref_axis',(0.,0.,1.));
#1303=DIRECTION('',(-6.12323399573677E-17,-1.,0.));
#1304=DIRECTION('',(0.,0.,-1.));
#1305=DIRECTION('',(6.12323399573677E-17,1.,0.));
#1306=DIRECTION('center_axis',(0.,0.,1.));
#1307=DIRECTION('ref_axis',(6.12323399573677E-17,1.,0.));
#1308=DIRECTION('',(-1.,6.12323399573677E-17,0.));
#1309=DIRECTION('',(-6.12323399573677E-17,-1.,0.));
#1310=DIRECTION('center_axis',(1.,-6.12323399573677E-17,0.));
#1311=DIRECTION('ref_axis',(0.,0.,-1.));
#1312=DIRECTION('',(6.12323399573677E-17,1.,0.));
#1313=DIRECTION('',(0.,0.,-1.));
#1314=DIRECTION('center_axis',(-6.12323399573677E-17,-1.,0.));
#1315=DIRECTION('ref_axis',(0.,0.,1.));
#1316=DIRECTION('',(1.,-6.12323399573677E-17,0.));
#1317=DIRECTION('center_axis',(0.,0.,1.));
#1318=DIRECTION('ref_axis',(1.,0.,0.));
#1319=DIRECTION('center_axis',(0.,0.,1.));
#1320=DIRECTION('ref_axis',(1.,0.,0.));
#1321=DIRECTION('',(0.,0.,1.));
#1322=DIRECTION('center_axis',(0.,0.,-1.));
#1323=DIRECTION('ref_axis',(1.,0.,0.));
#1324=DIRECTION('center_axis',(0.,0.,1.));
#1325=DIRECTION('ref_axis',(1.,0.,0.));
#1326=DIRECTION('center_axis',(0.,0.,1.));
#1327=DIRECTION('ref_axis',(1.,0.,0.));
#1328=DIRECTION('',(0.,0.,1.));
#1329=DIRECTION('center_axis',(0.,0.,-1.));
#1330=DIRECTION('ref_axis',(1.,0.,0.));
#1331=DIRECTION('center_axis',(0.,0.,1.));
#1332=DIRECTION('ref_axis',(6.12323399573677E-17,1.,0.));
#1333=DIRECTION('',(-1.,6.12323399573677E-17,0.));
#1334=DIRECTION('',(-6.12323399573677E-17,-1.,0.));
#1335=DIRECTION('',(1.,-6.12323399573677E-17,0.));
#1336=DIRECTION('',(6.12323399573677E-17,1.,0.));
#1337=DIRECTION('center_axis',(0.,0.,1.));
#1338=DIRECTION('ref_axis',(6.12323399573677E-17,1.,0.));
#1339=DIRECTION('',(1.,-6.12323399573677E-17,0.));
#1340=DIRECTION('',(-6.12323399573677E-17,-1.,0.));
#1341=DIRECTION('',(-1.,6.12323399573677E-17,0.));
#1342=DIRECTION('',(6.12323399573677E-17,1.,0.));
#1343=DIRECTION('center_axis',(-1.,6.12323399573677E-17,0.));
#1344=DIRECTION('ref_axis',(0.,0.,1.));
#1345=DIRECTION('',(0.,0.,-1.));
#1346=DIRECTION('',(0.,0.,-1.));
#1347=DIRECTION('center_axis',(6.12323399573677E-17,1.,0.));
#1348=DIRECTION('ref_axis',(0.,0.,-1.));
#1349=DIRECTION('',(0.,0.,-1.));
#1350=DIRECTION('center_axis',(1.,-6.12323399573677E-17,0.));
#1351=DIRECTION('ref_axis',(0.,0.,-1.));
#1352=DIRECTION('',(0.,0.,-1.));
#1353=DIRECTION('center_axis',(-6.12323399573677E-17,-1.,0.));
#1354=DIRECTION('ref_axis',(0.,0.,1.));
#1355=DIRECTION('axis',(0.,0.,1.));
#1356=DIRECTION('refdir',(1.,0.,0.));
#1357=DIRECTION('center_axis',(0.5,-0.866025403784439,0.));
#1358=DIRECTION('ref_axis',(0.866025403784439,0.5,0.));
#1359=DIRECTION('center_axis',(0.5,-0.866025403784439,0.));
#1360=DIRECTION('ref_axis',(0.866025403784439,0.5,0.));
#1361=DIRECTION('',(0.5,-0.866025403784439,0.));
#1362=DIRECTION('center_axis',(-0.5,0.866025403784439,0.));
#1363=DIRECTION('ref_axis',(0.866025403784439,0.5,0.));
#1364=DIRECTION('center_axis',(0.5,-0.866025403784439,0.));
#1365=DIRECTION('ref_axis',(0.866025403784439,0.5,0.));
#1366=DIRECTION('center_axis',(0.5,-0.866025403784439,0.));
#1367=DIRECTION('ref_axis',(0.866025403784439,0.5,0.));
#1368=DIRECTION('',(0.5,-0.866025403784439,0.));
#1369=DIRECTION('center_axis',(-0.5,0.866025403784439,0.));
#1370=DIRECTION('ref_axis',(0.866025403784439,0.5,0.));
#1371=DIRECTION('center_axis',(-0.866025403784439,-0.5,0.));
#1372=DIRECTION('ref_axis',(0.,0.,-1.));
#1373=DIRECTION('',(0.5,-0.866025403784439,0.));
#1374=DIRECTION('',(0.,0.,-1.));
#1375=DIRECTION('',(-0.5,0.866025403784439,0.));
#1376=DIRECTION('',(0.,0.,-1.));
#1377=DIRECTION('center_axis',(0.5,-0.866025403784439,0.));
#1378=DIRECTION('ref_axis',(0.,0.,1.));
#1379=DIRECTION('',(0.866025403784439,0.5,0.));
#1380=DIRECTION('',(0.,0.,-1.));
#1381=DIRECTION('',(-0.866025403784439,-0.5,0.));
#1382=DIRECTION('center_axis',(0.,0.,1.));
#1383=DIRECTION('ref_axis',(-0.866025403784439,-0.5,0.));
#1384=DIRECTION('',(0.5,-0.866025403784439,0.));
#1385=DIRECTION('',(0.866025403784439,0.5,0.));
#1386=DIRECTION('center_axis',(-0.5,0.866025403784439,0.));
#1387=DIRECTION('ref_axis',(0.,0.,-1.));
#1388=DIRECTION('',(-0.866025403784439,-0.5,0.));
#1389=DIRECTION('',(0.,0.,-1.));
#1390=DIRECTION('center_axis',(0.866025403784439,0.5,0.));
#1391=DIRECTION('ref_axis',(0.,0.,1.));
#1392=DIRECTION('',(-0.5,0.866025403784439,0.));
#1393=DIRECTION('center_axis',(-0.866025403784439,-0.5,0.));
#1394=DIRECTION('ref_axis',(0.,0.,-1.));
#1395=DIRECTION('',(0.5,-0.866025403784439,0.));
#1396=DIRECTION('',(0.,0.,-1.));
#1397=DIRECTION('',(-0.5,0.866025403784439,0.));
#1398=DIRECTION('',(0.,0.,-1.));
#1399=DIRECTION('center_axis',(0.5,-0.866025403784439,0.));
#1400=DIRECTION('ref_axis',(0.,0.,1.));
#1401=DIRECTION('',(0.866025403784439,0.5,0.));
#1402=DIRECTION('',(0.,0.,-1.));
#1403=DIRECTION('',(-0.866025403784439,-0.5,0.));
#1404=DIRECTION('center_axis',(0.,0.,1.));
#1405=DIRECTION('ref_axis',(-0.866025403784439,-0.5,0.));
#1406=DIRECTION('',(0.5,-0.866025403784439,0.));
#1407=DIRECTION('',(0.866025403784439,0.5,0.));
#1408=DIRECTION('center_axis',(-0.5,0.866025403784439,0.));
#1409=DIRECTION('ref_axis',(0.,0.,-1.));
#1410=DIRECTION('',(-0.866025403784439,-0.5,0.));
#1411=DIRECTION('',(0.,0.,-1.));
#1412=DIRECTION('center_axis',(0.866025403784439,0.5,0.));
#1413=DIRECTION('ref_axis',(0.,0.,1.));
#1414=DIRECTION('',(-0.5,0.866025403784439,0.));
#1415=DIRECTION('center_axis',(0.,0.,1.));
#1416=DIRECTION('ref_axis',(1.,0.,0.));
#1417=DIRECTION('center_axis',(0.,0.,1.));
#1418=DIRECTION('ref_axis',(1.,0.,0.));
#1419=DIRECTION('',(0.,0.,1.));
#1420=DIRECTION('center_axis',(0.,0.,-1.));
#1421=DIRECTION('ref_axis',(1.,0.,0.));
#1422=DIRECTION('center_axis',(0.,0.,1.));
#1423=DIRECTION('ref_axis',(1.,0.,0.));
#1424=DIRECTION('center_axis',(0.,0.,1.));
#1425=DIRECTION('ref_axis',(1.,0.,0.));
#1426=DIRECTION('',(0.,0.,1.));
#1427=DIRECTION('center_axis',(0.,0.,-1.));
#1428=DIRECTION('ref_axis',(1.,0.,0.));
#1429=DIRECTION('center_axis',(0.,0.,1.));
#1430=DIRECTION('ref_axis',(-0.866025403784439,-0.5,0.));
#1431=DIRECTION('',(0.5,-0.866025403784439,0.));
#1432=DIRECTION('',(0.866025403784439,0.5,0.));
#1433=DIRECTION('',(-0.5,0.866025403784439,0.));
#1434=DIRECTION('',(-0.866025403784439,-0.5,0.));
#1435=DIRECTION('center_axis',(0.,0.,1.));
#1436=DIRECTION('ref_axis',(-0.866025403784439,-0.5,0.));
#1437=DIRECTION('',(-0.5,0.866025403784439,0.));
#1438=DIRECTION('',(0.866025403784439,0.5,0.));
#1439=DIRECTION('',(0.5,-0.866025403784439,0.));
#1440=DIRECTION('',(-0.866025403784439,-0.5,0.));
#1441=DIRECTION('center_axis',(0.5,-0.866025403784439,0.));
#1442=DIRECTION('ref_axis',(0.,0.,1.));
#1443=DIRECTION('',(0.,0.,-1.));
#1444=DIRECTION('',(0.,0.,-1.));
#1445=DIRECTION('center_axis',(-0.866025403784439,-0.5,0.));
#1446=DIRECTION('ref_axis',(0.,0.,-1.));
#1447=DIRECTION('',(0.,0.,-1.));
#1448=DIRECTION('center_axis',(-0.5,0.866025403784439,0.));
#1449=DIRECTION('ref_axis',(0.,0.,-1.));
#1450=DIRECTION('',(0.,0.,-1.));
#1451=DIRECTION('center_axis',(0.866025403784439,0.5,0.));
#1452=DIRECTION('ref_axis',(0.,0.,1.));
#1453=DIRECTION('axis',(0.,0.,1.));
#1454=DIRECTION('refdir',(1.,0.,0.));
#1455=DIRECTION('center_axis',(0.5,0.866025403784438,0.));
#1456=DIRECTION('ref_axis',(0.866025403784438,-0.5,0.));
#1457=DIRECTION('center_axis',(0.5,0.866025403784438,0.));
#1458=DIRECTION('ref_axis',(0.866025403784438,-0.5,0.));
#1459=DIRECTION('',(0.5,0.866025403784438,0.));
#1460=DIRECTION('center_axis',(-0.5,-0.866025403784438,0.));
#1461=DIRECTION('ref_axis',(0.866025403784438,-0.5,0.));
#1462=DIRECTION('center_axis',(0.5,0.866025403784438,0.));
#1463=DIRECTION('ref_axis',(0.866025403784438,-0.5,0.));
#1464=DIRECTION('center_axis',(0.5,0.866025403784438,0.));
#1465=DIRECTION('ref_axis',(0.866025403784438,-0.5,0.));
#1466=DIRECTION('',(0.5,0.866025403784438,0.));
#1467=DIRECTION('center_axis',(-0.5,-0.866025403784438,0.));
#1468=DIRECTION('ref_axis',(0.866025403784438,-0.5,0.));
#1469=DIRECTION('center_axis',(0.866025403784438,-0.5,0.));
#1470=DIRECTION('ref_axis',(0.,0.,-1.));
#1471=DIRECTION('',(0.5,0.866025403784438,0.));
#1472=DIRECTION('',(0.,0.,-1.));
#1473=DIRECTION('',(-0.5,-0.866025403784438,0.));
#1474=DIRECTION('',(0.,0.,-1.));
#1475=DIRECTION('center_axis',(0.5,0.866025403784438,0.));
#1476=DIRECTION('ref_axis',(0.,0.,1.));
#1477=DIRECTION('',(-0.866025403784438,0.5,0.));
#1478=DIRECTION('',(0.,0.,-1.));
#1479=DIRECTION('',(0.866025403784438,-0.5,0.));
#1480=DIRECTION('center_axis',(0.,0.,1.));
#1481=DIRECTION('ref_axis',(0.866025403784438,-0.5,0.));
#1482=DIRECTION('',(0.5,0.866025403784438,0.));
#1483=DIRECTION('',(-0.866025403784438,0.5,0.));
#1484=DIRECTION('center_axis',(-0.5,-0.866025403784438,0.));
#1485=DIRECTION('ref_axis',(0.,0.,-1.));
#1486=DIRECTION('',(0.866025403784438,-0.5,0.));
#1487=DIRECTION('',(0.,0.,-1.));
#1488=DIRECTION('center_axis',(-0.866025403784438,0.5,0.));
#1489=DIRECTION('ref_axis',(0.,0.,1.));
#1490=DIRECTION('',(-0.5,-0.866025403784438,0.));
#1491=DIRECTION('center_axis',(0.866025403784438,-0.5,0.));
#1492=DIRECTION('ref_axis',(0.,0.,-1.));
#1493=DIRECTION('',(0.5,0.866025403784438,0.));
#1494=DIRECTION('',(0.,0.,-1.));
#1495=DIRECTION('',(-0.5,-0.866025403784438,0.));
#1496=DIRECTION('',(0.,0.,-1.));
#1497=DIRECTION('center_axis',(0.5,0.866025403784438,0.));
#1498=DIRECTION('ref_axis',(0.,0.,1.));
#1499=DIRECTION('',(-0.866025403784438,0.5,0.));
#1500=DIRECTION('',(0.,0.,-1.));
#1501=DIRECTION('',(0.866025403784438,-0.5,0.));
#1502=DIRECTION('center_axis',(0.,0.,1.));
#1503=DIRECTION('ref_axis',(0.866025403784438,-0.5,0.));
#1504=DIRECTION('',(0.5,0.866025403784438,0.));
#1505=DIRECTION('',(-0.866025403784438,0.5,0.));
#1506=DIRECTION('center_axis',(-0.5,-0.866025403784438,0.));
#1507=DIRECTION('ref_axis',(0.,0.,-1.));
#1508=DIRECTION('',(0.866025403784438,-0.5,0.));
#1509=DIRECTION('',(0.,0.,-1.));
#1510=DIRECTION('center_axis',(-0.866025403784438,0.5,0.));
#1511=DIRECTION('ref_axis',(0.,0.,1.));
#1512=DIRECTION('',(-0.5,-0.866025403784438,0.));
#1513=DIRECTION('center_axis',(0.,0.,1.));
#1514=DIRECTION('ref_axis',(1.,0.,0.));
#1515=DIRECTION('center_axis',(0.,0.,1.));
#1516=DIRECTION('ref_axis',(1.,0.,0.));
#1517=DIRECTION('',(0.,0.,1.));
#1518=DIRECTION('center_axis',(0.,0.,-1.));
#1519=DIRECTION('ref_axis',(1.,0.,0.));
#1520=DIRECTION('center_axis',(0.,0.,1.));
#1521=DIRECTION('ref_axis',(1.,0.,0.));
#1522=DIRECTION('center_axis',(0.,0.,1.));
#1523=DIRECTION('ref_axis',(1.,0.,0.));
#1524=DIRECTION('',(0.,0.,1.));
#1525=DIRECTION('center_axis',(0.,0.,-1.));
#1526=DIRECTION('ref_axis',(1.,0.,0.));
#1527=DIRECTION('center_axis',(0.,0.,1.));
#1528=DIRECTION('ref_axis',(0.866025403784438,-0.5,0.));
#1529=DIRECTION('',(0.5,0.866025403784438,0.));
#1530=DIRECTION('',(-0.866025403784438,0.5,0.));
#1531=DIRECTION('',(-0.5,-0.866025403784438,0.));
#1532=DIRECTION('',(0.866025403784438,-0.5,0.));
#1533=DIRECTION('center_axis',(0.,0.,1.));
#1534=DIRECTION('ref_axis',(0.866025403784438,-0.5,0.));
#1535=DIRECTION('',(-0.5,-0.866025403784438,0.));
#1536=DIRECTION('',(-0.866025403784438,0.5,0.));
#1537=DIRECTION('',(0.5,0.866025403784438,0.));
#1538=DIRECTION('',(0.866025403784438,-0.5,0.));
#1539=DIRECTION('center_axis',(0.5,0.866025403784438,0.));
#1540=DIRECTION('ref_axis',(0.,0.,1.));
#1541=DIRECTION('',(0.,0.,-1.));
#1542=DIRECTION('',(0.,0.,-1.));
#1543=DIRECTION('center_axis',(0.866025403784438,-0.5,0.));
#1544=DIRECTION('ref_axis',(0.,0.,-1.));
#1545=DIRECTION('',(0.,0.,-1.));
#1546=DIRECTION('center_axis',(-0.5,-0.866025403784438,0.));
#1547=DIRECTION('ref_axis',(0.,0.,-1.));
#1548=DIRECTION('',(0.,0.,-1.));
#1549=DIRECTION('center_axis',(-0.866025403784438,0.5,0.));
#1550=DIRECTION('ref_axis',(0.,0.,1.));
#1551=DIRECTION('',(0.,0.,1.));
#1552=DIRECTION('',(1.,0.,0.));
#1553=DIRECTION('',(0.,0.,1.));
#1554=DIRECTION('',(1.,0.,0.));
#1555=DIRECTION('',(0.,0.,1.));
#1556=DIRECTION('',(1.,0.,0.));
#1557=CARTESIAN_POINT('',(0.,0.,0.));
#1558=CARTESIAN_POINT('',(0.,0.,0.));
#1559=CARTESIAN_POINT('Origin',(4.44089209850063E-15,75.,84.));
#1560=CARTESIAN_POINT('',(23.,75.,79.9));
#1561=CARTESIAN_POINT('Origin',(23.,75.,84.));
#1562=CARTESIAN_POINT('',(17.,75.,79.9));
#1563=CARTESIAN_POINT('',(4.44089209850063E-15,75.,79.9));
#1564=CARTESIAN_POINT('Origin',(17.,75.,84.));
#1565=CARTESIAN_POINT('Origin',(4.44089209850063E-15,75.,84.));
#1566=CARTESIAN_POINT('',(-17.,75.,79.9));
#1567=CARTESIAN_POINT('Origin',(-17.,75.,84.));
#1568=CARTESIAN_POINT('',(-23.,75.,79.9));
#1569=CARTESIAN_POINT('',(4.44089209850063E-15,75.,79.9));
#1570=CARTESIAN_POINT('Origin',(-23.,75.,84.));
#1571=CARTESIAN_POINT('Origin',(-20.,50.,81.5));
#1572=CARTESIAN_POINT('',(-17.,50.,56.));
#1573=CARTESIAN_POINT('',(-23.,50.,56.));
#1574=CARTESIAN_POINT('',(-10.,50.,56.));
#1575=CARTESIAN_POINT('',(-17.,50.,108.));
#1576=CARTESIAN_POINT('',(-17.,50.,81.5));
#1577=CARTESIAN_POINT('',(-23.,50.,108.));
#1578=CARTESIAN_POINT('',(-20.,50.,108.));
#1579=CARTESIAN_POINT('',(-23.,50.,81.5));
#1580=CARTESIAN_POINT('Origin',(-17.,75.,81.5));
#1581=CARTESIAN_POINT('',(-17.,100.,56.));
#1582=CARTESIAN_POINT('',(-17.,75.,56.));
#1583=CARTESIAN_POINT('',(-17.,100.,108.));
#1584=CARTESIAN_POINT('',(-17.,100.,81.5));
#1585=CARTESIAN_POINT('',(-17.,75.,108.));
#1586=CARTESIAN_POINT('Origin',(-20.,75.,108.));
#1587=CARTESIAN_POINT('',(-23.,100.,108.));
#1588=CARTESIAN_POINT('',(-20.,100.,108.));
#1589=CARTESIAN_POINT('',(-23.,75.,108.));
#1590=CARTESIAN_POINT('Origin',(-23.,75.,81.5));
#1591=CARTESIAN_POINT('',(-23.,100.,56.));
#1592=CARTESIAN_POINT('',(-23.,75.,56.));
#1593=CARTESIAN_POINT('',(-23.,100.,81.5));
#1594=CARTESIAN_POINT('Origin',(-20.,100.,81.5));
#1595=CARTESIAN_POINT('',(-9.99999999999999,100.,56.));
#1596=CARTESIAN_POINT('Origin',(20.,50.,81.5));
#1597=CARTESIAN_POINT('',(23.,50.,56.));
#1598=CARTESIAN_POINT('',(17.,50.,56.));
#1599=CARTESIAN_POINT('',(10.,50.,56.));
#1600=CARTESIAN_POINT('',(23.,50.,108.));
#1601=CARTESIAN_POINT('',(23.,50.,81.5));
#1602=CARTESIAN_POINT('',(17.,50.,108.));
#1603=CARTESIAN_POINT('',(20.,50.,108.));
#1604=CARTESIAN_POINT('',(17.,50.,81.5));
#1605=CARTESIAN_POINT('Origin',(23.,75.,81.5));
#1606=CARTESIAN_POINT('',(23.,100.,56.));
#1607=CARTESIAN_POINT('',(23.,75.,56.));
#1608=CARTESIAN_POINT('',(23.,100.,108.));
#1609=CARTESIAN_POINT('',(23.,100.,81.5));
#1610=CARTESIAN_POINT('',(23.,75.,108.));
#1611=CARTESIAN_POINT('Origin',(20.,75.,108.));
#1612=CARTESIAN_POINT('',(17.,100.,108.));
#1613=CARTESIAN_POINT('',(20.,100.,108.));
#1614=CARTESIAN_POINT('',(17.,75.,108.));
#1615=CARTESIAN_POINT('Origin',(17.,75.,81.5));
#1616=CARTESIAN_POINT('',(17.,100.,56.));
#1617=CARTESIAN_POINT('',(17.,75.,56.));
#1618=CARTESIAN_POINT('',(17.,100.,81.5));
#1619=CARTESIAN_POINT('Origin',(20.,100.,81.5));
#1620=CARTESIAN_POINT('',(10.,100.,56.));
#1621=CARTESIAN_POINT('Origin',(5.81707229594993E-15,95.,54.));
#1622=CARTESIAN_POINT('',(-4.29999999999999,95.,48.));
#1623=CARTESIAN_POINT('Origin',(5.81707229594993E-15,95.,48.));
#1624=CARTESIAN_POINT('',(-4.29999999999999,95.,56.));
#1625=CARTESIAN_POINT('',(-4.29999999999999,95.,54.));
#1626=CARTESIAN_POINT('Origin',(5.81707229594993E-15,95.,56.));
#1627=CARTESIAN_POINT('Origin',(3.36777869765522E-15,55.,54.));
#1628=CARTESIAN_POINT('',(-4.3,55.,48.));
#1629=CARTESIAN_POINT('Origin',(3.36777869765522E-15,55.,48.));
#1630=CARTESIAN_POINT('',(-4.3,55.,56.));
#1631=CARTESIAN_POINT('',(-4.3,55.,54.));
#1632=CARTESIAN_POINT('Origin',(3.36777869765522E-15,55.,56.));
#1633=CARTESIAN_POINT('Origin',(4.59242549680257E-15,75.,56.));
#1634=CARTESIAN_POINT('',(25.,105.,56.));
#1635=CARTESIAN_POINT('',(-25.,105.,56.));
#1636=CARTESIAN_POINT('',(6.4293956955236E-15,105.,56.));
#1637=CARTESIAN_POINT('',(-25.,45.,56.));
#1638=CARTESIAN_POINT('',(-25.,75.,56.));
#1639=CARTESIAN_POINT('',(25.,45.,56.));
#1640=CARTESIAN_POINT('',(2.75545529808154E-15,45.,56.));
#1641=CARTESIAN_POINT('',(25.,75.,56.));
#1642=CARTESIAN_POINT('Origin',(4.59242549680257E-15,75.,48.));
#1643=CARTESIAN_POINT('',(-25.,105.,48.));
#1644=CARTESIAN_POINT('',(25.,105.,48.));
#1645=CARTESIAN_POINT('',(6.4293956955236E-15,105.,48.));
#1646=CARTESIAN_POINT('',(25.,45.,48.));
#1647=CARTESIAN_POINT('',(25.,75.,48.));
#1648=CARTESIAN_POINT('',(-25.,45.,48.));
#1649=CARTESIAN_POINT('',(2.75545529808154E-15,45.,48.));
#1650=CARTESIAN_POINT('',(-25.,75.,48.));
#1651=CARTESIAN_POINT('Origin',(25.,75.,52.));
#1652=CARTESIAN_POINT('',(25.,45.,52.));
#1653=CARTESIAN_POINT('',(25.,105.,52.));
#1654=CARTESIAN_POINT('Origin',(2.75545529808154E-15,45.,52.));
#1655=CARTESIAN_POINT('',(-25.,45.,52.));
#1656=CARTESIAN_POINT('Origin',(-25.,75.,52.));
#1657=CARTESIAN_POINT('',(-25.,105.,52.));
#1658=CARTESIAN_POINT('Origin',(6.4293956955236E-15,105.,52.));
#1659=CARTESIAN_POINT('',(0.,0.,0.));
#1660=CARTESIAN_POINT('Origin',(-64.9519052838329,-37.5,84.));
#1661=CARTESIAN_POINT('',(-80.0026094393491,-19.6314157129579,84.));
#1662=CARTESIAN_POINT('Origin',(-76.4519052838329,-17.5814157129579,84.));
#1663=CARTESIAN_POINT('',(-77.0026094393491,-24.8275681356646,84.));
#1664=CARTESIAN_POINT('',(-68.5026094393491,-39.55,84.));
#1665=CARTESIAN_POINT('Origin',(-73.4519052838329,-22.7775681356646,84.));
#1666=CARTESIAN_POINT('Origin',(-64.9519052838329,-37.5,84.));
#1667=CARTESIAN_POINT('',(-60.0026094393491,-54.2724318643355,84.));
#1668=CARTESIAN_POINT('Origin',(-56.4519052838329,-52.2224318643355,84.));
#1669=CARTESIAN_POINT('',(-57.0026094393491,-59.4685842870421,84.));
#1670=CARTESIAN_POINT('',(-68.5026094393491,-39.55,84.));
#1671=CARTESIAN_POINT('Origin',(-53.4519052838329,-57.4185842870421,84.));
#1672=CARTESIAN_POINT('Origin',(-33.3012701892219,-42.3205080756888,81.5));
#1673=CARTESIAN_POINT('',(-34.8012701892219,-39.7224318643355,56.));
#1674=CARTESIAN_POINT('',(-31.8012701892219,-44.9185842870421,56.));
#1675=CARTESIAN_POINT('',(-38.3012701892219,-33.6602540378444,56.));
#1676=CARTESIAN_POINT('',(-34.8012701892219,-39.7224318643355,108.));
#1677=CARTESIAN_POINT('',(-34.8012701892219,-39.7224318643355,81.5));
#1678=CARTESIAN_POINT('',(-31.8012701892219,-44.9185842870421,108.));
#1679=CARTESIAN_POINT('',(-33.3012701892219,-42.3205080756888,108.));
#1680=CARTESIAN_POINT('',(-31.8012701892219,-44.9185842870421,81.5));
#1681=CARTESIAN_POINT('Origin',(-56.4519052838329,-52.2224318643355,81.5));
#1682=CARTESIAN_POINT('',(-78.1025403784439,-64.7224318643355,56.));
#1683=CARTESIAN_POINT('',(-56.4519052838329,-52.2224318643355,56.));
#1684=CARTESIAN_POINT('',(-78.1025403784439,-64.7224318643355,108.));
#1685=CARTESIAN_POINT('',(-78.1025403784439,-64.7224318643355,81.5));
#1686=CARTESIAN_POINT('',(-56.4519052838329,-52.2224318643355,108.));
#1687=CARTESIAN_POINT('Origin',(-54.9519052838329,-54.8205080756888,108.));
#1688=CARTESIAN_POINT('',(-75.1025403784439,-69.9185842870421,108.));
#1689=CARTESIAN_POINT('',(-76.6025403784439,-67.3205080756888,108.));
#1690=CARTESIAN_POINT('',(-53.4519052838329,-57.4185842870421,108.));
#1691=CARTESIAN_POINT('Origin',(-53.4519052838329,-57.4185842870421,81.5));
#1692=CARTESIAN_POINT('',(-75.1025403784439,-69.9185842870421,56.));
#1693=CARTESIAN_POINT('',(-53.4519052838329,-57.4185842870421,56.));
#1694=CARTESIAN_POINT('',(-75.1025403784439,-69.9185842870421,81.5));
#1695=CARTESIAN_POINT('Origin',(-76.6025403784439,-67.3205080756888,81.5));
#1696=CARTESIAN_POINT('',(-81.6025403784438,-58.6602540378444,56.));
#1697=CARTESIAN_POINT('Origin',(-53.3012701892219,-7.67949192431123,81.5));
#1698=CARTESIAN_POINT('',(-54.8012701892219,-5.08141571295792,56.));
#1699=CARTESIAN_POINT('',(-51.8012701892219,-10.2775681356646,56.));
#1700=CARTESIAN_POINT('',(-48.3012701892219,-16.3397459621556,56.));
#1701=CARTESIAN_POINT('',(-54.8012701892219,-5.08141571295792,108.));
#1702=CARTESIAN_POINT('',(-54.8012701892219,-5.08141571295792,81.5));
#1703=CARTESIAN_POINT('',(-51.8012701892219,-10.2775681356646,108.));
#1704=CARTESIAN_POINT('',(-53.3012701892219,-7.67949192431123,108.));
#1705=CARTESIAN_POINT('',(-51.8012701892219,-10.2775681356646,81.5));
#1706=CARTESIAN_POINT('Origin',(-76.4519052838329,-17.5814157129579,81.5));
#1707=CARTESIAN_POINT('',(-98.1025403784439,-30.0814157129579,56.));
#1708=CARTESIAN_POINT('',(-76.4519052838329,-17.5814157129579,56.));
#1709=CARTESIAN_POINT('',(-98.1025403784439,-30.0814157129579,108.));
#1710=CARTESIAN_POINT('',(-98.1025403784439,-30.0814157129579,81.5));
#1711=CARTESIAN_POINT('',(-76.4519052838329,-17.5814157129579,108.));
#1712=CARTESIAN_POINT('Origin',(-74.9519052838329,-20.1794919243112,108.));
#1713=CARTESIAN_POINT('',(-95.1025403784439,-35.2775681356646,108.));
#1714=CARTESIAN_POINT('',(-96.6025403784438,-32.6794919243112,108.));
#1715=CARTESIAN_POINT('',(-73.4519052838329,-22.7775681356646,108.));
#1716=CARTESIAN_POINT('Origin',(-73.4519052838329,-22.7775681356646,81.5));
#1717=CARTESIAN_POINT('',(-95.1025403784439,-35.2775681356646,56.));
#1718=CARTESIAN_POINT('',(-73.4519052838329,-22.7775681356646,56.));
#1719=CARTESIAN_POINT('',(-95.1025403784439,-35.2775681356646,81.5));
#1720=CARTESIAN_POINT('Origin',(-96.6025403784438,-32.6794919243112,81.5));
#1721=CARTESIAN_POINT('',(-91.6025403784438,-41.3397459621556,56.));
#1722=CARTESIAN_POINT('Origin',(-82.2724133595217,-47.5,54.));
#1723=CARTESIAN_POINT('',(-86.5724133595217,-47.5,48.));
#1724=CARTESIAN_POINT('Origin',(-82.2724133595217,-47.5,48.));
#1725=CARTESIAN_POINT('',(-86.5724133595217,-47.5,56.));
#1726=CARTESIAN_POINT('',(-86.5724133595217,-47.5,54.));
#1727=CARTESIAN_POINT('Origin',(-82.2724133595217,-47.5,56.));
#1728=CARTESIAN_POINT('Origin',(-47.6313972081441,-27.5,54.));
#1729=CARTESIAN_POINT('',(-51.9313972081441,-27.5,48.));
#1730=CARTESIAN_POINT('Origin',(-47.6313972081441,-27.5,48.));
#1731=CARTESIAN_POINT('',(-51.9313972081441,-27.5,56.));
#1732=CARTESIAN_POINT('',(-51.9313972081441,-27.5,54.));
#1733=CARTESIAN_POINT('Origin',(-47.6313972081441,-27.5,56.));
#1734=CARTESIAN_POINT('Origin',(-64.9519052838329,-37.5,56.));
#1735=CARTESIAN_POINT('',(-103.432667397366,-30.849364905389,56.));
#1736=CARTESIAN_POINT('',(-78.4326673973661,-74.150635094611,56.));
#1737=CARTESIAN_POINT('',(-90.9326673973661,-52.5,56.));
#1738=CARTESIAN_POINT('',(-26.4711431702997,-44.150635094611,56.));
#1739=CARTESIAN_POINT('',(-52.4519052838329,-59.150635094611,56.));
#1740=CARTESIAN_POINT('',(-51.4711431702997,-0.849364905389041,56.));
#1741=CARTESIAN_POINT('',(-38.9711431702997,-22.5,56.));
#1742=CARTESIAN_POINT('',(-77.4519052838329,-15.849364905389,56.));
#1743=CARTESIAN_POINT('Origin',(-64.9519052838329,-37.5,48.));
#1744=CARTESIAN_POINT('',(-78.4326673973661,-74.150635094611,48.));
#1745=CARTESIAN_POINT('',(-103.432667397366,-30.849364905389,48.));
#1746=CARTESIAN_POINT('',(-90.9326673973661,-52.5,48.));
#1747=CARTESIAN_POINT('',(-51.4711431702997,-0.849364905389041,48.));
#1748=CARTESIAN_POINT('',(-77.4519052838329,-15.849364905389,48.));
#1749=CARTESIAN_POINT('',(-26.4711431702997,-44.150635094611,48.));
#1750=CARTESIAN_POINT('',(-38.9711431702997,-22.5,48.));
#1751=CARTESIAN_POINT('',(-52.4519052838329,-59.150635094611,48.));
#1752=CARTESIAN_POINT('Origin',(-77.4519052838329,-15.849364905389,52.));
#1753=CARTESIAN_POINT('',(-51.4711431702997,-0.849364905389041,52.));
#1754=CARTESIAN_POINT('',(-103.432667397366,-30.849364905389,52.));
#1755=CARTESIAN_POINT('Origin',(-38.9711431702997,-22.5,52.));
#1756=CARTESIAN_POINT('',(-26.4711431702997,-44.150635094611,52.));
#1757=CARTESIAN_POINT('Origin',(-52.4519052838329,-59.150635094611,52.));
#1758=CARTESIAN_POINT('',(-78.4326673973661,-74.150635094611,52.));
#1759=CARTESIAN_POINT('Origin',(-90.9326673973661,-52.5,52.));
#1760=CARTESIAN_POINT('',(0.,0.,0.));
#1761=CARTESIAN_POINT('Origin',(64.9519052838329,-37.5,84.));
#1762=CARTESIAN_POINT('',(49.9012011283167,-55.3685842870421,84.));
#1763=CARTESIAN_POINT('Origin',(53.4519052838329,-57.4185842870421,84.));
#1764=CARTESIAN_POINT('',(52.9012011283167,-50.1724318643355,84.));
#1765=CARTESIAN_POINT('',(61.4012011283167,-35.45,84.));
#1766=CARTESIAN_POINT('Origin',(56.4519052838329,-52.2224318643355,84.));
#1767=CARTESIAN_POINT('Origin',(64.9519052838329,-37.5,84.));
#1768=CARTESIAN_POINT('',(69.9012011283167,-20.7275681356646,84.));
#1769=CARTESIAN_POINT('Origin',(73.4519052838329,-22.7775681356646,84.));
#1770=CARTESIAN_POINT('',(72.9012011283167,-15.5314157129579,84.));
#1771=CARTESIAN_POINT('',(61.4012011283167,-35.45,84.));
#1772=CARTESIAN_POINT('Origin',(76.4519052838329,-17.5814157129579,84.));
#1773=CARTESIAN_POINT('Origin',(53.3012701892219,-7.67949192431126,81.5));
#1774=CARTESIAN_POINT('',(51.8012701892219,-10.2775681356646,56.));
#1775=CARTESIAN_POINT('',(54.8012701892219,-5.08141571295794,56.));
#1776=CARTESIAN_POINT('',(48.3012701892219,-16.3397459621556,56.));
#1777=CARTESIAN_POINT('',(51.8012701892219,-10.2775681356646,108.));
#1778=CARTESIAN_POINT('',(51.8012701892219,-10.2775681356646,81.5));
#1779=CARTESIAN_POINT('',(54.8012701892219,-5.08141571295794,108.));
#1780=CARTESIAN_POINT('',(53.3012701892219,-7.67949192431126,108.));
#1781=CARTESIAN_POINT('',(54.8012701892219,-5.08141571295794,81.5));
#1782=CARTESIAN_POINT('Origin',(73.4519052838329,-22.7775681356646,81.5));
#1783=CARTESIAN_POINT('',(95.1025403784438,-35.2775681356646,56.));
#1784=CARTESIAN_POINT('',(73.4519052838329,-22.7775681356646,56.));
#1785=CARTESIAN_POINT('',(95.1025403784438,-35.2775681356646,108.));
#1786=CARTESIAN_POINT('',(95.1025403784438,-35.2775681356646,81.5));
#1787=CARTESIAN_POINT('',(73.4519052838329,-22.7775681356646,108.));
#1788=CARTESIAN_POINT('Origin',(74.9519052838329,-20.1794919243113,108.));
#1789=CARTESIAN_POINT('',(98.1025403784438,-30.081415712958,108.));
#1790=CARTESIAN_POINT('',(96.6025403784438,-32.6794919243113,108.));
#1791=CARTESIAN_POINT('',(76.4519052838329,-17.581415712958,108.));
#1792=CARTESIAN_POINT('Origin',(76.4519052838329,-17.581415712958,81.5));
#1793=CARTESIAN_POINT('',(98.1025403784438,-30.081415712958,56.));
#1794=CARTESIAN_POINT('',(76.4519052838329,-17.5814157129579,56.));
#1795=CARTESIAN_POINT('',(98.1025403784438,-30.081415712958,81.5));
#1796=CARTESIAN_POINT('Origin',(96.6025403784438,-32.6794919243113,81.5));
#1797=CARTESIAN_POINT('',(91.6025403784438,-41.3397459621557,56.));
#1798=CARTESIAN_POINT('Origin',(33.3012701892219,-42.3205080756888,81.5));
#1799=CARTESIAN_POINT('',(31.8012701892219,-44.9185842870421,56.));
#1800=CARTESIAN_POINT('',(34.8012701892219,-39.7224318643355,56.));
#1801=CARTESIAN_POINT('',(38.3012701892219,-33.6602540378444,56.));
#1802=CARTESIAN_POINT('',(31.8012701892219,-44.9185842870421,108.));
#1803=CARTESIAN_POINT('',(31.8012701892219,-44.9185842870421,81.5));
#1804=CARTESIAN_POINT('',(34.8012701892219,-39.7224318643355,108.));
#1805=CARTESIAN_POINT('',(33.3012701892219,-42.3205080756888,108.));
#1806=CARTESIAN_POINT('',(34.8012701892219,-39.7224318643355,81.5));
#1807=CARTESIAN_POINT('Origin',(53.4519052838329,-57.4185842870421,81.5));
#1808=CARTESIAN_POINT('',(75.1025403784438,-69.9185842870421,56.));
#1809=CARTESIAN_POINT('',(53.4519052838329,-57.4185842870421,56.));
#1810=CARTESIAN_POINT('',(75.1025403784438,-69.9185842870421,108.));
#1811=CARTESIAN_POINT('',(75.1025403784438,-69.9185842870421,81.5));
#1812=CARTESIAN_POINT('',(53.4519052838329,-57.4185842870421,108.));
#1813=CARTESIAN_POINT('Origin',(54.9519052838329,-54.8205080756888,108.));
#1814=CARTESIAN_POINT('',(78.1025403784438,-64.7224318643355,108.));
#1815=CARTESIAN_POINT('',(76.6025403784438,-67.3205080756888,108.));
#1816=CARTESIAN_POINT('',(56.4519052838329,-52.2224318643355,108.));
#1817=CARTESIAN_POINT('Origin',(56.4519052838329,-52.2224318643355,81.5));
#1818=CARTESIAN_POINT('',(78.1025403784438,-64.7224318643355,56.));
#1819=CARTESIAN_POINT('',(56.4519052838329,-52.2224318643355,56.));
#1820=CARTESIAN_POINT('',(78.1025403784438,-64.7224318643355,81.5));
#1821=CARTESIAN_POINT('Origin',(76.6025403784438,-67.3205080756888,81.5));
#1822=CARTESIAN_POINT('',(81.6025403784438,-58.6602540378444,56.));
#1823=CARTESIAN_POINT('Origin',(82.2724133595216,-47.5,54.));
#1824=CARTESIAN_POINT('',(77.9724133595216,-47.5,48.));
#1825=CARTESIAN_POINT('Origin',(82.2724133595216,-47.5,48.));
#1826=CARTESIAN_POINT('',(77.9724133595216,-47.5,56.));
#1827=CARTESIAN_POINT('',(77.9724133595216,-47.5,54.));
#1828=CARTESIAN_POINT('Origin',(82.2724133595216,-47.5,56.));
#1829=CARTESIAN_POINT('Origin',(47.6313972081441,-27.5,54.));
#1830=CARTESIAN_POINT('',(43.3313972081441,-27.5,48.));
#1831=CARTESIAN_POINT('Origin',(47.6313972081441,-27.5,48.));
#1832=CARTESIAN_POINT('',(43.3313972081441,-27.5,56.));
#1833=CARTESIAN_POINT('',(43.3313972081441,-27.5,54.));
#1834=CARTESIAN_POINT('Origin',(47.6313972081441,-27.5,56.));
#1835=CARTESIAN_POINT('Origin',(64.9519052838329,-37.5,56.));
#1836=CARTESIAN_POINT('',(78.432667397366,-74.150635094611,56.));
#1837=CARTESIAN_POINT('',(103.432667397366,-30.8493649053891,56.));
#1838=CARTESIAN_POINT('',(90.932667397366,-52.5000000000001,56.));
#1839=CARTESIAN_POINT('',(51.4711431702997,-0.849364905389063,56.));
#1840=CARTESIAN_POINT('',(77.4519052838329,-15.8493649053891,56.));
#1841=CARTESIAN_POINT('',(26.4711431702997,-44.150635094611,56.));
#1842=CARTESIAN_POINT('',(38.9711431702997,-22.5,56.));
#1843=CARTESIAN_POINT('',(52.4519052838329,-59.150635094611,56.));
#1844=CARTESIAN_POINT('Origin',(64.9519052838329,-37.5,48.));
#1845=CARTESIAN_POINT('',(103.432667397366,-30.8493649053891,48.));
#1846=CARTESIAN_POINT('',(78.432667397366,-74.150635094611,48.));
#1847=CARTESIAN_POINT('',(90.932667397366,-52.5000000000001,48.));
#1848=CARTESIAN_POINT('',(26.4711431702997,-44.150635094611,48.));
#1849=CARTESIAN_POINT('',(52.4519052838329,-59.150635094611,48.));
#1850=CARTESIAN_POINT('',(51.4711431702997,-0.849364905389063,48.));
#1851=CARTESIAN_POINT('',(38.9711431702997,-22.5,48.));
#1852=CARTESIAN_POINT('',(77.4519052838329,-15.8493649053891,48.));
#1853=CARTESIAN_POINT('Origin',(52.4519052838329,-59.150635094611,52.));
#1854=CARTESIAN_POINT('',(26.4711431702997,-44.150635094611,52.));
#1855=CARTESIAN_POINT('',(78.432667397366,-74.150635094611,52.));
#1856=CARTESIAN_POINT('Origin',(38.9711431702997,-22.5,52.));
#1857=CARTESIAN_POINT('',(51.4711431702997,-0.849364905389063,52.));
#1858=CARTESIAN_POINT('Origin',(77.4519052838329,-15.8493649053891,52.));
#1859=CARTESIAN_POINT('',(103.432667397366,-30.8493649053891,52.));
#1860=CARTESIAN_POINT('Origin',(90.932667397366,-52.5000000000001,52.));
#1861=CARTESIAN_POINT('',(0.,0.,0.));
#1862=CARTESIAN_POINT('',(0.,0.,0.));
#1863=CARTESIAN_POINT('',(0.,0.,0.));
#1864=UNCERTAINTY_MEASURE_WITH_UNIT(LENGTH_MEASURE(0.01),#1874,
'DISTANCE_ACCURACY_VALUE',
'Maximum model space distance between geometric entities at asserted c
onnectivities');
#1865=UNCERTAINTY_MEASURE_WITH_UNIT(LENGTH_MEASURE(0.01),#1874,
'DISTANCE_ACCURACY_VALUE',
'Maximum model space distance between geometric entities at asserted c
onnectivities');
#1866=UNCERTAINTY_MEASURE_WITH_UNIT(LENGTH_MEASURE(0.01),#1874,
'DISTANCE_ACCURACY_VALUE',
'Maximum model space distance between geometric entities at asserted c
onnectivities');
#1867=UNCERTAINTY_MEASURE_WITH_UNIT(LENGTH_MEASURE(0.01),#1874,
'DISTANCE_ACCURACY_VALUE',
'Maximum model space distance between geometric entities at asserted c
onnectivities');
#1868=UNCERTAINTY_MEASURE_WITH_UNIT(LENGTH_MEASURE(0.01),#1874,
'DISTANCE_ACCURACY_VALUE',
'Maximum model space distance between geometric entities at asserted c
onnectivities');
#1869=(
GEOMETRIC_REPRESENTATION_CONTEXT(3)
GLOBAL_UNCERTAINTY_ASSIGNED_CONTEXT((#1864))
GLOBAL_UNIT_ASSIGNED_CONTEXT((#1874,#1876,#1877))
REPRESENTATION_CONTEXT('','3D')
);
#1870=(
GEOMETRIC_REPRESENTATION_CONTEXT(3)
GLOBAL_UNCERTAINTY_ASSIGNED_CONTEXT((#1865))
GLOBAL_UNIT_ASSIGNED_CONTEXT((#1874,#1876,#1877))
REPRESENTATION_CONTEXT('','3D')
);
#1871=(
GEOMETRIC_REPRESENTATION_CONTEXT(3)
GLOBAL_UNCERTAINTY_ASSIGNED_CONTEXT((#1866))
GLOBAL_UNIT_ASSIGNED_CONTEXT((#1874,#1876,#1877))
REPRESENTATION_CONTEXT('','3D')
);
#1872=(
GEOMETRIC_REPRESENTATION_CONTEXT(3)
GLOBAL_UNCERTAINTY_ASSIGNED_CONTEXT((#1867))
GLOBAL_UNIT_ASSIGNED_CONTEXT((#1874,#1876,#1877))
REPRESENTATION_CONTEXT('','3D')
);
#1873=(
GEOMETRIC_REPRESENTATION_CONTEXT(3)
GLOBAL_UNCERTAINTY_ASSIGNED_CONTEXT((#1868))
GLOBAL_UNIT_ASSIGNED_CONTEXT((#1874,#1876,#1877))
REPRESENTATION_CONTEXT('','3D')
);
#1874=(
LENGTH_UNIT()
NAMED_UNIT(*)
SI_UNIT(.MILLI.,.METRE.)
);
#1875=(
LENGTH_UNIT()
NAMED_UNIT(*)
SI_UNIT($,.METRE.)
);
#1876=(
NAMED_UNIT(*)
PLANE_ANGLE_UNIT()
SI_UNIT($,.RADIAN.)
);
#1877=(
NAMED_UNIT(*)
SI_UNIT($,.STERADIAN.)
SOLID_ANGLE_UNIT()
);
#1878=SHAPE_DEFINITION_REPRESENTATION(#1882,#1889);
#1879=SHAPE_DEFINITION_REPRESENTATION(#1883,#1890);
#1880=SHAPE_DEFINITION_REPRESENTATION(#1884,#1891);
#1881=SHAPE_DEFINITION_REPRESENTATION(#1885,#1892);
#1882=PRODUCT_DEFINITION_SHAPE('',$,#1894);
#1883=PRODUCT_DEFINITION_SHAPE('',$,#1895);
#1884=PRODUCT_DEFINITION_SHAPE('',$,#1896);
#1885=PRODUCT_DEFINITION_SHAPE('',$,#1897);
#1886=PRODUCT_DEFINITION_SHAPE($,$,#20);
#1887=PRODUCT_DEFINITION_SHAPE($,$,#21);
#1888=PRODUCT_DEFINITION_SHAPE($,$,#22);
#1889=SHAPE_REPRESENTATION('',(#1164,#1252,#1253,#1254),#1869);
#1890=SHAPE_REPRESENTATION('',(#1165),#1870);
#1891=SHAPE_REPRESENTATION('',(#1194),#1871);
#1892=SHAPE_REPRESENTATION('',(#1223),#1872);
#1893=PRODUCT_DEFINITION_CONTEXT('part definition',#1907,'design');
#1894=PRODUCT_DEFINITION('04_LOWER_ONE_PIECE_CLEVISES',
'04_LOWER_ONE_PIECE_CLEVISES',#1898,#1893);
#1895=PRODUCT_DEFINITION('A1_LOWER_ONE_PIECE_CLEVIS_A6061',
'A1_LOWER_ONE_PIECE_CLEVIS_A6061',#1899,#1893);
#1896=PRODUCT_DEFINITION('A2_LOWER_ONE_PIECE_CLEVIS_A6061',
'A2_LOWER_ONE_PIECE_CLEVIS_A6061',#1900,#1893);
#1897=PRODUCT_DEFINITION('A3_LOWER_ONE_PIECE_CLEVIS_A6061',
'A3_LOWER_ONE_PIECE_CLEVIS_A6061',#1901,#1893);
#1898=PRODUCT_DEFINITION_FORMATION('',$,#1909);
#1899=PRODUCT_DEFINITION_FORMATION('',$,#1910);
#1900=PRODUCT_DEFINITION_FORMATION('',$,#1911);
#1901=PRODUCT_DEFINITION_FORMATION('',$,#1912);
#1902=PRODUCT_RELATED_PRODUCT_CATEGORY('04_LOWER_ONE_PIECE_CLEVISES',
'04_LOWER_ONE_PIECE_CLEVISES',(#1909));
#1903=PRODUCT_RELATED_PRODUCT_CATEGORY(
'A1_LOWER_ONE_PIECE_CLEVIS_A6061','A1_LOWER_ONE_PIECE_CLEVIS_A6061',(#1910));
#1904=PRODUCT_RELATED_PRODUCT_CATEGORY(
'A2_LOWER_ONE_PIECE_CLEVIS_A6061','A2_LOWER_ONE_PIECE_CLEVIS_A6061',(#1911));
#1905=PRODUCT_RELATED_PRODUCT_CATEGORY(
'A3_LOWER_ONE_PIECE_CLEVIS_A6061','A3_LOWER_ONE_PIECE_CLEVIS_A6061',(#1912));
#1906=APPLICATION_PROTOCOL_DEFINITION('international standard',
'automotive_design',2009,#1907);
#1907=APPLICATION_CONTEXT(
'Core Data for Automotive Mechanical Design Process');
#1908=PRODUCT_CONTEXT('part definition',#1907,'mechanical');
#1909=PRODUCT('04_LOWER_ONE_PIECE_CLEVISES',
'04_LOWER_ONE_PIECE_CLEVISES',$,(#1908));
#1910=PRODUCT('A1_LOWER_ONE_PIECE_CLEVIS_A6061',
'A1_LOWER_ONE_PIECE_CLEVIS_A6061',$,(#1908));
#1911=PRODUCT('A2_LOWER_ONE_PIECE_CLEVIS_A6061',
'A2_LOWER_ONE_PIECE_CLEVIS_A6061',$,(#1908));
#1912=PRODUCT('A3_LOWER_ONE_PIECE_CLEVIS_A6061',
'A3_LOWER_ONE_PIECE_CLEVIS_A6061',$,(#1908));
#1913=PRESENTATION_STYLE_ASSIGNMENT((#1915));
#1914=PRESENTATION_STYLE_ASSIGNMENT((#1916));
#1915=SURFACE_STYLE_USAGE(.BOTH.,#1917);
#1916=SURFACE_STYLE_USAGE(.BOTH.,#1918);
#1917=SURFACE_SIDE_STYLE('',(#1919));
#1918=SURFACE_SIDE_STYLE('',(#1920));
#1919=SURFACE_STYLE_FILL_AREA(#1921);
#1920=SURFACE_STYLE_FILL_AREA(#1922);
#1921=FILL_AREA_STYLE('\X2\AC15CCA0\X0\ - \X2\C0C8D2F4\X0\',(#1923));
#1922=FILL_AREA_STYLE('RevM1_BRACKET',(#1924));
#1923=FILL_AREA_STYLE_COLOUR('\X2\AC15CCA0\X0\ - \X2\C0C8D2F4\X0\',#1925);
#1924=FILL_AREA_STYLE_COLOUR('RevM1_BRACKET',#1926);
#1925=COLOUR_RGB('\X2\AC15CCA0\X0\ - \X2\C0C8D2F4\X0\',0.627450980392157,
0.627450980392157,0.627450980392157);
#1926=COLOUR_RGB('RevM1_BRACKET',0.607843137254902,0.647058823529412,0.67843137254902);
ENDSEC;
END-ISO-10303-21;
