ISO-10303-21;
HEADER;
/* Generated by software containing ST-Developer
 * from STEP Tools, Inc. (www.steptools.com) 
 */

FILE_DESCRIPTION(
/* description */ (''),
/* implementation_level */ '2;1');

FILE_NAME(
/* name */ 'lower_joints.step',
/* time_stamp */ '2026-09-02T22:43:44+09:00',
/* author */ (''),
/* organization */ (''),
/* preprocessor_version */ 'ST-DEVELOPER v20.1',
/* originating_system */ 'Autodesk Translation Framework v15.8.0.0',
/* authorisation */ '');

FILE_SCHEMA (('AUTOMOTIVE_DESIGN { 1 0 10303 214 3 1 1 }'));
ENDSEC;

DATA;
#10=MECHANICAL_DESIGN_GEOMETRIC_PRESENTATION_REPRESENTATION('',(#29,#30,
#31,#32,#33,#34,#35,#36,#37),#2137);
#11=ITEM_DEFINED_TRANSFORMATION($,$,#1309,#1420);
#12=ITEM_DEFINED_TRANSFORMATION($,$,#1346,#1421);
#13=ITEM_DEFINED_TRANSFORMATION($,$,#1383,#1422);
#14=(
REPRESENTATION_RELATIONSHIP($,$,#2154,#2153)
REPRESENTATION_RELATIONSHIP_WITH_TRANSFORMATION(#11)
SHAPE_REPRESENTATION_RELATIONSHIP()
);
#15=(
REPRESENTATION_RELATIONSHIP($,$,#2155,#2153)
REPRESENTATION_RELATIONSHIP_WITH_TRANSFORMATION(#12)
SHAPE_REPRESENTATION_RELATIONSHIP()
);
#16=(
REPRESENTATION_RELATIONSHIP($,$,#2156,#2153)
REPRESENTATION_RELATIONSHIP_WITH_TRANSFORMATION(#13)
SHAPE_REPRESENTATION_RELATIONSHIP()
);
#17=CONTEXT_DEPENDENT_SHAPE_REPRESENTATION(#14,#2150);
#18=CONTEXT_DEPENDENT_SHAPE_REPRESENTATION(#15,#2151);
#19=CONTEXT_DEPENDENT_SHAPE_REPRESENTATION(#16,#2152);
#20=NEXT_ASSEMBLY_USAGE_OCCURRENCE('A1_LMB10:1','A1_LMB10:1',
'A1_LMB10:1',#2158,#2159,'A1_LMB10:1');
#21=NEXT_ASSEMBLY_USAGE_OCCURRENCE('A2_LMB10:1','A2_LMB10:1',
'A2_LMB10:1',#2158,#2160,'A2_LMB10:1');
#22=NEXT_ASSEMBLY_USAGE_OCCURRENCE('A3_LMB10:1','A3_LMB10:1',
'A3_LMB10:1',#2158,#2161,'A3_LMB10:1');
#23=SHAPE_REPRESENTATION_RELATIONSHIP('SRR','None',#2154,#26);
#24=SHAPE_REPRESENTATION_RELATIONSHIP('SRR','None',#2155,#27);
#25=SHAPE_REPRESENTATION_RELATIONSHIP('SRR','None',#2156,#28);
#26=ADVANCED_BREP_SHAPE_REPRESENTATION('',(#38,#39,#40),#2134);
#27=ADVANCED_BREP_SHAPE_REPRESENTATION('',(#41,#42,#43),#2135);
#28=ADVANCED_BREP_SHAPE_REPRESENTATION('',(#44,#45,#46),#2136);
#29=STYLED_ITEM('',(#2178),#38);
#30=STYLED_ITEM('',(#2178),#39);
#31=STYLED_ITEM('',(#2178),#40);
#32=STYLED_ITEM('',(#2178),#41);
#33=STYLED_ITEM('',(#2178),#42);
#34=STYLED_ITEM('',(#2178),#43);
#35=STYLED_ITEM('',(#2178),#44);
#36=STYLED_ITEM('',(#2178),#45);
#37=STYLED_ITEM('',(#2178),#46);
#38=MANIFOLD_SOLID_BREP('A1_LMB10_BODY_01',#1265);
#39=MANIFOLD_SOLID_BREP('A1_LMB10_BODY_02',#1266);
#40=MANIFOLD_SOLID_BREP('A1_LMB10_BODY_03',#1267);
#41=MANIFOLD_SOLID_BREP('A2_LMB10_BODY_01',#1268);
#42=MANIFOLD_SOLID_BREP('A2_LMB10_BODY_02',#1269);
#43=MANIFOLD_SOLID_BREP('A2_LMB10_BODY_03',#1270);
#44=MANIFOLD_SOLID_BREP('A3_LMB10_BODY_01',#1271);
#45=MANIFOLD_SOLID_BREP('A3_LMB10_BODY_02',#1272);
#46=MANIFOLD_SOLID_BREP('A3_LMB10_BODY_03',#1273);
#47=FACE_BOUND('',#200,.T.);
#48=FACE_BOUND('',#201,.T.);
#49=FACE_BOUND('',#203,.T.);
#50=FACE_BOUND('',#204,.T.);
#51=FACE_BOUND('',#210,.T.);
#52=FACE_BOUND('',#212,.T.);
#53=FACE_BOUND('',#220,.T.);
#54=FACE_BOUND('',#222,.T.);
#55=FACE_BOUND('',#232,.T.);
#56=FACE_BOUND('',#233,.T.);
#57=FACE_BOUND('',#235,.T.);
#58=FACE_BOUND('',#236,.T.);
#59=FACE_BOUND('',#245,.T.);
#60=FACE_BOUND('',#249,.T.);
#61=FACE_BOUND('',#255,.T.);
#62=FACE_BOUND('',#259,.T.);
#63=FACE_BOUND('',#264,.T.);
#64=FACE_BOUND('',#265,.T.);
#65=FACE_BOUND('',#267,.T.);
#66=FACE_BOUND('',#268,.T.);
#67=FACE_BOUND('',#277,.T.);
#68=FACE_BOUND('',#281,.T.);
#69=FACE_BOUND('',#287,.T.);
#70=FACE_BOUND('',#291,.T.);
#71=PLANE('',#1316);
#72=PLANE('',#1317);
#73=PLANE('',#1318);
#74=PLANE('',#1319);
#75=PLANE('',#1320);
#76=PLANE('',#1321);
#77=PLANE('',#1322);
#78=PLANE('',#1325);
#79=PLANE('',#1330);
#80=PLANE('',#1331);
#81=PLANE('',#1332);
#82=PLANE('',#1333);
#83=PLANE('',#1334);
#84=PLANE('',#1337);
#85=PLANE('',#1342);
#86=PLANE('',#1343);
#87=PLANE('',#1344);
#88=PLANE('',#1345);
#89=PLANE('',#1353);
#90=PLANE('',#1354);
#91=PLANE('',#1355);
#92=PLANE('',#1356);
#93=PLANE('',#1357);
#94=PLANE('',#1358);
#95=PLANE('',#1365);
#96=PLANE('',#1366);
#97=PLANE('',#1367);
#98=PLANE('',#1368);
#99=PLANE('',#1369);
#100=PLANE('',#1370);
#101=PLANE('',#1377);
#102=PLANE('',#1378);
#103=PLANE('',#1379);
#104=PLANE('',#1380);
#105=PLANE('',#1381);
#106=PLANE('',#1382);
#107=PLANE('',#1390);
#108=PLANE('',#1391);
#109=PLANE('',#1392);
#110=PLANE('',#1393);
#111=PLANE('',#1394);
#112=PLANE('',#1395);
#113=PLANE('',#1402);
#114=PLANE('',#1403);
#115=PLANE('',#1404);
#116=PLANE('',#1405);
#117=PLANE('',#1406);
#118=PLANE('',#1407);
#119=PLANE('',#1414);
#120=PLANE('',#1415);
#121=PLANE('',#1416);
#122=PLANE('',#1417);
#123=PLANE('',#1418);
#124=PLANE('',#1419);
#125=FACE_OUTER_BOUND('',#197,.T.);
#126=FACE_OUTER_BOUND('',#198,.T.);
#127=FACE_OUTER_BOUND('',#199,.T.);
#128=FACE_OUTER_BOUND('',#202,.T.);
#129=FACE_OUTER_BOUND('',#205,.T.);
#130=FACE_OUTER_BOUND('',#206,.T.);
#131=FACE_OUTER_BOUND('',#207,.T.);
#132=FACE_OUTER_BOUND('',#208,.T.);
#133=FACE_OUTER_BOUND('',#209,.T.);
#134=FACE_OUTER_BOUND('',#211,.T.);
#135=FACE_OUTER_BOUND('',#213,.T.);
#136=FACE_OUTER_BOUND('',#214,.T.);
#137=FACE_OUTER_BOUND('',#215,.T.);
#138=FACE_OUTER_BOUND('',#216,.T.);
#139=FACE_OUTER_BOUND('',#217,.T.);
#140=FACE_OUTER_BOUND('',#218,.T.);
#141=FACE_OUTER_BOUND('',#219,.T.);
#142=FACE_OUTER_BOUND('',#221,.T.);
#143=FACE_OUTER_BOUND('',#223,.T.);
#144=FACE_OUTER_BOUND('',#224,.T.);
#145=FACE_OUTER_BOUND('',#225,.T.);
#146=FACE_OUTER_BOUND('',#226,.T.);
#147=FACE_OUTER_BOUND('',#227,.T.);
#148=FACE_OUTER_BOUND('',#228,.T.);
#149=FACE_OUTER_BOUND('',#229,.T.);
#150=FACE_OUTER_BOUND('',#230,.T.);
#151=FACE_OUTER_BOUND('',#231,.T.);
#152=FACE_OUTER_BOUND('',#234,.T.);
#153=FACE_OUTER_BOUND('',#237,.T.);
#154=FACE_OUTER_BOUND('',#238,.T.);
#155=FACE_OUTER_BOUND('',#239,.T.);
#156=FACE_OUTER_BOUND('',#240,.T.);
#157=FACE_OUTER_BOUND('',#241,.T.);
#158=FACE_OUTER_BOUND('',#242,.T.);
#159=FACE_OUTER_BOUND('',#243,.T.);
#160=FACE_OUTER_BOUND('',#244,.T.);
#161=FACE_OUTER_BOUND('',#246,.T.);
#162=FACE_OUTER_BOUND('',#247,.T.);
#163=FACE_OUTER_BOUND('',#248,.T.);
#164=FACE_OUTER_BOUND('',#250,.T.);
#165=FACE_OUTER_BOUND('',#251,.T.);
#166=FACE_OUTER_BOUND('',#252,.T.);
#167=FACE_OUTER_BOUND('',#253,.T.);
#168=FACE_OUTER_BOUND('',#254,.T.);
#169=FACE_OUTER_BOUND('',#256,.T.);
#170=FACE_OUTER_BOUND('',#257,.T.);
#171=FACE_OUTER_BOUND('',#258,.T.);
#172=FACE_OUTER_BOUND('',#260,.T.);
#173=FACE_OUTER_BOUND('',#261,.T.);
#174=FACE_OUTER_BOUND('',#262,.T.);
#175=FACE_OUTER_BOUND('',#263,.T.);
#176=FACE_OUTER_BOUND('',#266,.T.);
#177=FACE_OUTER_BOUND('',#269,.T.);
#178=FACE_OUTER_BOUND('',#270,.T.);
#179=FACE_OUTER_BOUND('',#271,.T.);
#180=FACE_OUTER_BOUND('',#272,.T.);
#181=FACE_OUTER_BOUND('',#273,.T.);
#182=FACE_OUTER_BOUND('',#274,.T.);
#183=FACE_OUTER_BOUND('',#275,.T.);
#184=FACE_OUTER_BOUND('',#276,.T.);
#185=FACE_OUTER_BOUND('',#278,.T.);
#186=FACE_OUTER_BOUND('',#279,.T.);
#187=FACE_OUTER_BOUND('',#280,.T.);
#188=FACE_OUTER_BOUND('',#282,.T.);
#189=FACE_OUTER_BOUND('',#283,.T.);
#190=FACE_OUTER_BOUND('',#284,.T.);
#191=FACE_OUTER_BOUND('',#285,.T.);
#192=FACE_OUTER_BOUND('',#286,.T.);
#193=FACE_OUTER_BOUND('',#288,.T.);
#194=FACE_OUTER_BOUND('',#289,.T.);
#195=FACE_OUTER_BOUND('',#290,.T.);
#196=FACE_OUTER_BOUND('',#292,.T.);
#197=EDGE_LOOP('',(#851,#852,#853,#854));
#198=EDGE_LOOP('',(#855,#856,#857,#858));
#199=EDGE_LOOP('',(#859,#860,#861,#862));
#200=EDGE_LOOP('',(#863));
#201=EDGE_LOOP('',(#864));
#202=EDGE_LOOP('',(#865,#866,#867,#868));
#203=EDGE_LOOP('',(#869));
#204=EDGE_LOOP('',(#870));
#205=EDGE_LOOP('',(#871,#872,#873,#874));
#206=EDGE_LOOP('',(#875,#876,#877,#878));
#207=EDGE_LOOP('',(#879,#880,#881,#882));
#208=EDGE_LOOP('',(#883,#884,#885,#886));
#209=EDGE_LOOP('',(#887,#888,#889,#890,#891));
#210=EDGE_LOOP('',(#892));
#211=EDGE_LOOP('',(#893,#894,#895,#896,#897));
#212=EDGE_LOOP('',(#898));
#213=EDGE_LOOP('',(#899,#900,#901,#902));
#214=EDGE_LOOP('',(#903,#904,#905,#906));
#215=EDGE_LOOP('',(#907,#908,#909,#910));
#216=EDGE_LOOP('',(#911,#912,#913,#914));
#217=EDGE_LOOP('',(#915,#916,#917,#918));
#218=EDGE_LOOP('',(#919,#920,#921,#922));
#219=EDGE_LOOP('',(#923,#924,#925,#926,#927));
#220=EDGE_LOOP('',(#928));
#221=EDGE_LOOP('',(#929,#930,#931,#932,#933));
#222=EDGE_LOOP('',(#934));
#223=EDGE_LOOP('',(#935,#936,#937,#938));
#224=EDGE_LOOP('',(#939,#940,#941,#942));
#225=EDGE_LOOP('',(#943,#944,#945,#946));
#226=EDGE_LOOP('',(#947,#948,#949,#950));
#227=EDGE_LOOP('',(#951,#952,#953,#954));
#228=EDGE_LOOP('',(#955,#956,#957,#958));
#229=EDGE_LOOP('',(#959,#960,#961,#962));
#230=EDGE_LOOP('',(#963,#964,#965,#966));
#231=EDGE_LOOP('',(#967,#968,#969,#970));
#232=EDGE_LOOP('',(#971));
#233=EDGE_LOOP('',(#972));
#234=EDGE_LOOP('',(#973,#974,#975,#976));
#235=EDGE_LOOP('',(#977));
#236=EDGE_LOOP('',(#978));
#237=EDGE_LOOP('',(#979,#980,#981,#982));
#238=EDGE_LOOP('',(#983,#984,#985,#986));
#239=EDGE_LOOP('',(#987,#988,#989,#990));
#240=EDGE_LOOP('',(#991,#992,#993,#994));
#241=EDGE_LOOP('',(#995,#996,#997,#998));
#242=EDGE_LOOP('',(#999,#1000,#1001,#1002));
#243=EDGE_LOOP('',(#1003,#1004,#1005,#1006));
#244=EDGE_LOOP('',(#1007,#1008,#1009,#1010,#1011));
#245=EDGE_LOOP('',(#1012));
#246=EDGE_LOOP('',(#1013,#1014,#1015,#1016));
#247=EDGE_LOOP('',(#1017,#1018,#1019,#1020));
#248=EDGE_LOOP('',(#1021,#1022,#1023,#1024,#1025));
#249=EDGE_LOOP('',(#1026));
#250=EDGE_LOOP('',(#1027,#1028,#1029,#1030));
#251=EDGE_LOOP('',(#1031,#1032,#1033,#1034));
#252=EDGE_LOOP('',(#1035,#1036,#1037,#1038));
#253=EDGE_LOOP('',(#1039,#1040,#1041,#1042));
#254=EDGE_LOOP('',(#1043,#1044,#1045,#1046,#1047));
#255=EDGE_LOOP('',(#1048));
#256=EDGE_LOOP('',(#1049,#1050,#1051,#1052));
#257=EDGE_LOOP('',(#1053,#1054,#1055,#1056));
#258=EDGE_LOOP('',(#1057,#1058,#1059,#1060,#1061));
#259=EDGE_LOOP('',(#1062));
#260=EDGE_LOOP('',(#1063,#1064,#1065,#1066));
#261=EDGE_LOOP('',(#1067,#1068,#1069,#1070));
#262=EDGE_LOOP('',(#1071,#1072,#1073,#1074));
#263=EDGE_LOOP('',(#1075,#1076,#1077,#1078));
#264=EDGE_LOOP('',(#1079));
#265=EDGE_LOOP('',(#1080));
#266=EDGE_LOOP('',(#1081,#1082,#1083,#1084));
#267=EDGE_LOOP('',(#1085));
#268=EDGE_LOOP('',(#1086));
#269=EDGE_LOOP('',(#1087,#1088,#1089,#1090));
#270=EDGE_LOOP('',(#1091,#1092,#1093,#1094));
#271=EDGE_LOOP('',(#1095,#1096,#1097,#1098));
#272=EDGE_LOOP('',(#1099,#1100,#1101,#1102));
#273=EDGE_LOOP('',(#1103,#1104,#1105,#1106));
#274=EDGE_LOOP('',(#1107,#1108,#1109,#1110));
#275=EDGE_LOOP('',(#1111,#1112,#1113,#1114));
#276=EDGE_LOOP('',(#1115,#1116,#1117,#1118,#1119));
#277=EDGE_LOOP('',(#1120));
#278=EDGE_LOOP('',(#1121,#1122,#1123,#1124));
#279=EDGE_LOOP('',(#1125,#1126,#1127,#1128));
#280=EDGE_LOOP('',(#1129,#1130,#1131,#1132,#1133));
#281=EDGE_LOOP('',(#1134));
#282=EDGE_LOOP('',(#1135,#1136,#1137,#1138));
#283=EDGE_LOOP('',(#1139,#1140,#1141,#1142));
#284=EDGE_LOOP('',(#1143,#1144,#1145,#1146));
#285=EDGE_LOOP('',(#1147,#1148,#1149,#1150));
#286=EDGE_LOOP('',(#1151,#1152,#1153,#1154,#1155));
#287=EDGE_LOOP('',(#1156));
#288=EDGE_LOOP('',(#1157,#1158,#1159,#1160));
#289=EDGE_LOOP('',(#1161,#1162,#1163,#1164));
#290=EDGE_LOOP('',(#1165,#1166,#1167,#1168,#1169));
#291=EDGE_LOOP('',(#1170));
#292=EDGE_LOOP('',(#1171,#1172,#1173,#1174));
#293=LINE('',#1785,#419);
#294=LINE('',#1791,#420);
#295=LINE('',#1796,#421);
#296=LINE('',#1798,#422);
#297=LINE('',#1800,#423);
#298=LINE('',#1801,#424);
#299=LINE('',#1805,#425);
#300=LINE('',#1807,#426);
#301=LINE('',#1809,#427);
#302=LINE('',#1810,#428);
#303=LINE('',#1812,#429);
#304=LINE('',#1813,#430);
#305=LINE('',#1815,#431);
#306=LINE('',#1817,#432);
#307=LINE('',#1824,#433);
#308=LINE('',#1826,#434);
#309=LINE('',#1828,#435);
#310=LINE('',#1829,#436);
#311=LINE('',#1835,#437);
#312=LINE('',#1837,#438);
#313=LINE('',#1839,#439);
#314=LINE('',#1841,#440);
#315=LINE('',#1846,#441);
#316=LINE('',#1848,#442);
#317=LINE('',#1849,#443);
#318=LINE('',#1851,#444);
#319=LINE('',#1853,#445);
#320=LINE('',#1855,#446);
#321=LINE('',#1862,#447);
#322=LINE('',#1864,#448);
#323=LINE('',#1866,#449);
#324=LINE('',#1867,#450);
#325=LINE('',#1873,#451);
#326=LINE('',#1875,#452);
#327=LINE('',#1877,#453);
#328=LINE('',#1879,#454);
#329=LINE('',#1884,#455);
#330=LINE('',#1886,#456);
#331=LINE('',#1887,#457);
#332=LINE('',#1889,#458);
#333=LINE('',#1891,#459);
#334=LINE('',#1893,#460);
#335=LINE('',#1900,#461);
#336=LINE('',#1906,#462);
#337=LINE('',#1911,#463);
#338=LINE('',#1913,#464);
#339=LINE('',#1915,#465);
#340=LINE('',#1916,#466);
#341=LINE('',#1920,#467);
#342=LINE('',#1922,#468);
#343=LINE('',#1924,#469);
#344=LINE('',#1925,#470);
#345=LINE('',#1927,#471);
#346=LINE('',#1928,#472);
#347=LINE('',#1930,#473);
#348=LINE('',#1932,#474);
#349=LINE('',#1938,#475);
#350=LINE('',#1943,#476);
#351=LINE('',#1947,#477);
#352=LINE('',#1951,#478);
#353=LINE('',#1953,#479);
#354=LINE('',#1954,#480);
#355=LINE('',#1957,#481);
#356=LINE('',#1959,#482);
#357=LINE('',#1960,#483);
#358=LINE('',#1963,#484);
#359=LINE('',#1964,#485);
#360=LINE('',#1967,#486);
#361=LINE('',#1968,#487);
#362=LINE('',#1970,#488);
#363=LINE('',#1976,#489);
#364=LINE('',#1981,#490);
#365=LINE('',#1985,#491);
#366=LINE('',#1989,#492);
#367=LINE('',#1991,#493);
#368=LINE('',#1992,#494);
#369=LINE('',#1995,#495);
#370=LINE('',#1997,#496);
#371=LINE('',#1998,#497);
#372=LINE('',#2001,#498);
#373=LINE('',#2002,#499);
#374=LINE('',#2005,#500);
#375=LINE('',#2006,#501);
#376=LINE('',#2008,#502);
#377=LINE('',#2015,#503);
#378=LINE('',#2021,#504);
#379=LINE('',#2026,#505);
#380=LINE('',#2028,#506);
#381=LINE('',#2030,#507);
#382=LINE('',#2031,#508);
#383=LINE('',#2035,#509);
#384=LINE('',#2037,#510);
#385=LINE('',#2039,#511);
#386=LINE('',#2040,#512);
#387=LINE('',#2042,#513);
#388=LINE('',#2043,#514);
#389=LINE('',#2045,#515);
#390=LINE('',#2047,#516);
#391=LINE('',#2053,#517);
#392=LINE('',#2058,#518);
#393=LINE('',#2062,#519);
#394=LINE('',#2066,#520);
#395=LINE('',#2068,#521);
#396=LINE('',#2069,#522);
#397=LINE('',#2072,#523);
#398=LINE('',#2074,#524);
#399=LINE('',#2075,#525);
#400=LINE('',#2078,#526);
#401=LINE('',#2079,#527);
#402=LINE('',#2082,#528);
#403=LINE('',#2083,#529);
#404=LINE('',#2085,#530);
#405=LINE('',#2091,#531);
#406=LINE('',#2096,#532);
#407=LINE('',#2100,#533);
#408=LINE('',#2104,#534);
#409=LINE('',#2106,#535);
#410=LINE('',#2107,#536);
#411=LINE('',#2110,#537);
#412=LINE('',#2112,#538);
#413=LINE('',#2113,#539);
#414=LINE('',#2116,#540);
#415=LINE('',#2117,#541);
#416=LINE('',#2120,#542);
#417=LINE('',#2121,#543);
#418=LINE('',#2123,#544);
#419=VECTOR('',#1431,4.2);
#420=VECTOR('',#1438,4.2);
#421=VECTOR('',#1443,10.);
#422=VECTOR('',#1444,10.);
#423=VECTOR('',#1445,10.);
#424=VECTOR('',#1446,10.);
#425=VECTOR('',#1449,10.);
#426=VECTOR('',#1450,10.);
#427=VECTOR('',#1451,10.);
#428=VECTOR('',#1452,10.);
#429=VECTOR('',#1455,10.);
#430=VECTOR('',#1456,10.);
#431=VECTOR('',#1459,10.);
#432=VECTOR('',#1462,10.);
#433=VECTOR('',#1469,10.);
#434=VECTOR('',#1470,10.);
#435=VECTOR('',#1471,10.);
#436=VECTOR('',#1472,10.);
#437=VECTOR('',#1477,10.);
#438=VECTOR('',#1478,10.);
#439=VECTOR('',#1479,10.);
#440=VECTOR('',#1480,10.);
#441=VECTOR('',#1487,3.1);
#442=VECTOR('',#1490,10.);
#443=VECTOR('',#1491,10.);
#444=VECTOR('',#1494,10.);
#445=VECTOR('',#1497,10.);
#446=VECTOR('',#1500,10.);
#447=VECTOR('',#1507,10.);
#448=VECTOR('',#1508,10.);
#449=VECTOR('',#1509,10.);
#450=VECTOR('',#1510,10.);
#451=VECTOR('',#1515,10.);
#452=VECTOR('',#1516,10.);
#453=VECTOR('',#1517,10.);
#454=VECTOR('',#1518,10.);
#455=VECTOR('',#1525,3.1);
#456=VECTOR('',#1528,10.);
#457=VECTOR('',#1529,10.);
#458=VECTOR('',#1532,10.);
#459=VECTOR('',#1535,10.);
#460=VECTOR('',#1538,10.);
#461=VECTOR('',#1547,4.2);
#462=VECTOR('',#1554,4.2);
#463=VECTOR('',#1559,10.);
#464=VECTOR('',#1560,10.);
#465=VECTOR('',#1561,10.);
#466=VECTOR('',#1562,10.);
#467=VECTOR('',#1565,10.);
#468=VECTOR('',#1566,10.);
#469=VECTOR('',#1567,10.);
#470=VECTOR('',#1568,10.);
#471=VECTOR('',#1571,10.);
#472=VECTOR('',#1572,10.);
#473=VECTOR('',#1575,10.);
#474=VECTOR('',#1578,10.);
#475=VECTOR('',#1585,3.1);
#476=VECTOR('',#1590,10.);
#477=VECTOR('',#1593,10.);
#478=VECTOR('',#1598,10.);
#479=VECTOR('',#1599,10.);
#480=VECTOR('',#1600,10.);
#481=VECTOR('',#1603,10.);
#482=VECTOR('',#1604,10.);
#483=VECTOR('',#1605,10.);
#484=VECTOR('',#1608,10.);
#485=VECTOR('',#1609,10.);
#486=VECTOR('',#1612,10.);
#487=VECTOR('',#1613,10.);
#488=VECTOR('',#1616,10.);
#489=VECTOR('',#1623,3.1);
#490=VECTOR('',#1628,10.);
#491=VECTOR('',#1631,10.);
#492=VECTOR('',#1636,10.);
#493=VECTOR('',#1637,10.);
#494=VECTOR('',#1638,10.);
#495=VECTOR('',#1641,10.);
#496=VECTOR('',#1642,10.);
#497=VECTOR('',#1643,10.);
#498=VECTOR('',#1646,10.);
#499=VECTOR('',#1647,10.);
#500=VECTOR('',#1650,10.);
#501=VECTOR('',#1651,10.);
#502=VECTOR('',#1654,10.);
#503=VECTOR('',#1663,4.2);
#504=VECTOR('',#1670,4.2);
#505=VECTOR('',#1675,10.);
#506=VECTOR('',#1676,10.);
#507=VECTOR('',#1677,10.);
#508=VECTOR('',#1678,10.);
#509=VECTOR('',#1681,10.);
#510=VECTOR('',#1682,10.);
#511=VECTOR('',#1683,10.);
#512=VECTOR('',#1684,10.);
#513=VECTOR('',#1687,10.);
#514=VECTOR('',#1688,10.);
#515=VECTOR('',#1691,10.);
#516=VECTOR('',#1694,10.);
#517=VECTOR('',#1701,3.1);
#518=VECTOR('',#1706,10.);
#519=VECTOR('',#1709,10.);
#520=VECTOR('',#1714,10.);
#521=VECTOR('',#1715,10.);
#522=VECTOR('',#1716,10.);
#523=VECTOR('',#1719,10.);
#524=VECTOR('',#1720,10.);
#525=VECTOR('',#1721,10.);
#526=VECTOR('',#1724,10.);
#527=VECTOR('',#1725,10.);
#528=VECTOR('',#1728,10.);
#529=VECTOR('',#1729,10.);
#530=VECTOR('',#1732,10.);
#531=VECTOR('',#1739,3.1);
#532=VECTOR('',#1744,10.);
#533=VECTOR('',#1747,10.);
#534=VECTOR('',#1752,10.);
#535=VECTOR('',#1753,10.);
#536=VECTOR('',#1754,10.);
#537=VECTOR('',#1757,10.);
#538=VECTOR('',#1758,10.);
#539=VECTOR('',#1759,10.);
#540=VECTOR('',#1762,10.);
#541=VECTOR('',#1763,10.);
#542=VECTOR('',#1766,10.);
#543=VECTOR('',#1767,10.);
#544=VECTOR('',#1770,10.);
#545=CIRCLE('',#1311,4.2);
#546=CIRCLE('',#1312,4.2);
#547=CIRCLE('',#1314,4.2);
#548=CIRCLE('',#1315,4.2);
#549=CIRCLE('',#1323,8.);
#550=CIRCLE('',#1324,3.1);
#551=CIRCLE('',#1326,8.);
#552=CIRCLE('',#1327,3.1);
#553=CIRCLE('',#1335,8.);
#554=CIRCLE('',#1336,3.1);
#555=CIRCLE('',#1338,8.);
#556=CIRCLE('',#1339,3.1);
#557=CIRCLE('',#1348,4.2);
#558=CIRCLE('',#1349,4.2);
#559=CIRCLE('',#1351,4.2);
#560=CIRCLE('',#1352,4.2);
#561=CIRCLE('',#1360,3.1);
#562=CIRCLE('',#1361,3.1);
#563=CIRCLE('',#1363,8.);
#564=CIRCLE('',#1364,8.);
#565=CIRCLE('',#1372,3.1);
#566=CIRCLE('',#1373,3.1);
#567=CIRCLE('',#1375,8.);
#568=CIRCLE('',#1376,8.);
#569=CIRCLE('',#1385,4.2);
#570=CIRCLE('',#1386,4.2);
#571=CIRCLE('',#1388,4.2);
#572=CIRCLE('',#1389,4.2);
#573=CIRCLE('',#1397,3.1);
#574=CIRCLE('',#1398,3.1);
#575=CIRCLE('',#1400,8.);
#576=CIRCLE('',#1401,8.);
#577=CIRCLE('',#1409,3.1);
#578=CIRCLE('',#1410,3.1);
#579=CIRCLE('',#1412,8.);
#580=CIRCLE('',#1413,8.);
#581=VERTEX_POINT('',#1782);
#582=VERTEX_POINT('',#1784);
#583=VERTEX_POINT('',#1788);
#584=VERTEX_POINT('',#1790);
#585=VERTEX_POINT('',#1794);
#586=VERTEX_POINT('',#1795);
#587=VERTEX_POINT('',#1797);
#588=VERTEX_POINT('',#1799);
#589=VERTEX_POINT('',#1803);
#590=VERTEX_POINT('',#1804);
#591=VERTEX_POINT('',#1806);
#592=VERTEX_POINT('',#1808);
#593=VERTEX_POINT('',#1820);
#594=VERTEX_POINT('',#1821);
#595=VERTEX_POINT('',#1823);
#596=VERTEX_POINT('',#1825);
#597=VERTEX_POINT('',#1827);
#598=VERTEX_POINT('',#1830);
#599=VERTEX_POINT('',#1833);
#600=VERTEX_POINT('',#1834);
#601=VERTEX_POINT('',#1836);
#602=VERTEX_POINT('',#1838);
#603=VERTEX_POINT('',#1840);
#604=VERTEX_POINT('',#1843);
#605=VERTEX_POINT('',#1858);
#606=VERTEX_POINT('',#1859);
#607=VERTEX_POINT('',#1861);
#608=VERTEX_POINT('',#1863);
#609=VERTEX_POINT('',#1865);
#610=VERTEX_POINT('',#1868);
#611=VERTEX_POINT('',#1871);
#612=VERTEX_POINT('',#1872);
#613=VERTEX_POINT('',#1874);
#614=VERTEX_POINT('',#1876);
#615=VERTEX_POINT('',#1878);
#616=VERTEX_POINT('',#1881);
#617=VERTEX_POINT('',#1897);
#618=VERTEX_POINT('',#1899);
#619=VERTEX_POINT('',#1903);
#620=VERTEX_POINT('',#1905);
#621=VERTEX_POINT('',#1909);
#622=VERTEX_POINT('',#1910);
#623=VERTEX_POINT('',#1912);
#624=VERTEX_POINT('',#1914);
#625=VERTEX_POINT('',#1918);
#626=VERTEX_POINT('',#1919);
#627=VERTEX_POINT('',#1921);
#628=VERTEX_POINT('',#1923);
#629=VERTEX_POINT('',#1935);
#630=VERTEX_POINT('',#1937);
#631=VERTEX_POINT('',#1941);
#632=VERTEX_POINT('',#1942);
#633=VERTEX_POINT('',#1944);
#634=VERTEX_POINT('',#1946);
#635=VERTEX_POINT('',#1950);
#636=VERTEX_POINT('',#1952);
#637=VERTEX_POINT('',#1956);
#638=VERTEX_POINT('',#1958);
#639=VERTEX_POINT('',#1962);
#640=VERTEX_POINT('',#1966);
#641=VERTEX_POINT('',#1973);
#642=VERTEX_POINT('',#1975);
#643=VERTEX_POINT('',#1979);
#644=VERTEX_POINT('',#1980);
#645=VERTEX_POINT('',#1982);
#646=VERTEX_POINT('',#1984);
#647=VERTEX_POINT('',#1988);
#648=VERTEX_POINT('',#1990);
#649=VERTEX_POINT('',#1994);
#650=VERTEX_POINT('',#1996);
#651=VERTEX_POINT('',#2000);
#652=VERTEX_POINT('',#2004);
#653=VERTEX_POINT('',#2012);
#654=VERTEX_POINT('',#2014);
#655=VERTEX_POINT('',#2018);
#656=VERTEX_POINT('',#2020);
#657=VERTEX_POINT('',#2024);
#658=VERTEX_POINT('',#2025);
#659=VERTEX_POINT('',#2027);
#660=VERTEX_POINT('',#2029);
#661=VERTEX_POINT('',#2033);
#662=VERTEX_POINT('',#2034);
#663=VERTEX_POINT('',#2036);
#664=VERTEX_POINT('',#2038);
#665=VERTEX_POINT('',#2050);
#666=VERTEX_POINT('',#2052);
#667=VERTEX_POINT('',#2056);
#668=VERTEX_POINT('',#2057);
#669=VERTEX_POINT('',#2059);
#670=VERTEX_POINT('',#2061);
#671=VERTEX_POINT('',#2065);
#672=VERTEX_POINT('',#2067);
#673=VERTEX_POINT('',#2071);
#674=VERTEX_POINT('',#2073);
#675=VERTEX_POINT('',#2077);
#676=VERTEX_POINT('',#2081);
#677=VERTEX_POINT('',#2088);
#678=VERTEX_POINT('',#2090);
#679=VERTEX_POINT('',#2094);
#680=VERTEX_POINT('',#2095);
#681=VERTEX_POINT('',#2097);
#682=VERTEX_POINT('',#2099);
#683=VERTEX_POINT('',#2103);
#684=VERTEX_POINT('',#2105);
#685=VERTEX_POINT('',#2109);
#686=VERTEX_POINT('',#2111);
#687=VERTEX_POINT('',#2115);
#688=VERTEX_POINT('',#2119);
#689=EDGE_CURVE('',#581,#581,#545,.T.);
#690=EDGE_CURVE('',#581,#582,#293,.T.);
#691=EDGE_CURVE('',#582,#582,#546,.T.);
#692=EDGE_CURVE('',#583,#583,#547,.T.);
#693=EDGE_CURVE('',#583,#584,#294,.T.);
#694=EDGE_CURVE('',#584,#584,#548,.T.);
#695=EDGE_CURVE('',#585,#586,#295,.T.);
#696=EDGE_CURVE('',#586,#587,#296,.T.);
#697=EDGE_CURVE('',#587,#588,#297,.T.);
#698=EDGE_CURVE('',#588,#585,#298,.T.);
#699=EDGE_CURVE('',#589,#590,#299,.T.);
#700=EDGE_CURVE('',#590,#591,#300,.T.);
#701=EDGE_CURVE('',#591,#592,#301,.T.);
#702=EDGE_CURVE('',#592,#589,#302,.T.);
#703=EDGE_CURVE('',#588,#591,#303,.T.);
#704=EDGE_CURVE('',#585,#590,#304,.T.);
#705=EDGE_CURVE('',#587,#592,#305,.T.);
#706=EDGE_CURVE('',#586,#589,#306,.T.);
#707=EDGE_CURVE('',#593,#594,#549,.T.);
#708=EDGE_CURVE('',#595,#594,#307,.T.);
#709=EDGE_CURVE('',#595,#596,#308,.T.);
#710=EDGE_CURVE('',#597,#596,#309,.T.);
#711=EDGE_CURVE('',#593,#597,#310,.T.);
#712=EDGE_CURVE('',#598,#598,#550,.T.);
#713=EDGE_CURVE('',#599,#600,#311,.T.);
#714=EDGE_CURVE('',#601,#600,#312,.T.);
#715=EDGE_CURVE('',#602,#601,#313,.T.);
#716=EDGE_CURVE('',#603,#602,#314,.T.);
#717=EDGE_CURVE('',#603,#599,#551,.T.);
#718=EDGE_CURVE('',#604,#604,#552,.T.);
#719=EDGE_CURVE('',#598,#604,#315,.T.);
#720=EDGE_CURVE('',#599,#593,#316,.T.);
#721=EDGE_CURVE('',#594,#603,#317,.T.);
#722=EDGE_CURVE('',#600,#597,#318,.T.);
#723=EDGE_CURVE('',#602,#595,#319,.T.);
#724=EDGE_CURVE('',#596,#601,#320,.T.);
#725=EDGE_CURVE('',#605,#606,#553,.T.);
#726=EDGE_CURVE('',#607,#606,#321,.T.);
#727=EDGE_CURVE('',#607,#608,#322,.T.);
#728=EDGE_CURVE('',#609,#608,#323,.T.);
#729=EDGE_CURVE('',#605,#609,#324,.T.);
#730=EDGE_CURVE('',#610,#610,#554,.T.);
#731=EDGE_CURVE('',#611,#612,#325,.T.);
#732=EDGE_CURVE('',#613,#612,#326,.T.);
#733=EDGE_CURVE('',#614,#613,#327,.T.);
#734=EDGE_CURVE('',#615,#614,#328,.T.);
#735=EDGE_CURVE('',#615,#611,#555,.T.);
#736=EDGE_CURVE('',#616,#616,#556,.T.);
#737=EDGE_CURVE('',#610,#616,#329,.T.);
#738=EDGE_CURVE('',#611,#605,#330,.T.);
#739=EDGE_CURVE('',#606,#615,#331,.T.);
#740=EDGE_CURVE('',#612,#609,#332,.T.);
#741=EDGE_CURVE('',#614,#607,#333,.T.);
#742=EDGE_CURVE('',#608,#613,#334,.T.);
#743=EDGE_CURVE('',#617,#617,#557,.T.);
#744=EDGE_CURVE('',#617,#618,#335,.T.);
#745=EDGE_CURVE('',#618,#618,#558,.T.);
#746=EDGE_CURVE('',#619,#619,#559,.T.);
#747=EDGE_CURVE('',#619,#620,#336,.T.);
#748=EDGE_CURVE('',#620,#620,#560,.T.);
#749=EDGE_CURVE('',#621,#622,#337,.T.);
#750=EDGE_CURVE('',#622,#623,#338,.T.);
#751=EDGE_CURVE('',#623,#624,#339,.T.);
#752=EDGE_CURVE('',#624,#621,#340,.T.);
#753=EDGE_CURVE('',#625,#626,#341,.T.);
#754=EDGE_CURVE('',#626,#627,#342,.T.);
#755=EDGE_CURVE('',#627,#628,#343,.T.);
#756=EDGE_CURVE('',#628,#625,#344,.T.);
#757=EDGE_CURVE('',#624,#627,#345,.T.);
#758=EDGE_CURVE('',#621,#626,#346,.T.);
#759=EDGE_CURVE('',#623,#628,#347,.T.);
#760=EDGE_CURVE('',#622,#625,#348,.T.);
#761=EDGE_CURVE('',#629,#629,#561,.T.);
#762=EDGE_CURVE('',#629,#630,#349,.T.);
#763=EDGE_CURVE('',#630,#630,#562,.T.);
#764=EDGE_CURVE('',#631,#632,#350,.T.);
#765=EDGE_CURVE('',#633,#631,#563,.T.);
#766=EDGE_CURVE('',#634,#633,#351,.T.);
#767=EDGE_CURVE('',#632,#634,#564,.T.);
#768=EDGE_CURVE('',#632,#635,#352,.T.);
#769=EDGE_CURVE('',#636,#635,#353,.T.);
#770=EDGE_CURVE('',#631,#636,#354,.T.);
#771=EDGE_CURVE('',#637,#636,#355,.T.);
#772=EDGE_CURVE('',#638,#637,#356,.T.);
#773=EDGE_CURVE('',#633,#638,#357,.T.);
#774=EDGE_CURVE('',#638,#639,#358,.T.);
#775=EDGE_CURVE('',#639,#634,#359,.T.);
#776=EDGE_CURVE('',#635,#640,#360,.T.);
#777=EDGE_CURVE('',#640,#637,#361,.T.);
#778=EDGE_CURVE('',#639,#640,#362,.T.);
#779=EDGE_CURVE('',#641,#641,#565,.T.);
#780=EDGE_CURVE('',#641,#642,#363,.T.);
#781=EDGE_CURVE('',#642,#642,#566,.T.);
#782=EDGE_CURVE('',#643,#644,#364,.T.);
#783=EDGE_CURVE('',#645,#643,#567,.T.);
#784=EDGE_CURVE('',#646,#645,#365,.T.);
#785=EDGE_CURVE('',#644,#646,#568,.T.);
#786=EDGE_CURVE('',#644,#647,#366,.T.);
#787=EDGE_CURVE('',#648,#647,#367,.T.);
#788=EDGE_CURVE('',#643,#648,#368,.T.);
#789=EDGE_CURVE('',#649,#648,#369,.T.);
#790=EDGE_CURVE('',#650,#649,#370,.T.);
#791=EDGE_CURVE('',#645,#650,#371,.T.);
#792=EDGE_CURVE('',#650,#651,#372,.T.);
#793=EDGE_CURVE('',#651,#646,#373,.T.);
#794=EDGE_CURVE('',#647,#652,#374,.T.);
#795=EDGE_CURVE('',#652,#649,#375,.T.);
#796=EDGE_CURVE('',#651,#652,#376,.T.);
#797=EDGE_CURVE('',#653,#653,#569,.T.);
#798=EDGE_CURVE('',#653,#654,#377,.T.);
#799=EDGE_CURVE('',#654,#654,#570,.T.);
#800=EDGE_CURVE('',#655,#655,#571,.T.);
#801=EDGE_CURVE('',#655,#656,#378,.T.);
#802=EDGE_CURVE('',#656,#656,#572,.T.);
#803=EDGE_CURVE('',#657,#658,#379,.T.);
#804=EDGE_CURVE('',#658,#659,#380,.T.);
#805=EDGE_CURVE('',#659,#660,#381,.T.);
#806=EDGE_CURVE('',#660,#657,#382,.T.);
#807=EDGE_CURVE('',#661,#662,#383,.T.);
#808=EDGE_CURVE('',#662,#663,#384,.T.);
#809=EDGE_CURVE('',#663,#664,#385,.T.);
#810=EDGE_CURVE('',#664,#661,#386,.T.);
#811=EDGE_CURVE('',#660,#663,#387,.T.);
#812=EDGE_CURVE('',#657,#662,#388,.T.);
#813=EDGE_CURVE('',#659,#664,#389,.T.);
#814=EDGE_CURVE('',#658,#661,#390,.T.);
#815=EDGE_CURVE('',#665,#665,#573,.T.);
#816=EDGE_CURVE('',#665,#666,#391,.T.);
#817=EDGE_CURVE('',#666,#666,#574,.T.);
#818=EDGE_CURVE('',#667,#668,#392,.T.);
#819=EDGE_CURVE('',#669,#667,#575,.T.);
#820=EDGE_CURVE('',#670,#669,#393,.T.);
#821=EDGE_CURVE('',#668,#670,#576,.T.);
#822=EDGE_CURVE('',#668,#671,#394,.T.);
#823=EDGE_CURVE('',#672,#671,#395,.T.);
#824=EDGE_CURVE('',#667,#672,#396,.T.);
#825=EDGE_CURVE('',#673,#672,#397,.T.);
#826=EDGE_CURVE('',#674,#673,#398,.T.);
#827=EDGE_CURVE('',#669,#674,#399,.T.);
#828=EDGE_CURVE('',#674,#675,#400,.T.);
#829=EDGE_CURVE('',#675,#670,#401,.T.);
#830=EDGE_CURVE('',#671,#676,#402,.T.);
#831=EDGE_CURVE('',#676,#673,#403,.T.);
#832=EDGE_CURVE('',#675,#676,#404,.T.);
#833=EDGE_CURVE('',#677,#677,#577,.T.);
#834=EDGE_CURVE('',#677,#678,#405,.T.);
#835=EDGE_CURVE('',#678,#678,#578,.T.);
#836=EDGE_CURVE('',#679,#680,#406,.T.);
#837=EDGE_CURVE('',#681,#679,#579,.T.);
#838=EDGE_CURVE('',#682,#681,#407,.T.);
#839=EDGE_CURVE('',#680,#682,#580,.T.);
#840=EDGE_CURVE('',#680,#683,#408,.T.);
#841=EDGE_CURVE('',#684,#683,#409,.T.);
#842=EDGE_CURVE('',#679,#684,#410,.T.);
#843=EDGE_CURVE('',#685,#684,#411,.T.);
#844=EDGE_CURVE('',#686,#685,#412,.T.);
#845=EDGE_CURVE('',#681,#686,#413,.T.);
#846=EDGE_CURVE('',#686,#687,#414,.T.);
#847=EDGE_CURVE('',#687,#682,#415,.T.);
#848=EDGE_CURVE('',#683,#688,#416,.T.);
#849=EDGE_CURVE('',#688,#685,#417,.T.);
#850=EDGE_CURVE('',#687,#688,#418,.T.);
#851=ORIENTED_EDGE('',*,*,#689,.F.);
#852=ORIENTED_EDGE('',*,*,#690,.T.);
#853=ORIENTED_EDGE('',*,*,#691,.F.);
#854=ORIENTED_EDGE('',*,*,#690,.F.);
#855=ORIENTED_EDGE('',*,*,#692,.F.);
#856=ORIENTED_EDGE('',*,*,#693,.T.);
#857=ORIENTED_EDGE('',*,*,#694,.F.);
#858=ORIENTED_EDGE('',*,*,#693,.F.);
#859=ORIENTED_EDGE('',*,*,#695,.T.);
#860=ORIENTED_EDGE('',*,*,#696,.T.);
#861=ORIENTED_EDGE('',*,*,#697,.T.);
#862=ORIENTED_EDGE('',*,*,#698,.T.);
#863=ORIENTED_EDGE('',*,*,#691,.T.);
#864=ORIENTED_EDGE('',*,*,#694,.T.);
#865=ORIENTED_EDGE('',*,*,#699,.T.);
#866=ORIENTED_EDGE('',*,*,#700,.T.);
#867=ORIENTED_EDGE('',*,*,#701,.T.);
#868=ORIENTED_EDGE('',*,*,#702,.T.);
#869=ORIENTED_EDGE('',*,*,#689,.T.);
#870=ORIENTED_EDGE('',*,*,#692,.T.);
#871=ORIENTED_EDGE('',*,*,#703,.T.);
#872=ORIENTED_EDGE('',*,*,#700,.F.);
#873=ORIENTED_EDGE('',*,*,#704,.F.);
#874=ORIENTED_EDGE('',*,*,#698,.F.);
#875=ORIENTED_EDGE('',*,*,#705,.T.);
#876=ORIENTED_EDGE('',*,*,#701,.F.);
#877=ORIENTED_EDGE('',*,*,#703,.F.);
#878=ORIENTED_EDGE('',*,*,#697,.F.);
#879=ORIENTED_EDGE('',*,*,#706,.T.);
#880=ORIENTED_EDGE('',*,*,#702,.F.);
#881=ORIENTED_EDGE('',*,*,#705,.F.);
#882=ORIENTED_EDGE('',*,*,#696,.F.);
#883=ORIENTED_EDGE('',*,*,#704,.T.);
#884=ORIENTED_EDGE('',*,*,#699,.F.);
#885=ORIENTED_EDGE('',*,*,#706,.F.);
#886=ORIENTED_EDGE('',*,*,#695,.F.);
#887=ORIENTED_EDGE('',*,*,#707,.T.);
#888=ORIENTED_EDGE('',*,*,#708,.F.);
#889=ORIENTED_EDGE('',*,*,#709,.T.);
#890=ORIENTED_EDGE('',*,*,#710,.F.);
#891=ORIENTED_EDGE('',*,*,#711,.F.);
#892=ORIENTED_EDGE('',*,*,#712,.T.);
#893=ORIENTED_EDGE('',*,*,#713,.T.);
#894=ORIENTED_EDGE('',*,*,#714,.F.);
#895=ORIENTED_EDGE('',*,*,#715,.F.);
#896=ORIENTED_EDGE('',*,*,#716,.F.);
#897=ORIENTED_EDGE('',*,*,#717,.T.);
#898=ORIENTED_EDGE('',*,*,#718,.T.);
#899=ORIENTED_EDGE('',*,*,#712,.F.);
#900=ORIENTED_EDGE('',*,*,#719,.T.);
#901=ORIENTED_EDGE('',*,*,#718,.F.);
#902=ORIENTED_EDGE('',*,*,#719,.F.);
#903=ORIENTED_EDGE('',*,*,#720,.F.);
#904=ORIENTED_EDGE('',*,*,#717,.F.);
#905=ORIENTED_EDGE('',*,*,#721,.F.);
#906=ORIENTED_EDGE('',*,*,#707,.F.);
#907=ORIENTED_EDGE('',*,*,#720,.T.);
#908=ORIENTED_EDGE('',*,*,#711,.T.);
#909=ORIENTED_EDGE('',*,*,#722,.F.);
#910=ORIENTED_EDGE('',*,*,#713,.F.);
#911=ORIENTED_EDGE('',*,*,#721,.T.);
#912=ORIENTED_EDGE('',*,*,#716,.T.);
#913=ORIENTED_EDGE('',*,*,#723,.T.);
#914=ORIENTED_EDGE('',*,*,#708,.T.);
#915=ORIENTED_EDGE('',*,*,#722,.T.);
#916=ORIENTED_EDGE('',*,*,#710,.T.);
#917=ORIENTED_EDGE('',*,*,#724,.T.);
#918=ORIENTED_EDGE('',*,*,#714,.T.);
#919=ORIENTED_EDGE('',*,*,#715,.T.);
#920=ORIENTED_EDGE('',*,*,#724,.F.);
#921=ORIENTED_EDGE('',*,*,#709,.F.);
#922=ORIENTED_EDGE('',*,*,#723,.F.);
#923=ORIENTED_EDGE('',*,*,#725,.T.);
#924=ORIENTED_EDGE('',*,*,#726,.F.);
#925=ORIENTED_EDGE('',*,*,#727,.T.);
#926=ORIENTED_EDGE('',*,*,#728,.F.);
#927=ORIENTED_EDGE('',*,*,#729,.F.);
#928=ORIENTED_EDGE('',*,*,#730,.T.);
#929=ORIENTED_EDGE('',*,*,#731,.T.);
#930=ORIENTED_EDGE('',*,*,#732,.F.);
#931=ORIENTED_EDGE('',*,*,#733,.F.);
#932=ORIENTED_EDGE('',*,*,#734,.F.);
#933=ORIENTED_EDGE('',*,*,#735,.T.);
#934=ORIENTED_EDGE('',*,*,#736,.T.);
#935=ORIENTED_EDGE('',*,*,#730,.F.);
#936=ORIENTED_EDGE('',*,*,#737,.T.);
#937=ORIENTED_EDGE('',*,*,#736,.F.);
#938=ORIENTED_EDGE('',*,*,#737,.F.);
#939=ORIENTED_EDGE('',*,*,#738,.F.);
#940=ORIENTED_EDGE('',*,*,#735,.F.);
#941=ORIENTED_EDGE('',*,*,#739,.F.);
#942=ORIENTED_EDGE('',*,*,#725,.F.);
#943=ORIENTED_EDGE('',*,*,#738,.T.);
#944=ORIENTED_EDGE('',*,*,#729,.T.);
#945=ORIENTED_EDGE('',*,*,#740,.F.);
#946=ORIENTED_EDGE('',*,*,#731,.F.);
#947=ORIENTED_EDGE('',*,*,#739,.T.);
#948=ORIENTED_EDGE('',*,*,#734,.T.);
#949=ORIENTED_EDGE('',*,*,#741,.T.);
#950=ORIENTED_EDGE('',*,*,#726,.T.);
#951=ORIENTED_EDGE('',*,*,#740,.T.);
#952=ORIENTED_EDGE('',*,*,#728,.T.);
#953=ORIENTED_EDGE('',*,*,#742,.T.);
#954=ORIENTED_EDGE('',*,*,#732,.T.);
#955=ORIENTED_EDGE('',*,*,#733,.T.);
#956=ORIENTED_EDGE('',*,*,#742,.F.);
#957=ORIENTED_EDGE('',*,*,#727,.F.);
#958=ORIENTED_EDGE('',*,*,#741,.F.);
#959=ORIENTED_EDGE('',*,*,#743,.F.);
#960=ORIENTED_EDGE('',*,*,#744,.T.);
#961=ORIENTED_EDGE('',*,*,#745,.F.);
#962=ORIENTED_EDGE('',*,*,#744,.F.);
#963=ORIENTED_EDGE('',*,*,#746,.F.);
#964=ORIENTED_EDGE('',*,*,#747,.T.);
#965=ORIENTED_EDGE('',*,*,#748,.F.);
#966=ORIENTED_EDGE('',*,*,#747,.F.);
#967=ORIENTED_EDGE('',*,*,#749,.T.);
#968=ORIENTED_EDGE('',*,*,#750,.T.);
#969=ORIENTED_EDGE('',*,*,#751,.T.);
#970=ORIENTED_EDGE('',*,*,#752,.T.);
#971=ORIENTED_EDGE('',*,*,#745,.T.);
#972=ORIENTED_EDGE('',*,*,#748,.T.);
#973=ORIENTED_EDGE('',*,*,#753,.T.);
#974=ORIENTED_EDGE('',*,*,#754,.T.);
#975=ORIENTED_EDGE('',*,*,#755,.T.);
#976=ORIENTED_EDGE('',*,*,#756,.T.);
#977=ORIENTED_EDGE('',*,*,#743,.T.);
#978=ORIENTED_EDGE('',*,*,#746,.T.);
#979=ORIENTED_EDGE('',*,*,#757,.T.);
#980=ORIENTED_EDGE('',*,*,#754,.F.);
#981=ORIENTED_EDGE('',*,*,#758,.F.);
#982=ORIENTED_EDGE('',*,*,#752,.F.);
#983=ORIENTED_EDGE('',*,*,#759,.T.);
#984=ORIENTED_EDGE('',*,*,#755,.F.);
#985=ORIENTED_EDGE('',*,*,#757,.F.);
#986=ORIENTED_EDGE('',*,*,#751,.F.);
#987=ORIENTED_EDGE('',*,*,#760,.T.);
#988=ORIENTED_EDGE('',*,*,#756,.F.);
#989=ORIENTED_EDGE('',*,*,#759,.F.);
#990=ORIENTED_EDGE('',*,*,#750,.F.);
#991=ORIENTED_EDGE('',*,*,#758,.T.);
#992=ORIENTED_EDGE('',*,*,#753,.F.);
#993=ORIENTED_EDGE('',*,*,#760,.F.);
#994=ORIENTED_EDGE('',*,*,#749,.F.);
#995=ORIENTED_EDGE('',*,*,#761,.F.);
#996=ORIENTED_EDGE('',*,*,#762,.T.);
#997=ORIENTED_EDGE('',*,*,#763,.F.);
#998=ORIENTED_EDGE('',*,*,#762,.F.);
#999=ORIENTED_EDGE('',*,*,#764,.F.);
#1000=ORIENTED_EDGE('',*,*,#765,.F.);
#1001=ORIENTED_EDGE('',*,*,#766,.F.);
#1002=ORIENTED_EDGE('',*,*,#767,.F.);
#1003=ORIENTED_EDGE('',*,*,#764,.T.);
#1004=ORIENTED_EDGE('',*,*,#768,.T.);
#1005=ORIENTED_EDGE('',*,*,#769,.F.);
#1006=ORIENTED_EDGE('',*,*,#770,.F.);
#1007=ORIENTED_EDGE('',*,*,#770,.T.);
#1008=ORIENTED_EDGE('',*,*,#771,.F.);
#1009=ORIENTED_EDGE('',*,*,#772,.F.);
#1010=ORIENTED_EDGE('',*,*,#773,.F.);
#1011=ORIENTED_EDGE('',*,*,#765,.T.);
#1012=ORIENTED_EDGE('',*,*,#763,.T.);
#1013=ORIENTED_EDGE('',*,*,#766,.T.);
#1014=ORIENTED_EDGE('',*,*,#773,.T.);
#1015=ORIENTED_EDGE('',*,*,#774,.T.);
#1016=ORIENTED_EDGE('',*,*,#775,.T.);
#1017=ORIENTED_EDGE('',*,*,#769,.T.);
#1018=ORIENTED_EDGE('',*,*,#776,.T.);
#1019=ORIENTED_EDGE('',*,*,#777,.T.);
#1020=ORIENTED_EDGE('',*,*,#771,.T.);
#1021=ORIENTED_EDGE('',*,*,#767,.T.);
#1022=ORIENTED_EDGE('',*,*,#775,.F.);
#1023=ORIENTED_EDGE('',*,*,#778,.T.);
#1024=ORIENTED_EDGE('',*,*,#776,.F.);
#1025=ORIENTED_EDGE('',*,*,#768,.F.);
#1026=ORIENTED_EDGE('',*,*,#761,.T.);
#1027=ORIENTED_EDGE('',*,*,#772,.T.);
#1028=ORIENTED_EDGE('',*,*,#777,.F.);
#1029=ORIENTED_EDGE('',*,*,#778,.F.);
#1030=ORIENTED_EDGE('',*,*,#774,.F.);
#1031=ORIENTED_EDGE('',*,*,#779,.F.);
#1032=ORIENTED_EDGE('',*,*,#780,.T.);
#1033=ORIENTED_EDGE('',*,*,#781,.F.);
#1034=ORIENTED_EDGE('',*,*,#780,.F.);
#1035=ORIENTED_EDGE('',*,*,#782,.F.);
#1036=ORIENTED_EDGE('',*,*,#783,.F.);
#1037=ORIENTED_EDGE('',*,*,#784,.F.);
#1038=ORIENTED_EDGE('',*,*,#785,.F.);
#1039=ORIENTED_EDGE('',*,*,#782,.T.);
#1040=ORIENTED_EDGE('',*,*,#786,.T.);
#1041=ORIENTED_EDGE('',*,*,#787,.F.);
#1042=ORIENTED_EDGE('',*,*,#788,.F.);
#1043=ORIENTED_EDGE('',*,*,#788,.T.);
#1044=ORIENTED_EDGE('',*,*,#789,.F.);
#1045=ORIENTED_EDGE('',*,*,#790,.F.);
#1046=ORIENTED_EDGE('',*,*,#791,.F.);
#1047=ORIENTED_EDGE('',*,*,#783,.T.);
#1048=ORIENTED_EDGE('',*,*,#781,.T.);
#1049=ORIENTED_EDGE('',*,*,#784,.T.);
#1050=ORIENTED_EDGE('',*,*,#791,.T.);
#1051=ORIENTED_EDGE('',*,*,#792,.T.);
#1052=ORIENTED_EDGE('',*,*,#793,.T.);
#1053=ORIENTED_EDGE('',*,*,#787,.T.);
#1054=ORIENTED_EDGE('',*,*,#794,.T.);
#1055=ORIENTED_EDGE('',*,*,#795,.T.);
#1056=ORIENTED_EDGE('',*,*,#789,.T.);
#1057=ORIENTED_EDGE('',*,*,#785,.T.);
#1058=ORIENTED_EDGE('',*,*,#793,.F.);
#1059=ORIENTED_EDGE('',*,*,#796,.T.);
#1060=ORIENTED_EDGE('',*,*,#794,.F.);
#1061=ORIENTED_EDGE('',*,*,#786,.F.);
#1062=ORIENTED_EDGE('',*,*,#779,.T.);
#1063=ORIENTED_EDGE('',*,*,#790,.T.);
#1064=ORIENTED_EDGE('',*,*,#795,.F.);
#1065=ORIENTED_EDGE('',*,*,#796,.F.);
#1066=ORIENTED_EDGE('',*,*,#792,.F.);
#1067=ORIENTED_EDGE('',*,*,#797,.F.);
#1068=ORIENTED_EDGE('',*,*,#798,.T.);
#1069=ORIENTED_EDGE('',*,*,#799,.F.);
#1070=ORIENTED_EDGE('',*,*,#798,.F.);
#1071=ORIENTED_EDGE('',*,*,#800,.F.);
#1072=ORIENTED_EDGE('',*,*,#801,.T.);
#1073=ORIENTED_EDGE('',*,*,#802,.F.);
#1074=ORIENTED_EDGE('',*,*,#801,.F.);
#1075=ORIENTED_EDGE('',*,*,#803,.T.);
#1076=ORIENTED_EDGE('',*,*,#804,.T.);
#1077=ORIENTED_EDGE('',*,*,#805,.T.);
#1078=ORIENTED_EDGE('',*,*,#806,.T.);
#1079=ORIENTED_EDGE('',*,*,#799,.T.);
#1080=ORIENTED_EDGE('',*,*,#802,.T.);
#1081=ORIENTED_EDGE('',*,*,#807,.T.);
#1082=ORIENTED_EDGE('',*,*,#808,.T.);
#1083=ORIENTED_EDGE('',*,*,#809,.T.);
#1084=ORIENTED_EDGE('',*,*,#810,.T.);
#1085=ORIENTED_EDGE('',*,*,#797,.T.);
#1086=ORIENTED_EDGE('',*,*,#800,.T.);
#1087=ORIENTED_EDGE('',*,*,#811,.T.);
#1088=ORIENTED_EDGE('',*,*,#808,.F.);
#1089=ORIENTED_EDGE('',*,*,#812,.F.);
#1090=ORIENTED_EDGE('',*,*,#806,.F.);
#1091=ORIENTED_EDGE('',*,*,#813,.T.);
#1092=ORIENTED_EDGE('',*,*,#809,.F.);
#1093=ORIENTED_EDGE('',*,*,#811,.F.);
#1094=ORIENTED_EDGE('',*,*,#805,.F.);
#1095=ORIENTED_EDGE('',*,*,#814,.T.);
#1096=ORIENTED_EDGE('',*,*,#810,.F.);
#1097=ORIENTED_EDGE('',*,*,#813,.F.);
#1098=ORIENTED_EDGE('',*,*,#804,.F.);
#1099=ORIENTED_EDGE('',*,*,#812,.T.);
#1100=ORIENTED_EDGE('',*,*,#807,.F.);
#1101=ORIENTED_EDGE('',*,*,#814,.F.);
#1102=ORIENTED_EDGE('',*,*,#803,.F.);
#1103=ORIENTED_EDGE('',*,*,#815,.F.);
#1104=ORIENTED_EDGE('',*,*,#816,.T.);
#1105=ORIENTED_EDGE('',*,*,#817,.F.);
#1106=ORIENTED_EDGE('',*,*,#816,.F.);
#1107=ORIENTED_EDGE('',*,*,#818,.F.);
#1108=ORIENTED_EDGE('',*,*,#819,.F.);
#1109=ORIENTED_EDGE('',*,*,#820,.F.);
#1110=ORIENTED_EDGE('',*,*,#821,.F.);
#1111=ORIENTED_EDGE('',*,*,#818,.T.);
#1112=ORIENTED_EDGE('',*,*,#822,.T.);
#1113=ORIENTED_EDGE('',*,*,#823,.F.);
#1114=ORIENTED_EDGE('',*,*,#824,.F.);
#1115=ORIENTED_EDGE('',*,*,#824,.T.);
#1116=ORIENTED_EDGE('',*,*,#825,.F.);
#1117=ORIENTED_EDGE('',*,*,#826,.F.);
#1118=ORIENTED_EDGE('',*,*,#827,.F.);
#1119=ORIENTED_EDGE('',*,*,#819,.T.);
#1120=ORIENTED_EDGE('',*,*,#817,.T.);
#1121=ORIENTED_EDGE('',*,*,#820,.T.);
#1122=ORIENTED_EDGE('',*,*,#827,.T.);
#1123=ORIENTED_EDGE('',*,*,#828,.T.);
#1124=ORIENTED_EDGE('',*,*,#829,.T.);
#1125=ORIENTED_EDGE('',*,*,#823,.T.);
#1126=ORIENTED_EDGE('',*,*,#830,.T.);
#1127=ORIENTED_EDGE('',*,*,#831,.T.);
#1128=ORIENTED_EDGE('',*,*,#825,.T.);
#1129=ORIENTED_EDGE('',*,*,#821,.T.);
#1130=ORIENTED_EDGE('',*,*,#829,.F.);
#1131=ORIENTED_EDGE('',*,*,#832,.T.);
#1132=ORIENTED_EDGE('',*,*,#830,.F.);
#1133=ORIENTED_EDGE('',*,*,#822,.F.);
#1134=ORIENTED_EDGE('',*,*,#815,.T.);
#1135=ORIENTED_EDGE('',*,*,#826,.T.);
#1136=ORIENTED_EDGE('',*,*,#831,.F.);
#1137=ORIENTED_EDGE('',*,*,#832,.F.);
#1138=ORIENTED_EDGE('',*,*,#828,.F.);
#1139=ORIENTED_EDGE('',*,*,#833,.F.);
#1140=ORIENTED_EDGE('',*,*,#834,.T.);
#1141=ORIENTED_EDGE('',*,*,#835,.F.);
#1142=ORIENTED_EDGE('',*,*,#834,.F.);
#1143=ORIENTED_EDGE('',*,*,#836,.F.);
#1144=ORIENTED_EDGE('',*,*,#837,.F.);
#1145=ORIENTED_EDGE('',*,*,#838,.F.);
#1146=ORIENTED_EDGE('',*,*,#839,.F.);
#1147=ORIENTED_EDGE('',*,*,#836,.T.);
#1148=ORIENTED_EDGE('',*,*,#840,.T.);
#1149=ORIENTED_EDGE('',*,*,#841,.F.);
#1150=ORIENTED_EDGE('',*,*,#842,.F.);
#1151=ORIENTED_EDGE('',*,*,#842,.T.);
#1152=ORIENTED_EDGE('',*,*,#843,.F.);
#1153=ORIENTED_EDGE('',*,*,#844,.F.);
#1154=ORIENTED_EDGE('',*,*,#845,.F.);
#1155=ORIENTED_EDGE('',*,*,#837,.T.);
#1156=ORIENTED_EDGE('',*,*,#835,.T.);
#1157=ORIENTED_EDGE('',*,*,#838,.T.);
#1158=ORIENTED_EDGE('',*,*,#845,.T.);
#1159=ORIENTED_EDGE('',*,*,#846,.T.);
#1160=ORIENTED_EDGE('',*,*,#847,.T.);
#1161=ORIENTED_EDGE('',*,*,#841,.T.);
#1162=ORIENTED_EDGE('',*,*,#848,.T.);
#1163=ORIENTED_EDGE('',*,*,#849,.T.);
#1164=ORIENTED_EDGE('',*,*,#843,.T.);
#1165=ORIENTED_EDGE('',*,*,#839,.T.);
#1166=ORIENTED_EDGE('',*,*,#847,.F.);
#1167=ORIENTED_EDGE('',*,*,#850,.T.);
#1168=ORIENTED_EDGE('',*,*,#848,.F.);
#1169=ORIENTED_EDGE('',*,*,#840,.F.);
#1170=ORIENTED_EDGE('',*,*,#833,.T.);
#1171=ORIENTED_EDGE('',*,*,#844,.T.);
#1172=ORIENTED_EDGE('',*,*,#849,.F.);
#1173=ORIENTED_EDGE('',*,*,#850,.F.);
#1174=ORIENTED_EDGE('',*,*,#846,.F.);
#1175=CYLINDRICAL_SURFACE('',#1310,4.2);
#1176=CYLINDRICAL_SURFACE('',#1313,4.2);
#1177=CYLINDRICAL_SURFACE('',#1328,3.1);
#1178=CYLINDRICAL_SURFACE('',#1329,8.);
#1179=CYLINDRICAL_SURFACE('',#1340,3.1);
#1180=CYLINDRICAL_SURFACE('',#1341,8.);
#1181=CYLINDRICAL_SURFACE('',#1347,4.2);
#1182=CYLINDRICAL_SURFACE('',#1350,4.2);
#1183=CYLINDRICAL_SURFACE('',#1359,3.1);
#1184=CYLINDRICAL_SURFACE('',#1362,8.);
#1185=CYLINDRICAL_SURFACE('',#1371,3.1);
#1186=CYLINDRICAL_SURFACE('',#1374,8.);
#1187=CYLINDRICAL_SURFACE('',#1384,4.2);
#1188=CYLINDRICAL_SURFACE('',#1387,4.2);
#1189=CYLINDRICAL_SURFACE('',#1396,3.1);
#1190=CYLINDRICAL_SURFACE('',#1399,8.);
#1191=CYLINDRICAL_SURFACE('',#1408,3.1);
#1192=CYLINDRICAL_SURFACE('',#1411,8.);
#1193=ADVANCED_FACE('',(#125),#1175,.F.);
#1194=ADVANCED_FACE('',(#126),#1176,.F.);
#1195=ADVANCED_FACE('',(#127,#47,#48),#71,.T.);
#1196=ADVANCED_FACE('',(#128,#49,#50),#72,.F.);
#1197=ADVANCED_FACE('',(#129),#73,.F.);
#1198=ADVANCED_FACE('',(#130),#74,.F.);
#1199=ADVANCED_FACE('',(#131),#75,.F.);
#1200=ADVANCED_FACE('',(#132),#76,.F.);
#1201=ADVANCED_FACE('',(#133,#51),#77,.F.);
#1202=ADVANCED_FACE('',(#134,#52),#78,.F.);
#1203=ADVANCED_FACE('',(#135),#1177,.F.);
#1204=ADVANCED_FACE('',(#136),#1178,.T.);
#1205=ADVANCED_FACE('',(#137),#79,.F.);
#1206=ADVANCED_FACE('',(#138),#80,.T.);
#1207=ADVANCED_FACE('',(#139),#81,.F.);
#1208=ADVANCED_FACE('',(#140),#82,.F.);
#1209=ADVANCED_FACE('',(#141,#53),#83,.F.);
#1210=ADVANCED_FACE('',(#142,#54),#84,.F.);
#1211=ADVANCED_FACE('',(#143),#1179,.F.);
#1212=ADVANCED_FACE('',(#144),#1180,.T.);
#1213=ADVANCED_FACE('',(#145),#85,.F.);
#1214=ADVANCED_FACE('',(#146),#86,.T.);
#1215=ADVANCED_FACE('',(#147),#87,.F.);
#1216=ADVANCED_FACE('',(#148),#88,.F.);
#1217=ADVANCED_FACE('',(#149),#1181,.F.);
#1218=ADVANCED_FACE('',(#150),#1182,.F.);
#1219=ADVANCED_FACE('',(#151,#55,#56),#89,.T.);
#1220=ADVANCED_FACE('',(#152,#57,#58),#90,.F.);
#1221=ADVANCED_FACE('',(#153),#91,.F.);
#1222=ADVANCED_FACE('',(#154),#92,.F.);
#1223=ADVANCED_FACE('',(#155),#93,.F.);
#1224=ADVANCED_FACE('',(#156),#94,.F.);
#1225=ADVANCED_FACE('',(#157),#1183,.F.);
#1226=ADVANCED_FACE('',(#158),#1184,.T.);
#1227=ADVANCED_FACE('',(#159),#95,.F.);
#1228=ADVANCED_FACE('',(#160,#59),#96,.F.);
#1229=ADVANCED_FACE('',(#161),#97,.T.);
#1230=ADVANCED_FACE('',(#162),#98,.F.);
#1231=ADVANCED_FACE('',(#163,#60),#99,.F.);
#1232=ADVANCED_FACE('',(#164),#100,.F.);
#1233=ADVANCED_FACE('',(#165),#1185,.F.);
#1234=ADVANCED_FACE('',(#166),#1186,.T.);
#1235=ADVANCED_FACE('',(#167),#101,.F.);
#1236=ADVANCED_FACE('',(#168,#61),#102,.F.);
#1237=ADVANCED_FACE('',(#169),#103,.T.);
#1238=ADVANCED_FACE('',(#170),#104,.F.);
#1239=ADVANCED_FACE('',(#171,#62),#105,.F.);
#1240=ADVANCED_FACE('',(#172),#106,.F.);
#1241=ADVANCED_FACE('',(#173),#1187,.F.);
#1242=ADVANCED_FACE('',(#174),#1188,.F.);
#1243=ADVANCED_FACE('',(#175,#63,#64),#107,.T.);
#1244=ADVANCED_FACE('',(#176,#65,#66),#108,.F.);
#1245=ADVANCED_FACE('',(#177),#109,.F.);
#1246=ADVANCED_FACE('',(#178),#110,.F.);
#1247=ADVANCED_FACE('',(#179),#111,.F.);
#1248=ADVANCED_FACE('',(#180),#112,.F.);
#1249=ADVANCED_FACE('',(#181),#1189,.F.);
#1250=ADVANCED_FACE('',(#182),#1190,.T.);
#1251=ADVANCED_FACE('',(#183),#113,.F.);
#1252=ADVANCED_FACE('',(#184,#67),#114,.F.);
#1253=ADVANCED_FACE('',(#185),#115,.T.);
#1254=ADVANCED_FACE('',(#186),#116,.F.);
#1255=ADVANCED_FACE('',(#187,#68),#117,.F.);
#1256=ADVANCED_FACE('',(#188),#118,.F.);
#1257=ADVANCED_FACE('',(#189),#1191,.F.);
#1258=ADVANCED_FACE('',(#190),#1192,.T.);
#1259=ADVANCED_FACE('',(#191),#119,.F.);
#1260=ADVANCED_FACE('',(#192,#69),#120,.F.);
#1261=ADVANCED_FACE('',(#193),#121,.T.);
#1262=ADVANCED_FACE('',(#194),#122,.F.);
#1263=ADVANCED_FACE('',(#195,#70),#123,.F.);
#1264=ADVANCED_FACE('',(#196),#124,.F.);
#1265=CLOSED_SHELL('',(#1193,#1194,#1195,#1196,#1197,#1198,#1199,#1200));
#1266=CLOSED_SHELL('',(#1201,#1202,#1203,#1204,#1205,#1206,#1207,#1208));
#1267=CLOSED_SHELL('',(#1209,#1210,#1211,#1212,#1213,#1214,#1215,#1216));
#1268=CLOSED_SHELL('',(#1217,#1218,#1219,#1220,#1221,#1222,#1223,#1224));
#1269=CLOSED_SHELL('',(#1225,#1226,#1227,#1228,#1229,#1230,#1231,#1232));
#1270=CLOSED_SHELL('',(#1233,#1234,#1235,#1236,#1237,#1238,#1239,#1240));
#1271=CLOSED_SHELL('',(#1241,#1242,#1243,#1244,#1245,#1246,#1247,#1248));
#1272=CLOSED_SHELL('',(#1249,#1250,#1251,#1252,#1253,#1254,#1255,#1256));
#1273=CLOSED_SHELL('',(#1257,#1258,#1259,#1260,#1261,#1262,#1263,#1264));
#1274=DERIVED_UNIT_ELEMENT(#1280,1.);
#1275=DERIVED_UNIT_ELEMENT(#2139,-3.);
#1276=DERIVED_UNIT_ELEMENT(#1280,1.);
#1277=DERIVED_UNIT_ELEMENT(#2139,-3.);
#1278=DERIVED_UNIT_ELEMENT(#1280,1.);
#1279=DERIVED_UNIT_ELEMENT(#2139,-3.);
#1280=(
MASS_UNIT()
NAMED_UNIT(*)
SI_UNIT(.KILO.,.GRAM.)
);
#1281=DERIVED_UNIT((#1274,#1275));
#1282=DERIVED_UNIT((#1276,#1277));
#1283=DERIVED_UNIT((#1278,#1279));
#1284=MEASURE_REPRESENTATION_ITEM('density measure',
POSITIVE_RATIO_MEASURE(7850.),#1281);
#1285=MEASURE_REPRESENTATION_ITEM('density measure',
POSITIVE_RATIO_MEASURE(7850.),#1282);
#1286=MEASURE_REPRESENTATION_ITEM('density measure',
POSITIVE_RATIO_MEASURE(7850.),#1283);
#1287=PROPERTY_DEFINITION_REPRESENTATION(#1302,#1293);
#1288=PROPERTY_DEFINITION_REPRESENTATION(#1303,#1294);
#1289=PROPERTY_DEFINITION_REPRESENTATION(#1304,#1295);
#1290=PROPERTY_DEFINITION_REPRESENTATION(#1305,#1296);
#1291=PROPERTY_DEFINITION_REPRESENTATION(#1306,#1297);
#1292=PROPERTY_DEFINITION_REPRESENTATION(#1307,#1298);
#1293=REPRESENTATION('material name',(#1299),#2134);
#1294=REPRESENTATION('density',(#1284),#2134);
#1295=REPRESENTATION('material name',(#1300),#2135);
#1296=REPRESENTATION('density',(#1285),#2135);
#1297=REPRESENTATION('material name',(#1301),#2136);
#1298=REPRESENTATION('density',(#1286),#2136);
#1299=DESCRIPTIVE_REPRESENTATION_ITEM('\X2\AC15CCA0\X0\','\X2\AC15CCA0\X0\');
#1300=DESCRIPTIVE_REPRESENTATION_ITEM('\X2\AC15CCA0\X0\','\X2\AC15CCA0\X0\');
#1301=DESCRIPTIVE_REPRESENTATION_ITEM('\X2\AC15CCA0\X0\','\X2\AC15CCA0\X0\');
#1302=PROPERTY_DEFINITION('material property','material name',#2159);
#1303=PROPERTY_DEFINITION('material property','density of part',#2159);
#1304=PROPERTY_DEFINITION('material property','material name',#2160);
#1305=PROPERTY_DEFINITION('material property','density of part',#2160);
#1306=PROPERTY_DEFINITION('material property','material name',#2161);
#1307=PROPERTY_DEFINITION('material property','density of part',#2161);
#1308=AXIS2_PLACEMENT_3D('',#1779,#1423,#1424);
#1309=AXIS2_PLACEMENT_3D('',#1780,#1425,#1426);
#1310=AXIS2_PLACEMENT_3D('',#1781,#1427,#1428);
#1311=AXIS2_PLACEMENT_3D('',#1783,#1429,#1430);
#1312=AXIS2_PLACEMENT_3D('',#1786,#1432,#1433);
#1313=AXIS2_PLACEMENT_3D('',#1787,#1434,#1435);
#1314=AXIS2_PLACEMENT_3D('',#1789,#1436,#1437);
#1315=AXIS2_PLACEMENT_3D('',#1792,#1439,#1440);
#1316=AXIS2_PLACEMENT_3D('',#1793,#1441,#1442);
#1317=AXIS2_PLACEMENT_3D('',#1802,#1447,#1448);
#1318=AXIS2_PLACEMENT_3D('',#1811,#1453,#1454);
#1319=AXIS2_PLACEMENT_3D('',#1814,#1457,#1458);
#1320=AXIS2_PLACEMENT_3D('',#1816,#1460,#1461);
#1321=AXIS2_PLACEMENT_3D('',#1818,#1463,#1464);
#1322=AXIS2_PLACEMENT_3D('',#1819,#1465,#1466);
#1323=AXIS2_PLACEMENT_3D('',#1822,#1467,#1468);
#1324=AXIS2_PLACEMENT_3D('',#1831,#1473,#1474);
#1325=AXIS2_PLACEMENT_3D('',#1832,#1475,#1476);
#1326=AXIS2_PLACEMENT_3D('',#1842,#1481,#1482);
#1327=AXIS2_PLACEMENT_3D('',#1844,#1483,#1484);
#1328=AXIS2_PLACEMENT_3D('',#1845,#1485,#1486);
#1329=AXIS2_PLACEMENT_3D('',#1847,#1488,#1489);
#1330=AXIS2_PLACEMENT_3D('',#1850,#1492,#1493);
#1331=AXIS2_PLACEMENT_3D('',#1852,#1495,#1496);
#1332=AXIS2_PLACEMENT_3D('',#1854,#1498,#1499);
#1333=AXIS2_PLACEMENT_3D('',#1856,#1501,#1502);
#1334=AXIS2_PLACEMENT_3D('',#1857,#1503,#1504);
#1335=AXIS2_PLACEMENT_3D('',#1860,#1505,#1506);
#1336=AXIS2_PLACEMENT_3D('',#1869,#1511,#1512);
#1337=AXIS2_PLACEMENT_3D('',#1870,#1513,#1514);
#1338=AXIS2_PLACEMENT_3D('',#1880,#1519,#1520);
#1339=AXIS2_PLACEMENT_3D('',#1882,#1521,#1522);
#1340=AXIS2_PLACEMENT_3D('',#1883,#1523,#1524);
#1341=AXIS2_PLACEMENT_3D('',#1885,#1526,#1527);
#1342=AXIS2_PLACEMENT_3D('',#1888,#1530,#1531);
#1343=AXIS2_PLACEMENT_3D('',#1890,#1533,#1534);
#1344=AXIS2_PLACEMENT_3D('',#1892,#1536,#1537);
#1345=AXIS2_PLACEMENT_3D('',#1894,#1539,#1540);
#1346=AXIS2_PLACEMENT_3D('',#1895,#1541,#1542);
#1347=AXIS2_PLACEMENT_3D('',#1896,#1543,#1544);
#1348=AXIS2_PLACEMENT_3D('',#1898,#1545,#1546);
#1349=AXIS2_PLACEMENT_3D('',#1901,#1548,#1549);
#1350=AXIS2_PLACEMENT_3D('',#1902,#1550,#1551);
#1351=AXIS2_PLACEMENT_3D('',#1904,#1552,#1553);
#1352=AXIS2_PLACEMENT_3D('',#1907,#1555,#1556);
#1353=AXIS2_PLACEMENT_3D('',#1908,#1557,#1558);
#1354=AXIS2_PLACEMENT_3D('',#1917,#1563,#1564);
#1355=AXIS2_PLACEMENT_3D('',#1926,#1569,#1570);
#1356=AXIS2_PLACEMENT_3D('',#1929,#1573,#1574);
#1357=AXIS2_PLACEMENT_3D('',#1931,#1576,#1577);
#1358=AXIS2_PLACEMENT_3D('',#1933,#1579,#1580);
#1359=AXIS2_PLACEMENT_3D('',#1934,#1581,#1582);
#1360=AXIS2_PLACEMENT_3D('',#1936,#1583,#1584);
#1361=AXIS2_PLACEMENT_3D('',#1939,#1586,#1587);
#1362=AXIS2_PLACEMENT_3D('',#1940,#1588,#1589);
#1363=AXIS2_PLACEMENT_3D('',#1945,#1591,#1592);
#1364=AXIS2_PLACEMENT_3D('',#1948,#1594,#1595);
#1365=AXIS2_PLACEMENT_3D('',#1949,#1596,#1597);
#1366=AXIS2_PLACEMENT_3D('',#1955,#1601,#1602);
#1367=AXIS2_PLACEMENT_3D('',#1961,#1606,#1607);
#1368=AXIS2_PLACEMENT_3D('',#1965,#1610,#1611);
#1369=AXIS2_PLACEMENT_3D('',#1969,#1614,#1615);
#1370=AXIS2_PLACEMENT_3D('',#1971,#1617,#1618);
#1371=AXIS2_PLACEMENT_3D('',#1972,#1619,#1620);
#1372=AXIS2_PLACEMENT_3D('',#1974,#1621,#1622);
#1373=AXIS2_PLACEMENT_3D('',#1977,#1624,#1625);
#1374=AXIS2_PLACEMENT_3D('',#1978,#1626,#1627);
#1375=AXIS2_PLACEMENT_3D('',#1983,#1629,#1630);
#1376=AXIS2_PLACEMENT_3D('',#1986,#1632,#1633);
#1377=AXIS2_PLACEMENT_3D('',#1987,#1634,#1635);
#1378=AXIS2_PLACEMENT_3D('',#1993,#1639,#1640);
#1379=AXIS2_PLACEMENT_3D('',#1999,#1644,#1645);
#1380=AXIS2_PLACEMENT_3D('',#2003,#1648,#1649);
#1381=AXIS2_PLACEMENT_3D('',#2007,#1652,#1653);
#1382=AXIS2_PLACEMENT_3D('',#2009,#1655,#1656);
#1383=AXIS2_PLACEMENT_3D('',#2010,#1657,#1658);
#1384=AXIS2_PLACEMENT_3D('',#2011,#1659,#1660);
#1385=AXIS2_PLACEMENT_3D('',#2013,#1661,#1662);
#1386=AXIS2_PLACEMENT_3D('',#2016,#1664,#1665);
#1387=AXIS2_PLACEMENT_3D('',#2017,#1666,#1667);
#1388=AXIS2_PLACEMENT_3D('',#2019,#1668,#1669);
#1389=AXIS2_PLACEMENT_3D('',#2022,#1671,#1672);
#1390=AXIS2_PLACEMENT_3D('',#2023,#1673,#1674);
#1391=AXIS2_PLACEMENT_3D('',#2032,#1679,#1680);
#1392=AXIS2_PLACEMENT_3D('',#2041,#1685,#1686);
#1393=AXIS2_PLACEMENT_3D('',#2044,#1689,#1690);
#1394=AXIS2_PLACEMENT_3D('',#2046,#1692,#1693);
#1395=AXIS2_PLACEMENT_3D('',#2048,#1695,#1696);
#1396=AXIS2_PLACEMENT_3D('',#2049,#1697,#1698);
#1397=AXIS2_PLACEMENT_3D('',#2051,#1699,#1700);
#1398=AXIS2_PLACEMENT_3D('',#2054,#1702,#1703);
#1399=AXIS2_PLACEMENT_3D('',#2055,#1704,#1705);
#1400=AXIS2_PLACEMENT_3D('',#2060,#1707,#1708);
#1401=AXIS2_PLACEMENT_3D('',#2063,#1710,#1711);
#1402=AXIS2_PLACEMENT_3D('',#2064,#1712,#1713);
#1403=AXIS2_PLACEMENT_3D('',#2070,#1717,#1718);
#1404=AXIS2_PLACEMENT_3D('',#2076,#1722,#1723);
#1405=AXIS2_PLACEMENT_3D('',#2080,#1726,#1727);
#1406=AXIS2_PLACEMENT_3D('',#2084,#1730,#1731);
#1407=AXIS2_PLACEMENT_3D('',#2086,#1733,#1734);
#1408=AXIS2_PLACEMENT_3D('',#2087,#1735,#1736);
#1409=AXIS2_PLACEMENT_3D('',#2089,#1737,#1738);
#1410=AXIS2_PLACEMENT_3D('',#2092,#1740,#1741);
#1411=AXIS2_PLACEMENT_3D('',#2093,#1742,#1743);
#1412=AXIS2_PLACEMENT_3D('',#2098,#1745,#1746);
#1413=AXIS2_PLACEMENT_3D('',#2101,#1748,#1749);
#1414=AXIS2_PLACEMENT_3D('',#2102,#1750,#1751);
#1415=AXIS2_PLACEMENT_3D('',#2108,#1755,#1756);
#1416=AXIS2_PLACEMENT_3D('',#2114,#1760,#1761);
#1417=AXIS2_PLACEMENT_3D('',#2118,#1764,#1765);
#1418=AXIS2_PLACEMENT_3D('',#2122,#1768,#1769);
#1419=AXIS2_PLACEMENT_3D('',#2124,#1771,#1772);
#1420=AXIS2_PLACEMENT_3D('',#2125,#1773,#1774);
#1421=AXIS2_PLACEMENT_3D('',#2126,#1775,#1776);
#1422=AXIS2_PLACEMENT_3D('',#2127,#1777,#1778);
#1423=DIRECTION('axis',(0.,0.,1.));
#1424=DIRECTION('refdir',(1.,0.,0.));
#1425=DIRECTION('axis',(0.,0.,1.));
#1426=DIRECTION('refdir',(1.,0.,0.));
#1427=DIRECTION('center_axis',(0.,0.,1.));
#1428=DIRECTION('ref_axis',(1.,0.,0.));
#1429=DIRECTION('center_axis',(0.,0.,1.));
#1430=DIRECTION('ref_axis',(1.,0.,0.));
#1431=DIRECTION('',(0.,0.,1.));
#1432=DIRECTION('center_axis',(0.,0.,-1.));
#1433=DIRECTION('ref_axis',(1.,0.,0.));
#1434=DIRECTION('center_axis',(0.,0.,1.));
#1435=DIRECTION('ref_axis',(1.,0.,0.));
#1436=DIRECTION('center_axis',(0.,0.,1.));
#1437=DIRECTION('ref_axis',(1.,0.,0.));
#1438=DIRECTION('',(0.,0.,1.));
#1439=DIRECTION('center_axis',(0.,0.,-1.));
#1440=DIRECTION('ref_axis',(1.,0.,0.));
#1441=DIRECTION('center_axis',(0.,0.,1.));
#1442=DIRECTION('ref_axis',(6.12323399573677E-17,1.,0.));
#1443=DIRECTION('',(-1.,6.12323399573677E-17,0.));
#1444=DIRECTION('',(-6.12323399573677E-17,-1.,0.));
#1445=DIRECTION('',(1.,-6.12323399573677E-17,0.));
#1446=DIRECTION('',(6.12323399573677E-17,1.,0.));
#1447=DIRECTION('center_axis',(0.,0.,1.));
#1448=DIRECTION('ref_axis',(6.12323399573677E-17,1.,0.));
#1449=DIRECTION('',(1.,-6.12323399573677E-17,0.));
#1450=DIRECTION('',(-6.12323399573677E-17,-1.,0.));
#1451=DIRECTION('',(-1.,6.12323399573677E-17,0.));
#1452=DIRECTION('',(6.12323399573677E-17,1.,0.));
#1453=DIRECTION('center_axis',(-1.,6.12323399573677E-17,0.));
#1454=DIRECTION('ref_axis',(0.,0.,1.));
#1455=DIRECTION('',(0.,0.,-1.));
#1456=DIRECTION('',(0.,0.,-1.));
#1457=DIRECTION('center_axis',(6.12323399573677E-17,1.,0.));
#1458=DIRECTION('ref_axis',(0.,0.,-1.));
#1459=DIRECTION('',(0.,0.,-1.));
#1460=DIRECTION('center_axis',(1.,-6.12323399573677E-17,0.));
#1461=DIRECTION('ref_axis',(0.,0.,-1.));
#1462=DIRECTION('',(0.,0.,-1.));
#1463=DIRECTION('center_axis',(-6.12323399573677E-17,-1.,0.));
#1464=DIRECTION('ref_axis',(0.,0.,1.));
#1465=DIRECTION('center_axis',(-1.,6.12323399573677E-17,0.));
#1466=DIRECTION('ref_axis',(0.,0.,1.));
#1467=DIRECTION('center_axis',(1.,0.,0.));
#1468=DIRECTION('ref_axis',(0.,0.,1.));
#1469=DIRECTION('',(6.12323399573677E-17,1.,0.));
#1470=DIRECTION('',(0.,0.,-1.));
#1471=DIRECTION('',(-6.12323399573677E-17,-1.,0.));
#1472=DIRECTION('',(0.,0.,-1.));
#1473=DIRECTION('center_axis',(-1.,6.12323399573677E-17,0.));
#1474=DIRECTION('ref_axis',(0.,0.,1.));
#1475=DIRECTION('center_axis',(1.,-6.12323399573677E-17,0.));
#1476=DIRECTION('ref_axis',(0.,0.,-1.));
#1477=DIRECTION('',(0.,0.,-1.));
#1478=DIRECTION('',(6.12323399573677E-17,1.,0.));
#1479=DIRECTION('',(0.,0.,-1.));
#1480=DIRECTION('',(-6.12323399573677E-17,-1.,0.));
#1481=DIRECTION('center_axis',(-1.,0.,0.));
#1482=DIRECTION('ref_axis',(0.,0.,1.));
#1483=DIRECTION('center_axis',(1.,-6.12323399573677E-17,0.));
#1484=DIRECTION('ref_axis',(0.,0.,1.));
#1485=DIRECTION('center_axis',(-1.,0.,0.));
#1486=DIRECTION('ref_axis',(0.,0.,1.));
#1487=DIRECTION('',(-1.,0.,0.));
#1488=DIRECTION('center_axis',(-1.,0.,0.));
#1489=DIRECTION('ref_axis',(0.,0.,1.));
#1490=DIRECTION('',(1.,0.,0.));
#1491=DIRECTION('',(-1.,0.,0.));
#1492=DIRECTION('center_axis',(-6.12323399573677E-17,-1.,0.));
#1493=DIRECTION('ref_axis',(0.,0.,1.));
#1494=DIRECTION('',(1.,-6.12323399573677E-17,0.));
#1495=DIRECTION('center_axis',(0.,0.,1.));
#1496=DIRECTION('ref_axis',(6.12323399573677E-17,1.,0.));
#1497=DIRECTION('',(1.,-6.12323399573677E-17,0.));
#1498=DIRECTION('center_axis',(0.,0.,1.));
#1499=DIRECTION('ref_axis',(6.12323399573677E-17,1.,0.));
#1500=DIRECTION('',(-1.,6.12323399573677E-17,0.));
#1501=DIRECTION('center_axis',(6.12323399573677E-17,1.,0.));
#1502=DIRECTION('ref_axis',(0.,0.,-1.));
#1503=DIRECTION('center_axis',(-1.,6.12323399573677E-17,0.));
#1504=DIRECTION('ref_axis',(0.,0.,1.));
#1505=DIRECTION('center_axis',(1.,0.,0.));
#1506=DIRECTION('ref_axis',(0.,0.,1.));
#1507=DIRECTION('',(6.12323399573677E-17,1.,0.));
#1508=DIRECTION('',(0.,0.,-1.));
#1509=DIRECTION('',(-6.12323399573677E-17,-1.,0.));
#1510=DIRECTION('',(0.,0.,-1.));
#1511=DIRECTION('center_axis',(-1.,6.12323399573677E-17,0.));
#1512=DIRECTION('ref_axis',(0.,0.,1.));
#1513=DIRECTION('center_axis',(1.,-6.12323399573677E-17,0.));
#1514=DIRECTION('ref_axis',(0.,0.,-1.));
#1515=DIRECTION('',(0.,0.,-1.));
#1516=DIRECTION('',(6.12323399573677E-17,1.,0.));
#1517=DIRECTION('',(0.,0.,-1.));
#1518=DIRECTION('',(-6.12323399573677E-17,-1.,0.));
#1519=DIRECTION('center_axis',(-1.,0.,0.));
#1520=DIRECTION('ref_axis',(0.,0.,1.));
#1521=DIRECTION('center_axis',(1.,-6.12323399573677E-17,0.));
#1522=DIRECTION('ref_axis',(0.,0.,1.));
#1523=DIRECTION('center_axis',(-1.,0.,0.));
#1524=DIRECTION('ref_axis',(0.,0.,1.));
#1525=DIRECTION('',(-1.,0.,0.));
#1526=DIRECTION('center_axis',(-1.,0.,0.));
#1527=DIRECTION('ref_axis',(0.,0.,1.));
#1528=DIRECTION('',(1.,0.,0.));
#1529=DIRECTION('',(-1.,0.,0.));
#1530=DIRECTION('center_axis',(-6.12323399573677E-17,-1.,0.));
#1531=DIRECTION('ref_axis',(0.,0.,1.));
#1532=DIRECTION('',(1.,-6.12323399573677E-17,0.));
#1533=DIRECTION('center_axis',(0.,0.,1.));
#1534=DIRECTION('ref_axis',(6.12323399573677E-17,1.,0.));
#1535=DIRECTION('',(1.,-6.12323399573677E-17,0.));
#1536=DIRECTION('center_axis',(0.,0.,1.));
#1537=DIRECTION('ref_axis',(6.12323399573677E-17,1.,0.));
#1538=DIRECTION('',(-1.,6.12323399573677E-17,0.));
#1539=DIRECTION('center_axis',(6.12323399573677E-17,1.,0.));
#1540=DIRECTION('ref_axis',(0.,0.,-1.));
#1541=DIRECTION('axis',(0.,0.,1.));
#1542=DIRECTION('refdir',(1.,0.,0.));
#1543=DIRECTION('center_axis',(0.,0.,1.));
#1544=DIRECTION('ref_axis',(1.,0.,0.));
#1545=DIRECTION('center_axis',(0.,0.,1.));
#1546=DIRECTION('ref_axis',(1.,0.,0.));
#1547=DIRECTION('',(0.,0.,1.));
#1548=DIRECTION('center_axis',(0.,0.,-1.));
#1549=DIRECTION('ref_axis',(1.,0.,0.));
#1550=DIRECTION('center_axis',(0.,0.,1.));
#1551=DIRECTION('ref_axis',(1.,0.,0.));
#1552=DIRECTION('center_axis',(0.,0.,1.));
#1553=DIRECTION('ref_axis',(1.,0.,0.));
#1554=DIRECTION('',(0.,0.,1.));
#1555=DIRECTION('center_axis',(0.,0.,-1.));
#1556=DIRECTION('ref_axis',(1.,0.,0.));
#1557=DIRECTION('center_axis',(0.,0.,1.));
#1558=DIRECTION('ref_axis',(-0.866025403784439,-0.5,0.));
#1559=DIRECTION('',(0.5,-0.866025403784439,0.));
#1560=DIRECTION('',(0.866025403784439,0.5,0.));
#1561=DIRECTION('',(-0.5,0.866025403784439,0.));
#1562=DIRECTION('',(-0.866025403784439,-0.5,0.));
#1563=DIRECTION('center_axis',(0.,0.,1.));
#1564=DIRECTION('ref_axis',(-0.866025403784439,-0.5,0.));
#1565=DIRECTION('',(-0.5,0.866025403784439,0.));
#1566=DIRECTION('',(0.866025403784439,0.5,0.));
#1567=DIRECTION('',(0.5,-0.866025403784439,0.));
#1568=DIRECTION('',(-0.866025403784439,-0.5,0.));
#1569=DIRECTION('center_axis',(0.5,-0.866025403784439,0.));
#1570=DIRECTION('ref_axis',(0.,0.,1.));
#1571=DIRECTION('',(0.,0.,-1.));
#1572=DIRECTION('',(0.,0.,-1.));
#1573=DIRECTION('center_axis',(-0.866025403784439,-0.5,0.));
#1574=DIRECTION('ref_axis',(0.,0.,-1.));
#1575=DIRECTION('',(0.,0.,-1.));
#1576=DIRECTION('center_axis',(-0.5,0.866025403784439,0.));
#1577=DIRECTION('ref_axis',(0.,0.,-1.));
#1578=DIRECTION('',(0.,0.,-1.));
#1579=DIRECTION('center_axis',(0.866025403784439,0.5,0.));
#1580=DIRECTION('ref_axis',(0.,0.,1.));
#1581=DIRECTION('center_axis',(0.5,-0.866025403784439,0.));
#1582=DIRECTION('ref_axis',(0.866025403784438,0.5,0.));
#1583=DIRECTION('center_axis',(0.5,-0.866025403784439,0.));
#1584=DIRECTION('ref_axis',(0.866025403784439,0.499999999999998,0.));
#1585=DIRECTION('',(0.5,-0.866025403784438,0.));
#1586=DIRECTION('center_axis',(-0.5,0.866025403784439,0.));
#1587=DIRECTION('ref_axis',(0.866025403784439,0.499999999999998,0.));
#1588=DIRECTION('center_axis',(0.500000000000001,-0.866025403784438,0.));
#1589=DIRECTION('ref_axis',(-0.612372435695794,-0.353553390593274,0.707106781186548));
#1590=DIRECTION('',(-0.500000000000001,0.866025403784438,0.));
#1591=DIRECTION('center_axis',(0.500000000000001,-0.866025403784438,0.));
#1592=DIRECTION('ref_axis',(0.866025403784438,0.500000000000001,0.));
#1593=DIRECTION('',(0.500000000000001,-0.866025403784438,0.));
#1594=DIRECTION('center_axis',(-0.500000000000001,0.866025403784438,0.));
#1595=DIRECTION('ref_axis',(0.866025403784438,0.500000000000001,0.));
#1596=DIRECTION('center_axis',(0.866025403784439,0.5,0.));
#1597=DIRECTION('ref_axis',(0.,0.,1.));
#1598=DIRECTION('',(0.,0.,-1.));
#1599=DIRECTION('',(-0.5,0.866025403784439,0.));
#1600=DIRECTION('',(0.,0.,-1.));
#1601=DIRECTION('center_axis',(-0.5,0.866025403784439,0.));
#1602=DIRECTION('ref_axis',(0.,0.,-1.));
#1603=DIRECTION('',(-0.866025403784439,-0.5,0.));
#1604=DIRECTION('',(0.,0.,-1.));
#1605=DIRECTION('',(0.866025403784439,0.5,0.));
#1606=DIRECTION('center_axis',(0.,0.,1.));
#1607=DIRECTION('ref_axis',(-0.866025403784439,-0.5,0.));
#1608=DIRECTION('',(-0.5,0.866025403784439,0.));
#1609=DIRECTION('',(-0.866025403784439,-0.5,0.));
#1610=DIRECTION('center_axis',(0.,0.,1.));
#1611=DIRECTION('ref_axis',(-0.866025403784439,-0.5,0.));
#1612=DIRECTION('',(0.866025403784439,0.5,0.));
#1613=DIRECTION('',(0.5,-0.866025403784439,0.));
#1614=DIRECTION('center_axis',(0.5,-0.866025403784439,0.));
#1615=DIRECTION('ref_axis',(0.,0.,1.));
#1616=DIRECTION('',(0.,0.,-1.));
#1617=DIRECTION('center_axis',(-0.866025403784439,-0.5,0.));
#1618=DIRECTION('ref_axis',(0.,0.,-1.));
#1619=DIRECTION('center_axis',(0.5,-0.866025403784439,0.));
#1620=DIRECTION('ref_axis',(0.866025403784439,0.5,0.));
#1621=DIRECTION('center_axis',(0.5,-0.866025403784439,0.));
#1622=DIRECTION('ref_axis',(0.866025403784439,0.499999999999999,0.));
#1623=DIRECTION('',(0.5,-0.866025403784439,0.));
#1624=DIRECTION('center_axis',(-0.5,0.866025403784439,0.));
#1625=DIRECTION('ref_axis',(0.866025403784439,0.499999999999999,0.));
#1626=DIRECTION('center_axis',(0.500000000000002,-0.866025403784438,0.));
#1627=DIRECTION('ref_axis',(-0.612372435695794,-0.353553390593275,0.707106781186547));
#1628=DIRECTION('',(-0.500000000000002,0.866025403784438,0.));
#1629=DIRECTION('center_axis',(0.500000000000002,-0.866025403784438,0.));
#1630=DIRECTION('ref_axis',(0.866025403784438,0.500000000000002,0.));
#1631=DIRECTION('',(0.500000000000002,-0.866025403784438,0.));
#1632=DIRECTION('center_axis',(-0.500000000000002,0.866025403784438,0.));
#1633=DIRECTION('ref_axis',(0.866025403784438,0.500000000000002,0.));
#1634=DIRECTION('center_axis',(0.866025403784439,0.5,0.));
#1635=DIRECTION('ref_axis',(0.,0.,1.));
#1636=DIRECTION('',(0.,0.,-1.));
#1637=DIRECTION('',(-0.5,0.866025403784439,0.));
#1638=DIRECTION('',(0.,0.,-1.));
#1639=DIRECTION('center_axis',(-0.5,0.866025403784439,0.));
#1640=DIRECTION('ref_axis',(0.,0.,-1.));
#1641=DIRECTION('',(-0.866025403784439,-0.5,0.));
#1642=DIRECTION('',(0.,0.,-1.));
#1643=DIRECTION('',(0.866025403784439,0.5,0.));
#1644=DIRECTION('center_axis',(0.,0.,1.));
#1645=DIRECTION('ref_axis',(-0.866025403784439,-0.5,0.));
#1646=DIRECTION('',(-0.5,0.866025403784439,0.));
#1647=DIRECTION('',(-0.866025403784439,-0.5,0.));
#1648=DIRECTION('center_axis',(0.,0.,1.));
#1649=DIRECTION('ref_axis',(-0.866025403784439,-0.5,0.));
#1650=DIRECTION('',(0.866025403784439,0.5,0.));
#1651=DIRECTION('',(0.5,-0.866025403784439,0.));
#1652=DIRECTION('center_axis',(0.5,-0.866025403784439,0.));
#1653=DIRECTION('ref_axis',(0.,0.,1.));
#1654=DIRECTION('',(0.,0.,-1.));
#1655=DIRECTION('center_axis',(-0.866025403784439,-0.5,0.));
#1656=DIRECTION('ref_axis',(0.,0.,-1.));
#1657=DIRECTION('axis',(0.,0.,1.));
#1658=DIRECTION('refdir',(1.,0.,0.));
#1659=DIRECTION('center_axis',(0.,0.,1.));
#1660=DIRECTION('ref_axis',(1.,0.,0.));
#1661=DIRECTION('center_axis',(0.,0.,1.));
#1662=DIRECTION('ref_axis',(1.,0.,0.));
#1663=DIRECTION('',(0.,0.,1.));
#1664=DIRECTION('center_axis',(0.,0.,-1.));
#1665=DIRECTION('ref_axis',(1.,0.,0.));
#1666=DIRECTION('center_axis',(0.,0.,1.));
#1667=DIRECTION('ref_axis',(1.,0.,0.));
#1668=DIRECTION('center_axis',(0.,0.,1.));
#1669=DIRECTION('ref_axis',(1.,0.,0.));
#1670=DIRECTION('',(0.,0.,1.));
#1671=DIRECTION('center_axis',(0.,0.,-1.));
#1672=DIRECTION('ref_axis',(1.,0.,0.));
#1673=DIRECTION('center_axis',(0.,0.,1.));
#1674=DIRECTION('ref_axis',(0.866025403784438,-0.5,0.));
#1675=DIRECTION('',(0.5,0.866025403784438,0.));
#1676=DIRECTION('',(-0.866025403784438,0.5,0.));
#1677=DIRECTION('',(-0.5,-0.866025403784438,0.));
#1678=DIRECTION('',(0.866025403784438,-0.5,0.));
#1679=DIRECTION('center_axis',(0.,0.,1.));
#1680=DIRECTION('ref_axis',(0.866025403784438,-0.5,0.));
#1681=DIRECTION('',(-0.5,-0.866025403784438,0.));
#1682=DIRECTION('',(-0.866025403784438,0.5,0.));
#1683=DIRECTION('',(0.5,0.866025403784438,0.));
#1684=DIRECTION('',(0.866025403784438,-0.5,0.));
#1685=DIRECTION('center_axis',(0.5,0.866025403784438,0.));
#1686=DIRECTION('ref_axis',(0.,0.,1.));
#1687=DIRECTION('',(0.,0.,-1.));
#1688=DIRECTION('',(0.,0.,-1.));
#1689=DIRECTION('center_axis',(0.866025403784438,-0.5,0.));
#1690=DIRECTION('ref_axis',(0.,0.,-1.));
#1691=DIRECTION('',(0.,0.,-1.));
#1692=DIRECTION('center_axis',(-0.5,-0.866025403784438,0.));
#1693=DIRECTION('ref_axis',(0.,0.,-1.));
#1694=DIRECTION('',(0.,0.,-1.));
#1695=DIRECTION('center_axis',(-0.866025403784438,0.5,0.));
#1696=DIRECTION('ref_axis',(0.,0.,1.));
#1697=DIRECTION('center_axis',(0.500000000000001,0.866025403784438,0.));
#1698=DIRECTION('ref_axis',(0.866025403784438,-0.500000000000001,0.));
#1699=DIRECTION('center_axis',(0.5,0.866025403784438,0.));
#1700=DIRECTION('ref_axis',(0.866025403784439,-0.5,0.));
#1701=DIRECTION('',(0.500000000000001,0.866025403784438,0.));
#1702=DIRECTION('center_axis',(-0.5,-0.866025403784438,0.));
#1703=DIRECTION('ref_axis',(0.866025403784439,-0.5,0.));
#1704=DIRECTION('center_axis',(0.500000000000002,0.866025403784438,0.));
#1705=DIRECTION('ref_axis',(0.866025403784438,-0.500000000000002,0.));
#1706=DIRECTION('',(-0.500000000000002,-0.866025403784438,0.));
#1707=DIRECTION('center_axis',(0.500000000000002,0.866025403784438,0.));
#1708=DIRECTION('ref_axis',(0.866025403784438,-0.500000000000002,0.));
#1709=DIRECTION('',(0.500000000000002,0.866025403784438,0.));
#1710=DIRECTION('center_axis',(-0.500000000000002,-0.866025403784438,0.));
#1711=DIRECTION('ref_axis',(0.866025403784438,-0.500000000000002,0.));
#1712=DIRECTION('center_axis',(-0.866025403784438,0.5,0.));
#1713=DIRECTION('ref_axis',(0.,0.,1.));
#1714=DIRECTION('',(0.,0.,-1.));
#1715=DIRECTION('',(-0.5,-0.866025403784438,0.));
#1716=DIRECTION('',(0.,0.,-1.));
#1717=DIRECTION('center_axis',(-0.5,-0.866025403784438,0.));
#1718=DIRECTION('ref_axis',(0.,0.,-1.));
#1719=DIRECTION('',(0.866025403784438,-0.5,0.));
#1720=DIRECTION('',(0.,0.,-1.));
#1721=DIRECTION('',(-0.866025403784438,0.5,0.));
#1722=DIRECTION('center_axis',(0.,0.,1.));
#1723=DIRECTION('ref_axis',(0.866025403784438,-0.5,0.));
#1724=DIRECTION('',(-0.5,-0.866025403784438,0.));
#1725=DIRECTION('',(0.866025403784438,-0.5,0.));
#1726=DIRECTION('center_axis',(0.,0.,1.));
#1727=DIRECTION('ref_axis',(0.866025403784438,-0.5,0.));
#1728=DIRECTION('',(-0.866025403784438,0.5,0.));
#1729=DIRECTION('',(0.5,0.866025403784438,0.));
#1730=DIRECTION('center_axis',(0.5,0.866025403784438,0.));
#1731=DIRECTION('ref_axis',(0.,0.,1.));
#1732=DIRECTION('',(0.,0.,-1.));
#1733=DIRECTION('center_axis',(0.866025403784438,-0.5,0.));
#1734=DIRECTION('ref_axis',(0.,0.,-1.));
#1735=DIRECTION('center_axis',(0.5,0.866025403784439,0.));
#1736=DIRECTION('ref_axis',(0.866025403784439,-0.5,0.));
#1737=DIRECTION('center_axis',(0.5,0.866025403784438,0.));
#1738=DIRECTION('ref_axis',(0.866025403784439,-0.5,0.));
#1739=DIRECTION('',(0.5,0.866025403784439,0.));
#1740=DIRECTION('center_axis',(-0.5,-0.866025403784438,0.));
#1741=DIRECTION('ref_axis',(0.866025403784439,-0.5,0.));
#1742=DIRECTION('center_axis',(0.500000000000002,0.866025403784438,0.));
#1743=DIRECTION('ref_axis',(0.866025403784438,-0.500000000000002,0.));
#1744=DIRECTION('',(-0.500000000000002,-0.866025403784438,0.));
#1745=DIRECTION('center_axis',(0.500000000000002,0.866025403784438,0.));
#1746=DIRECTION('ref_axis',(0.866025403784438,-0.500000000000002,0.));
#1747=DIRECTION('',(0.500000000000002,0.866025403784438,0.));
#1748=DIRECTION('center_axis',(-0.500000000000002,-0.866025403784438,0.));
#1749=DIRECTION('ref_axis',(0.866025403784438,-0.500000000000002,0.));
#1750=DIRECTION('center_axis',(-0.866025403784438,0.5,0.));
#1751=DIRECTION('ref_axis',(0.,0.,1.));
#1752=DIRECTION('',(0.,0.,-1.));
#1753=DIRECTION('',(-0.5,-0.866025403784438,0.));
#1754=DIRECTION('',(0.,0.,-1.));
#1755=DIRECTION('center_axis',(-0.5,-0.866025403784438,0.));
#1756=DIRECTION('ref_axis',(0.,0.,-1.));
#1757=DIRECTION('',(0.866025403784438,-0.5,0.));
#1758=DIRECTION('',(0.,0.,-1.));
#1759=DIRECTION('',(-0.866025403784438,0.5,0.));
#1760=DIRECTION('center_axis',(0.,0.,1.));
#1761=DIRECTION('ref_axis',(0.866025403784438,-0.5,0.));
#1762=DIRECTION('',(-0.5,-0.866025403784438,0.));
#1763=DIRECTION('',(0.866025403784438,-0.5,0.));
#1764=DIRECTION('center_axis',(0.,0.,1.));
#1765=DIRECTION('ref_axis',(0.866025403784438,-0.5,0.));
#1766=DIRECTION('',(-0.866025403784438,0.5,0.));
#1767=DIRECTION('',(0.5,0.866025403784438,0.));
#1768=DIRECTION('center_axis',(0.5,0.866025403784438,0.));
#1769=DIRECTION('ref_axis',(0.,0.,1.));
#1770=DIRECTION('',(0.,0.,-1.));
#1771=DIRECTION('center_axis',(0.866025403784438,-0.5,0.));
#1772=DIRECTION('ref_axis',(0.,0.,-1.));
#1773=DIRECTION('',(0.,0.,1.));
#1774=DIRECTION('',(1.,0.,0.));
#1775=DIRECTION('',(0.,0.,1.));
#1776=DIRECTION('',(1.,0.,0.));
#1777=DIRECTION('',(0.,0.,1.));
#1778=DIRECTION('',(1.,0.,0.));
#1779=CARTESIAN_POINT('',(0.,0.,0.));
#1780=CARTESIAN_POINT('',(0.,0.,0.));
#1781=CARTESIAN_POINT('Origin',(14.5,95.,49.5));
#1782=CARTESIAN_POINT('',(10.3,95.,48.));
#1783=CARTESIAN_POINT('Origin',(14.5,95.,48.));
#1784=CARTESIAN_POINT('',(10.3,95.,51.));
#1785=CARTESIAN_POINT('',(10.3,95.,49.5));
#1786=CARTESIAN_POINT('Origin',(14.5,95.,51.));
#1787=CARTESIAN_POINT('Origin',(14.5,59.,49.5));
#1788=CARTESIAN_POINT('',(10.3,59.,48.));
#1789=CARTESIAN_POINT('Origin',(14.5,59.,48.));
#1790=CARTESIAN_POINT('',(10.3,59.,51.));
#1791=CARTESIAN_POINT('',(10.3,59.,49.5));
#1792=CARTESIAN_POINT('Origin',(14.5,59.,51.));
#1793=CARTESIAN_POINT('Origin',(14.5,77.,51.));
#1794=CARTESIAN_POINT('',(27.5,105.,51.));
#1795=CARTESIAN_POINT('',(1.50000000000001,105.,51.));
#1796=CARTESIAN_POINT('',(14.5,105.,51.));
#1797=CARTESIAN_POINT('',(1.5,49.,51.));
#1798=CARTESIAN_POINT('',(1.5,77.,51.));
#1799=CARTESIAN_POINT('',(27.5,49.,51.));
#1800=CARTESIAN_POINT('',(14.5,49.,51.));
#1801=CARTESIAN_POINT('',(27.5,77.,51.));
#1802=CARTESIAN_POINT('Origin',(14.5,77.,48.));
#1803=CARTESIAN_POINT('',(1.50000000000001,105.,48.));
#1804=CARTESIAN_POINT('',(27.5,105.,48.));
#1805=CARTESIAN_POINT('',(14.5,105.,48.));
#1806=CARTESIAN_POINT('',(27.5,49.,48.));
#1807=CARTESIAN_POINT('',(27.5,77.,48.));
#1808=CARTESIAN_POINT('',(1.5,49.,48.));
#1809=CARTESIAN_POINT('',(14.5,49.,48.));
#1810=CARTESIAN_POINT('',(1.5,77.,48.));
#1811=CARTESIAN_POINT('Origin',(27.5,77.,49.5));
#1812=CARTESIAN_POINT('',(27.5,49.,49.5));
#1813=CARTESIAN_POINT('',(27.5,105.,49.5));
#1814=CARTESIAN_POINT('Origin',(14.5,49.,49.5));
#1815=CARTESIAN_POINT('',(1.5,49.,49.5));
#1816=CARTESIAN_POINT('Origin',(1.5,77.,49.5));
#1817=CARTESIAN_POINT('',(1.50000000000001,105.,49.5));
#1818=CARTESIAN_POINT('Origin',(14.5,105.,49.5));
#1819=CARTESIAN_POINT('Origin',(27.5,88.,67.5));
#1820=CARTESIAN_POINT('',(27.5,95.,76.));
#1821=CARTESIAN_POINT('',(27.5,87.,84.));
#1822=CARTESIAN_POINT('Origin',(27.5,95.,84.));
#1823=CARTESIAN_POINT('',(27.5,81.,84.));
#1824=CARTESIAN_POINT('',(27.5,88.,84.));
#1825=CARTESIAN_POINT('',(27.5,81.,51.));
#1826=CARTESIAN_POINT('',(27.5,81.,67.5));
#1827=CARTESIAN_POINT('',(27.5,95.,51.));
#1828=CARTESIAN_POINT('',(27.5,88.,51.));
#1829=CARTESIAN_POINT('',(27.5,95.,67.5));
#1830=CARTESIAN_POINT('',(27.5,95.,80.9));
#1831=CARTESIAN_POINT('Origin',(27.5,95.,84.));
#1832=CARTESIAN_POINT('Origin',(24.5,88.,67.5));
#1833=CARTESIAN_POINT('',(24.5,95.,76.));
#1834=CARTESIAN_POINT('',(24.5,95.,51.));
#1835=CARTESIAN_POINT('',(24.5,95.,67.5));
#1836=CARTESIAN_POINT('',(24.5,81.,51.));
#1837=CARTESIAN_POINT('',(24.5,88.,51.));
#1838=CARTESIAN_POINT('',(24.5,81.,84.));
#1839=CARTESIAN_POINT('',(24.5,81.,67.5));
#1840=CARTESIAN_POINT('',(24.5,87.,84.));
#1841=CARTESIAN_POINT('',(24.5,88.,84.));
#1842=CARTESIAN_POINT('Origin',(24.5,95.,84.));
#1843=CARTESIAN_POINT('',(24.5,95.,80.9));
#1844=CARTESIAN_POINT('Origin',(24.5,95.,84.));
#1845=CARTESIAN_POINT('Origin',(26.,95.,84.));
#1846=CARTESIAN_POINT('',(26.,95.,80.9));
#1847=CARTESIAN_POINT('Origin',(26.,95.,84.));
#1848=CARTESIAN_POINT('',(26.,95.,76.));
#1849=CARTESIAN_POINT('',(26.,87.,84.));
#1850=CARTESIAN_POINT('Origin',(26.,95.,67.5));
#1851=CARTESIAN_POINT('',(26.,95.,51.));
#1852=CARTESIAN_POINT('Origin',(26.,88.,84.));
#1853=CARTESIAN_POINT('',(26.,81.,84.));
#1854=CARTESIAN_POINT('Origin',(26.,88.,51.));
#1855=CARTESIAN_POINT('',(26.,81.,51.));
#1856=CARTESIAN_POINT('Origin',(26.,81.,67.5));
#1857=CARTESIAN_POINT('Origin',(4.50000000000001,88.,67.5));
#1858=CARTESIAN_POINT('',(4.50000000000001,95.,76.));
#1859=CARTESIAN_POINT('',(4.50000000000001,87.,84.));
#1860=CARTESIAN_POINT('Origin',(4.50000000000001,95.,84.));
#1861=CARTESIAN_POINT('',(4.5,81.,84.));
#1862=CARTESIAN_POINT('',(4.50000000000001,88.,84.));
#1863=CARTESIAN_POINT('',(4.5,81.,51.));
#1864=CARTESIAN_POINT('',(4.5,81.,67.5));
#1865=CARTESIAN_POINT('',(4.50000000000001,95.,51.));
#1866=CARTESIAN_POINT('',(4.50000000000001,88.,51.));
#1867=CARTESIAN_POINT('',(4.50000000000001,95.,67.5));
#1868=CARTESIAN_POINT('',(4.50000000000001,95.,80.9));
#1869=CARTESIAN_POINT('Origin',(4.50000000000001,95.,84.));
#1870=CARTESIAN_POINT('Origin',(1.5,88.,67.5));
#1871=CARTESIAN_POINT('',(1.50000000000001,95.,76.));
#1872=CARTESIAN_POINT('',(1.50000000000001,95.,51.));
#1873=CARTESIAN_POINT('',(1.50000000000001,95.,67.5));
#1874=CARTESIAN_POINT('',(1.5,81.,51.));
#1875=CARTESIAN_POINT('',(1.5,88.,51.));
#1876=CARTESIAN_POINT('',(1.5,81.,84.));
#1877=CARTESIAN_POINT('',(1.5,81.,67.5));
#1878=CARTESIAN_POINT('',(1.5,87.,84.));
#1879=CARTESIAN_POINT('',(1.5,88.,84.));
#1880=CARTESIAN_POINT('Origin',(1.5,95.,84.));
#1881=CARTESIAN_POINT('',(1.5,95.,80.9));
#1882=CARTESIAN_POINT('Origin',(1.5,95.,84.));
#1883=CARTESIAN_POINT('Origin',(3.,95.,84.));
#1884=CARTESIAN_POINT('',(3.,95.,80.9));
#1885=CARTESIAN_POINT('Origin',(3.,95.,84.));
#1886=CARTESIAN_POINT('',(3.,95.,76.));
#1887=CARTESIAN_POINT('',(3.,87.,84.));
#1888=CARTESIAN_POINT('Origin',(3.00000000000001,95.,67.5));
#1889=CARTESIAN_POINT('',(3.00000000000001,95.,51.));
#1890=CARTESIAN_POINT('Origin',(3.,88.,84.));
#1891=CARTESIAN_POINT('',(3.,81.,84.));
#1892=CARTESIAN_POINT('Origin',(3.,88.,51.));
#1893=CARTESIAN_POINT('',(3.,81.,51.));
#1894=CARTESIAN_POINT('Origin',(3.,81.,67.5));
#1895=CARTESIAN_POINT('',(0.,0.,0.));
#1896=CARTESIAN_POINT('Origin',(-89.5224133595217,-34.9426316451256,49.5));
#1897=CARTESIAN_POINT('',(-93.7224133595217,-34.9426316451256,48.));
#1898=CARTESIAN_POINT('Origin',(-89.5224133595217,-34.9426316451256,48.));
#1899=CARTESIAN_POINT('',(-93.7224133595217,-34.9426316451256,51.));
#1900=CARTESIAN_POINT('',(-93.7224133595217,-34.9426316451256,49.5));
#1901=CARTESIAN_POINT('Origin',(-89.5224133595217,-34.9426316451256,51.));
#1902=CARTESIAN_POINT('Origin',(-58.3454988232819,-16.9426316451256,49.5));
#1903=CARTESIAN_POINT('',(-62.5454988232819,-16.9426316451256,48.));
#1904=CARTESIAN_POINT('Origin',(-58.3454988232819,-16.9426316451256,48.));
#1905=CARTESIAN_POINT('',(-62.5454988232819,-16.9426316451256,51.));
#1906=CARTESIAN_POINT('',(-62.5454988232819,-16.9426316451256,49.5));
#1907=CARTESIAN_POINT('Origin',(-58.3454988232819,-16.9426316451256,51.));
#1908=CARTESIAN_POINT('Origin',(-73.9339560914018,-25.9426316451256,51.));
#1909=CARTESIAN_POINT('',(-104.682667397366,-28.6843013959279,51.));
#1910=CARTESIAN_POINT('',(-91.682667397366,-51.2009618943233,51.));
#1911=CARTESIAN_POINT('',(-98.182667397366,-39.9426316451256,51.));
#1912=CARTESIAN_POINT('',(-43.1852447854375,-23.2009618943233,51.));
#1913=CARTESIAN_POINT('',(-67.4339560914018,-37.2009618943233,51.));
#1914=CARTESIAN_POINT('',(-56.1852447854375,-0.68430139592794,51.));
#1915=CARTESIAN_POINT('',(-49.6852447854375,-11.9426316451256,51.));
#1916=CARTESIAN_POINT('',(-80.4339560914018,-14.6843013959279,51.));
#1917=CARTESIAN_POINT('Origin',(-73.9339560914018,-25.9426316451256,48.));
#1918=CARTESIAN_POINT('',(-91.682667397366,-51.2009618943233,48.));
#1919=CARTESIAN_POINT('',(-104.682667397366,-28.6843013959279,48.));
#1920=CARTESIAN_POINT('',(-98.182667397366,-39.9426316451256,48.));
#1921=CARTESIAN_POINT('',(-56.1852447854375,-0.68430139592794,48.));
#1922=CARTESIAN_POINT('',(-80.4339560914018,-14.6843013959279,48.));
#1923=CARTESIAN_POINT('',(-43.1852447854375,-23.2009618943233,48.));
#1924=CARTESIAN_POINT('',(-49.6852447854375,-11.9426316451256,48.));
#1925=CARTESIAN_POINT('',(-67.4339560914018,-37.2009618943233,48.));
#1926=CARTESIAN_POINT('Origin',(-80.4339560914018,-14.6843013959279,49.5));
#1927=CARTESIAN_POINT('',(-56.1852447854375,-0.68430139592794,49.5));
#1928=CARTESIAN_POINT('',(-104.682667397366,-28.6843013959279,49.5));
#1929=CARTESIAN_POINT('Origin',(-49.6852447854375,-11.9426316451256,49.5));
#1930=CARTESIAN_POINT('',(-43.1852447854375,-23.2009618943233,49.5));
#1931=CARTESIAN_POINT('Origin',(-67.4339560914018,-37.2009618943233,49.5));
#1932=CARTESIAN_POINT('',(-91.682667397366,-51.2009618943233,49.5));
#1933=CARTESIAN_POINT('Origin',(-98.182667397366,-39.9426316451256,49.5));
#1934=CARTESIAN_POINT('Origin',(-95.2724133595217,-24.9833395016046,84.));
#1935=CARTESIAN_POINT('',(-98.7070921112534,-25.2343013959279,84.));
#1936=CARTESIAN_POINT('Origin',(-96.0224133595217,-23.6843013959279,84.));
#1937=CARTESIAN_POINT('',(-97.2070921112534,-27.8323776072813,84.));
#1938=CARTESIAN_POINT('',(-97.9570921112534,-26.5333395016046,84.));
#1939=CARTESIAN_POINT('Origin',(-94.5224133595217,-26.2823776072812,84.));
#1940=CARTESIAN_POINT('Origin',(-95.2724133595217,-24.9833395016046,84.));
#1941=CARTESIAN_POINT('',(-94.5224133595217,-26.2823776072813,76.));
#1942=CARTESIAN_POINT('',(-96.0224133595217,-23.6843013959279,76.));
#1943=CARTESIAN_POINT('',(-95.2724133595217,-24.9833395016046,76.));
#1944=CARTESIAN_POINT('',(-87.5942101292462,-22.2823776072812,84.));
#1945=CARTESIAN_POINT('Origin',(-94.5224133595217,-26.2823776072813,84.));
#1946=CARTESIAN_POINT('',(-89.0942101292462,-19.6843013959279,84.));
#1947=CARTESIAN_POINT('',(-88.3442101292462,-20.9833395016046,84.));
#1948=CARTESIAN_POINT('Origin',(-96.0224133595217,-23.6843013959279,84.));
#1949=CARTESIAN_POINT('Origin',(-95.2724133595217,-24.9833395016046,67.5));
#1950=CARTESIAN_POINT('',(-96.0224133595217,-23.6843013959279,51.));
#1951=CARTESIAN_POINT('',(-96.0224133595217,-23.6843013959279,67.5));
#1952=CARTESIAN_POINT('',(-94.5224133595217,-26.2823776072813,51.));
#1953=CARTESIAN_POINT('',(-95.2724133595217,-24.9833395016046,51.));
#1954=CARTESIAN_POINT('',(-94.5224133595217,-26.2823776072813,67.5));
#1955=CARTESIAN_POINT('Origin',(-88.4602355330306,-22.7823776072813,67.5));
#1956=CARTESIAN_POINT('',(-82.3980577065395,-19.2823776072813,51.));
#1957=CARTESIAN_POINT('',(-88.4602355330306,-22.7823776072813,51.));
#1958=CARTESIAN_POINT('',(-82.3980577065395,-19.2823776072813,84.));
#1959=CARTESIAN_POINT('',(-82.3980577065395,-19.2823776072813,67.5));
#1960=CARTESIAN_POINT('',(-88.4602355330306,-22.7823776072813,84.));
#1961=CARTESIAN_POINT('Origin',(-89.2102355330306,-21.4833395016046,84.));
#1962=CARTESIAN_POINT('',(-83.8980577065395,-16.6843013959279,84.));
#1963=CARTESIAN_POINT('',(-83.1480577065395,-17.9833395016046,84.));
#1964=CARTESIAN_POINT('',(-89.9602355330306,-20.1843013959279,84.));
#1965=CARTESIAN_POINT('Origin',(-89.2102355330306,-21.4833395016046,51.));
#1966=CARTESIAN_POINT('',(-83.8980577065395,-16.6843013959279,51.));
#1967=CARTESIAN_POINT('',(-89.9602355330306,-20.1843013959279,51.));
#1968=CARTESIAN_POINT('',(-83.1480577065395,-17.9833395016046,51.));
#1969=CARTESIAN_POINT('Origin',(-89.9602355330306,-20.1843013959279,67.5));
#1970=CARTESIAN_POINT('',(-83.8980577065395,-16.6843013959279,67.5));
#1971=CARTESIAN_POINT('Origin',(-83.1480577065395,-17.9833395016046,67.5));
#1972=CARTESIAN_POINT('Origin',(-83.7724133595217,-44.9019237886467,84.));
#1973=CARTESIAN_POINT('',(-87.2070921112534,-45.15288568297,84.));
#1974=CARTESIAN_POINT('Origin',(-84.5224133595217,-43.60288568297,84.));
#1975=CARTESIAN_POINT('',(-85.7070921112534,-47.7509618943233,84.));
#1976=CARTESIAN_POINT('',(-86.4570921112534,-46.4519237886467,84.));
#1977=CARTESIAN_POINT('Origin',(-83.0224133595217,-46.2009618943233,84.));
#1978=CARTESIAN_POINT('Origin',(-83.7724133595217,-44.9019237886467,84.));
#1979=CARTESIAN_POINT('',(-83.0224133595217,-46.2009618943233,76.));
#1980=CARTESIAN_POINT('',(-84.5224133595217,-43.60288568297,76.));
#1981=CARTESIAN_POINT('',(-83.7724133595217,-44.9019237886467,76.));
#1982=CARTESIAN_POINT('',(-76.0942101292462,-42.2009618943233,84.));
#1983=CARTESIAN_POINT('Origin',(-83.0224133595217,-46.2009618943233,84.));
#1984=CARTESIAN_POINT('',(-77.5942101292462,-39.60288568297,84.));
#1985=CARTESIAN_POINT('',(-76.8442101292462,-40.9019237886467,84.));
#1986=CARTESIAN_POINT('Origin',(-84.5224133595217,-43.60288568297,84.));
#1987=CARTESIAN_POINT('Origin',(-83.7724133595217,-44.9019237886467,67.5));
#1988=CARTESIAN_POINT('',(-84.5224133595217,-43.60288568297,51.));
#1989=CARTESIAN_POINT('',(-84.5224133595217,-43.60288568297,67.5));
#1990=CARTESIAN_POINT('',(-83.0224133595217,-46.2009618943233,51.));
#1991=CARTESIAN_POINT('',(-83.7724133595217,-44.9019237886467,51.));
#1992=CARTESIAN_POINT('',(-83.0224133595217,-46.2009618943233,67.5));
#1993=CARTESIAN_POINT('Origin',(-76.9602355330306,-42.7009618943233,67.5));
#1994=CARTESIAN_POINT('',(-70.8980577065395,-39.2009618943233,51.));
#1995=CARTESIAN_POINT('',(-76.9602355330306,-42.7009618943233,51.));
#1996=CARTESIAN_POINT('',(-70.8980577065395,-39.2009618943233,84.));
#1997=CARTESIAN_POINT('',(-70.8980577065395,-39.2009618943233,67.5));
#1998=CARTESIAN_POINT('',(-76.9602355330306,-42.7009618943233,84.));
#1999=CARTESIAN_POINT('Origin',(-77.7102355330306,-41.4019237886467,84.));
#2000=CARTESIAN_POINT('',(-72.3980577065395,-36.60288568297,84.));
#2001=CARTESIAN_POINT('',(-71.6480577065395,-37.9019237886467,84.));
#2002=CARTESIAN_POINT('',(-78.4602355330306,-40.10288568297,84.));
#2003=CARTESIAN_POINT('Origin',(-77.7102355330306,-41.4019237886467,51.));
#2004=CARTESIAN_POINT('',(-72.3980577065395,-36.60288568297,51.));
#2005=CARTESIAN_POINT('',(-78.4602355330306,-40.10288568297,51.));
#2006=CARTESIAN_POINT('',(-71.6480577065395,-37.9019237886467,51.));
#2007=CARTESIAN_POINT('Origin',(-78.4602355330306,-40.10288568297,67.5));
#2008=CARTESIAN_POINT('',(-72.3980577065395,-36.60288568297,67.5));
#2009=CARTESIAN_POINT('Origin',(-71.6480577065395,-37.9019237886467,67.5));
#2010=CARTESIAN_POINT('',(0.,0.,0.));
#2011=CARTESIAN_POINT('Origin',(75.0224133595217,-60.0573683548744,49.5));
#2012=CARTESIAN_POINT('',(70.8224133595216,-60.0573683548744,48.));
#2013=CARTESIAN_POINT('Origin',(75.0224133595217,-60.0573683548744,48.));
#2014=CARTESIAN_POINT('',(70.8224133595216,-60.0573683548744,51.));
#2015=CARTESIAN_POINT('',(70.8224133595216,-60.0573683548744,49.5));
#2016=CARTESIAN_POINT('Origin',(75.0224133595217,-60.0573683548744,51.));
#2017=CARTESIAN_POINT('Origin',(43.8454988232819,-42.0573683548744,49.5));
#2018=CARTESIAN_POINT('',(39.6454988232819,-42.0573683548744,48.));
#2019=CARTESIAN_POINT('Origin',(43.8454988232819,-42.0573683548744,48.));
#2020=CARTESIAN_POINT('',(39.6454988232819,-42.0573683548744,51.));
#2021=CARTESIAN_POINT('',(39.6454988232819,-42.0573683548744,49.5));
#2022=CARTESIAN_POINT('Origin',(43.8454988232819,-42.0573683548744,51.));
#2023=CARTESIAN_POINT('Origin',(59.4339560914018,-51.0573683548744,51.));
#2024=CARTESIAN_POINT('',(77.182667397366,-76.3156986040721,51.));
#2025=CARTESIAN_POINT('',(90.182667397366,-53.7990381056767,51.));
#2026=CARTESIAN_POINT('',(83.682667397366,-65.0573683548744,51.));
#2027=CARTESIAN_POINT('',(41.6852447854375,-25.7990381056767,51.));
#2028=CARTESIAN_POINT('',(65.9339560914018,-39.7990381056767,51.));
#2029=CARTESIAN_POINT('',(28.6852447854375,-48.3156986040721,51.));
#2030=CARTESIAN_POINT('',(35.1852447854375,-37.0573683548744,51.));
#2031=CARTESIAN_POINT('',(52.9339560914018,-62.3156986040721,51.));
#2032=CARTESIAN_POINT('Origin',(59.4339560914018,-51.0573683548744,48.));
#2033=CARTESIAN_POINT('',(90.182667397366,-53.7990381056767,48.));
#2034=CARTESIAN_POINT('',(77.182667397366,-76.3156986040721,48.));
#2035=CARTESIAN_POINT('',(83.682667397366,-65.0573683548744,48.));
#2036=CARTESIAN_POINT('',(28.6852447854375,-48.3156986040721,48.));
#2037=CARTESIAN_POINT('',(52.9339560914018,-62.3156986040721,48.));
#2038=CARTESIAN_POINT('',(41.6852447854375,-25.7990381056767,48.));
#2039=CARTESIAN_POINT('',(35.1852447854375,-37.0573683548744,48.));
#2040=CARTESIAN_POINT('',(65.9339560914018,-39.7990381056767,48.));
#2041=CARTESIAN_POINT('Origin',(52.9339560914018,-62.3156986040721,49.5));
#2042=CARTESIAN_POINT('',(28.6852447854375,-48.3156986040721,49.5));
#2043=CARTESIAN_POINT('',(77.182667397366,-76.3156986040721,49.5));
#2044=CARTESIAN_POINT('Origin',(35.1852447854375,-37.0573683548744,49.5));
#2045=CARTESIAN_POINT('',(41.6852447854375,-25.7990381056767,49.5));
#2046=CARTESIAN_POINT('Origin',(65.9339560914018,-39.7990381056767,49.5));
#2047=CARTESIAN_POINT('',(90.182667397366,-53.7990381056767,49.5));
#2048=CARTESIAN_POINT('Origin',(83.682667397366,-65.0573683548744,49.5));
#2049=CARTESIAN_POINT('Origin',(69.2724133595217,-70.0166604983954,84.));
#2050=CARTESIAN_POINT('',(65.8377346077899,-69.7656986040721,84.));
#2051=CARTESIAN_POINT('Origin',(68.5224133595217,-71.3156986040721,84.));
#2052=CARTESIAN_POINT('',(67.3377346077899,-67.1676223927188,84.));
#2053=CARTESIAN_POINT('',(66.5877346077899,-68.4666604983954,84.));
#2054=CARTESIAN_POINT('Origin',(70.0224133595217,-68.7176223927188,84.));
#2055=CARTESIAN_POINT('Origin',(69.2724133595217,-70.0166604983954,84.));
#2056=CARTESIAN_POINT('',(70.0224133595217,-68.7176223927188,76.));
#2057=CARTESIAN_POINT('',(68.5224133595217,-71.3156986040721,76.));
#2058=CARTESIAN_POINT('',(69.2724133595217,-70.0166604983954,76.));
#2059=CARTESIAN_POINT('',(63.0942101292462,-64.7176223927188,84.));
#2060=CARTESIAN_POINT('Origin',(70.0224133595217,-68.7176223927188,84.));
#2061=CARTESIAN_POINT('',(61.5942101292461,-67.3156986040721,84.));
#2062=CARTESIAN_POINT('',(62.3442101292462,-66.0166604983954,84.));
#2063=CARTESIAN_POINT('Origin',(68.5224133595217,-71.3156986040721,84.));
#2064=CARTESIAN_POINT('Origin',(69.2724133595217,-70.0166604983954,67.5));
#2065=CARTESIAN_POINT('',(68.5224133595217,-71.3156986040721,51.));
#2066=CARTESIAN_POINT('',(68.5224133595217,-71.3156986040721,67.5));
#2067=CARTESIAN_POINT('',(70.0224133595217,-68.7176223927188,51.));
#2068=CARTESIAN_POINT('',(69.2724133595217,-70.0166604983954,51.));
#2069=CARTESIAN_POINT('',(70.0224133595217,-68.7176223927188,67.5));
#2070=CARTESIAN_POINT('Origin',(63.9602355330306,-65.2176223927188,67.5));
#2071=CARTESIAN_POINT('',(57.8980577065395,-61.7176223927188,51.));
#2072=CARTESIAN_POINT('',(63.9602355330306,-65.2176223927188,51.));
#2073=CARTESIAN_POINT('',(57.8980577065395,-61.7176223927188,84.));
#2074=CARTESIAN_POINT('',(57.8980577065395,-61.7176223927188,67.5));
#2075=CARTESIAN_POINT('',(63.9602355330306,-65.2176223927188,84.));
#2076=CARTESIAN_POINT('Origin',(63.2102355330306,-66.5166604983954,84.));
#2077=CARTESIAN_POINT('',(56.3980577065395,-64.3156986040721,84.));
#2078=CARTESIAN_POINT('',(57.1480577065395,-63.0166604983954,84.));
#2079=CARTESIAN_POINT('',(62.4602355330306,-67.8156986040721,84.));
#2080=CARTESIAN_POINT('Origin',(63.2102355330306,-66.5166604983954,51.));
#2081=CARTESIAN_POINT('',(56.3980577065395,-64.3156986040721,51.));
#2082=CARTESIAN_POINT('',(62.4602355330306,-67.8156986040721,51.));
#2083=CARTESIAN_POINT('',(57.1480577065395,-63.0166604983954,51.));
#2084=CARTESIAN_POINT('Origin',(62.4602355330306,-67.8156986040721,67.5));
#2085=CARTESIAN_POINT('',(56.3980577065395,-64.3156986040721,67.5));
#2086=CARTESIAN_POINT('Origin',(57.1480577065395,-63.0166604983954,67.5));
#2087=CARTESIAN_POINT('Origin',(80.7724133595217,-50.0980762113534,84.));
#2088=CARTESIAN_POINT('',(77.3377346077899,-49.84711431703,84.));
#2089=CARTESIAN_POINT('Origin',(80.0224133595217,-51.39711431703,84.));
#2090=CARTESIAN_POINT('',(78.8377346077899,-47.2490381056767,84.));
#2091=CARTESIAN_POINT('',(78.0877346077899,-48.5480762113534,84.));
#2092=CARTESIAN_POINT('Origin',(81.5224133595216,-48.7990381056767,84.));
#2093=CARTESIAN_POINT('Origin',(80.7724133595217,-50.0980762113534,84.));
#2094=CARTESIAN_POINT('',(81.5224133595217,-48.7990381056767,76.));
#2095=CARTESIAN_POINT('',(80.0224133595217,-51.39711431703,76.));
#2096=CARTESIAN_POINT('',(80.7724133595217,-50.0980762113533,76.));
#2097=CARTESIAN_POINT('',(74.5942101292462,-44.7990381056767,84.));
#2098=CARTESIAN_POINT('Origin',(81.5224133595217,-48.7990381056767,84.));
#2099=CARTESIAN_POINT('',(73.0942101292462,-47.39711431703,84.));
#2100=CARTESIAN_POINT('',(73.8442101292462,-46.0980762113533,84.));
#2101=CARTESIAN_POINT('Origin',(80.0224133595217,-51.39711431703,84.));
#2102=CARTESIAN_POINT('Origin',(80.7724133595217,-50.0980762113534,67.5));
#2103=CARTESIAN_POINT('',(80.0224133595217,-51.39711431703,51.));
#2104=CARTESIAN_POINT('',(80.0224133595217,-51.39711431703,67.5));
#2105=CARTESIAN_POINT('',(81.5224133595217,-48.7990381056767,51.));
#2106=CARTESIAN_POINT('',(80.7724133595217,-50.0980762113534,51.));
#2107=CARTESIAN_POINT('',(81.5224133595217,-48.7990381056767,67.5));
#2108=CARTESIAN_POINT('Origin',(75.4602355330306,-45.2990381056767,67.5));
#2109=CARTESIAN_POINT('',(69.3980577065395,-41.7990381056767,51.));
#2110=CARTESIAN_POINT('',(75.4602355330306,-45.2990381056767,51.));
#2111=CARTESIAN_POINT('',(69.3980577065395,-41.7990381056767,84.));
#2112=CARTESIAN_POINT('',(69.3980577065395,-41.7990381056767,67.5));
#2113=CARTESIAN_POINT('',(75.4602355330306,-45.2990381056767,84.));
#2114=CARTESIAN_POINT('Origin',(74.7102355330306,-46.5980762113534,84.));
#2115=CARTESIAN_POINT('',(67.8980577065395,-44.39711431703,84.));
#2116=CARTESIAN_POINT('',(68.6480577065395,-43.0980762113534,84.));
#2117=CARTESIAN_POINT('',(73.9602355330306,-47.89711431703,84.));
#2118=CARTESIAN_POINT('Origin',(74.7102355330306,-46.5980762113534,51.));
#2119=CARTESIAN_POINT('',(67.8980577065395,-44.39711431703,51.));
#2120=CARTESIAN_POINT('',(73.9602355330306,-47.89711431703,51.));
#2121=CARTESIAN_POINT('',(68.6480577065395,-43.0980762113534,51.));
#2122=CARTESIAN_POINT('Origin',(73.9602355330306,-47.89711431703,67.5));
#2123=CARTESIAN_POINT('',(67.8980577065395,-44.39711431703,67.5));
#2124=CARTESIAN_POINT('Origin',(68.6480577065395,-43.0980762113534,67.5));
#2125=CARTESIAN_POINT('',(0.,0.,0.));
#2126=CARTESIAN_POINT('',(0.,0.,0.));
#2127=CARTESIAN_POINT('',(0.,0.,0.));
#2128=UNCERTAINTY_MEASURE_WITH_UNIT(LENGTH_MEASURE(0.01),#2138,
'DISTANCE_ACCURACY_VALUE',
'Maximum model space distance between geometric entities at asserted c
onnectivities');
#2129=UNCERTAINTY_MEASURE_WITH_UNIT(LENGTH_MEASURE(0.01),#2138,
'DISTANCE_ACCURACY_VALUE',
'Maximum model space distance between geometric entities at asserted c
onnectivities');
#2130=UNCERTAINTY_MEASURE_WITH_UNIT(LENGTH_MEASURE(0.01),#2138,
'DISTANCE_ACCURACY_VALUE',
'Maximum model space distance between geometric entities at asserted c
onnectivities');
#2131=UNCERTAINTY_MEASURE_WITH_UNIT(LENGTH_MEASURE(0.01),#2138,
'DISTANCE_ACCURACY_VALUE',
'Maximum model space distance between geometric entities at asserted c
onnectivities');
#2132=UNCERTAINTY_MEASURE_WITH_UNIT(LENGTH_MEASURE(0.01),#2138,
'DISTANCE_ACCURACY_VALUE',
'Maximum model space distance between geometric entities at asserted c
onnectivities');
#2133=(
GEOMETRIC_REPRESENTATION_CONTEXT(3)
GLOBAL_UNCERTAINTY_ASSIGNED_CONTEXT((#2128))
GLOBAL_UNIT_ASSIGNED_CONTEXT((#2138,#2140,#2141))
REPRESENTATION_CONTEXT('','3D')
);
#2134=(
GEOMETRIC_REPRESENTATION_CONTEXT(3)
GLOBAL_UNCERTAINTY_ASSIGNED_CONTEXT((#2129))
GLOBAL_UNIT_ASSIGNED_CONTEXT((#2138,#2140,#2141))
REPRESENTATION_CONTEXT('','3D')
);
#2135=(
GEOMETRIC_REPRESENTATION_CONTEXT(3)
GLOBAL_UNCERTAINTY_ASSIGNED_CONTEXT((#2130))
GLOBAL_UNIT_ASSIGNED_CONTEXT((#2138,#2140,#2141))
REPRESENTATION_CONTEXT('','3D')
);
#2136=(
GEOMETRIC_REPRESENTATION_CONTEXT(3)
GLOBAL_UNCERTAINTY_ASSIGNED_CONTEXT((#2131))
GLOBAL_UNIT_ASSIGNED_CONTEXT((#2138,#2140,#2141))
REPRESENTATION_CONTEXT('','3D')
);
#2137=(
GEOMETRIC_REPRESENTATION_CONTEXT(3)
GLOBAL_UNCERTAINTY_ASSIGNED_CONTEXT((#2132))
GLOBAL_UNIT_ASSIGNED_CONTEXT((#2138,#2140,#2141))
REPRESENTATION_CONTEXT('','3D')
);
#2138=(
LENGTH_UNIT()
NAMED_UNIT(*)
SI_UNIT(.MILLI.,.METRE.)
);
#2139=(
LENGTH_UNIT()
NAMED_UNIT(*)
SI_UNIT($,.METRE.)
);
#2140=(
NAMED_UNIT(*)
PLANE_ANGLE_UNIT()
SI_UNIT($,.RADIAN.)
);
#2141=(
NAMED_UNIT(*)
SI_UNIT($,.STERADIAN.)
SOLID_ANGLE_UNIT()
);
#2142=SHAPE_DEFINITION_REPRESENTATION(#2146,#2153);
#2143=SHAPE_DEFINITION_REPRESENTATION(#2147,#2154);
#2144=SHAPE_DEFINITION_REPRESENTATION(#2148,#2155);
#2145=SHAPE_DEFINITION_REPRESENTATION(#2149,#2156);
#2146=PRODUCT_DEFINITION_SHAPE('',$,#2158);
#2147=PRODUCT_DEFINITION_SHAPE('',$,#2159);
#2148=PRODUCT_DEFINITION_SHAPE('',$,#2160);
#2149=PRODUCT_DEFINITION_SHAPE('',$,#2161);
#2150=PRODUCT_DEFINITION_SHAPE($,$,#20);
#2151=PRODUCT_DEFINITION_SHAPE($,$,#21);
#2152=PRODUCT_DEFINITION_SHAPE($,$,#22);
#2153=SHAPE_REPRESENTATION('',(#1308,#1420,#1421,#1422),#2133);
#2154=SHAPE_REPRESENTATION('',(#1309),#2134);
#2155=SHAPE_REPRESENTATION('',(#1346),#2135);
#2156=SHAPE_REPRESENTATION('',(#1383),#2136);
#2157=PRODUCT_DEFINITION_CONTEXT('part definition',#2171,'design');
#2158=PRODUCT_DEFINITION('04_LOWER_LMB10_JOINTS',
'04_LOWER_LMB10_JOINTS',#2162,#2157);
#2159=PRODUCT_DEFINITION('A1_LMB10','A1_LMB10',#2163,#2157);
#2160=PRODUCT_DEFINITION('A2_LMB10','A2_LMB10',#2164,#2157);
#2161=PRODUCT_DEFINITION('A3_LMB10','A3_LMB10',#2165,#2157);
#2162=PRODUCT_DEFINITION_FORMATION('',$,#2173);
#2163=PRODUCT_DEFINITION_FORMATION('',$,#2174);
#2164=PRODUCT_DEFINITION_FORMATION('',$,#2175);
#2165=PRODUCT_DEFINITION_FORMATION('',$,#2176);
#2166=PRODUCT_RELATED_PRODUCT_CATEGORY('04_LOWER_LMB10_JOINTS',
'04_LOWER_LMB10_JOINTS',(#2173));
#2167=PRODUCT_RELATED_PRODUCT_CATEGORY('A1_LMB10','A1_LMB10',(#2174));
#2168=PRODUCT_RELATED_PRODUCT_CATEGORY('A2_LMB10','A2_LMB10',(#2175));
#2169=PRODUCT_RELATED_PRODUCT_CATEGORY('A3_LMB10','A3_LMB10',(#2176));
#2170=APPLICATION_PROTOCOL_DEFINITION('international standard',
'automotive_design',2009,#2171);
#2171=APPLICATION_CONTEXT(
'Core Data for Automotive Mechanical Design Process');
#2172=PRODUCT_CONTEXT('part definition',#2171,'mechanical');
#2173=PRODUCT('04_LOWER_LMB10_JOINTS','04_LOWER_LMB10_JOINTS',$,(#2172));
#2174=PRODUCT('A1_LMB10','A1_LMB10',$,(#2172));
#2175=PRODUCT('A2_LMB10','A2_LMB10',$,(#2172));
#2176=PRODUCT('A3_LMB10','A3_LMB10',$,(#2172));
#2177=PRESENTATION_STYLE_ASSIGNMENT((#2179));
#2178=PRESENTATION_STYLE_ASSIGNMENT((#2180));
#2179=SURFACE_STYLE_USAGE(.BOTH.,#2181);
#2180=SURFACE_STYLE_USAGE(.BOTH.,#2182);
#2181=SURFACE_SIDE_STYLE('',(#2183));
#2182=SURFACE_SIDE_STYLE('',(#2184));
#2183=SURFACE_STYLE_FILL_AREA(#2185);
#2184=SURFACE_STYLE_FILL_AREA(#2186);
#2185=FILL_AREA_STYLE('\X2\AC15CCA0\X0\ - \X2\C0C8D2F4\X0\',(#2187));
#2186=FILL_AREA_STYLE('RevD_BRACKET',(#2188));
#2187=FILL_AREA_STYLE_COLOUR('\X2\AC15CCA0\X0\ - \X2\C0C8D2F4\X0\',#2189);
#2188=FILL_AREA_STYLE_COLOUR('RevD_BRACKET',#2190);
#2189=COLOUR_RGB('\X2\AC15CCA0\X0\ - \X2\C0C8D2F4\X0\',0.627450980392157,
0.627450980392157,0.627450980392157);
#2190=COLOUR_RGB('RevD_BRACKET',0.607843137254902,0.647058823529412,0.67843137254902);
ENDSEC;
END-ISO-10303-21;
