ISO-10303-21;
HEADER;
/* Generated by software containing ST-Developer
 * from STEP Tools, Inc. (www.steptools.com) 
 */

FILE_DESCRIPTION(
/* description */ (''),
/* implementation_level */ '2;1');

FILE_NAME(
/* name */ 'lower_adapters.step',
/* time_stamp */ '2026-09-02T22:43:43+09:00',
/* author */ (''),
/* organization */ (''),
/* preprocessor_version */ 'ST-DEVELOPER v20.1',
/* originating_system */ 'Autodesk Translation Framework v15.8.0.0',
/* authorisation */ '');

FILE_SCHEMA (('AUTOMOTIVE_DESIGN { 1 0 10303 214 3 1 1 }'));
ENDSEC;

DATA;
#10=MECHANICAL_DESIGN_GEOMETRIC_PRESENTATION_REPRESENTATION('',(#29,#30,
#31),#1021);
#11=ITEM_DEFINED_TRANSFORMATION($,$,#625,#682);
#12=ITEM_DEFINED_TRANSFORMATION($,$,#644,#683);
#13=ITEM_DEFINED_TRANSFORMATION($,$,#663,#684);
#14=(
REPRESENTATION_RELATIONSHIP($,$,#1038,#1037)
REPRESENTATION_RELATIONSHIP_WITH_TRANSFORMATION(#11)
SHAPE_REPRESENTATION_RELATIONSHIP()
);
#15=(
REPRESENTATION_RELATIONSHIP($,$,#1039,#1037)
REPRESENTATION_RELATIONSHIP_WITH_TRANSFORMATION(#12)
SHAPE_REPRESENTATION_RELATIONSHIP()
);
#16=(
REPRESENTATION_RELATIONSHIP($,$,#1040,#1037)
REPRESENTATION_RELATIONSHIP_WITH_TRANSFORMATION(#13)
SHAPE_REPRESENTATION_RELATIONSHIP()
);
#17=CONTEXT_DEPENDENT_SHAPE_REPRESENTATION(#14,#1034);
#18=CONTEXT_DEPENDENT_SHAPE_REPRESENTATION(#15,#1035);
#19=CONTEXT_DEPENDENT_SHAPE_REPRESENTATION(#16,#1036);
#20=NEXT_ASSEMBLY_USAGE_OCCURRENCE('A1_LMB_RADIAL_ADAPTER_120x70x8:1',
'A1_LMB_RADIAL_ADAPTER_120x70x8:1','A1_LMB_RADIAL_ADAPTER_120x70x8:1',#1042,
#1043,'A1_LMB_RADIAL_ADAPTER_120x70x8:1');
#21=NEXT_ASSEMBLY_USAGE_OCCURRENCE('A2_LMB_RADIAL_ADAPTER_120x70x8:1',
'A2_LMB_RADIAL_ADAPTER_120x70x8:1','A2_LMB_RADIAL_ADAPTER_120x70x8:1',#1042,
#1044,'A2_LMB_RADIAL_ADAPTER_120x70x8:1');
#22=NEXT_ASSEMBLY_USAGE_OCCURRENCE('A3_LMB_RADIAL_ADAPTER_120x70x8:1',
'A3_LMB_RADIAL_ADAPTER_120x70x8:1','A3_LMB_RADIAL_ADAPTER_120x70x8:1',#1042,
#1045,'A3_LMB_RADIAL_ADAPTER_120x70x8:1');
#23=SHAPE_REPRESENTATION_RELATIONSHIP('SRR','None',#1038,#26);
#24=SHAPE_REPRESENTATION_RELATIONSHIP('SRR','None',#1039,#27);
#25=SHAPE_REPRESENTATION_RELATIONSHIP('SRR','None',#1040,#28);
#26=ADVANCED_BREP_SHAPE_REPRESENTATION('',(#32),#1018);
#27=ADVANCED_BREP_SHAPE_REPRESENTATION('',(#33),#1019);
#28=ADVANCED_BREP_SHAPE_REPRESENTATION('',(#34),#1020);
#29=STYLED_ITEM('',(#1062),#32);
#30=STYLED_ITEM('',(#1062),#33);
#31=STYLED_ITEM('',(#1062),#34);
#32=MANIFOLD_SOLID_BREP('A1_LMB_RADIAL_ADAPTER_120x70x8_BODY',#587);
#33=MANIFOLD_SOLID_BREP('A2_LMB_RADIAL_ADAPTER_120x70x8_BODY',#588);
#34=MANIFOLD_SOLID_BREP('A3_LMB_RADIAL_ADAPTER_120x70x8_BODY',#589);
#35=FACE_BOUND('',#112,.T.);
#36=FACE_BOUND('',#113,.T.);
#37=FACE_BOUND('',#114,.T.);
#38=FACE_BOUND('',#115,.T.);
#39=FACE_BOUND('',#117,.T.);
#40=FACE_BOUND('',#118,.T.);
#41=FACE_BOUND('',#119,.T.);
#42=FACE_BOUND('',#120,.T.);
#43=FACE_BOUND('',#130,.T.);
#44=FACE_BOUND('',#131,.T.);
#45=FACE_BOUND('',#132,.T.);
#46=FACE_BOUND('',#133,.T.);
#47=FACE_BOUND('',#135,.T.);
#48=FACE_BOUND('',#136,.T.);
#49=FACE_BOUND('',#137,.T.);
#50=FACE_BOUND('',#138,.T.);
#51=FACE_BOUND('',#148,.T.);
#52=FACE_BOUND('',#149,.T.);
#53=FACE_BOUND('',#150,.T.);
#54=FACE_BOUND('',#151,.T.);
#55=FACE_BOUND('',#153,.T.);
#56=FACE_BOUND('',#154,.T.);
#57=FACE_BOUND('',#155,.T.);
#58=FACE_BOUND('',#156,.T.);
#59=PLANE('',#638);
#60=PLANE('',#639);
#61=PLANE('',#640);
#62=PLANE('',#641);
#63=PLANE('',#642);
#64=PLANE('',#643);
#65=PLANE('',#657);
#66=PLANE('',#658);
#67=PLANE('',#659);
#68=PLANE('',#660);
#69=PLANE('',#661);
#70=PLANE('',#662);
#71=PLANE('',#676);
#72=PLANE('',#677);
#73=PLANE('',#678);
#74=PLANE('',#679);
#75=PLANE('',#680);
#76=PLANE('',#681);
#77=FACE_OUTER_BOUND('',#107,.T.);
#78=FACE_OUTER_BOUND('',#108,.T.);
#79=FACE_OUTER_BOUND('',#109,.T.);
#80=FACE_OUTER_BOUND('',#110,.T.);
#81=FACE_OUTER_BOUND('',#111,.T.);
#82=FACE_OUTER_BOUND('',#116,.T.);
#83=FACE_OUTER_BOUND('',#121,.T.);
#84=FACE_OUTER_BOUND('',#122,.T.);
#85=FACE_OUTER_BOUND('',#123,.T.);
#86=FACE_OUTER_BOUND('',#124,.T.);
#87=FACE_OUTER_BOUND('',#125,.T.);
#88=FACE_OUTER_BOUND('',#126,.T.);
#89=FACE_OUTER_BOUND('',#127,.T.);
#90=FACE_OUTER_BOUND('',#128,.T.);
#91=FACE_OUTER_BOUND('',#129,.T.);
#92=FACE_OUTER_BOUND('',#134,.T.);
#93=FACE_OUTER_BOUND('',#139,.T.);
#94=FACE_OUTER_BOUND('',#140,.T.);
#95=FACE_OUTER_BOUND('',#141,.T.);
#96=FACE_OUTER_BOUND('',#142,.T.);
#97=FACE_OUTER_BOUND('',#143,.T.);
#98=FACE_OUTER_BOUND('',#144,.T.);
#99=FACE_OUTER_BOUND('',#145,.T.);
#100=FACE_OUTER_BOUND('',#146,.T.);
#101=FACE_OUTER_BOUND('',#147,.T.);
#102=FACE_OUTER_BOUND('',#152,.T.);
#103=FACE_OUTER_BOUND('',#157,.T.);
#104=FACE_OUTER_BOUND('',#158,.T.);
#105=FACE_OUTER_BOUND('',#159,.T.);
#106=FACE_OUTER_BOUND('',#160,.T.);
#107=EDGE_LOOP('',(#401,#402,#403,#404));
#108=EDGE_LOOP('',(#405,#406,#407,#408));
#109=EDGE_LOOP('',(#409,#410,#411,#412));
#110=EDGE_LOOP('',(#413,#414,#415,#416));
#111=EDGE_LOOP('',(#417,#418,#419,#420));
#112=EDGE_LOOP('',(#421));
#113=EDGE_LOOP('',(#422));
#114=EDGE_LOOP('',(#423));
#115=EDGE_LOOP('',(#424));
#116=EDGE_LOOP('',(#425,#426,#427,#428));
#117=EDGE_LOOP('',(#429));
#118=EDGE_LOOP('',(#430));
#119=EDGE_LOOP('',(#431));
#120=EDGE_LOOP('',(#432));
#121=EDGE_LOOP('',(#433,#434,#435,#436));
#122=EDGE_LOOP('',(#437,#438,#439,#440));
#123=EDGE_LOOP('',(#441,#442,#443,#444));
#124=EDGE_LOOP('',(#445,#446,#447,#448));
#125=EDGE_LOOP('',(#449,#450,#451,#452));
#126=EDGE_LOOP('',(#453,#454,#455,#456));
#127=EDGE_LOOP('',(#457,#458,#459,#460));
#128=EDGE_LOOP('',(#461,#462,#463,#464));
#129=EDGE_LOOP('',(#465,#466,#467,#468));
#130=EDGE_LOOP('',(#469));
#131=EDGE_LOOP('',(#470));
#132=EDGE_LOOP('',(#471));
#133=EDGE_LOOP('',(#472));
#134=EDGE_LOOP('',(#473,#474,#475,#476));
#135=EDGE_LOOP('',(#477));
#136=EDGE_LOOP('',(#478));
#137=EDGE_LOOP('',(#479));
#138=EDGE_LOOP('',(#480));
#139=EDGE_LOOP('',(#481,#482,#483,#484));
#140=EDGE_LOOP('',(#485,#486,#487,#488));
#141=EDGE_LOOP('',(#489,#490,#491,#492));
#142=EDGE_LOOP('',(#493,#494,#495,#496));
#143=EDGE_LOOP('',(#497,#498,#499,#500));
#144=EDGE_LOOP('',(#501,#502,#503,#504));
#145=EDGE_LOOP('',(#505,#506,#507,#508));
#146=EDGE_LOOP('',(#509,#510,#511,#512));
#147=EDGE_LOOP('',(#513,#514,#515,#516));
#148=EDGE_LOOP('',(#517));
#149=EDGE_LOOP('',(#518));
#150=EDGE_LOOP('',(#519));
#151=EDGE_LOOP('',(#520));
#152=EDGE_LOOP('',(#521,#522,#523,#524));
#153=EDGE_LOOP('',(#525));
#154=EDGE_LOOP('',(#526));
#155=EDGE_LOOP('',(#527));
#156=EDGE_LOOP('',(#528));
#157=EDGE_LOOP('',(#529,#530,#531,#532));
#158=EDGE_LOOP('',(#533,#534,#535,#536));
#159=EDGE_LOOP('',(#537,#538,#539,#540));
#160=EDGE_LOOP('',(#541,#542,#543,#544));
#161=LINE('',#861,#209);
#162=LINE('',#867,#210);
#163=LINE('',#873,#211);
#164=LINE('',#879,#212);
#165=LINE('',#884,#213);
#166=LINE('',#886,#214);
#167=LINE('',#888,#215);
#168=LINE('',#889,#216);
#169=LINE('',#893,#217);
#170=LINE('',#895,#218);
#171=LINE('',#897,#219);
#172=LINE('',#898,#220);
#173=LINE('',#900,#221);
#174=LINE('',#901,#222);
#175=LINE('',#903,#223);
#176=LINE('',#905,#224);
#177=LINE('',#912,#225);
#178=LINE('',#918,#226);
#179=LINE('',#924,#227);
#180=LINE('',#930,#228);
#181=LINE('',#935,#229);
#182=LINE('',#937,#230);
#183=LINE('',#939,#231);
#184=LINE('',#940,#232);
#185=LINE('',#944,#233);
#186=LINE('',#946,#234);
#187=LINE('',#948,#235);
#188=LINE('',#949,#236);
#189=LINE('',#951,#237);
#190=LINE('',#952,#238);
#191=LINE('',#954,#239);
#192=LINE('',#956,#240);
#193=LINE('',#963,#241);
#194=LINE('',#969,#242);
#195=LINE('',#975,#243);
#196=LINE('',#981,#244);
#197=LINE('',#986,#245);
#198=LINE('',#988,#246);
#199=LINE('',#990,#247);
#200=LINE('',#991,#248);
#201=LINE('',#995,#249);
#202=LINE('',#997,#250);
#203=LINE('',#999,#251);
#204=LINE('',#1000,#252);
#205=LINE('',#1002,#253);
#206=LINE('',#1003,#254);
#207=LINE('',#1005,#255);
#208=LINE('',#1007,#256);
#209=VECTOR('',#693,3.4);
#210=VECTOR('',#700,3.4);
#211=VECTOR('',#707,4.5);
#212=VECTOR('',#714,4.5);
#213=VECTOR('',#719,10.);
#214=VECTOR('',#720,10.);
#215=VECTOR('',#721,10.);
#216=VECTOR('',#722,10.);
#217=VECTOR('',#725,10.);
#218=VECTOR('',#726,10.);
#219=VECTOR('',#727,10.);
#220=VECTOR('',#728,10.);
#221=VECTOR('',#731,10.);
#222=VECTOR('',#732,10.);
#223=VECTOR('',#735,10.);
#224=VECTOR('',#738,10.);
#225=VECTOR('',#747,3.4);
#226=VECTOR('',#754,3.4);
#227=VECTOR('',#761,4.5);
#228=VECTOR('',#768,4.5);
#229=VECTOR('',#773,10.);
#230=VECTOR('',#774,10.);
#231=VECTOR('',#775,10.);
#232=VECTOR('',#776,10.);
#233=VECTOR('',#779,10.);
#234=VECTOR('',#780,10.);
#235=VECTOR('',#781,10.);
#236=VECTOR('',#782,10.);
#237=VECTOR('',#785,10.);
#238=VECTOR('',#786,10.);
#239=VECTOR('',#789,10.);
#240=VECTOR('',#792,10.);
#241=VECTOR('',#801,3.4);
#242=VECTOR('',#808,3.4);
#243=VECTOR('',#815,4.5);
#244=VECTOR('',#822,4.5);
#245=VECTOR('',#827,10.);
#246=VECTOR('',#828,10.);
#247=VECTOR('',#829,10.);
#248=VECTOR('',#830,10.);
#249=VECTOR('',#833,10.);
#250=VECTOR('',#834,10.);
#251=VECTOR('',#835,10.);
#252=VECTOR('',#836,10.);
#253=VECTOR('',#839,10.);
#254=VECTOR('',#840,10.);
#255=VECTOR('',#843,10.);
#256=VECTOR('',#846,10.);
#257=CIRCLE('',#627,3.4);
#258=CIRCLE('',#628,3.4);
#259=CIRCLE('',#630,3.4);
#260=CIRCLE('',#631,3.4);
#261=CIRCLE('',#633,4.5);
#262=CIRCLE('',#634,4.5);
#263=CIRCLE('',#636,4.5);
#264=CIRCLE('',#637,4.5);
#265=CIRCLE('',#646,3.4);
#266=CIRCLE('',#647,3.4);
#267=CIRCLE('',#649,3.4);
#268=CIRCLE('',#650,3.4);
#269=CIRCLE('',#652,4.5);
#270=CIRCLE('',#653,4.5);
#271=CIRCLE('',#655,4.5);
#272=CIRCLE('',#656,4.5);
#273=CIRCLE('',#665,3.4);
#274=CIRCLE('',#666,3.4);
#275=CIRCLE('',#668,3.4);
#276=CIRCLE('',#669,3.4);
#277=CIRCLE('',#671,4.5);
#278=CIRCLE('',#672,4.5);
#279=CIRCLE('',#674,4.5);
#280=CIRCLE('',#675,4.5);
#281=VERTEX_POINT('',#858);
#282=VERTEX_POINT('',#860);
#283=VERTEX_POINT('',#864);
#284=VERTEX_POINT('',#866);
#285=VERTEX_POINT('',#870);
#286=VERTEX_POINT('',#872);
#287=VERTEX_POINT('',#876);
#288=VERTEX_POINT('',#878);
#289=VERTEX_POINT('',#882);
#290=VERTEX_POINT('',#883);
#291=VERTEX_POINT('',#885);
#292=VERTEX_POINT('',#887);
#293=VERTEX_POINT('',#891);
#294=VERTEX_POINT('',#892);
#295=VERTEX_POINT('',#894);
#296=VERTEX_POINT('',#896);
#297=VERTEX_POINT('',#909);
#298=VERTEX_POINT('',#911);
#299=VERTEX_POINT('',#915);
#300=VERTEX_POINT('',#917);
#301=VERTEX_POINT('',#921);
#302=VERTEX_POINT('',#923);
#303=VERTEX_POINT('',#927);
#304=VERTEX_POINT('',#929);
#305=VERTEX_POINT('',#933);
#306=VERTEX_POINT('',#934);
#307=VERTEX_POINT('',#936);
#308=VERTEX_POINT('',#938);
#309=VERTEX_POINT('',#942);
#310=VERTEX_POINT('',#943);
#311=VERTEX_POINT('',#945);
#312=VERTEX_POINT('',#947);
#313=VERTEX_POINT('',#960);
#314=VERTEX_POINT('',#962);
#315=VERTEX_POINT('',#966);
#316=VERTEX_POINT('',#968);
#317=VERTEX_POINT('',#972);
#318=VERTEX_POINT('',#974);
#319=VERTEX_POINT('',#978);
#320=VERTEX_POINT('',#980);
#321=VERTEX_POINT('',#984);
#322=VERTEX_POINT('',#985);
#323=VERTEX_POINT('',#987);
#324=VERTEX_POINT('',#989);
#325=VERTEX_POINT('',#993);
#326=VERTEX_POINT('',#994);
#327=VERTEX_POINT('',#996);
#328=VERTEX_POINT('',#998);
#329=EDGE_CURVE('',#281,#281,#257,.T.);
#330=EDGE_CURVE('',#281,#282,#161,.T.);
#331=EDGE_CURVE('',#282,#282,#258,.T.);
#332=EDGE_CURVE('',#283,#283,#259,.T.);
#333=EDGE_CURVE('',#283,#284,#162,.T.);
#334=EDGE_CURVE('',#284,#284,#260,.T.);
#335=EDGE_CURVE('',#285,#285,#261,.T.);
#336=EDGE_CURVE('',#285,#286,#163,.T.);
#337=EDGE_CURVE('',#286,#286,#262,.T.);
#338=EDGE_CURVE('',#287,#287,#263,.T.);
#339=EDGE_CURVE('',#287,#288,#164,.T.);
#340=EDGE_CURVE('',#288,#288,#264,.T.);
#341=EDGE_CURVE('',#289,#290,#165,.T.);
#342=EDGE_CURVE('',#290,#291,#166,.T.);
#343=EDGE_CURVE('',#291,#292,#167,.T.);
#344=EDGE_CURVE('',#292,#289,#168,.T.);
#345=EDGE_CURVE('',#293,#294,#169,.T.);
#346=EDGE_CURVE('',#294,#295,#170,.T.);
#347=EDGE_CURVE('',#295,#296,#171,.T.);
#348=EDGE_CURVE('',#296,#293,#172,.T.);
#349=EDGE_CURVE('',#292,#295,#173,.T.);
#350=EDGE_CURVE('',#289,#294,#174,.T.);
#351=EDGE_CURVE('',#291,#296,#175,.T.);
#352=EDGE_CURVE('',#290,#293,#176,.T.);
#353=EDGE_CURVE('',#297,#297,#265,.T.);
#354=EDGE_CURVE('',#297,#298,#177,.T.);
#355=EDGE_CURVE('',#298,#298,#266,.T.);
#356=EDGE_CURVE('',#299,#299,#267,.T.);
#357=EDGE_CURVE('',#299,#300,#178,.T.);
#358=EDGE_CURVE('',#300,#300,#268,.T.);
#359=EDGE_CURVE('',#301,#301,#269,.T.);
#360=EDGE_CURVE('',#301,#302,#179,.T.);
#361=EDGE_CURVE('',#302,#302,#270,.T.);
#362=EDGE_CURVE('',#303,#303,#271,.T.);
#363=EDGE_CURVE('',#303,#304,#180,.T.);
#364=EDGE_CURVE('',#304,#304,#272,.T.);
#365=EDGE_CURVE('',#305,#306,#181,.T.);
#366=EDGE_CURVE('',#306,#307,#182,.T.);
#367=EDGE_CURVE('',#307,#308,#183,.T.);
#368=EDGE_CURVE('',#308,#305,#184,.T.);
#369=EDGE_CURVE('',#309,#310,#185,.T.);
#370=EDGE_CURVE('',#310,#311,#186,.T.);
#371=EDGE_CURVE('',#311,#312,#187,.T.);
#372=EDGE_CURVE('',#312,#309,#188,.T.);
#373=EDGE_CURVE('',#308,#311,#189,.T.);
#374=EDGE_CURVE('',#305,#310,#190,.T.);
#375=EDGE_CURVE('',#307,#312,#191,.T.);
#376=EDGE_CURVE('',#306,#309,#192,.T.);
#377=EDGE_CURVE('',#313,#313,#273,.T.);
#378=EDGE_CURVE('',#313,#314,#193,.T.);
#379=EDGE_CURVE('',#314,#314,#274,.T.);
#380=EDGE_CURVE('',#315,#315,#275,.T.);
#381=EDGE_CURVE('',#315,#316,#194,.T.);
#382=EDGE_CURVE('',#316,#316,#276,.T.);
#383=EDGE_CURVE('',#317,#317,#277,.T.);
#384=EDGE_CURVE('',#317,#318,#195,.T.);
#385=EDGE_CURVE('',#318,#318,#278,.T.);
#386=EDGE_CURVE('',#319,#319,#279,.T.);
#387=EDGE_CURVE('',#319,#320,#196,.T.);
#388=EDGE_CURVE('',#320,#320,#280,.T.);
#389=EDGE_CURVE('',#321,#322,#197,.T.);
#390=EDGE_CURVE('',#322,#323,#198,.T.);
#391=EDGE_CURVE('',#323,#324,#199,.T.);
#392=EDGE_CURVE('',#324,#321,#200,.T.);
#393=EDGE_CURVE('',#325,#326,#201,.T.);
#394=EDGE_CURVE('',#326,#327,#202,.T.);
#395=EDGE_CURVE('',#327,#328,#203,.T.);
#396=EDGE_CURVE('',#328,#325,#204,.T.);
#397=EDGE_CURVE('',#324,#327,#205,.T.);
#398=EDGE_CURVE('',#321,#326,#206,.T.);
#399=EDGE_CURVE('',#323,#328,#207,.T.);
#400=EDGE_CURVE('',#322,#325,#208,.T.);
#401=ORIENTED_EDGE('',*,*,#329,.F.);
#402=ORIENTED_EDGE('',*,*,#330,.T.);
#403=ORIENTED_EDGE('',*,*,#331,.F.);
#404=ORIENTED_EDGE('',*,*,#330,.F.);
#405=ORIENTED_EDGE('',*,*,#332,.F.);
#406=ORIENTED_EDGE('',*,*,#333,.T.);
#407=ORIENTED_EDGE('',*,*,#334,.F.);
#408=ORIENTED_EDGE('',*,*,#333,.F.);
#409=ORIENTED_EDGE('',*,*,#335,.F.);
#410=ORIENTED_EDGE('',*,*,#336,.T.);
#411=ORIENTED_EDGE('',*,*,#337,.F.);
#412=ORIENTED_EDGE('',*,*,#336,.F.);
#413=ORIENTED_EDGE('',*,*,#338,.F.);
#414=ORIENTED_EDGE('',*,*,#339,.T.);
#415=ORIENTED_EDGE('',*,*,#340,.F.);
#416=ORIENTED_EDGE('',*,*,#339,.F.);
#417=ORIENTED_EDGE('',*,*,#341,.T.);
#418=ORIENTED_EDGE('',*,*,#342,.T.);
#419=ORIENTED_EDGE('',*,*,#343,.T.);
#420=ORIENTED_EDGE('',*,*,#344,.T.);
#421=ORIENTED_EDGE('',*,*,#331,.T.);
#422=ORIENTED_EDGE('',*,*,#334,.T.);
#423=ORIENTED_EDGE('',*,*,#337,.T.);
#424=ORIENTED_EDGE('',*,*,#340,.T.);
#425=ORIENTED_EDGE('',*,*,#345,.T.);
#426=ORIENTED_EDGE('',*,*,#346,.T.);
#427=ORIENTED_EDGE('',*,*,#347,.T.);
#428=ORIENTED_EDGE('',*,*,#348,.T.);
#429=ORIENTED_EDGE('',*,*,#329,.T.);
#430=ORIENTED_EDGE('',*,*,#332,.T.);
#431=ORIENTED_EDGE('',*,*,#335,.T.);
#432=ORIENTED_EDGE('',*,*,#338,.T.);
#433=ORIENTED_EDGE('',*,*,#349,.T.);
#434=ORIENTED_EDGE('',*,*,#346,.F.);
#435=ORIENTED_EDGE('',*,*,#350,.F.);
#436=ORIENTED_EDGE('',*,*,#344,.F.);
#437=ORIENTED_EDGE('',*,*,#351,.T.);
#438=ORIENTED_EDGE('',*,*,#347,.F.);
#439=ORIENTED_EDGE('',*,*,#349,.F.);
#440=ORIENTED_EDGE('',*,*,#343,.F.);
#441=ORIENTED_EDGE('',*,*,#352,.T.);
#442=ORIENTED_EDGE('',*,*,#348,.F.);
#443=ORIENTED_EDGE('',*,*,#351,.F.);
#444=ORIENTED_EDGE('',*,*,#342,.F.);
#445=ORIENTED_EDGE('',*,*,#350,.T.);
#446=ORIENTED_EDGE('',*,*,#345,.F.);
#447=ORIENTED_EDGE('',*,*,#352,.F.);
#448=ORIENTED_EDGE('',*,*,#341,.F.);
#449=ORIENTED_EDGE('',*,*,#353,.F.);
#450=ORIENTED_EDGE('',*,*,#354,.T.);
#451=ORIENTED_EDGE('',*,*,#355,.F.);
#452=ORIENTED_EDGE('',*,*,#354,.F.);
#453=ORIENTED_EDGE('',*,*,#356,.F.);
#454=ORIENTED_EDGE('',*,*,#357,.T.);
#455=ORIENTED_EDGE('',*,*,#358,.F.);
#456=ORIENTED_EDGE('',*,*,#357,.F.);
#457=ORIENTED_EDGE('',*,*,#359,.F.);
#458=ORIENTED_EDGE('',*,*,#360,.T.);
#459=ORIENTED_EDGE('',*,*,#361,.F.);
#460=ORIENTED_EDGE('',*,*,#360,.F.);
#461=ORIENTED_EDGE('',*,*,#362,.F.);
#462=ORIENTED_EDGE('',*,*,#363,.T.);
#463=ORIENTED_EDGE('',*,*,#364,.F.);
#464=ORIENTED_EDGE('',*,*,#363,.F.);
#465=ORIENTED_EDGE('',*,*,#365,.T.);
#466=ORIENTED_EDGE('',*,*,#366,.T.);
#467=ORIENTED_EDGE('',*,*,#367,.T.);
#468=ORIENTED_EDGE('',*,*,#368,.T.);
#469=ORIENTED_EDGE('',*,*,#355,.T.);
#470=ORIENTED_EDGE('',*,*,#358,.T.);
#471=ORIENTED_EDGE('',*,*,#361,.T.);
#472=ORIENTED_EDGE('',*,*,#364,.T.);
#473=ORIENTED_EDGE('',*,*,#369,.T.);
#474=ORIENTED_EDGE('',*,*,#370,.T.);
#475=ORIENTED_EDGE('',*,*,#371,.T.);
#476=ORIENTED_EDGE('',*,*,#372,.T.);
#477=ORIENTED_EDGE('',*,*,#353,.T.);
#478=ORIENTED_EDGE('',*,*,#356,.T.);
#479=ORIENTED_EDGE('',*,*,#359,.T.);
#480=ORIENTED_EDGE('',*,*,#362,.T.);
#481=ORIENTED_EDGE('',*,*,#373,.T.);
#482=ORIENTED_EDGE('',*,*,#370,.F.);
#483=ORIENTED_EDGE('',*,*,#374,.F.);
#484=ORIENTED_EDGE('',*,*,#368,.F.);
#485=ORIENTED_EDGE('',*,*,#375,.T.);
#486=ORIENTED_EDGE('',*,*,#371,.F.);
#487=ORIENTED_EDGE('',*,*,#373,.F.);
#488=ORIENTED_EDGE('',*,*,#367,.F.);
#489=ORIENTED_EDGE('',*,*,#376,.T.);
#490=ORIENTED_EDGE('',*,*,#372,.F.);
#491=ORIENTED_EDGE('',*,*,#375,.F.);
#492=ORIENTED_EDGE('',*,*,#366,.F.);
#493=ORIENTED_EDGE('',*,*,#374,.T.);
#494=ORIENTED_EDGE('',*,*,#369,.F.);
#495=ORIENTED_EDGE('',*,*,#376,.F.);
#496=ORIENTED_EDGE('',*,*,#365,.F.);
#497=ORIENTED_EDGE('',*,*,#377,.F.);
#498=ORIENTED_EDGE('',*,*,#378,.T.);
#499=ORIENTED_EDGE('',*,*,#379,.F.);
#500=ORIENTED_EDGE('',*,*,#378,.F.);
#501=ORIENTED_EDGE('',*,*,#380,.F.);
#502=ORIENTED_EDGE('',*,*,#381,.T.);
#503=ORIENTED_EDGE('',*,*,#382,.F.);
#504=ORIENTED_EDGE('',*,*,#381,.F.);
#505=ORIENTED_EDGE('',*,*,#383,.F.);
#506=ORIENTED_EDGE('',*,*,#384,.T.);
#507=ORIENTED_EDGE('',*,*,#385,.F.);
#508=ORIENTED_EDGE('',*,*,#384,.F.);
#509=ORIENTED_EDGE('',*,*,#386,.F.);
#510=ORIENTED_EDGE('',*,*,#387,.T.);
#511=ORIENTED_EDGE('',*,*,#388,.F.);
#512=ORIENTED_EDGE('',*,*,#387,.F.);
#513=ORIENTED_EDGE('',*,*,#389,.T.);
#514=ORIENTED_EDGE('',*,*,#390,.T.);
#515=ORIENTED_EDGE('',*,*,#391,.T.);
#516=ORIENTED_EDGE('',*,*,#392,.T.);
#517=ORIENTED_EDGE('',*,*,#379,.T.);
#518=ORIENTED_EDGE('',*,*,#382,.T.);
#519=ORIENTED_EDGE('',*,*,#385,.T.);
#520=ORIENTED_EDGE('',*,*,#388,.T.);
#521=ORIENTED_EDGE('',*,*,#393,.T.);
#522=ORIENTED_EDGE('',*,*,#394,.T.);
#523=ORIENTED_EDGE('',*,*,#395,.T.);
#524=ORIENTED_EDGE('',*,*,#396,.T.);
#525=ORIENTED_EDGE('',*,*,#377,.T.);
#526=ORIENTED_EDGE('',*,*,#380,.T.);
#527=ORIENTED_EDGE('',*,*,#383,.T.);
#528=ORIENTED_EDGE('',*,*,#386,.T.);
#529=ORIENTED_EDGE('',*,*,#397,.T.);
#530=ORIENTED_EDGE('',*,*,#394,.F.);
#531=ORIENTED_EDGE('',*,*,#398,.F.);
#532=ORIENTED_EDGE('',*,*,#392,.F.);
#533=ORIENTED_EDGE('',*,*,#399,.T.);
#534=ORIENTED_EDGE('',*,*,#395,.F.);
#535=ORIENTED_EDGE('',*,*,#397,.F.);
#536=ORIENTED_EDGE('',*,*,#391,.F.);
#537=ORIENTED_EDGE('',*,*,#400,.T.);
#538=ORIENTED_EDGE('',*,*,#396,.F.);
#539=ORIENTED_EDGE('',*,*,#399,.F.);
#540=ORIENTED_EDGE('',*,*,#390,.F.);
#541=ORIENTED_EDGE('',*,*,#398,.T.);
#542=ORIENTED_EDGE('',*,*,#393,.F.);
#543=ORIENTED_EDGE('',*,*,#400,.F.);
#544=ORIENTED_EDGE('',*,*,#389,.F.);
#545=CYLINDRICAL_SURFACE('',#626,3.4);
#546=CYLINDRICAL_SURFACE('',#629,3.4);
#547=CYLINDRICAL_SURFACE('',#632,4.5);
#548=CYLINDRICAL_SURFACE('',#635,4.5);
#549=CYLINDRICAL_SURFACE('',#645,3.4);
#550=CYLINDRICAL_SURFACE('',#648,3.4);
#551=CYLINDRICAL_SURFACE('',#651,4.5);
#552=CYLINDRICAL_SURFACE('',#654,4.5);
#553=CYLINDRICAL_SURFACE('',#664,3.4);
#554=CYLINDRICAL_SURFACE('',#667,3.4);
#555=CYLINDRICAL_SURFACE('',#670,4.5);
#556=CYLINDRICAL_SURFACE('',#673,4.5);
#557=ADVANCED_FACE('',(#77),#545,.F.);
#558=ADVANCED_FACE('',(#78),#546,.F.);
#559=ADVANCED_FACE('',(#79),#547,.F.);
#560=ADVANCED_FACE('',(#80),#548,.F.);
#561=ADVANCED_FACE('',(#81,#35,#36,#37,#38),#59,.T.);
#562=ADVANCED_FACE('',(#82,#39,#40,#41,#42),#60,.F.);
#563=ADVANCED_FACE('',(#83),#61,.F.);
#564=ADVANCED_FACE('',(#84),#62,.F.);
#565=ADVANCED_FACE('',(#85),#63,.F.);
#566=ADVANCED_FACE('',(#86),#64,.F.);
#567=ADVANCED_FACE('',(#87),#549,.F.);
#568=ADVANCED_FACE('',(#88),#550,.F.);
#569=ADVANCED_FACE('',(#89),#551,.F.);
#570=ADVANCED_FACE('',(#90),#552,.F.);
#571=ADVANCED_FACE('',(#91,#43,#44,#45,#46),#65,.T.);
#572=ADVANCED_FACE('',(#92,#47,#48,#49,#50),#66,.F.);
#573=ADVANCED_FACE('',(#93),#67,.F.);
#574=ADVANCED_FACE('',(#94),#68,.F.);
#575=ADVANCED_FACE('',(#95),#69,.F.);
#576=ADVANCED_FACE('',(#96),#70,.F.);
#577=ADVANCED_FACE('',(#97),#553,.F.);
#578=ADVANCED_FACE('',(#98),#554,.F.);
#579=ADVANCED_FACE('',(#99),#555,.F.);
#580=ADVANCED_FACE('',(#100),#556,.F.);
#581=ADVANCED_FACE('',(#101,#51,#52,#53,#54),#71,.T.);
#582=ADVANCED_FACE('',(#102,#55,#56,#57,#58),#72,.F.);
#583=ADVANCED_FACE('',(#103),#73,.F.);
#584=ADVANCED_FACE('',(#104),#74,.F.);
#585=ADVANCED_FACE('',(#105),#75,.F.);
#586=ADVANCED_FACE('',(#106),#76,.F.);
#587=CLOSED_SHELL('',(#557,#558,#559,#560,#561,#562,#563,#564,#565,#566));
#588=CLOSED_SHELL('',(#567,#568,#569,#570,#571,#572,#573,#574,#575,#576));
#589=CLOSED_SHELL('',(#577,#578,#579,#580,#581,#582,#583,#584,#585,#586));
#590=DERIVED_UNIT_ELEMENT(#596,1.);
#591=DERIVED_UNIT_ELEMENT(#1023,-3.);
#592=DERIVED_UNIT_ELEMENT(#596,1.);
#593=DERIVED_UNIT_ELEMENT(#1023,-3.);
#594=DERIVED_UNIT_ELEMENT(#596,1.);
#595=DERIVED_UNIT_ELEMENT(#1023,-3.);
#596=(
MASS_UNIT()
NAMED_UNIT(*)
SI_UNIT(.KILO.,.GRAM.)
);
#597=DERIVED_UNIT((#590,#591));
#598=DERIVED_UNIT((#592,#593));
#599=DERIVED_UNIT((#594,#595));
#600=MEASURE_REPRESENTATION_ITEM('density measure',
POSITIVE_RATIO_MEASURE(7850.),#597);
#601=MEASURE_REPRESENTATION_ITEM('density measure',
POSITIVE_RATIO_MEASURE(7850.),#598);
#602=MEASURE_REPRESENTATION_ITEM('density measure',
POSITIVE_RATIO_MEASURE(7850.),#599);
#603=PROPERTY_DEFINITION_REPRESENTATION(#618,#609);
#604=PROPERTY_DEFINITION_REPRESENTATION(#619,#610);
#605=PROPERTY_DEFINITION_REPRESENTATION(#620,#611);
#606=PROPERTY_DEFINITION_REPRESENTATION(#621,#612);
#607=PROPERTY_DEFINITION_REPRESENTATION(#622,#613);
#608=PROPERTY_DEFINITION_REPRESENTATION(#623,#614);
#609=REPRESENTATION('material name',(#615),#1018);
#610=REPRESENTATION('density',(#600),#1018);
#611=REPRESENTATION('material name',(#616),#1019);
#612=REPRESENTATION('density',(#601),#1019);
#613=REPRESENTATION('material name',(#617),#1020);
#614=REPRESENTATION('density',(#602),#1020);
#615=DESCRIPTIVE_REPRESENTATION_ITEM('\X2\AC15CCA0\X0\','\X2\AC15CCA0\X0\');
#616=DESCRIPTIVE_REPRESENTATION_ITEM('\X2\AC15CCA0\X0\','\X2\AC15CCA0\X0\');
#617=DESCRIPTIVE_REPRESENTATION_ITEM('\X2\AC15CCA0\X0\','\X2\AC15CCA0\X0\');
#618=PROPERTY_DEFINITION('material property','material name',#1043);
#619=PROPERTY_DEFINITION('material property','density of part',#1043);
#620=PROPERTY_DEFINITION('material property','material name',#1044);
#621=PROPERTY_DEFINITION('material property','density of part',#1044);
#622=PROPERTY_DEFINITION('material property','material name',#1045);
#623=PROPERTY_DEFINITION('material property','density of part',#1045);
#624=AXIS2_PLACEMENT_3D('',#855,#685,#686);
#625=AXIS2_PLACEMENT_3D('',#856,#687,#688);
#626=AXIS2_PLACEMENT_3D('',#857,#689,#690);
#627=AXIS2_PLACEMENT_3D('',#859,#691,#692);
#628=AXIS2_PLACEMENT_3D('',#862,#694,#695);
#629=AXIS2_PLACEMENT_3D('',#863,#696,#697);
#630=AXIS2_PLACEMENT_3D('',#865,#698,#699);
#631=AXIS2_PLACEMENT_3D('',#868,#701,#702);
#632=AXIS2_PLACEMENT_3D('',#869,#703,#704);
#633=AXIS2_PLACEMENT_3D('',#871,#705,#706);
#634=AXIS2_PLACEMENT_3D('',#874,#708,#709);
#635=AXIS2_PLACEMENT_3D('',#875,#710,#711);
#636=AXIS2_PLACEMENT_3D('',#877,#712,#713);
#637=AXIS2_PLACEMENT_3D('',#880,#715,#716);
#638=AXIS2_PLACEMENT_3D('',#881,#717,#718);
#639=AXIS2_PLACEMENT_3D('',#890,#723,#724);
#640=AXIS2_PLACEMENT_3D('',#899,#729,#730);
#641=AXIS2_PLACEMENT_3D('',#902,#733,#734);
#642=AXIS2_PLACEMENT_3D('',#904,#736,#737);
#643=AXIS2_PLACEMENT_3D('',#906,#739,#740);
#644=AXIS2_PLACEMENT_3D('',#907,#741,#742);
#645=AXIS2_PLACEMENT_3D('',#908,#743,#744);
#646=AXIS2_PLACEMENT_3D('',#910,#745,#746);
#647=AXIS2_PLACEMENT_3D('',#913,#748,#749);
#648=AXIS2_PLACEMENT_3D('',#914,#750,#751);
#649=AXIS2_PLACEMENT_3D('',#916,#752,#753);
#650=AXIS2_PLACEMENT_3D('',#919,#755,#756);
#651=AXIS2_PLACEMENT_3D('',#920,#757,#758);
#652=AXIS2_PLACEMENT_3D('',#922,#759,#760);
#653=AXIS2_PLACEMENT_3D('',#925,#762,#763);
#654=AXIS2_PLACEMENT_3D('',#926,#764,#765);
#655=AXIS2_PLACEMENT_3D('',#928,#766,#767);
#656=AXIS2_PLACEMENT_3D('',#931,#769,#770);
#657=AXIS2_PLACEMENT_3D('',#932,#771,#772);
#658=AXIS2_PLACEMENT_3D('',#941,#777,#778);
#659=AXIS2_PLACEMENT_3D('',#950,#783,#784);
#660=AXIS2_PLACEMENT_3D('',#953,#787,#788);
#661=AXIS2_PLACEMENT_3D('',#955,#790,#791);
#662=AXIS2_PLACEMENT_3D('',#957,#793,#794);
#663=AXIS2_PLACEMENT_3D('',#958,#795,#796);
#664=AXIS2_PLACEMENT_3D('',#959,#797,#798);
#665=AXIS2_PLACEMENT_3D('',#961,#799,#800);
#666=AXIS2_PLACEMENT_3D('',#964,#802,#803);
#667=AXIS2_PLACEMENT_3D('',#965,#804,#805);
#668=AXIS2_PLACEMENT_3D('',#967,#806,#807);
#669=AXIS2_PLACEMENT_3D('',#970,#809,#810);
#670=AXIS2_PLACEMENT_3D('',#971,#811,#812);
#671=AXIS2_PLACEMENT_3D('',#973,#813,#814);
#672=AXIS2_PLACEMENT_3D('',#976,#816,#817);
#673=AXIS2_PLACEMENT_3D('',#977,#818,#819);
#674=AXIS2_PLACEMENT_3D('',#979,#820,#821);
#675=AXIS2_PLACEMENT_3D('',#982,#823,#824);
#676=AXIS2_PLACEMENT_3D('',#983,#825,#826);
#677=AXIS2_PLACEMENT_3D('',#992,#831,#832);
#678=AXIS2_PLACEMENT_3D('',#1001,#837,#838);
#679=AXIS2_PLACEMENT_3D('',#1004,#841,#842);
#680=AXIS2_PLACEMENT_3D('',#1006,#844,#845);
#681=AXIS2_PLACEMENT_3D('',#1008,#847,#848);
#682=AXIS2_PLACEMENT_3D('',#1009,#849,#850);
#683=AXIS2_PLACEMENT_3D('',#1010,#851,#852);
#684=AXIS2_PLACEMENT_3D('',#1011,#853,#854);
#685=DIRECTION('axis',(0.,0.,1.));
#686=DIRECTION('refdir',(1.,0.,0.));
#687=DIRECTION('axis',(0.,0.,1.));
#688=DIRECTION('refdir',(1.,0.,0.));
#689=DIRECTION('center_axis',(0.,0.,1.));
#690=DIRECTION('ref_axis',(1.,0.,0.));
#691=DIRECTION('center_axis',(0.,0.,1.));
#692=DIRECTION('ref_axis',(1.,0.,0.));
#693=DIRECTION('',(0.,0.,1.));
#694=DIRECTION('center_axis',(0.,0.,-1.));
#695=DIRECTION('ref_axis',(1.,0.,0.));
#696=DIRECTION('center_axis',(0.,0.,1.));
#697=DIRECTION('ref_axis',(1.,0.,0.));
#698=DIRECTION('center_axis',(0.,0.,1.));
#699=DIRECTION('ref_axis',(1.,0.,0.));
#700=DIRECTION('',(0.,0.,1.));
#701=DIRECTION('center_axis',(0.,0.,-1.));
#702=DIRECTION('ref_axis',(1.,0.,0.));
#703=DIRECTION('center_axis',(0.,0.,1.));
#704=DIRECTION('ref_axis',(1.,0.,0.));
#705=DIRECTION('center_axis',(0.,0.,1.));
#706=DIRECTION('ref_axis',(1.,0.,0.));
#707=DIRECTION('',(0.,0.,1.));
#708=DIRECTION('center_axis',(0.,0.,-1.));
#709=DIRECTION('ref_axis',(1.,0.,0.));
#710=DIRECTION('center_axis',(0.,0.,1.));
#711=DIRECTION('ref_axis',(1.,0.,0.));
#712=DIRECTION('center_axis',(0.,0.,1.));
#713=DIRECTION('ref_axis',(1.,0.,0.));
#714=DIRECTION('',(0.,0.,1.));
#715=DIRECTION('center_axis',(0.,0.,-1.));
#716=DIRECTION('ref_axis',(1.,0.,0.));
#717=DIRECTION('center_axis',(0.,0.,1.));
#718=DIRECTION('ref_axis',(1.,0.,0.));
#719=DIRECTION('',(0.,1.,0.));
#720=DIRECTION('',(-1.,0.,0.));
#721=DIRECTION('',(0.,-1.,0.));
#722=DIRECTION('',(1.,0.,0.));
#723=DIRECTION('center_axis',(0.,0.,1.));
#724=DIRECTION('ref_axis',(1.,0.,0.));
#725=DIRECTION('',(0.,-1.,0.));
#726=DIRECTION('',(-1.,0.,0.));
#727=DIRECTION('',(0.,1.,0.));
#728=DIRECTION('',(1.,0.,0.));
#729=DIRECTION('center_axis',(0.,1.,0.));
#730=DIRECTION('ref_axis',(0.,0.,1.));
#731=DIRECTION('',(0.,0.,-1.));
#732=DIRECTION('',(0.,0.,-1.));
#733=DIRECTION('center_axis',(1.,0.,0.));
#734=DIRECTION('ref_axis',(0.,0.,-1.));
#735=DIRECTION('',(0.,0.,-1.));
#736=DIRECTION('center_axis',(0.,-1.,0.));
#737=DIRECTION('ref_axis',(0.,0.,-1.));
#738=DIRECTION('',(0.,0.,-1.));
#739=DIRECTION('center_axis',(-1.,0.,0.));
#740=DIRECTION('ref_axis',(0.,0.,1.));
#741=DIRECTION('axis',(0.,0.,1.));
#742=DIRECTION('refdir',(1.,0.,0.));
#743=DIRECTION('center_axis',(0.,0.,1.));
#744=DIRECTION('ref_axis',(1.,0.,0.));
#745=DIRECTION('center_axis',(0.,0.,1.));
#746=DIRECTION('ref_axis',(1.,0.,0.));
#747=DIRECTION('',(0.,0.,1.));
#748=DIRECTION('center_axis',(0.,0.,-1.));
#749=DIRECTION('ref_axis',(1.,0.,0.));
#750=DIRECTION('center_axis',(0.,0.,1.));
#751=DIRECTION('ref_axis',(1.,0.,0.));
#752=DIRECTION('center_axis',(0.,0.,1.));
#753=DIRECTION('ref_axis',(1.,0.,0.));
#754=DIRECTION('',(0.,0.,1.));
#755=DIRECTION('center_axis',(0.,0.,-1.));
#756=DIRECTION('ref_axis',(1.,0.,0.));
#757=DIRECTION('center_axis',(0.,0.,1.));
#758=DIRECTION('ref_axis',(1.,0.,0.));
#759=DIRECTION('center_axis',(0.,0.,1.));
#760=DIRECTION('ref_axis',(1.,0.,0.));
#761=DIRECTION('',(0.,0.,1.));
#762=DIRECTION('center_axis',(0.,0.,-1.));
#763=DIRECTION('ref_axis',(1.,0.,0.));
#764=DIRECTION('center_axis',(0.,0.,1.));
#765=DIRECTION('ref_axis',(1.,0.,0.));
#766=DIRECTION('center_axis',(0.,0.,1.));
#767=DIRECTION('ref_axis',(1.,0.,0.));
#768=DIRECTION('',(0.,0.,1.));
#769=DIRECTION('center_axis',(0.,0.,-1.));
#770=DIRECTION('ref_axis',(1.,0.,0.));
#771=DIRECTION('center_axis',(0.,0.,1.));
#772=DIRECTION('ref_axis',(1.,0.,0.));
#773=DIRECTION('',(0.,1.,0.));
#774=DIRECTION('',(-1.,0.,0.));
#775=DIRECTION('',(0.,-1.,0.));
#776=DIRECTION('',(1.,0.,0.));
#777=DIRECTION('center_axis',(0.,0.,1.));
#778=DIRECTION('ref_axis',(1.,0.,0.));
#779=DIRECTION('',(0.,-1.,0.));
#780=DIRECTION('',(-1.,0.,0.));
#781=DIRECTION('',(0.,1.,0.));
#782=DIRECTION('',(1.,0.,0.));
#783=DIRECTION('center_axis',(0.,1.,0.));
#784=DIRECTION('ref_axis',(0.,0.,1.));
#785=DIRECTION('',(0.,0.,-1.));
#786=DIRECTION('',(0.,0.,-1.));
#787=DIRECTION('center_axis',(1.,0.,0.));
#788=DIRECTION('ref_axis',(0.,0.,-1.));
#789=DIRECTION('',(0.,0.,-1.));
#790=DIRECTION('center_axis',(0.,-1.,0.));
#791=DIRECTION('ref_axis',(0.,0.,-1.));
#792=DIRECTION('',(0.,0.,-1.));
#793=DIRECTION('center_axis',(-1.,0.,0.));
#794=DIRECTION('ref_axis',(0.,0.,1.));
#795=DIRECTION('axis',(0.,0.,1.));
#796=DIRECTION('refdir',(1.,0.,0.));
#797=DIRECTION('center_axis',(0.,0.,1.));
#798=DIRECTION('ref_axis',(1.,0.,0.));
#799=DIRECTION('center_axis',(0.,0.,1.));
#800=DIRECTION('ref_axis',(1.,0.,0.));
#801=DIRECTION('',(0.,0.,1.));
#802=DIRECTION('center_axis',(0.,0.,-1.));
#803=DIRECTION('ref_axis',(1.,0.,0.));
#804=DIRECTION('center_axis',(0.,0.,1.));
#805=DIRECTION('ref_axis',(1.,0.,0.));
#806=DIRECTION('center_axis',(0.,0.,1.));
#807=DIRECTION('ref_axis',(1.,0.,0.));
#808=DIRECTION('',(0.,0.,1.));
#809=DIRECTION('center_axis',(0.,0.,-1.));
#810=DIRECTION('ref_axis',(1.,0.,0.));
#811=DIRECTION('center_axis',(0.,0.,1.));
#812=DIRECTION('ref_axis',(1.,0.,0.));
#813=DIRECTION('center_axis',(0.,0.,1.));
#814=DIRECTION('ref_axis',(1.,0.,0.));
#815=DIRECTION('',(0.,0.,1.));
#816=DIRECTION('center_axis',(0.,0.,-1.));
#817=DIRECTION('ref_axis',(1.,0.,0.));
#818=DIRECTION('center_axis',(0.,0.,1.));
#819=DIRECTION('ref_axis',(1.,0.,0.));
#820=DIRECTION('center_axis',(0.,0.,1.));
#821=DIRECTION('ref_axis',(1.,0.,0.));
#822=DIRECTION('',(0.,0.,1.));
#823=DIRECTION('center_axis',(0.,0.,-1.));
#824=DIRECTION('ref_axis',(1.,0.,0.));
#825=DIRECTION('center_axis',(0.,0.,1.));
#826=DIRECTION('ref_axis',(1.,0.,0.));
#827=DIRECTION('',(0.,1.,0.));
#828=DIRECTION('',(-1.,0.,0.));
#829=DIRECTION('',(0.,-1.,0.));
#830=DIRECTION('',(1.,0.,0.));
#831=DIRECTION('center_axis',(0.,0.,1.));
#832=DIRECTION('ref_axis',(1.,0.,0.));
#833=DIRECTION('',(0.,-1.,0.));
#834=DIRECTION('',(-1.,0.,0.));
#835=DIRECTION('',(0.,1.,0.));
#836=DIRECTION('',(1.,0.,0.));
#837=DIRECTION('center_axis',(0.,1.,0.));
#838=DIRECTION('ref_axis',(0.,0.,1.));
#839=DIRECTION('',(0.,0.,-1.));
#840=DIRECTION('',(0.,0.,-1.));
#841=DIRECTION('center_axis',(1.,0.,0.));
#842=DIRECTION('ref_axis',(0.,0.,-1.));
#843=DIRECTION('',(0.,0.,-1.));
#844=DIRECTION('center_axis',(0.,-1.,0.));
#845=DIRECTION('ref_axis',(0.,0.,-1.));
#846=DIRECTION('',(0.,0.,-1.));
#847=DIRECTION('center_axis',(-1.,0.,0.));
#848=DIRECTION('ref_axis',(0.,0.,1.));
#849=DIRECTION('',(0.,0.,1.));
#850=DIRECTION('',(1.,0.,0.));
#851=DIRECTION('',(0.,0.,1.));
#852=DIRECTION('',(1.,0.,0.));
#853=DIRECTION('',(0.,0.,1.));
#854=DIRECTION('',(1.,0.,0.));
#855=CARTESIAN_POINT('',(0.,0.,0.));
#856=CARTESIAN_POINT('',(0.,0.,0.));
#857=CARTESIAN_POINT('Origin',(14.5,95.,44.));
#858=CARTESIAN_POINT('',(11.1,95.,40.));
#859=CARTESIAN_POINT('Origin',(14.5,95.,40.));
#860=CARTESIAN_POINT('',(11.1,95.,48.));
#861=CARTESIAN_POINT('',(11.1,95.,44.));
#862=CARTESIAN_POINT('Origin',(14.5,95.,48.));
#863=CARTESIAN_POINT('Origin',(14.5,59.,44.));
#864=CARTESIAN_POINT('',(11.1,59.,40.));
#865=CARTESIAN_POINT('Origin',(14.5,59.,40.));
#866=CARTESIAN_POINT('',(11.1,59.,48.));
#867=CARTESIAN_POINT('',(11.1,59.,44.));
#868=CARTESIAN_POINT('Origin',(14.5,59.,48.));
#869=CARTESIAN_POINT('Origin',(48.,95.,44.));
#870=CARTESIAN_POINT('',(43.5,95.,40.));
#871=CARTESIAN_POINT('Origin',(48.,95.,40.));
#872=CARTESIAN_POINT('',(43.5,95.,48.));
#873=CARTESIAN_POINT('',(43.5,95.,44.));
#874=CARTESIAN_POINT('Origin',(48.,95.,48.));
#875=CARTESIAN_POINT('Origin',(-48.,95.,44.));
#876=CARTESIAN_POINT('',(-52.5,95.,40.));
#877=CARTESIAN_POINT('Origin',(-48.,95.,40.));
#878=CARTESIAN_POINT('',(-52.5,95.,48.));
#879=CARTESIAN_POINT('',(-52.5,95.,44.));
#880=CARTESIAN_POINT('Origin',(-48.,95.,48.));
#881=CARTESIAN_POINT('Origin',(5.81707229594993E-15,83.,48.));
#882=CARTESIAN_POINT('',(60.,48.,48.));
#883=CARTESIAN_POINT('',(60.,118.,48.));
#884=CARTESIAN_POINT('',(60.,83.,48.));
#885=CARTESIAN_POINT('',(-60.,118.,48.));
#886=CARTESIAN_POINT('',(5.81707229594993E-15,118.,48.));
#887=CARTESIAN_POINT('',(-60.,48.,48.));
#888=CARTESIAN_POINT('',(-60.,83.,48.));
#889=CARTESIAN_POINT('',(5.81707229594993E-15,48.,48.));
#890=CARTESIAN_POINT('Origin',(5.81707229594993E-15,83.,40.));
#891=CARTESIAN_POINT('',(60.,118.,40.));
#892=CARTESIAN_POINT('',(60.,48.,40.));
#893=CARTESIAN_POINT('',(60.,83.,40.));
#894=CARTESIAN_POINT('',(-60.,48.,40.));
#895=CARTESIAN_POINT('',(5.81707229594993E-15,48.,40.));
#896=CARTESIAN_POINT('',(-60.,118.,40.));
#897=CARTESIAN_POINT('',(-60.,83.,40.));
#898=CARTESIAN_POINT('',(5.81707229594993E-15,118.,40.));
#899=CARTESIAN_POINT('Origin',(5.81707229594993E-15,48.,44.));
#900=CARTESIAN_POINT('',(-60.,48.,44.));
#901=CARTESIAN_POINT('',(60.,48.,44.));
#902=CARTESIAN_POINT('Origin',(-60.,83.,44.));
#903=CARTESIAN_POINT('',(-60.,118.,44.));
#904=CARTESIAN_POINT('Origin',(5.81707229594993E-15,118.,44.));
#905=CARTESIAN_POINT('',(60.,118.,44.));
#906=CARTESIAN_POINT('Origin',(60.,83.,44.));
#907=CARTESIAN_POINT('',(0.,0.,0.));
#908=CARTESIAN_POINT('Origin',(-89.5224133595217,-34.9426316451256,44.));
#909=CARTESIAN_POINT('',(-92.9224133595217,-34.9426316451256,40.));
#910=CARTESIAN_POINT('Origin',(-89.5224133595217,-34.9426316451256,40.));
#911=CARTESIAN_POINT('',(-92.9224133595217,-34.9426316451256,48.));
#912=CARTESIAN_POINT('',(-92.9224133595217,-34.9426316451256,44.));
#913=CARTESIAN_POINT('Origin',(-89.5224133595217,-34.9426316451256,48.));
#914=CARTESIAN_POINT('Origin',(-58.3454988232819,-16.9426316451256,44.));
#915=CARTESIAN_POINT('',(-61.7454988232819,-16.9426316451256,40.));
#916=CARTESIAN_POINT('Origin',(-58.3454988232819,-16.9426316451256,40.));
#917=CARTESIAN_POINT('',(-61.7454988232819,-16.9426316451256,48.));
#918=CARTESIAN_POINT('',(-61.7454988232819,-16.9426316451256,44.));
#919=CARTESIAN_POINT('Origin',(-58.3454988232819,-16.9426316451256,48.));
#920=CARTESIAN_POINT('Origin',(-34.2724133595217,-47.5,44.));
#921=CARTESIAN_POINT('',(-38.7724133595217,-47.5,40.));
#922=CARTESIAN_POINT('Origin',(-34.2724133595217,-47.5,40.));
#923=CARTESIAN_POINT('',(-38.7724133595217,-47.5,48.));
#924=CARTESIAN_POINT('',(-38.7724133595217,-47.5,44.));
#925=CARTESIAN_POINT('Origin',(-34.2724133595217,-47.5,48.));
#926=CARTESIAN_POINT('Origin',(-130.272413359522,-47.5,44.));
#927=CARTESIAN_POINT('',(-134.772413359522,-47.5,40.));
#928=CARTESIAN_POINT('Origin',(-130.272413359522,-47.5,40.));
#929=CARTESIAN_POINT('',(-134.772413359522,-47.5,48.));
#930=CARTESIAN_POINT('',(-134.772413359522,-47.5,44.));
#931=CARTESIAN_POINT('Origin',(-130.272413359522,-47.5,48.));
#932=CARTESIAN_POINT('Origin',(-82.2724133595217,-28.9426316451256,48.));
#933=CARTESIAN_POINT('',(-22.2724133595217,-63.9426316451256,48.));
#934=CARTESIAN_POINT('',(-22.2724133595217,6.05736835487436,48.));
#935=CARTESIAN_POINT('',(-22.2724133595217,-28.9426316451256,48.));
#936=CARTESIAN_POINT('',(-142.272413359522,6.05736835487436,48.));
#937=CARTESIAN_POINT('',(-82.2724133595217,6.05736835487436,48.));
#938=CARTESIAN_POINT('',(-142.272413359522,-63.9426316451256,48.));
#939=CARTESIAN_POINT('',(-142.272413359522,-28.9426316451256,48.));
#940=CARTESIAN_POINT('',(-82.2724133595217,-63.9426316451256,48.));
#941=CARTESIAN_POINT('Origin',(-82.2724133595217,-28.9426316451256,40.));
#942=CARTESIAN_POINT('',(-22.2724133595217,6.05736835487436,40.));
#943=CARTESIAN_POINT('',(-22.2724133595217,-63.9426316451256,40.));
#944=CARTESIAN_POINT('',(-22.2724133595217,-28.9426316451256,40.));
#945=CARTESIAN_POINT('',(-142.272413359522,-63.9426316451256,40.));
#946=CARTESIAN_POINT('',(-82.2724133595217,-63.9426316451256,40.));
#947=CARTESIAN_POINT('',(-142.272413359522,6.05736835487436,40.));
#948=CARTESIAN_POINT('',(-142.272413359522,-28.9426316451256,40.));
#949=CARTESIAN_POINT('',(-82.2724133595217,6.05736835487436,40.));
#950=CARTESIAN_POINT('Origin',(-82.2724133595217,-63.9426316451256,44.));
#951=CARTESIAN_POINT('',(-142.272413359522,-63.9426316451256,44.));
#952=CARTESIAN_POINT('',(-22.2724133595217,-63.9426316451256,44.));
#953=CARTESIAN_POINT('Origin',(-142.272413359522,-28.9426316451256,44.));
#954=CARTESIAN_POINT('',(-142.272413359522,6.05736835487436,44.));
#955=CARTESIAN_POINT('Origin',(-82.2724133595217,6.05736835487436,44.));
#956=CARTESIAN_POINT('',(-22.2724133595217,6.05736835487436,44.));
#957=CARTESIAN_POINT('Origin',(-22.2724133595217,-28.9426316451256,44.));
#958=CARTESIAN_POINT('',(0.,0.,0.));
#959=CARTESIAN_POINT('Origin',(75.0224133595217,-60.0573683548744,44.));
#960=CARTESIAN_POINT('',(71.6224133595217,-60.0573683548744,40.));
#961=CARTESIAN_POINT('Origin',(75.0224133595217,-60.0573683548744,40.));
#962=CARTESIAN_POINT('',(71.6224133595217,-60.0573683548744,48.));
#963=CARTESIAN_POINT('',(71.6224133595217,-60.0573683548744,44.));
#964=CARTESIAN_POINT('Origin',(75.0224133595217,-60.0573683548744,48.));
#965=CARTESIAN_POINT('Origin',(43.8454988232819,-42.0573683548744,44.));
#966=CARTESIAN_POINT('',(40.4454988232819,-42.0573683548744,40.));
#967=CARTESIAN_POINT('Origin',(43.8454988232819,-42.0573683548744,40.));
#968=CARTESIAN_POINT('',(40.4454988232819,-42.0573683548744,48.));
#969=CARTESIAN_POINT('',(40.4454988232819,-42.0573683548744,44.));
#970=CARTESIAN_POINT('Origin',(43.8454988232819,-42.0573683548744,48.));
#971=CARTESIAN_POINT('Origin',(112.272413359522,-47.5,44.));
#972=CARTESIAN_POINT('',(107.772413359522,-47.5,40.));
#973=CARTESIAN_POINT('Origin',(112.272413359522,-47.5,40.));
#974=CARTESIAN_POINT('',(107.772413359522,-47.5,48.));
#975=CARTESIAN_POINT('',(107.772413359522,-47.5,44.));
#976=CARTESIAN_POINT('Origin',(112.272413359522,-47.5,48.));
#977=CARTESIAN_POINT('Origin',(12.2724133595217,-47.5,44.));
#978=CARTESIAN_POINT('',(7.77241335952165,-47.5,40.));
#979=CARTESIAN_POINT('Origin',(12.2724133595217,-47.5,40.));
#980=CARTESIAN_POINT('',(7.77241335952165,-47.5,48.));
#981=CARTESIAN_POINT('',(7.77241335952165,-47.5,44.));
#982=CARTESIAN_POINT('Origin',(12.2724133595217,-47.5,48.));
#983=CARTESIAN_POINT('Origin',(62.2724133595217,-54.0573683548744,48.));
#984=CARTESIAN_POINT('',(122.272413359522,-89.0573683548744,48.));
#985=CARTESIAN_POINT('',(122.272413359522,-19.0573683548744,48.));
#986=CARTESIAN_POINT('',(122.272413359522,-54.0573683548744,48.));
#987=CARTESIAN_POINT('',(2.27241335952165,-19.0573683548744,48.));
#988=CARTESIAN_POINT('',(62.2724133595217,-19.0573683548744,48.));
#989=CARTESIAN_POINT('',(2.27241335952165,-89.0573683548744,48.));
#990=CARTESIAN_POINT('',(2.27241335952165,-54.0573683548744,48.));
#991=CARTESIAN_POINT('',(62.2724133595217,-89.0573683548744,48.));
#992=CARTESIAN_POINT('Origin',(62.2724133595217,-54.0573683548744,40.));
#993=CARTESIAN_POINT('',(122.272413359522,-19.0573683548744,40.));
#994=CARTESIAN_POINT('',(122.272413359522,-89.0573683548744,40.));
#995=CARTESIAN_POINT('',(122.272413359522,-54.0573683548744,40.));
#996=CARTESIAN_POINT('',(2.27241335952165,-89.0573683548744,40.));
#997=CARTESIAN_POINT('',(62.2724133595217,-89.0573683548744,40.));
#998=CARTESIAN_POINT('',(2.27241335952165,-19.0573683548744,40.));
#999=CARTESIAN_POINT('',(2.27241335952165,-54.0573683548744,40.));
#1000=CARTESIAN_POINT('',(62.2724133595217,-19.0573683548744,40.));
#1001=CARTESIAN_POINT('Origin',(62.2724133595217,-89.0573683548744,44.));
#1002=CARTESIAN_POINT('',(2.27241335952165,-89.0573683548744,44.));
#1003=CARTESIAN_POINT('',(122.272413359522,-89.0573683548744,44.));
#1004=CARTESIAN_POINT('Origin',(2.27241335952165,-54.0573683548744,44.));
#1005=CARTESIAN_POINT('',(2.27241335952165,-19.0573683548744,44.));
#1006=CARTESIAN_POINT('Origin',(62.2724133595217,-19.0573683548744,44.));
#1007=CARTESIAN_POINT('',(122.272413359522,-19.0573683548744,44.));
#1008=CARTESIAN_POINT('Origin',(122.272413359522,-54.0573683548744,44.));
#1009=CARTESIAN_POINT('',(0.,0.,0.));
#1010=CARTESIAN_POINT('',(0.,0.,0.));
#1011=CARTESIAN_POINT('',(0.,0.,0.));
#1012=UNCERTAINTY_MEASURE_WITH_UNIT(LENGTH_MEASURE(0.01),#1022,
'DISTANCE_ACCURACY_VALUE',
'Maximum model space distance between geometric entities at asserted c
onnectivities');
#1013=UNCERTAINTY_MEASURE_WITH_UNIT(LENGTH_MEASURE(0.01),#1022,
'DISTANCE_ACCURACY_VALUE',
'Maximum model space distance between geometric entities at asserted c
onnectivities');
#1014=UNCERTAINTY_MEASURE_WITH_UNIT(LENGTH_MEASURE(0.01),#1022,
'DISTANCE_ACCURACY_VALUE',
'Maximum model space distance between geometric entities at asserted c
onnectivities');
#1015=UNCERTAINTY_MEASURE_WITH_UNIT(LENGTH_MEASURE(0.01),#1022,
'DISTANCE_ACCURACY_VALUE',
'Maximum model space distance between geometric entities at asserted c
onnectivities');
#1016=UNCERTAINTY_MEASURE_WITH_UNIT(LENGTH_MEASURE(0.01),#1022,
'DISTANCE_ACCURACY_VALUE',
'Maximum model space distance between geometric entities at asserted c
onnectivities');
#1017=(
GEOMETRIC_REPRESENTATION_CONTEXT(3)
GLOBAL_UNCERTAINTY_ASSIGNED_CONTEXT((#1012))
GLOBAL_UNIT_ASSIGNED_CONTEXT((#1022,#1024,#1025))
REPRESENTATION_CONTEXT('','3D')
);
#1018=(
GEOMETRIC_REPRESENTATION_CONTEXT(3)
GLOBAL_UNCERTAINTY_ASSIGNED_CONTEXT((#1013))
GLOBAL_UNIT_ASSIGNED_CONTEXT((#1022,#1024,#1025))
REPRESENTATION_CONTEXT('','3D')
);
#1019=(
GEOMETRIC_REPRESENTATION_CONTEXT(3)
GLOBAL_UNCERTAINTY_ASSIGNED_CONTEXT((#1014))
GLOBAL_UNIT_ASSIGNED_CONTEXT((#1022,#1024,#1025))
REPRESENTATION_CONTEXT('','3D')
);
#1020=(
GEOMETRIC_REPRESENTATION_CONTEXT(3)
GLOBAL_UNCERTAINTY_ASSIGNED_CONTEXT((#1015))
GLOBAL_UNIT_ASSIGNED_CONTEXT((#1022,#1024,#1025))
REPRESENTATION_CONTEXT('','3D')
);
#1021=(
GEOMETRIC_REPRESENTATION_CONTEXT(3)
GLOBAL_UNCERTAINTY_ASSIGNED_CONTEXT((#1016))
GLOBAL_UNIT_ASSIGNED_CONTEXT((#1022,#1024,#1025))
REPRESENTATION_CONTEXT('','3D')
);
#1022=(
LENGTH_UNIT()
NAMED_UNIT(*)
SI_UNIT(.MILLI.,.METRE.)
);
#1023=(
LENGTH_UNIT()
NAMED_UNIT(*)
SI_UNIT($,.METRE.)
);
#1024=(
NAMED_UNIT(*)
PLANE_ANGLE_UNIT()
SI_UNIT($,.RADIAN.)
);
#1025=(
NAMED_UNIT(*)
SI_UNIT($,.STERADIAN.)
SOLID_ANGLE_UNIT()
);
#1026=SHAPE_DEFINITION_REPRESENTATION(#1030,#1037);
#1027=SHAPE_DEFINITION_REPRESENTATION(#1031,#1038);
#1028=SHAPE_DEFINITION_REPRESENTATION(#1032,#1039);
#1029=SHAPE_DEFINITION_REPRESENTATION(#1033,#1040);
#1030=PRODUCT_DEFINITION_SHAPE('',$,#1042);
#1031=PRODUCT_DEFINITION_SHAPE('',$,#1043);
#1032=PRODUCT_DEFINITION_SHAPE('',$,#1044);
#1033=PRODUCT_DEFINITION_SHAPE('',$,#1045);
#1034=PRODUCT_DEFINITION_SHAPE($,$,#20);
#1035=PRODUCT_DEFINITION_SHAPE($,$,#21);
#1036=PRODUCT_DEFINITION_SHAPE($,$,#22);
#1037=SHAPE_REPRESENTATION('',(#624,#682,#683,#684),#1017);
#1038=SHAPE_REPRESENTATION('',(#625),#1018);
#1039=SHAPE_REPRESENTATION('',(#644),#1019);
#1040=SHAPE_REPRESENTATION('',(#663),#1020);
#1041=PRODUCT_DEFINITION_CONTEXT('part definition',#1055,'design');
#1042=PRODUCT_DEFINITION('03_LMB_RADIAL_ADAPTER_BRACKETS',
'03_LMB_RADIAL_ADAPTER_BRACKETS',#1046,#1041);
#1043=PRODUCT_DEFINITION('A1_LMB_RADIAL_ADAPTER_120x70x8',
'A1_LMB_RADIAL_ADAPTER_120x70x8',#1047,#1041);
#1044=PRODUCT_DEFINITION('A2_LMB_RADIAL_ADAPTER_120x70x8',
'A2_LMB_RADIAL_ADAPTER_120x70x8',#1048,#1041);
#1045=PRODUCT_DEFINITION('A3_LMB_RADIAL_ADAPTER_120x70x8',
'A3_LMB_RADIAL_ADAPTER_120x70x8',#1049,#1041);
#1046=PRODUCT_DEFINITION_FORMATION('',$,#1057);
#1047=PRODUCT_DEFINITION_FORMATION('',$,#1058);
#1048=PRODUCT_DEFINITION_FORMATION('',$,#1059);
#1049=PRODUCT_DEFINITION_FORMATION('',$,#1060);
#1050=PRODUCT_RELATED_PRODUCT_CATEGORY('03_LMB_RADIAL_ADAPTER_BRACKETS',
'03_LMB_RADIAL_ADAPTER_BRACKETS',(#1057));
#1051=PRODUCT_RELATED_PRODUCT_CATEGORY('A1_LMB_RADIAL_ADAPTER_120x70x8',
'A1_LMB_RADIAL_ADAPTER_120x70x8',(#1058));
#1052=PRODUCT_RELATED_PRODUCT_CATEGORY('A2_LMB_RADIAL_ADAPTER_120x70x8',
'A2_LMB_RADIAL_ADAPTER_120x70x8',(#1059));
#1053=PRODUCT_RELATED_PRODUCT_CATEGORY('A3_LMB_RADIAL_ADAPTER_120x70x8',
'A3_LMB_RADIAL_ADAPTER_120x70x8',(#1060));
#1054=APPLICATION_PROTOCOL_DEFINITION('international standard',
'automotive_design',2009,#1055);
#1055=APPLICATION_CONTEXT(
'Core Data for Automotive Mechanical Design Process');
#1056=PRODUCT_CONTEXT('part definition',#1055,'mechanical');
#1057=PRODUCT('03_LMB_RADIAL_ADAPTER_BRACKETS',
'03_LMB_RADIAL_ADAPTER_BRACKETS',$,(#1056));
#1058=PRODUCT('A1_LMB_RADIAL_ADAPTER_120x70x8',
'A1_LMB_RADIAL_ADAPTER_120x70x8',$,(#1056));
#1059=PRODUCT('A2_LMB_RADIAL_ADAPTER_120x70x8',
'A2_LMB_RADIAL_ADAPTER_120x70x8',$,(#1056));
#1060=PRODUCT('A3_LMB_RADIAL_ADAPTER_120x70x8',
'A3_LMB_RADIAL_ADAPTER_120x70x8',$,(#1056));
#1061=PRESENTATION_STYLE_ASSIGNMENT((#1063));
#1062=PRESENTATION_STYLE_ASSIGNMENT((#1064));
#1063=SURFACE_STYLE_USAGE(.BOTH.,#1065);
#1064=SURFACE_STYLE_USAGE(.BOTH.,#1066);
#1065=SURFACE_SIDE_STYLE('',(#1067));
#1066=SURFACE_SIDE_STYLE('',(#1068));
#1067=SURFACE_STYLE_FILL_AREA(#1069);
#1068=SURFACE_STYLE_FILL_AREA(#1070);
#1069=FILL_AREA_STYLE('\X2\AC15CCA0\X0\ - \X2\C0C8D2F4\X0\',(#1071));
#1070=FILL_AREA_STYLE('RevD_ADAPTER',(#1072));
#1071=FILL_AREA_STYLE_COLOUR('\X2\AC15CCA0\X0\ - \X2\C0C8D2F4\X0\',#1073);
#1072=FILL_AREA_STYLE_COLOUR('RevD_ADAPTER',#1074);
#1073=COLOUR_RGB('\X2\AC15CCA0\X0\ - \X2\C0C8D2F4\X0\',0.627450980392157,
0.627450980392157,0.627450980392157);
#1074=COLOUR_RGB('RevD_ADAPTER',0.141176470588235,0.43921568627451,0.658823529411765);
ENDSEC;
END-ISO-10303-21;
