ISO-10303-21;
HEADER;
/* Generated by software containing ST-Developer
 * from STEP Tools, Inc. (www.steptools.com) 
 */

FILE_DESCRIPTION(
/* description */ (''),
/* implementation_level */ '2;1');

FILE_NAME(
/* name */ 'upper_joints.step',
/* time_stamp */ '2026-09-02T22:43:44+09:00',
/* author */ (''),
/* organization */ (''),
/* preprocessor_version */ 'ST-DEVELOPER v20.1',
/* originating_system */ 'Autodesk Translation Framework v15.8.0.0',
/* authorisation */ '');

FILE_SCHEMA (('AUTOMOTIVE_DESIGN { 1 0 10303 214 3 1 1 }'));
ENDSEC;

DATA;
#10=MECHANICAL_DESIGN_GEOMETRIC_PRESENTATION_REPRESENTATION('',(#29,#30,
#31,#32,#33,#34,#35,#36,#37),#955);
#11=ITEM_DEFINED_TRANSFORMATION($,$,#547,#625);
#12=ITEM_DEFINED_TRANSFORMATION($,$,#573,#626);
#13=ITEM_DEFINED_TRANSFORMATION($,$,#599,#627);
#14=(
REPRESENTATION_RELATIONSHIP($,$,#972,#971)
REPRESENTATION_RELATIONSHIP_WITH_TRANSFORMATION(#11)
SHAPE_REPRESENTATION_RELATIONSHIP()
);
#15=(
REPRESENTATION_RELATIONSHIP($,$,#973,#971)
REPRESENTATION_RELATIONSHIP_WITH_TRANSFORMATION(#12)
SHAPE_REPRESENTATION_RELATIONSHIP()
);
#16=(
REPRESENTATION_RELATIONSHIP($,$,#974,#971)
REPRESENTATION_RELATIONSHIP_WITH_TRANSFORMATION(#13)
SHAPE_REPRESENTATION_RELATIONSHIP()
);
#17=CONTEXT_DEPENDENT_SHAPE_REPRESENTATION(#14,#968);
#18=CONTEXT_DEPENDENT_SHAPE_REPRESENTATION(#15,#969);
#19=CONTEXT_DEPENDENT_SHAPE_REPRESENTATION(#16,#970);
#20=NEXT_ASSEMBLY_USAGE_OCCURRENCE('A1_PHS6_AND_JAM_NUT:1',
'A1_PHS6_AND_JAM_NUT:1','A1_PHS6_AND_JAM_NUT:1',#976,#977,
'A1_PHS6_AND_JAM_NUT:1');
#21=NEXT_ASSEMBLY_USAGE_OCCURRENCE('A2_PHS6_AND_JAM_NUT:1',
'A2_PHS6_AND_JAM_NUT:1','A2_PHS6_AND_JAM_NUT:1',#976,#978,
'A2_PHS6_AND_JAM_NUT:1');
#22=NEXT_ASSEMBLY_USAGE_OCCURRENCE('A3_PHS6_AND_JAM_NUT:1',
'A3_PHS6_AND_JAM_NUT:1','A3_PHS6_AND_JAM_NUT:1',#976,#979,
'A3_PHS6_AND_JAM_NUT:1');
#23=SHAPE_REPRESENTATION_RELATIONSHIP('SRR','None',#972,#26);
#24=SHAPE_REPRESENTATION_RELATIONSHIP('SRR','None',#973,#27);
#25=SHAPE_REPRESENTATION_RELATIONSHIP('SRR','None',#974,#28);
#26=ADVANCED_BREP_SHAPE_REPRESENTATION('',(#38,#39,#40),#952);
#27=ADVANCED_BREP_SHAPE_REPRESENTATION('',(#41,#42,#43),#953);
#28=ADVANCED_BREP_SHAPE_REPRESENTATION('',(#44,#45,#46),#954);
#29=STYLED_ITEM('',(#996),#38);
#30=STYLED_ITEM('',(#996),#39);
#31=STYLED_ITEM('',(#996),#40);
#32=STYLED_ITEM('',(#996),#41);
#33=STYLED_ITEM('',(#996),#42);
#34=STYLED_ITEM('',(#996),#43);
#35=STYLED_ITEM('',(#996),#44);
#36=STYLED_ITEM('',(#996),#45);
#37=STYLED_ITEM('',(#996),#46);
#38=MANIFOLD_SOLID_BREP('A1_PHS6_AND_JAM_NUT_BODY_01',#503);
#39=MANIFOLD_SOLID_BREP('A1_PHS6_AND_JAM_NUT_BODY_02',#504);
#40=MANIFOLD_SOLID_BREP('A1_PHS6_AND_JAM_NUT_BODY_03',#505);
#41=MANIFOLD_SOLID_BREP('A2_PHS6_AND_JAM_NUT_BODY_01',#506);
#42=MANIFOLD_SOLID_BREP('A2_PHS6_AND_JAM_NUT_BODY_02',#507);
#43=MANIFOLD_SOLID_BREP('A2_PHS6_AND_JAM_NUT_BODY_03',#508);
#44=MANIFOLD_SOLID_BREP('A3_PHS6_AND_JAM_NUT_BODY_01',#509);
#45=MANIFOLD_SOLID_BREP('A3_PHS6_AND_JAM_NUT_BODY_02',#510);
#46=MANIFOLD_SOLID_BREP('A3_PHS6_AND_JAM_NUT_BODY_03',#511);
#47=FACE_BOUND('',#125,.T.);
#48=FACE_BOUND('',#127,.T.);
#49=FACE_BOUND('',#133,.T.);
#50=FACE_BOUND('',#137,.T.);
#51=FACE_BOUND('',#139,.T.);
#52=FACE_BOUND('',#143,.T.);
#53=FACE_BOUND('',#145,.T.);
#54=FACE_BOUND('',#151,.T.);
#55=FACE_BOUND('',#155,.T.);
#56=FACE_BOUND('',#157,.T.);
#57=FACE_BOUND('',#161,.T.);
#58=FACE_BOUND('',#163,.T.);
#59=FACE_BOUND('',#169,.T.);
#60=FACE_BOUND('',#173,.T.);
#61=FACE_BOUND('',#175,.T.);
#62=PLANE('',#554);
#63=PLANE('',#555);
#64=PLANE('',#559);
#65=PLANE('',#563);
#66=PLANE('',#564);
#67=PLANE('',#571);
#68=PLANE('',#572);
#69=PLANE('',#580);
#70=PLANE('',#581);
#71=PLANE('',#585);
#72=PLANE('',#589);
#73=PLANE('',#590);
#74=PLANE('',#597);
#75=PLANE('',#598);
#76=PLANE('',#606);
#77=PLANE('',#607);
#78=PLANE('',#611);
#79=PLANE('',#615);
#80=PLANE('',#616);
#81=PLANE('',#623);
#82=PLANE('',#624);
#83=FACE_OUTER_BOUND('',#122,.T.);
#84=FACE_OUTER_BOUND('',#123,.T.);
#85=FACE_OUTER_BOUND('',#124,.T.);
#86=FACE_OUTER_BOUND('',#126,.T.);
#87=FACE_OUTER_BOUND('',#128,.T.);
#88=FACE_OUTER_BOUND('',#129,.T.);
#89=FACE_OUTER_BOUND('',#130,.T.);
#90=FACE_OUTER_BOUND('',#131,.T.);
#91=FACE_OUTER_BOUND('',#132,.T.);
#92=FACE_OUTER_BOUND('',#134,.T.);
#93=FACE_OUTER_BOUND('',#135,.T.);
#94=FACE_OUTER_BOUND('',#136,.T.);
#95=FACE_OUTER_BOUND('',#138,.T.);
#96=FACE_OUTER_BOUND('',#140,.T.);
#97=FACE_OUTER_BOUND('',#141,.T.);
#98=FACE_OUTER_BOUND('',#142,.T.);
#99=FACE_OUTER_BOUND('',#144,.T.);
#100=FACE_OUTER_BOUND('',#146,.T.);
#101=FACE_OUTER_BOUND('',#147,.T.);
#102=FACE_OUTER_BOUND('',#148,.T.);
#103=FACE_OUTER_BOUND('',#149,.T.);
#104=FACE_OUTER_BOUND('',#150,.T.);
#105=FACE_OUTER_BOUND('',#152,.T.);
#106=FACE_OUTER_BOUND('',#153,.T.);
#107=FACE_OUTER_BOUND('',#154,.T.);
#108=FACE_OUTER_BOUND('',#156,.T.);
#109=FACE_OUTER_BOUND('',#158,.T.);
#110=FACE_OUTER_BOUND('',#159,.T.);
#111=FACE_OUTER_BOUND('',#160,.T.);
#112=FACE_OUTER_BOUND('',#162,.T.);
#113=FACE_OUTER_BOUND('',#164,.T.);
#114=FACE_OUTER_BOUND('',#165,.T.);
#115=FACE_OUTER_BOUND('',#166,.T.);
#116=FACE_OUTER_BOUND('',#167,.T.);
#117=FACE_OUTER_BOUND('',#168,.T.);
#118=FACE_OUTER_BOUND('',#170,.T.);
#119=FACE_OUTER_BOUND('',#171,.T.);
#120=FACE_OUTER_BOUND('',#172,.T.);
#121=FACE_OUTER_BOUND('',#174,.T.);
#122=EDGE_LOOP('',(#338,#339,#340,#341));
#123=EDGE_LOOP('',(#342,#343,#344,#345));
#124=EDGE_LOOP('',(#346));
#125=EDGE_LOOP('',(#347));
#126=EDGE_LOOP('',(#348));
#127=EDGE_LOOP('',(#349));
#128=EDGE_LOOP('',(#350,#351,#352,#353));
#129=EDGE_LOOP('',(#354));
#130=EDGE_LOOP('',(#355,#356,#357,#358));
#131=EDGE_LOOP('',(#359));
#132=EDGE_LOOP('',(#360));
#133=EDGE_LOOP('',(#361));
#134=EDGE_LOOP('',(#362,#363,#364,#365));
#135=EDGE_LOOP('',(#366,#367,#368,#369));
#136=EDGE_LOOP('',(#370));
#137=EDGE_LOOP('',(#371));
#138=EDGE_LOOP('',(#372));
#139=EDGE_LOOP('',(#373));
#140=EDGE_LOOP('',(#374,#375,#376,#377));
#141=EDGE_LOOP('',(#378,#379,#380,#381));
#142=EDGE_LOOP('',(#382));
#143=EDGE_LOOP('',(#383));
#144=EDGE_LOOP('',(#384));
#145=EDGE_LOOP('',(#385));
#146=EDGE_LOOP('',(#386,#387,#388,#389));
#147=EDGE_LOOP('',(#390));
#148=EDGE_LOOP('',(#391,#392,#393,#394));
#149=EDGE_LOOP('',(#395));
#150=EDGE_LOOP('',(#396));
#151=EDGE_LOOP('',(#397));
#152=EDGE_LOOP('',(#398,#399,#400,#401));
#153=EDGE_LOOP('',(#402,#403,#404,#405));
#154=EDGE_LOOP('',(#406));
#155=EDGE_LOOP('',(#407));
#156=EDGE_LOOP('',(#408));
#157=EDGE_LOOP('',(#409));
#158=EDGE_LOOP('',(#410,#411,#412,#413));
#159=EDGE_LOOP('',(#414,#415,#416,#417));
#160=EDGE_LOOP('',(#418));
#161=EDGE_LOOP('',(#419));
#162=EDGE_LOOP('',(#420));
#163=EDGE_LOOP('',(#421));
#164=EDGE_LOOP('',(#422,#423,#424,#425));
#165=EDGE_LOOP('',(#426));
#166=EDGE_LOOP('',(#427,#428,#429,#430));
#167=EDGE_LOOP('',(#431));
#168=EDGE_LOOP('',(#432));
#169=EDGE_LOOP('',(#433));
#170=EDGE_LOOP('',(#434,#435,#436,#437));
#171=EDGE_LOOP('',(#438,#439,#440,#441));
#172=EDGE_LOOP('',(#442));
#173=EDGE_LOOP('',(#443));
#174=EDGE_LOOP('',(#444));
#175=EDGE_LOOP('',(#445));
#176=LINE('',#816,#194);
#177=LINE('',#822,#195);
#178=LINE('',#830,#196);
#179=LINE('',#837,#197);
#180=LINE('',#845,#198);
#181=LINE('',#851,#199);
#182=LINE('',#860,#200);
#183=LINE('',#866,#201);
#184=LINE('',#874,#202);
#185=LINE('',#881,#203);
#186=LINE('',#889,#204);
#187=LINE('',#895,#205);
#188=LINE('',#904,#206);
#189=LINE('',#910,#207);
#190=LINE('',#918,#208);
#191=LINE('',#925,#209);
#192=LINE('',#933,#210);
#193=LINE('',#939,#211);
#194=VECTOR('',#636,3.);
#195=VECTOR('',#643,9.);
#196=VECTOR('',#654,2.5);
#197=VECTOR('',#663,4.5);
#198=VECTOR('',#674,3.2);
#199=VECTOR('',#681,7.);
#200=VECTOR('',#694,3.);
#201=VECTOR('',#701,9.);
#202=VECTOR('',#712,2.5);
#203=VECTOR('',#721,4.5);
#204=VECTOR('',#732,3.2);
#205=VECTOR('',#739,7.);
#206=VECTOR('',#752,3.);
#207=VECTOR('',#759,9.);
#208=VECTOR('',#770,2.5);
#209=VECTOR('',#779,4.5);
#210=VECTOR('',#790,3.2);
#211=VECTOR('',#797,7.);
#212=CIRCLE('',#549,3.);
#213=CIRCLE('',#550,3.);
#214=CIRCLE('',#552,9.);
#215=CIRCLE('',#553,9.);
#216=CIRCLE('',#557,2.5);
#217=CIRCLE('',#558,2.5);
#218=CIRCLE('',#561,4.5);
#219=CIRCLE('',#562,4.5);
#220=CIRCLE('',#566,3.2);
#221=CIRCLE('',#567,3.2);
#222=CIRCLE('',#569,7.);
#223=CIRCLE('',#570,7.);
#224=CIRCLE('',#575,3.);
#225=CIRCLE('',#576,3.);
#226=CIRCLE('',#578,9.);
#227=CIRCLE('',#579,9.);
#228=CIRCLE('',#583,2.5);
#229=CIRCLE('',#584,2.5);
#230=CIRCLE('',#587,4.5);
#231=CIRCLE('',#588,4.5);
#232=CIRCLE('',#592,3.2);
#233=CIRCLE('',#593,3.2);
#234=CIRCLE('',#595,7.);
#235=CIRCLE('',#596,7.);
#236=CIRCLE('',#601,3.);
#237=CIRCLE('',#602,3.);
#238=CIRCLE('',#604,9.);
#239=CIRCLE('',#605,9.);
#240=CIRCLE('',#609,2.5);
#241=CIRCLE('',#610,2.5);
#242=CIRCLE('',#613,4.5);
#243=CIRCLE('',#614,4.5);
#244=CIRCLE('',#618,3.2);
#245=CIRCLE('',#619,3.2);
#246=CIRCLE('',#621,7.);
#247=CIRCLE('',#622,7.);
#248=VERTEX_POINT('',#813);
#249=VERTEX_POINT('',#815);
#250=VERTEX_POINT('',#819);
#251=VERTEX_POINT('',#821);
#252=VERTEX_POINT('',#827);
#253=VERTEX_POINT('',#829);
#254=VERTEX_POINT('',#834);
#255=VERTEX_POINT('',#836);
#256=VERTEX_POINT('',#842);
#257=VERTEX_POINT('',#844);
#258=VERTEX_POINT('',#848);
#259=VERTEX_POINT('',#850);
#260=VERTEX_POINT('',#857);
#261=VERTEX_POINT('',#859);
#262=VERTEX_POINT('',#863);
#263=VERTEX_POINT('',#865);
#264=VERTEX_POINT('',#871);
#265=VERTEX_POINT('',#873);
#266=VERTEX_POINT('',#878);
#267=VERTEX_POINT('',#880);
#268=VERTEX_POINT('',#886);
#269=VERTEX_POINT('',#888);
#270=VERTEX_POINT('',#892);
#271=VERTEX_POINT('',#894);
#272=VERTEX_POINT('',#901);
#273=VERTEX_POINT('',#903);
#274=VERTEX_POINT('',#907);
#275=VERTEX_POINT('',#909);
#276=VERTEX_POINT('',#915);
#277=VERTEX_POINT('',#917);
#278=VERTEX_POINT('',#922);
#279=VERTEX_POINT('',#924);
#280=VERTEX_POINT('',#930);
#281=VERTEX_POINT('',#932);
#282=VERTEX_POINT('',#936);
#283=VERTEX_POINT('',#938);
#284=EDGE_CURVE('',#248,#248,#212,.T.);
#285=EDGE_CURVE('',#248,#249,#176,.T.);
#286=EDGE_CURVE('',#249,#249,#213,.T.);
#287=EDGE_CURVE('',#250,#250,#214,.T.);
#288=EDGE_CURVE('',#250,#251,#177,.T.);
#289=EDGE_CURVE('',#251,#251,#215,.T.);
#290=EDGE_CURVE('',#252,#252,#216,.T.);
#291=EDGE_CURVE('',#252,#253,#178,.T.);
#292=EDGE_CURVE('',#253,#253,#217,.T.);
#293=EDGE_CURVE('',#254,#254,#218,.T.);
#294=EDGE_CURVE('',#254,#255,#179,.T.);
#295=EDGE_CURVE('',#255,#255,#219,.T.);
#296=EDGE_CURVE('',#256,#256,#220,.T.);
#297=EDGE_CURVE('',#256,#257,#180,.T.);
#298=EDGE_CURVE('',#257,#257,#221,.T.);
#299=EDGE_CURVE('',#258,#258,#222,.T.);
#300=EDGE_CURVE('',#258,#259,#181,.T.);
#301=EDGE_CURVE('',#259,#259,#223,.T.);
#302=EDGE_CURVE('',#260,#260,#224,.T.);
#303=EDGE_CURVE('',#260,#261,#182,.T.);
#304=EDGE_CURVE('',#261,#261,#225,.T.);
#305=EDGE_CURVE('',#262,#262,#226,.T.);
#306=EDGE_CURVE('',#262,#263,#183,.T.);
#307=EDGE_CURVE('',#263,#263,#227,.T.);
#308=EDGE_CURVE('',#264,#264,#228,.T.);
#309=EDGE_CURVE('',#264,#265,#184,.T.);
#310=EDGE_CURVE('',#265,#265,#229,.T.);
#311=EDGE_CURVE('',#266,#266,#230,.T.);
#312=EDGE_CURVE('',#266,#267,#185,.T.);
#313=EDGE_CURVE('',#267,#267,#231,.T.);
#314=EDGE_CURVE('',#268,#268,#232,.T.);
#315=EDGE_CURVE('',#268,#269,#186,.T.);
#316=EDGE_CURVE('',#269,#269,#233,.T.);
#317=EDGE_CURVE('',#270,#270,#234,.T.);
#318=EDGE_CURVE('',#270,#271,#187,.T.);
#319=EDGE_CURVE('',#271,#271,#235,.T.);
#320=EDGE_CURVE('',#272,#272,#236,.T.);
#321=EDGE_CURVE('',#272,#273,#188,.T.);
#322=EDGE_CURVE('',#273,#273,#237,.T.);
#323=EDGE_CURVE('',#274,#274,#238,.T.);
#324=EDGE_CURVE('',#274,#275,#189,.T.);
#325=EDGE_CURVE('',#275,#275,#239,.T.);
#326=EDGE_CURVE('',#276,#276,#240,.T.);
#327=EDGE_CURVE('',#276,#277,#190,.T.);
#328=EDGE_CURVE('',#277,#277,#241,.T.);
#329=EDGE_CURVE('',#278,#278,#242,.T.);
#330=EDGE_CURVE('',#278,#279,#191,.T.);
#331=EDGE_CURVE('',#279,#279,#243,.T.);
#332=EDGE_CURVE('',#280,#280,#244,.T.);
#333=EDGE_CURVE('',#280,#281,#192,.T.);
#334=EDGE_CURVE('',#281,#281,#245,.T.);
#335=EDGE_CURVE('',#282,#282,#246,.T.);
#336=EDGE_CURVE('',#282,#283,#193,.T.);
#337=EDGE_CURVE('',#283,#283,#247,.T.);
#338=ORIENTED_EDGE('',*,*,#284,.F.);
#339=ORIENTED_EDGE('',*,*,#285,.T.);
#340=ORIENTED_EDGE('',*,*,#286,.F.);
#341=ORIENTED_EDGE('',*,*,#285,.F.);
#342=ORIENTED_EDGE('',*,*,#287,.F.);
#343=ORIENTED_EDGE('',*,*,#288,.T.);
#344=ORIENTED_EDGE('',*,*,#289,.F.);
#345=ORIENTED_EDGE('',*,*,#288,.F.);
#346=ORIENTED_EDGE('',*,*,#289,.T.);
#347=ORIENTED_EDGE('',*,*,#284,.T.);
#348=ORIENTED_EDGE('',*,*,#287,.T.);
#349=ORIENTED_EDGE('',*,*,#286,.T.);
#350=ORIENTED_EDGE('',*,*,#290,.T.);
#351=ORIENTED_EDGE('',*,*,#291,.T.);
#352=ORIENTED_EDGE('',*,*,#292,.F.);
#353=ORIENTED_EDGE('',*,*,#291,.F.);
#354=ORIENTED_EDGE('',*,*,#290,.F.);
#355=ORIENTED_EDGE('',*,*,#293,.F.);
#356=ORIENTED_EDGE('',*,*,#294,.T.);
#357=ORIENTED_EDGE('',*,*,#295,.F.);
#358=ORIENTED_EDGE('',*,*,#294,.F.);
#359=ORIENTED_EDGE('',*,*,#295,.T.);
#360=ORIENTED_EDGE('',*,*,#293,.T.);
#361=ORIENTED_EDGE('',*,*,#292,.T.);
#362=ORIENTED_EDGE('',*,*,#296,.F.);
#363=ORIENTED_EDGE('',*,*,#297,.T.);
#364=ORIENTED_EDGE('',*,*,#298,.F.);
#365=ORIENTED_EDGE('',*,*,#297,.F.);
#366=ORIENTED_EDGE('',*,*,#299,.F.);
#367=ORIENTED_EDGE('',*,*,#300,.T.);
#368=ORIENTED_EDGE('',*,*,#301,.F.);
#369=ORIENTED_EDGE('',*,*,#300,.F.);
#370=ORIENTED_EDGE('',*,*,#301,.T.);
#371=ORIENTED_EDGE('',*,*,#296,.T.);
#372=ORIENTED_EDGE('',*,*,#299,.T.);
#373=ORIENTED_EDGE('',*,*,#298,.T.);
#374=ORIENTED_EDGE('',*,*,#302,.F.);
#375=ORIENTED_EDGE('',*,*,#303,.T.);
#376=ORIENTED_EDGE('',*,*,#304,.F.);
#377=ORIENTED_EDGE('',*,*,#303,.F.);
#378=ORIENTED_EDGE('',*,*,#305,.F.);
#379=ORIENTED_EDGE('',*,*,#306,.T.);
#380=ORIENTED_EDGE('',*,*,#307,.F.);
#381=ORIENTED_EDGE('',*,*,#306,.F.);
#382=ORIENTED_EDGE('',*,*,#307,.T.);
#383=ORIENTED_EDGE('',*,*,#302,.T.);
#384=ORIENTED_EDGE('',*,*,#305,.T.);
#385=ORIENTED_EDGE('',*,*,#304,.T.);
#386=ORIENTED_EDGE('',*,*,#308,.T.);
#387=ORIENTED_EDGE('',*,*,#309,.T.);
#388=ORIENTED_EDGE('',*,*,#310,.F.);
#389=ORIENTED_EDGE('',*,*,#309,.F.);
#390=ORIENTED_EDGE('',*,*,#308,.F.);
#391=ORIENTED_EDGE('',*,*,#311,.F.);
#392=ORIENTED_EDGE('',*,*,#312,.T.);
#393=ORIENTED_EDGE('',*,*,#313,.F.);
#394=ORIENTED_EDGE('',*,*,#312,.F.);
#395=ORIENTED_EDGE('',*,*,#313,.T.);
#396=ORIENTED_EDGE('',*,*,#311,.T.);
#397=ORIENTED_EDGE('',*,*,#310,.T.);
#398=ORIENTED_EDGE('',*,*,#314,.F.);
#399=ORIENTED_EDGE('',*,*,#315,.T.);
#400=ORIENTED_EDGE('',*,*,#316,.F.);
#401=ORIENTED_EDGE('',*,*,#315,.F.);
#402=ORIENTED_EDGE('',*,*,#317,.F.);
#403=ORIENTED_EDGE('',*,*,#318,.T.);
#404=ORIENTED_EDGE('',*,*,#319,.F.);
#405=ORIENTED_EDGE('',*,*,#318,.F.);
#406=ORIENTED_EDGE('',*,*,#319,.T.);
#407=ORIENTED_EDGE('',*,*,#314,.T.);
#408=ORIENTED_EDGE('',*,*,#317,.T.);
#409=ORIENTED_EDGE('',*,*,#316,.T.);
#410=ORIENTED_EDGE('',*,*,#320,.F.);
#411=ORIENTED_EDGE('',*,*,#321,.T.);
#412=ORIENTED_EDGE('',*,*,#322,.F.);
#413=ORIENTED_EDGE('',*,*,#321,.F.);
#414=ORIENTED_EDGE('',*,*,#323,.F.);
#415=ORIENTED_EDGE('',*,*,#324,.T.);
#416=ORIENTED_EDGE('',*,*,#325,.F.);
#417=ORIENTED_EDGE('',*,*,#324,.F.);
#418=ORIENTED_EDGE('',*,*,#325,.T.);
#419=ORIENTED_EDGE('',*,*,#320,.T.);
#420=ORIENTED_EDGE('',*,*,#323,.T.);
#421=ORIENTED_EDGE('',*,*,#322,.T.);
#422=ORIENTED_EDGE('',*,*,#326,.T.);
#423=ORIENTED_EDGE('',*,*,#327,.T.);
#424=ORIENTED_EDGE('',*,*,#328,.F.);
#425=ORIENTED_EDGE('',*,*,#327,.F.);
#426=ORIENTED_EDGE('',*,*,#326,.F.);
#427=ORIENTED_EDGE('',*,*,#329,.F.);
#428=ORIENTED_EDGE('',*,*,#330,.T.);
#429=ORIENTED_EDGE('',*,*,#331,.F.);
#430=ORIENTED_EDGE('',*,*,#330,.F.);
#431=ORIENTED_EDGE('',*,*,#331,.T.);
#432=ORIENTED_EDGE('',*,*,#329,.T.);
#433=ORIENTED_EDGE('',*,*,#328,.T.);
#434=ORIENTED_EDGE('',*,*,#332,.F.);
#435=ORIENTED_EDGE('',*,*,#333,.T.);
#436=ORIENTED_EDGE('',*,*,#334,.F.);
#437=ORIENTED_EDGE('',*,*,#333,.F.);
#438=ORIENTED_EDGE('',*,*,#335,.F.);
#439=ORIENTED_EDGE('',*,*,#336,.T.);
#440=ORIENTED_EDGE('',*,*,#337,.F.);
#441=ORIENTED_EDGE('',*,*,#336,.F.);
#442=ORIENTED_EDGE('',*,*,#337,.T.);
#443=ORIENTED_EDGE('',*,*,#332,.T.);
#444=ORIENTED_EDGE('',*,*,#335,.T.);
#445=ORIENTED_EDGE('',*,*,#334,.T.);
#446=CYLINDRICAL_SURFACE('',#548,3.);
#447=CYLINDRICAL_SURFACE('',#551,9.);
#448=CYLINDRICAL_SURFACE('',#556,2.5);
#449=CYLINDRICAL_SURFACE('',#560,4.5);
#450=CYLINDRICAL_SURFACE('',#565,3.2);
#451=CYLINDRICAL_SURFACE('',#568,7.);
#452=CYLINDRICAL_SURFACE('',#574,3.);
#453=CYLINDRICAL_SURFACE('',#577,9.);
#454=CYLINDRICAL_SURFACE('',#582,2.5);
#455=CYLINDRICAL_SURFACE('',#586,4.5);
#456=CYLINDRICAL_SURFACE('',#591,3.2);
#457=CYLINDRICAL_SURFACE('',#594,7.);
#458=CYLINDRICAL_SURFACE('',#600,3.);
#459=CYLINDRICAL_SURFACE('',#603,9.);
#460=CYLINDRICAL_SURFACE('',#608,2.5);
#461=CYLINDRICAL_SURFACE('',#612,4.5);
#462=CYLINDRICAL_SURFACE('',#617,3.2);
#463=CYLINDRICAL_SURFACE('',#620,7.);
#464=ADVANCED_FACE('',(#83),#446,.F.);
#465=ADVANCED_FACE('',(#84),#447,.T.);
#466=ADVANCED_FACE('',(#85,#47),#62,.T.);
#467=ADVANCED_FACE('',(#86,#48),#63,.T.);
#468=ADVANCED_FACE('',(#87),#448,.F.);
#469=ADVANCED_FACE('',(#88),#64,.F.);
#470=ADVANCED_FACE('',(#89),#449,.T.);
#471=ADVANCED_FACE('',(#90),#65,.T.);
#472=ADVANCED_FACE('',(#91,#49),#66,.T.);
#473=ADVANCED_FACE('',(#92),#450,.F.);
#474=ADVANCED_FACE('',(#93),#451,.T.);
#475=ADVANCED_FACE('',(#94,#50),#67,.T.);
#476=ADVANCED_FACE('',(#95,#51),#68,.T.);
#477=ADVANCED_FACE('',(#96),#452,.F.);
#478=ADVANCED_FACE('',(#97),#453,.T.);
#479=ADVANCED_FACE('',(#98,#52),#69,.T.);
#480=ADVANCED_FACE('',(#99,#53),#70,.T.);
#481=ADVANCED_FACE('',(#100),#454,.F.);
#482=ADVANCED_FACE('',(#101),#71,.F.);
#483=ADVANCED_FACE('',(#102),#455,.T.);
#484=ADVANCED_FACE('',(#103),#72,.T.);
#485=ADVANCED_FACE('',(#104,#54),#73,.T.);
#486=ADVANCED_FACE('',(#105),#456,.F.);
#487=ADVANCED_FACE('',(#106),#457,.T.);
#488=ADVANCED_FACE('',(#107,#55),#74,.T.);
#489=ADVANCED_FACE('',(#108,#56),#75,.T.);
#490=ADVANCED_FACE('',(#109),#458,.F.);
#491=ADVANCED_FACE('',(#110),#459,.T.);
#492=ADVANCED_FACE('',(#111,#57),#76,.T.);
#493=ADVANCED_FACE('',(#112,#58),#77,.T.);
#494=ADVANCED_FACE('',(#113),#460,.F.);
#495=ADVANCED_FACE('',(#114),#78,.F.);
#496=ADVANCED_FACE('',(#115),#461,.T.);
#497=ADVANCED_FACE('',(#116),#79,.T.);
#498=ADVANCED_FACE('',(#117,#59),#80,.T.);
#499=ADVANCED_FACE('',(#118),#462,.F.);
#500=ADVANCED_FACE('',(#119),#463,.T.);
#501=ADVANCED_FACE('',(#120,#60),#81,.T.);
#502=ADVANCED_FACE('',(#121,#61),#82,.T.);
#503=CLOSED_SHELL('',(#464,#465,#466,#467));
#504=CLOSED_SHELL('',(#468,#469,#470,#471,#472));
#505=CLOSED_SHELL('',(#473,#474,#475,#476));
#506=CLOSED_SHELL('',(#477,#478,#479,#480));
#507=CLOSED_SHELL('',(#481,#482,#483,#484,#485));
#508=CLOSED_SHELL('',(#486,#487,#488,#489));
#509=CLOSED_SHELL('',(#490,#491,#492,#493));
#510=CLOSED_SHELL('',(#494,#495,#496,#497,#498));
#511=CLOSED_SHELL('',(#499,#500,#501,#502));
#512=DERIVED_UNIT_ELEMENT(#518,1.);
#513=DERIVED_UNIT_ELEMENT(#957,-3.);
#514=DERIVED_UNIT_ELEMENT(#518,1.);
#515=DERIVED_UNIT_ELEMENT(#957,-3.);
#516=DERIVED_UNIT_ELEMENT(#518,1.);
#517=DERIVED_UNIT_ELEMENT(#957,-3.);
#518=(
MASS_UNIT()
NAMED_UNIT(*)
SI_UNIT(.KILO.,.GRAM.)
);
#519=DERIVED_UNIT((#512,#513));
#520=DERIVED_UNIT((#514,#515));
#521=DERIVED_UNIT((#516,#517));
#522=MEASURE_REPRESENTATION_ITEM('density measure',
POSITIVE_RATIO_MEASURE(7850.),#519);
#523=MEASURE_REPRESENTATION_ITEM('density measure',
POSITIVE_RATIO_MEASURE(7850.),#520);
#524=MEASURE_REPRESENTATION_ITEM('density measure',
POSITIVE_RATIO_MEASURE(7850.),#521);
#525=PROPERTY_DEFINITION_REPRESENTATION(#540,#531);
#526=PROPERTY_DEFINITION_REPRESENTATION(#541,#532);
#527=PROPERTY_DEFINITION_REPRESENTATION(#542,#533);
#528=PROPERTY_DEFINITION_REPRESENTATION(#543,#534);
#529=PROPERTY_DEFINITION_REPRESENTATION(#544,#535);
#530=PROPERTY_DEFINITION_REPRESENTATION(#545,#536);
#531=REPRESENTATION('material name',(#537),#952);
#532=REPRESENTATION('density',(#522),#952);
#533=REPRESENTATION('material name',(#538),#953);
#534=REPRESENTATION('density',(#523),#953);
#535=REPRESENTATION('material name',(#539),#954);
#536=REPRESENTATION('density',(#524),#954);
#537=DESCRIPTIVE_REPRESENTATION_ITEM('\X2\AC15CCA0\X0\','\X2\AC15CCA0\X0\');
#538=DESCRIPTIVE_REPRESENTATION_ITEM('\X2\AC15CCA0\X0\','\X2\AC15CCA0\X0\');
#539=DESCRIPTIVE_REPRESENTATION_ITEM('\X2\AC15CCA0\X0\','\X2\AC15CCA0\X0\');
#540=PROPERTY_DEFINITION('material property','material name',#977);
#541=PROPERTY_DEFINITION('material property','density of part',#977);
#542=PROPERTY_DEFINITION('material property','material name',#978);
#543=PROPERTY_DEFINITION('material property','density of part',#978);
#544=PROPERTY_DEFINITION('material property','material name',#979);
#545=PROPERTY_DEFINITION('material property','density of part',#979);
#546=AXIS2_PLACEMENT_3D('',#810,#628,#629);
#547=AXIS2_PLACEMENT_3D('',#811,#630,#631);
#548=AXIS2_PLACEMENT_3D('',#812,#632,#633);
#549=AXIS2_PLACEMENT_3D('',#814,#634,#635);
#550=AXIS2_PLACEMENT_3D('',#817,#637,#638);
#551=AXIS2_PLACEMENT_3D('',#818,#639,#640);
#552=AXIS2_PLACEMENT_3D('',#820,#641,#642);
#553=AXIS2_PLACEMENT_3D('',#823,#644,#645);
#554=AXIS2_PLACEMENT_3D('',#824,#646,#647);
#555=AXIS2_PLACEMENT_3D('',#825,#648,#649);
#556=AXIS2_PLACEMENT_3D('',#826,#650,#651);
#557=AXIS2_PLACEMENT_3D('',#828,#652,#653);
#558=AXIS2_PLACEMENT_3D('',#831,#655,#656);
#559=AXIS2_PLACEMENT_3D('',#832,#657,#658);
#560=AXIS2_PLACEMENT_3D('',#833,#659,#660);
#561=AXIS2_PLACEMENT_3D('',#835,#661,#662);
#562=AXIS2_PLACEMENT_3D('',#838,#664,#665);
#563=AXIS2_PLACEMENT_3D('',#839,#666,#667);
#564=AXIS2_PLACEMENT_3D('',#840,#668,#669);
#565=AXIS2_PLACEMENT_3D('',#841,#670,#671);
#566=AXIS2_PLACEMENT_3D('',#843,#672,#673);
#567=AXIS2_PLACEMENT_3D('',#846,#675,#676);
#568=AXIS2_PLACEMENT_3D('',#847,#677,#678);
#569=AXIS2_PLACEMENT_3D('',#849,#679,#680);
#570=AXIS2_PLACEMENT_3D('',#852,#682,#683);
#571=AXIS2_PLACEMENT_3D('',#853,#684,#685);
#572=AXIS2_PLACEMENT_3D('',#854,#686,#687);
#573=AXIS2_PLACEMENT_3D('',#855,#688,#689);
#574=AXIS2_PLACEMENT_3D('',#856,#690,#691);
#575=AXIS2_PLACEMENT_3D('',#858,#692,#693);
#576=AXIS2_PLACEMENT_3D('',#861,#695,#696);
#577=AXIS2_PLACEMENT_3D('',#862,#697,#698);
#578=AXIS2_PLACEMENT_3D('',#864,#699,#700);
#579=AXIS2_PLACEMENT_3D('',#867,#702,#703);
#580=AXIS2_PLACEMENT_3D('',#868,#704,#705);
#581=AXIS2_PLACEMENT_3D('',#869,#706,#707);
#582=AXIS2_PLACEMENT_3D('',#870,#708,#709);
#583=AXIS2_PLACEMENT_3D('',#872,#710,#711);
#584=AXIS2_PLACEMENT_3D('',#875,#713,#714);
#585=AXIS2_PLACEMENT_3D('',#876,#715,#716);
#586=AXIS2_PLACEMENT_3D('',#877,#717,#718);
#587=AXIS2_PLACEMENT_3D('',#879,#719,#720);
#588=AXIS2_PLACEMENT_3D('',#882,#722,#723);
#589=AXIS2_PLACEMENT_3D('',#883,#724,#725);
#590=AXIS2_PLACEMENT_3D('',#884,#726,#727);
#591=AXIS2_PLACEMENT_3D('',#885,#728,#729);
#592=AXIS2_PLACEMENT_3D('',#887,#730,#731);
#593=AXIS2_PLACEMENT_3D('',#890,#733,#734);
#594=AXIS2_PLACEMENT_3D('',#891,#735,#736);
#595=AXIS2_PLACEMENT_3D('',#893,#737,#738);
#596=AXIS2_PLACEMENT_3D('',#896,#740,#741);
#597=AXIS2_PLACEMENT_3D('',#897,#742,#743);
#598=AXIS2_PLACEMENT_3D('',#898,#744,#745);
#599=AXIS2_PLACEMENT_3D('',#899,#746,#747);
#600=AXIS2_PLACEMENT_3D('',#900,#748,#749);
#601=AXIS2_PLACEMENT_3D('',#902,#750,#751);
#602=AXIS2_PLACEMENT_3D('',#905,#753,#754);
#603=AXIS2_PLACEMENT_3D('',#906,#755,#756);
#604=AXIS2_PLACEMENT_3D('',#908,#757,#758);
#605=AXIS2_PLACEMENT_3D('',#911,#760,#761);
#606=AXIS2_PLACEMENT_3D('',#912,#762,#763);
#607=AXIS2_PLACEMENT_3D('',#913,#764,#765);
#608=AXIS2_PLACEMENT_3D('',#914,#766,#767);
#609=AXIS2_PLACEMENT_3D('',#916,#768,#769);
#610=AXIS2_PLACEMENT_3D('',#919,#771,#772);
#611=AXIS2_PLACEMENT_3D('',#920,#773,#774);
#612=AXIS2_PLACEMENT_3D('',#921,#775,#776);
#613=AXIS2_PLACEMENT_3D('',#923,#777,#778);
#614=AXIS2_PLACEMENT_3D('',#926,#780,#781);
#615=AXIS2_PLACEMENT_3D('',#927,#782,#783);
#616=AXIS2_PLACEMENT_3D('',#928,#784,#785);
#617=AXIS2_PLACEMENT_3D('',#929,#786,#787);
#618=AXIS2_PLACEMENT_3D('',#931,#788,#789);
#619=AXIS2_PLACEMENT_3D('',#934,#791,#792);
#620=AXIS2_PLACEMENT_3D('',#935,#793,#794);
#621=AXIS2_PLACEMENT_3D('',#937,#795,#796);
#622=AXIS2_PLACEMENT_3D('',#940,#798,#799);
#623=AXIS2_PLACEMENT_3D('',#941,#800,#801);
#624=AXIS2_PLACEMENT_3D('',#942,#802,#803);
#625=AXIS2_PLACEMENT_3D('',#943,#804,#805);
#626=AXIS2_PLACEMENT_3D('',#944,#806,#807);
#627=AXIS2_PLACEMENT_3D('',#945,#808,#809);
#628=DIRECTION('axis',(0.,0.,1.));
#629=DIRECTION('refdir',(1.,0.,0.));
#630=DIRECTION('axis',(0.,0.,1.));
#631=DIRECTION('refdir',(1.,0.,0.));
#632=DIRECTION('center_axis',(-1.,0.,0.));
#633=DIRECTION('ref_axis',(0.,0.,1.));
#634=DIRECTION('center_axis',(-1.,0.,0.));
#635=DIRECTION('ref_axis',(0.,0.,1.));
#636=DIRECTION('',(-1.,0.,0.));
#637=DIRECTION('center_axis',(1.,0.,0.));
#638=DIRECTION('ref_axis',(0.,0.,1.));
#639=DIRECTION('center_axis',(-1.,0.,0.));
#640=DIRECTION('ref_axis',(0.,0.,1.));
#641=DIRECTION('center_axis',(-1.,0.,0.));
#642=DIRECTION('ref_axis',(0.,0.,1.));
#643=DIRECTION('',(1.,0.,0.));
#644=DIRECTION('center_axis',(1.,0.,0.));
#645=DIRECTION('ref_axis',(0.,0.,1.));
#646=DIRECTION('center_axis',(1.,0.,0.));
#647=DIRECTION('ref_axis',(0.,0.,-1.));
#648=DIRECTION('center_axis',(-1.,0.,0.));
#649=DIRECTION('ref_axis',(0.,0.,1.));
#650=DIRECTION('center_axis',(0.,0.,1.));
#651=DIRECTION('ref_axis',(1.,0.,0.));
#652=DIRECTION('center_axis',(0.,0.,-1.));
#653=DIRECTION('ref_axis',(1.,0.,0.));
#654=DIRECTION('',(0.,0.,1.));
#655=DIRECTION('center_axis',(0.,0.,-1.));
#656=DIRECTION('ref_axis',(1.,0.,0.));
#657=DIRECTION('center_axis',(0.,0.,-1.));
#658=DIRECTION('ref_axis',(-1.,0.,0.));
#659=DIRECTION('center_axis',(0.,0.,1.));
#660=DIRECTION('ref_axis',(1.,0.,0.));
#661=DIRECTION('center_axis',(0.,0.,1.));
#662=DIRECTION('ref_axis',(1.,0.,0.));
#663=DIRECTION('',(0.,0.,-1.));
#664=DIRECTION('center_axis',(0.,0.,-1.));
#665=DIRECTION('ref_axis',(1.,0.,0.));
#666=DIRECTION('center_axis',(0.,0.,-1.));
#667=DIRECTION('ref_axis',(-1.,0.,0.));
#668=DIRECTION('center_axis',(0.,0.,1.));
#669=DIRECTION('ref_axis',(1.,0.,0.));
#670=DIRECTION('center_axis',(0.,0.,1.));
#671=DIRECTION('ref_axis',(1.,0.,0.));
#672=DIRECTION('center_axis',(0.,0.,1.));
#673=DIRECTION('ref_axis',(1.,0.,0.));
#674=DIRECTION('',(0.,0.,1.));
#675=DIRECTION('center_axis',(0.,0.,-1.));
#676=DIRECTION('ref_axis',(1.,0.,0.));
#677=DIRECTION('center_axis',(0.,0.,1.));
#678=DIRECTION('ref_axis',(1.,0.,0.));
#679=DIRECTION('center_axis',(0.,0.,1.));
#680=DIRECTION('ref_axis',(1.,0.,0.));
#681=DIRECTION('',(0.,0.,-1.));
#682=DIRECTION('center_axis',(0.,0.,-1.));
#683=DIRECTION('ref_axis',(1.,0.,0.));
#684=DIRECTION('center_axis',(0.,0.,-1.));
#685=DIRECTION('ref_axis',(-1.,0.,0.));
#686=DIRECTION('center_axis',(0.,0.,1.));
#687=DIRECTION('ref_axis',(1.,0.,0.));
#688=DIRECTION('axis',(0.,0.,1.));
#689=DIRECTION('refdir',(1.,0.,0.));
#690=DIRECTION('center_axis',(0.5,-0.866025403784439,0.));
#691=DIRECTION('ref_axis',(0.866025403784439,0.5,0.));
#692=DIRECTION('center_axis',(0.499999999999999,-0.866025403784439,0.));
#693=DIRECTION('ref_axis',(0.866025403784439,0.5,0.));
#694=DIRECTION('',(0.5,-0.866025403784439,0.));
#695=DIRECTION('center_axis',(-0.499999999999999,0.866025403784439,0.));
#696=DIRECTION('ref_axis',(0.866025403784439,0.5,0.));
#697=DIRECTION('center_axis',(0.499999999999999,-0.866025403784439,0.));
#698=DIRECTION('ref_axis',(0.866025403784439,0.499999999999999,0.));
#699=DIRECTION('center_axis',(0.499999999999999,-0.866025403784439,0.));
#700=DIRECTION('ref_axis',(0.866025403784439,0.499999999999999,0.));
#701=DIRECTION('',(-0.499999999999999,0.866025403784439,0.));
#702=DIRECTION('center_axis',(-0.499999999999999,0.866025403784439,0.));
#703=DIRECTION('ref_axis',(0.866025403784439,0.499999999999999,0.));
#704=DIRECTION('center_axis',(-0.499999999999999,0.866025403784439,0.));
#705=DIRECTION('ref_axis',(-0.866025403784439,-0.499999999999999,0.));
#706=DIRECTION('center_axis',(0.499999999999999,-0.866025403784439,0.));
#707=DIRECTION('ref_axis',(0.866025403784439,0.499999999999999,0.));
#708=DIRECTION('center_axis',(0.,0.,1.));
#709=DIRECTION('ref_axis',(1.,0.,0.));
#710=DIRECTION('center_axis',(0.,0.,-1.));
#711=DIRECTION('ref_axis',(1.,0.,0.));
#712=DIRECTION('',(0.,0.,1.));
#713=DIRECTION('center_axis',(0.,0.,-1.));
#714=DIRECTION('ref_axis',(1.,0.,0.));
#715=DIRECTION('center_axis',(0.,0.,-1.));
#716=DIRECTION('ref_axis',(-1.,0.,0.));
#717=DIRECTION('center_axis',(0.,0.,1.));
#718=DIRECTION('ref_axis',(1.,0.,0.));
#719=DIRECTION('center_axis',(0.,0.,1.));
#720=DIRECTION('ref_axis',(1.,0.,0.));
#721=DIRECTION('',(0.,0.,-1.));
#722=DIRECTION('center_axis',(0.,0.,-1.));
#723=DIRECTION('ref_axis',(1.,0.,0.));
#724=DIRECTION('center_axis',(0.,0.,-1.));
#725=DIRECTION('ref_axis',(-1.,0.,0.));
#726=DIRECTION('center_axis',(0.,0.,1.));
#727=DIRECTION('ref_axis',(1.,0.,0.));
#728=DIRECTION('center_axis',(0.,0.,1.));
#729=DIRECTION('ref_axis',(1.,0.,0.));
#730=DIRECTION('center_axis',(0.,0.,1.));
#731=DIRECTION('ref_axis',(1.,0.,0.));
#732=DIRECTION('',(0.,0.,1.));
#733=DIRECTION('center_axis',(0.,0.,-1.));
#734=DIRECTION('ref_axis',(1.,0.,0.));
#735=DIRECTION('center_axis',(0.,0.,1.));
#736=DIRECTION('ref_axis',(1.,0.,0.));
#737=DIRECTION('center_axis',(0.,0.,1.));
#738=DIRECTION('ref_axis',(1.,0.,0.));
#739=DIRECTION('',(0.,0.,-1.));
#740=DIRECTION('center_axis',(0.,0.,-1.));
#741=DIRECTION('ref_axis',(1.,0.,0.));
#742=DIRECTION('center_axis',(0.,0.,-1.));
#743=DIRECTION('ref_axis',(-1.,0.,0.));
#744=DIRECTION('center_axis',(0.,0.,1.));
#745=DIRECTION('ref_axis',(1.,0.,0.));
#746=DIRECTION('axis',(0.,0.,1.));
#747=DIRECTION('refdir',(1.,0.,0.));
#748=DIRECTION('center_axis',(0.5,0.866025403784438,0.));
#749=DIRECTION('ref_axis',(0.866025403784438,-0.5,0.));
#750=DIRECTION('center_axis',(0.499999999999999,0.866025403784439,0.));
#751=DIRECTION('ref_axis',(0.866025403784438,-0.5,0.));
#752=DIRECTION('',(0.5,0.866025403784438,0.));
#753=DIRECTION('center_axis',(-0.499999999999999,-0.866025403784439,0.));
#754=DIRECTION('ref_axis',(0.866025403784438,-0.5,0.));
#755=DIRECTION('center_axis',(0.499999999999999,0.866025403784439,0.));
#756=DIRECTION('ref_axis',(0.866025403784439,-0.499999999999999,0.));
#757=DIRECTION('center_axis',(0.499999999999999,0.866025403784439,0.));
#758=DIRECTION('ref_axis',(0.866025403784439,-0.499999999999999,0.));
#759=DIRECTION('',(-0.499999999999999,-0.866025403784439,0.));
#760=DIRECTION('center_axis',(-0.499999999999999,-0.866025403784439,0.));
#761=DIRECTION('ref_axis',(0.866025403784439,-0.499999999999999,0.));
#762=DIRECTION('center_axis',(-0.499999999999999,-0.866025403784439,0.));
#763=DIRECTION('ref_axis',(-0.866025403784439,0.499999999999999,0.));
#764=DIRECTION('center_axis',(0.499999999999999,0.866025403784439,0.));
#765=DIRECTION('ref_axis',(0.866025403784439,-0.499999999999999,0.));
#766=DIRECTION('center_axis',(0.,0.,1.));
#767=DIRECTION('ref_axis',(1.,0.,0.));
#768=DIRECTION('center_axis',(0.,0.,-1.));
#769=DIRECTION('ref_axis',(1.,0.,0.));
#770=DIRECTION('',(0.,0.,1.));
#771=DIRECTION('center_axis',(0.,0.,-1.));
#772=DIRECTION('ref_axis',(1.,0.,0.));
#773=DIRECTION('center_axis',(0.,0.,-1.));
#774=DIRECTION('ref_axis',(-1.,0.,0.));
#775=DIRECTION('center_axis',(0.,0.,1.));
#776=DIRECTION('ref_axis',(1.,0.,0.));
#777=DIRECTION('center_axis',(0.,0.,1.));
#778=DIRECTION('ref_axis',(1.,0.,0.));
#779=DIRECTION('',(0.,0.,-1.));
#780=DIRECTION('center_axis',(0.,0.,-1.));
#781=DIRECTION('ref_axis',(1.,0.,0.));
#782=DIRECTION('center_axis',(0.,0.,-1.));
#783=DIRECTION('ref_axis',(-1.,0.,0.));
#784=DIRECTION('center_axis',(0.,0.,1.));
#785=DIRECTION('ref_axis',(1.,0.,0.));
#786=DIRECTION('center_axis',(0.,0.,1.));
#787=DIRECTION('ref_axis',(1.,0.,0.));
#788=DIRECTION('center_axis',(0.,0.,1.));
#789=DIRECTION('ref_axis',(1.,0.,0.));
#790=DIRECTION('',(0.,0.,1.));
#791=DIRECTION('center_axis',(0.,0.,-1.));
#792=DIRECTION('ref_axis',(1.,0.,0.));
#793=DIRECTION('center_axis',(0.,0.,1.));
#794=DIRECTION('ref_axis',(1.,0.,0.));
#795=DIRECTION('center_axis',(0.,0.,1.));
#796=DIRECTION('ref_axis',(1.,0.,0.));
#797=DIRECTION('',(0.,0.,-1.));
#798=DIRECTION('center_axis',(0.,0.,-1.));
#799=DIRECTION('ref_axis',(1.,0.,0.));
#800=DIRECTION('center_axis',(0.,0.,-1.));
#801=DIRECTION('ref_axis',(-1.,0.,0.));
#802=DIRECTION('center_axis',(0.,0.,1.));
#803=DIRECTION('ref_axis',(1.,0.,0.));
#804=DIRECTION('',(0.,0.,1.));
#805=DIRECTION('',(1.,0.,0.));
#806=DIRECTION('',(0.,0.,1.));
#807=DIRECTION('',(1.,0.,0.));
#808=DIRECTION('',(0.,0.,1.));
#809=DIRECTION('',(1.,0.,0.));
#810=CARTESIAN_POINT('',(0.,0.,0.));
#811=CARTESIAN_POINT('',(0.,0.,0.));
#812=CARTESIAN_POINT('Origin',(1.49880108324396E-14,250.,246.));
#813=CARTESIAN_POINT('',(4.50000000000002,250.,243.));
#814=CARTESIAN_POINT('Origin',(4.50000000000002,250.,246.));
#815=CARTESIAN_POINT('',(-4.49999999999998,250.,243.));
#816=CARTESIAN_POINT('',(1.49880108324396E-14,250.,243.));
#817=CARTESIAN_POINT('Origin',(-4.49999999999998,250.,246.));
#818=CARTESIAN_POINT('Origin',(1.49880108324396E-14,250.,246.));
#819=CARTESIAN_POINT('',(-4.49999999999998,250.,237.));
#820=CARTESIAN_POINT('Origin',(-4.49999999999998,250.,246.));
#821=CARTESIAN_POINT('',(4.50000000000002,250.,237.));
#822=CARTESIAN_POINT('',(1.49880108324396E-14,250.,237.));
#823=CARTESIAN_POINT('Origin',(4.50000000000002,250.,246.));
#824=CARTESIAN_POINT('Origin',(4.50000000000002,250.,246.));
#825=CARTESIAN_POINT('Origin',(-4.49999999999998,250.,246.));
#826=CARTESIAN_POINT('Origin',(1.53080849893419E-14,250.,261.));
#827=CARTESIAN_POINT('',(-2.49999999999998,250.,256.));
#828=CARTESIAN_POINT('Origin',(1.53080849893419E-14,250.,256.));
#829=CARTESIAN_POINT('',(-2.49999999999998,250.,265.));
#830=CARTESIAN_POINT('',(-2.49999999999998,250.,261.));
#831=CARTESIAN_POINT('Origin',(1.53080849893419E-14,250.,265.));
#832=CARTESIAN_POINT('Origin',(1.53080849893419E-14,250.,256.));
#833=CARTESIAN_POINT('Origin',(1.53080849893419E-14,250.,254.5));
#834=CARTESIAN_POINT('',(-4.49999999999998,250.,265.));
#835=CARTESIAN_POINT('Origin',(1.53080849893419E-14,250.,265.));
#836=CARTESIAN_POINT('',(-4.49999999999998,250.,244.));
#837=CARTESIAN_POINT('',(-4.49999999999998,250.,254.5));
#838=CARTESIAN_POINT('Origin',(1.53080849893419E-14,250.,244.));
#839=CARTESIAN_POINT('Origin',(1.53080849893419E-14,250.,244.));
#840=CARTESIAN_POINT('Origin',(1.53080849893419E-14,250.,265.));
#841=CARTESIAN_POINT('Origin',(1.53080849893419E-14,250.,267.5));
#842=CARTESIAN_POINT('',(-3.19999999999998,250.,265.));
#843=CARTESIAN_POINT('Origin',(1.53080849893419E-14,250.,265.));
#844=CARTESIAN_POINT('',(-3.19999999999998,250.,270.));
#845=CARTESIAN_POINT('',(-3.19999999999998,250.,267.5));
#846=CARTESIAN_POINT('Origin',(1.53080849893419E-14,250.,270.));
#847=CARTESIAN_POINT('Origin',(1.53080849893419E-14,250.,267.5));
#848=CARTESIAN_POINT('',(-6.99999999999998,250.,270.));
#849=CARTESIAN_POINT('Origin',(1.53080849893419E-14,250.,270.));
#850=CARTESIAN_POINT('',(-6.99999999999998,250.,265.));
#851=CARTESIAN_POINT('',(-6.99999999999998,250.,267.5));
#852=CARTESIAN_POINT('Origin',(1.53080849893419E-14,250.,265.));
#853=CARTESIAN_POINT('Origin',(1.53080849893419E-14,250.,265.));
#854=CARTESIAN_POINT('Origin',(1.53080849893419E-14,250.,270.));
#855=CARTESIAN_POINT('',(0.,0.,0.));
#856=CARTESIAN_POINT('Origin',(-216.50635094611,-125.,246.));
#857=CARTESIAN_POINT('',(-221.354427157463,-122.60288568297,246.));
#858=CARTESIAN_POINT('Origin',(-218.75635094611,-121.10288568297,246.));
#859=CARTESIAN_POINT('',(-216.854427157463,-130.39711431703,246.));
#860=CARTESIAN_POINT('',(-219.104427157463,-126.5,246.));
#861=CARTESIAN_POINT('Origin',(-214.25635094611,-128.89711431703,246.));
#862=CARTESIAN_POINT('Origin',(-216.50635094611,-125.,246.));
#863=CARTESIAN_POINT('',(-222.05057958017,-133.39711431703,246.));
#864=CARTESIAN_POINT('Origin',(-214.25635094611,-128.89711431703,246.));
#865=CARTESIAN_POINT('',(-226.55057958017,-125.60288568297,246.));
#866=CARTESIAN_POINT('',(-224.30057958017,-129.5,246.));
#867=CARTESIAN_POINT('Origin',(-218.75635094611,-121.10288568297,246.));
#868=CARTESIAN_POINT('Origin',(-218.75635094611,-121.10288568297,246.));
#869=CARTESIAN_POINT('Origin',(-214.25635094611,-128.89711431703,246.));
#870=CARTESIAN_POINT('Origin',(-216.50635094611,-125.,261.));
#871=CARTESIAN_POINT('',(-219.00635094611,-125.,256.));
#872=CARTESIAN_POINT('Origin',(-216.50635094611,-125.,256.));
#873=CARTESIAN_POINT('',(-219.00635094611,-125.,265.));
#874=CARTESIAN_POINT('',(-219.00635094611,-125.,261.));
#875=CARTESIAN_POINT('Origin',(-216.50635094611,-125.,265.));
#876=CARTESIAN_POINT('Origin',(-216.50635094611,-125.,256.));
#877=CARTESIAN_POINT('Origin',(-216.50635094611,-125.,254.5));
#878=CARTESIAN_POINT('',(-221.00635094611,-125.,265.));
#879=CARTESIAN_POINT('Origin',(-216.50635094611,-125.,265.));
#880=CARTESIAN_POINT('',(-221.00635094611,-125.,244.));
#881=CARTESIAN_POINT('',(-221.00635094611,-125.,254.5));
#882=CARTESIAN_POINT('Origin',(-216.50635094611,-125.,244.));
#883=CARTESIAN_POINT('Origin',(-216.50635094611,-125.,244.));
#884=CARTESIAN_POINT('Origin',(-216.50635094611,-125.,265.));
#885=CARTESIAN_POINT('Origin',(-216.50635094611,-125.,267.5));
#886=CARTESIAN_POINT('',(-219.70635094611,-125.,265.));
#887=CARTESIAN_POINT('Origin',(-216.50635094611,-125.,265.));
#888=CARTESIAN_POINT('',(-219.70635094611,-125.,270.));
#889=CARTESIAN_POINT('',(-219.70635094611,-125.,267.5));
#890=CARTESIAN_POINT('Origin',(-216.50635094611,-125.,270.));
#891=CARTESIAN_POINT('Origin',(-216.50635094611,-125.,267.5));
#892=CARTESIAN_POINT('',(-223.50635094611,-125.,270.));
#893=CARTESIAN_POINT('Origin',(-216.50635094611,-125.,270.));
#894=CARTESIAN_POINT('',(-223.50635094611,-125.,265.));
#895=CARTESIAN_POINT('',(-223.50635094611,-125.,267.5));
#896=CARTESIAN_POINT('Origin',(-216.50635094611,-125.,265.));
#897=CARTESIAN_POINT('Origin',(-216.50635094611,-125.,265.));
#898=CARTESIAN_POINT('Origin',(-216.50635094611,-125.,270.));
#899=CARTESIAN_POINT('',(0.,0.,0.));
#900=CARTESIAN_POINT('Origin',(216.50635094611,-125.,246.));
#901=CARTESIAN_POINT('',(211.658274734756,-127.39711431703,246.));
#902=CARTESIAN_POINT('Origin',(214.25635094611,-128.89711431703,246.));
#903=CARTESIAN_POINT('',(216.158274734756,-119.60288568297,246.));
#904=CARTESIAN_POINT('',(213.908274734756,-123.5,246.));
#905=CARTESIAN_POINT('Origin',(218.75635094611,-121.10288568297,246.));
#906=CARTESIAN_POINT('Origin',(216.50635094611,-125.,246.));
#907=CARTESIAN_POINT('',(210.96212231205,-116.60288568297,246.));
#908=CARTESIAN_POINT('Origin',(218.75635094611,-121.10288568297,246.));
#909=CARTESIAN_POINT('',(206.46212231205,-124.39711431703,246.));
#910=CARTESIAN_POINT('',(208.71212231205,-120.5,246.));
#911=CARTESIAN_POINT('Origin',(214.25635094611,-128.89711431703,246.));
#912=CARTESIAN_POINT('Origin',(214.25635094611,-128.89711431703,246.));
#913=CARTESIAN_POINT('Origin',(218.75635094611,-121.10288568297,246.));
#914=CARTESIAN_POINT('Origin',(216.50635094611,-125.,261.));
#915=CARTESIAN_POINT('',(214.00635094611,-125.,256.));
#916=CARTESIAN_POINT('Origin',(216.50635094611,-125.,256.));
#917=CARTESIAN_POINT('',(214.00635094611,-125.,265.));
#918=CARTESIAN_POINT('',(214.00635094611,-125.,261.));
#919=CARTESIAN_POINT('Origin',(216.50635094611,-125.,265.));
#920=CARTESIAN_POINT('Origin',(216.50635094611,-125.,256.));
#921=CARTESIAN_POINT('Origin',(216.50635094611,-125.,254.5));
#922=CARTESIAN_POINT('',(212.00635094611,-125.,265.));
#923=CARTESIAN_POINT('Origin',(216.50635094611,-125.,265.));
#924=CARTESIAN_POINT('',(212.00635094611,-125.,244.));
#925=CARTESIAN_POINT('',(212.00635094611,-125.,254.5));
#926=CARTESIAN_POINT('Origin',(216.50635094611,-125.,244.));
#927=CARTESIAN_POINT('Origin',(216.50635094611,-125.,244.));
#928=CARTESIAN_POINT('Origin',(216.50635094611,-125.,265.));
#929=CARTESIAN_POINT('Origin',(216.50635094611,-125.,267.5));
#930=CARTESIAN_POINT('',(213.30635094611,-125.,265.));
#931=CARTESIAN_POINT('Origin',(216.50635094611,-125.,265.));
#932=CARTESIAN_POINT('',(213.30635094611,-125.,270.));
#933=CARTESIAN_POINT('',(213.30635094611,-125.,267.5));
#934=CARTESIAN_POINT('Origin',(216.50635094611,-125.,270.));
#935=CARTESIAN_POINT('Origin',(216.50635094611,-125.,267.5));
#936=CARTESIAN_POINT('',(209.50635094611,-125.,270.));
#937=CARTESIAN_POINT('Origin',(216.50635094611,-125.,270.));
#938=CARTESIAN_POINT('',(209.50635094611,-125.,265.));
#939=CARTESIAN_POINT('',(209.50635094611,-125.,267.5));
#940=CARTESIAN_POINT('Origin',(216.50635094611,-125.,265.));
#941=CARTESIAN_POINT('Origin',(216.50635094611,-125.,265.));
#942=CARTESIAN_POINT('Origin',(216.50635094611,-125.,270.));
#943=CARTESIAN_POINT('',(0.,0.,0.));
#944=CARTESIAN_POINT('',(0.,0.,0.));
#945=CARTESIAN_POINT('',(0.,0.,0.));
#946=UNCERTAINTY_MEASURE_WITH_UNIT(LENGTH_MEASURE(0.01),#956,
'DISTANCE_ACCURACY_VALUE',
'Maximum model space distance between geometric entities at asserted c
onnectivities');
#947=UNCERTAINTY_MEASURE_WITH_UNIT(LENGTH_MEASURE(0.01),#956,
'DISTANCE_ACCURACY_VALUE',
'Maximum model space distance between geometric entities at asserted c
onnectivities');
#948=UNCERTAINTY_MEASURE_WITH_UNIT(LENGTH_MEASURE(0.01),#956,
'DISTANCE_ACCURACY_VALUE',
'Maximum model space distance between geometric entities at asserted c
onnectivities');
#949=UNCERTAINTY_MEASURE_WITH_UNIT(LENGTH_MEASURE(0.01),#956,
'DISTANCE_ACCURACY_VALUE',
'Maximum model space distance between geometric entities at asserted c
onnectivities');
#950=UNCERTAINTY_MEASURE_WITH_UNIT(LENGTH_MEASURE(0.01),#956,
'DISTANCE_ACCURACY_VALUE',
'Maximum model space distance between geometric entities at asserted c
onnectivities');
#951=(
GEOMETRIC_REPRESENTATION_CONTEXT(3)
GLOBAL_UNCERTAINTY_ASSIGNED_CONTEXT((#946))
GLOBAL_UNIT_ASSIGNED_CONTEXT((#956,#958,#959))
REPRESENTATION_CONTEXT('','3D')
);
#952=(
GEOMETRIC_REPRESENTATION_CONTEXT(3)
GLOBAL_UNCERTAINTY_ASSIGNED_CONTEXT((#947))
GLOBAL_UNIT_ASSIGNED_CONTEXT((#956,#958,#959))
REPRESENTATION_CONTEXT('','3D')
);
#953=(
GEOMETRIC_REPRESENTATION_CONTEXT(3)
GLOBAL_UNCERTAINTY_ASSIGNED_CONTEXT((#948))
GLOBAL_UNIT_ASSIGNED_CONTEXT((#956,#958,#959))
REPRESENTATION_CONTEXT('','3D')
);
#954=(
GEOMETRIC_REPRESENTATION_CONTEXT(3)
GLOBAL_UNCERTAINTY_ASSIGNED_CONTEXT((#949))
GLOBAL_UNIT_ASSIGNED_CONTEXT((#956,#958,#959))
REPRESENTATION_CONTEXT('','3D')
);
#955=(
GEOMETRIC_REPRESENTATION_CONTEXT(3)
GLOBAL_UNCERTAINTY_ASSIGNED_CONTEXT((#950))
GLOBAL_UNIT_ASSIGNED_CONTEXT((#956,#958,#959))
REPRESENTATION_CONTEXT('','3D')
);
#956=(
LENGTH_UNIT()
NAMED_UNIT(*)
SI_UNIT(.MILLI.,.METRE.)
);
#957=(
LENGTH_UNIT()
NAMED_UNIT(*)
SI_UNIT($,.METRE.)
);
#958=(
NAMED_UNIT(*)
PLANE_ANGLE_UNIT()
SI_UNIT($,.RADIAN.)
);
#959=(
NAMED_UNIT(*)
SI_UNIT($,.STERADIAN.)
SOLID_ANGLE_UNIT()
);
#960=SHAPE_DEFINITION_REPRESENTATION(#964,#971);
#961=SHAPE_DEFINITION_REPRESENTATION(#965,#972);
#962=SHAPE_DEFINITION_REPRESENTATION(#966,#973);
#963=SHAPE_DEFINITION_REPRESENTATION(#967,#974);
#964=PRODUCT_DEFINITION_SHAPE('',$,#976);
#965=PRODUCT_DEFINITION_SHAPE('',$,#977);
#966=PRODUCT_DEFINITION_SHAPE('',$,#978);
#967=PRODUCT_DEFINITION_SHAPE('',$,#979);
#968=PRODUCT_DEFINITION_SHAPE($,$,#20);
#969=PRODUCT_DEFINITION_SHAPE($,$,#21);
#970=PRODUCT_DEFINITION_SHAPE($,$,#22);
#971=SHAPE_REPRESENTATION('',(#546,#625,#626,#627),#951);
#972=SHAPE_REPRESENTATION('',(#547),#952);
#973=SHAPE_REPRESENTATION('',(#573),#953);
#974=SHAPE_REPRESENTATION('',(#599),#954);
#975=PRODUCT_DEFINITION_CONTEXT('part definition',#989,'design');
#976=PRODUCT_DEFINITION('08_UPPER_PHS6_JOINTS','08_UPPER_PHS6_JOINTS',#980,
#975);
#977=PRODUCT_DEFINITION('A1_PHS6_AND_JAM_NUT','A1_PHS6_AND_JAM_NUT',#981,
#975);
#978=PRODUCT_DEFINITION('A2_PHS6_AND_JAM_NUT','A2_PHS6_AND_JAM_NUT',#982,
#975);
#979=PRODUCT_DEFINITION('A3_PHS6_AND_JAM_NUT','A3_PHS6_AND_JAM_NUT',#983,
#975);
#980=PRODUCT_DEFINITION_FORMATION('',$,#991);
#981=PRODUCT_DEFINITION_FORMATION('',$,#992);
#982=PRODUCT_DEFINITION_FORMATION('',$,#993);
#983=PRODUCT_DEFINITION_FORMATION('',$,#994);
#984=PRODUCT_RELATED_PRODUCT_CATEGORY('08_UPPER_PHS6_JOINTS',
'08_UPPER_PHS6_JOINTS',(#991));
#985=PRODUCT_RELATED_PRODUCT_CATEGORY('A1_PHS6_AND_JAM_NUT',
'A1_PHS6_AND_JAM_NUT',(#992));
#986=PRODUCT_RELATED_PRODUCT_CATEGORY('A2_PHS6_AND_JAM_NUT',
'A2_PHS6_AND_JAM_NUT',(#993));
#987=PRODUCT_RELATED_PRODUCT_CATEGORY('A3_PHS6_AND_JAM_NUT',
'A3_PHS6_AND_JAM_NUT',(#994));
#988=APPLICATION_PROTOCOL_DEFINITION('international standard',
'automotive_design',2009,#989);
#989=APPLICATION_CONTEXT(
'Core Data for Automotive Mechanical Design Process');
#990=PRODUCT_CONTEXT('part definition',#989,'mechanical');
#991=PRODUCT('08_UPPER_PHS6_JOINTS','08_UPPER_PHS6_JOINTS',$,(#990));
#992=PRODUCT('A1_PHS6_AND_JAM_NUT','A1_PHS6_AND_JAM_NUT',$,(#990));
#993=PRODUCT('A2_PHS6_AND_JAM_NUT','A2_PHS6_AND_JAM_NUT',$,(#990));
#994=PRODUCT('A3_PHS6_AND_JAM_NUT','A3_PHS6_AND_JAM_NUT',$,(#990));
#995=PRESENTATION_STYLE_ASSIGNMENT((#997));
#996=PRESENTATION_STYLE_ASSIGNMENT((#998));
#997=SURFACE_STYLE_USAGE(.BOTH.,#999);
#998=SURFACE_STYLE_USAGE(.BOTH.,#1000);
#999=SURFACE_SIDE_STYLE('',(#1001));
#1000=SURFACE_SIDE_STYLE('',(#1002));
#1001=SURFACE_STYLE_FILL_AREA(#1003);
#1002=SURFACE_STYLE_FILL_AREA(#1004);
#1003=FILL_AREA_STYLE('\X2\AC15CCA0\X0\ - \X2\C0C8D2F4\X0\',(#1005));
#1004=FILL_AREA_STYLE('RevD_JOINT',(#1006));
#1005=FILL_AREA_STYLE_COLOUR('\X2\AC15CCA0\X0\ - \X2\C0C8D2F4\X0\',#1007);
#1006=FILL_AREA_STYLE_COLOUR('RevD_JOINT',#1008);
#1007=COLOUR_RGB('\X2\AC15CCA0\X0\ - \X2\C0C8D2F4\X0\',0.627450980392157,
0.627450980392157,0.627450980392157);
#1008=COLOUR_RGB('RevD_JOINT',0.682352941176471,0.709803921568627,0.733333333333333);
ENDSEC;
END-ISO-10303-21;
