ISO-10303-21;
HEADER;
FILE_DESCRIPTION(('Open CASCADE Model'),'2;1');
FILE_NAME('Open CASCADE Shape Model','2026-09-05T18:16:32',('Author'),(
    'Open CASCADE'),'Open CASCADE STEP processor 7.9','Open CASCADE 7.9'
  ,'Unknown');
FILE_SCHEMA(('AUTOMOTIVE_DESIGN { 1 0 10303 214 1 1 1 1 }'));
ENDSEC;
DATA;
#1 = APPLICATION_PROTOCOL_DEFINITION('international standard',
  'automotive_design',2000,#2);
#2 = APPLICATION_CONTEXT(
  'core data for automotive mechanical design processes');
#3 = SHAPE_DEFINITION_REPRESENTATION(#4,#10);
#4 = PRODUCT_DEFINITION_SHAPE('','',#5);
#5 = PRODUCT_DEFINITION('design','',#6,#9);
#6 = PRODUCT_DEFINITION_FORMATION('','',#7);
#7 = PRODUCT('Open CASCADE STEP translator 7.9 2',
  'Open CASCADE STEP translator 7.9 2','',(#8));
#8 = PRODUCT_CONTEXT('',#2,'mechanical');
#9 = PRODUCT_DEFINITION_CONTEXT('part definition',#2,'design');
#10 = ADVANCED_BREP_SHAPE_REPRESENTATION('',(#11,#15),#320);
#11 = AXIS2_PLACEMENT_3D('',#12,#13,#14);
#12 = CARTESIAN_POINT('',(0.,0.,0.));
#13 = DIRECTION('',(0.,0.,1.));
#14 = DIRECTION('',(1.,0.,-0.));
#15 = MANIFOLD_SOLID_BREP('',#16);
#16 = CLOSED_SHELL('',(#17,#99,#124,#166,#192,#208,#224,#281,#296,#305)
  );
#17 = ADVANCED_FACE('',(#18),#94,.T.);
#18 = FACE_BOUND('',#19,.T.);
#19 = EDGE_LOOP('',(#20,#31,#41,#49,#59,#68,#78,#86));
#20 = ORIENTED_EDGE('',*,*,#21,.T.);
#21 = EDGE_CURVE('',#22,#24,#26,.T.);
#22 = VERTEX_POINT('',#23);
#23 = CARTESIAN_POINT('',(-6.,307.09992224737,200.24896978662));
#24 = VERTEX_POINT('',#25);
#25 = CARTESIAN_POINT('',(-6.,300.00081576416,213.15643611972));
#26 = CIRCLE('',#27,15.);
#27 = AXIS2_PLACEMENT_3D('',#28,#29,#30);
#28 = CARTESIAN_POINT('',(-6.,315.,213.));
#29 = DIRECTION('',(1.,-6.123233995737E-17,-3.08148791102E-33));
#30 = DIRECTION('',(-3.22493497759E-17,-0.526671850175,-0.850068680892)
  );
#31 = ORIENTED_EDGE('',*,*,#32,.T.);
#32 = EDGE_CURVE('',#24,#33,#35,.T.);
#33 = VERTEX_POINT('',#34);
#34 = CARTESIAN_POINT('',(-5.85234995536,300.00284348738,213.29205570718
    ));
#35 = B_SPLINE_CURVE_WITH_KNOTS('',4,(#36,#37,#38,#39,#40),
  .UNSPECIFIED.,.F.,.F.,(5,5),(0.,1.),.PIECEWISE_BEZIER_KNOTS.);
#36 = CARTESIAN_POINT('',(-6.0000006,300.00081575831,213.15643555868));
#37 = CARTESIAN_POINT('',(-5.963296154659,300.00117371067,
    213.19075635781));
#38 = CARTESIAN_POINT('',(-5.926451575236,300.00163349744,
    213.22480041425));
#39 = CARTESIAN_POINT('',(-5.889468540648,300.00219133109,
    213.25856740565));
#40 = CARTESIAN_POINT('',(-5.852348622562,300.0028435108,213.29205690962
    ));
#41 = ORIENTED_EDGE('',*,*,#42,.F.);
#42 = EDGE_CURVE('',#43,#33,#45,.T.);
#43 = VERTEX_POINT('',#44);
#44 = CARTESIAN_POINT('',(5.85234995536,300.00284348738,213.29205570718)
  );
#45 = LINE('',#46,#47);
#46 = CARTESIAN_POINT('',(6.,300.00284348738,213.29205570718));
#47 = VECTOR('',#48,1.);
#48 = DIRECTION('',(-1.,6.123233995737E-17,0.));
#49 = ORIENTED_EDGE('',*,*,#50,.T.);
#50 = EDGE_CURVE('',#43,#51,#53,.T.);
#51 = VERTEX_POINT('',#52);
#52 = CARTESIAN_POINT('',(6.,300.00081576416,213.15643611972));
#53 = B_SPLINE_CURVE_WITH_KNOTS('',4,(#54,#55,#56,#57,#58),
  .UNSPECIFIED.,.F.,.F.,(5,5),(0.,1.),.PIECEWISE_BEZIER_KNOTS.);
#54 = CARTESIAN_POINT('',(5.852348622562,300.0028435108,213.29205690962)
  );
#55 = CARTESIAN_POINT('',(5.889468540648,300.00219133109,213.25856740565
    ));
#56 = CARTESIAN_POINT('',(5.926451575236,300.00163349744,213.22480041425
    ));
#57 = CARTESIAN_POINT('',(5.963296154659,300.00117371067,213.19075635781
    ));
#58 = CARTESIAN_POINT('',(6.0000006,300.00081575831,213.15643555868));
#59 = ORIENTED_EDGE('',*,*,#60,.T.);
#60 = EDGE_CURVE('',#51,#61,#63,.T.);
#61 = VERTEX_POINT('',#62);
#62 = CARTESIAN_POINT('',(6.,307.09992224737,200.24896978662));
#63 = CIRCLE('',#64,15.);
#64 = AXIS2_PLACEMENT_3D('',#65,#66,#67);
#65 = CARTESIAN_POINT('',(6.,315.,213.));
#66 = DIRECTION('',(-1.,6.123233995737E-17,1.059261469413E-33));
#67 = DIRECTION('',(-6.122900988078E-17,-0.999945615722,
    1.042907464824E-02));
#68 = ORIENTED_EDGE('',*,*,#69,.T.);
#69 = EDGE_CURVE('',#61,#70,#72,.T.);
#70 = VERTEX_POINT('',#71);
#71 = CARTESIAN_POINT('',(5.85234995536,307.21554288702,200.17805679874)
  );
#72 = B_SPLINE_CURVE_WITH_KNOTS('',4,(#73,#74,#75,#76,#77),
  .UNSPECIFIED.,.F.,.F.,(5,5),(0.,1.),.PIECEWISE_BEZIER_KNOTS.);
#73 = CARTESIAN_POINT('',(6.0000006,307.09992177042,200.24897008212));
#74 = CARTESIAN_POINT('',(5.963296154659,307.12909839293,200.23089329916
    ));
#75 = CARTESIAN_POINT('',(5.926451575236,307.1580958312,200.2130507165)
  );
#76 = CARTESIAN_POINT('',(5.889468540648,307.18691178476,200.19543930807
    ));
#77 = CARTESIAN_POINT('',(5.852348622562,307.21554391506,200.17805617459
    ));
#78 = ORIENTED_EDGE('',*,*,#79,.T.);
#79 = EDGE_CURVE('',#70,#80,#82,.T.);
#80 = VERTEX_POINT('',#81);
#81 = CARTESIAN_POINT('',(-5.85234995536,307.21554288702,200.17805679874
    ));
#82 = LINE('',#83,#84);
#83 = CARTESIAN_POINT('',(6.,307.21554288702,200.17805679874));
#84 = VECTOR('',#85,1.);
#85 = DIRECTION('',(-1.,6.123233995737E-17,0.));
#86 = ORIENTED_EDGE('',*,*,#87,.T.);
#87 = EDGE_CURVE('',#80,#22,#88,.T.);
#88 = B_SPLINE_CURVE_WITH_KNOTS('',4,(#89,#90,#91,#92,#93),
  .UNSPECIFIED.,.F.,.F.,(5,5),(0.,1.),.PIECEWISE_BEZIER_KNOTS.);
#89 = CARTESIAN_POINT('',(-5.852348622562,307.21554391506,
    200.17805617459));
#90 = CARTESIAN_POINT('',(-5.889468540648,307.18691178476,
    200.19543930807));
#91 = CARTESIAN_POINT('',(-5.926451575236,307.1580958312,200.2130507165)
  );
#92 = CARTESIAN_POINT('',(-5.963296154659,307.12909839293,
    200.23089329916));
#93 = CARTESIAN_POINT('',(-6.0000006,307.09992177042,200.24897008212));
#94 = CYLINDRICAL_SURFACE('',#95,15.);
#95 = AXIS2_PLACEMENT_3D('',#96,#97,#98);
#96 = CARTESIAN_POINT('',(6.,315.,213.));
#97 = DIRECTION('',(-1.,6.123233995737E-17,0.));
#98 = DIRECTION('',(5.365275039614E-17,0.876215908677,0.481918749772));
#99 = ADVANCED_FACE('',(#100),#119,.T.);
#100 = FACE_BOUND('',#101,.T.);
#101 = EDGE_LOOP('',(#102,#111,#118));
#102 = ORIENTED_EDGE('',*,*,#103,.T.);
#103 = EDGE_CURVE('',#70,#104,#106,.T.);
#104 = VERTEX_POINT('',#105);
#105 = CARTESIAN_POINT('',(1.887103695224E-14,308.18742131003,
    198.41100512053));
#106 = CIRCLE('',#107,9.5);
#107 = AXIS2_PLACEMENT_3D('',#108,#109,#110);
#108 = CARTESIAN_POINT('',(1.859070133142E-14,303.6091931872,
    206.73505625296));
#109 = DIRECTION('',(5.365275039614E-17,0.876215908677,0.481918749772));
#110 = DIRECTION('',(2.950901271788E-17,0.481918749772,-0.876215908677)
  );
#111 = ORIENTED_EDGE('',*,*,#112,.T.);
#112 = EDGE_CURVE('',#104,#80,#113,.T.);
#113 = CIRCLE('',#114,9.5);
#114 = AXIS2_PLACEMENT_3D('',#115,#116,#117);
#115 = CARTESIAN_POINT('',(1.859070133142E-14,303.6091931872,
    206.73505625296));
#116 = DIRECTION('',(5.365275039614E-17,0.876215908677,0.481918749772));
#117 = DIRECTION('',(2.950901271788E-17,0.481918749772,-0.876215908677)
  );
#118 = ORIENTED_EDGE('',*,*,#79,.F.);
#119 = PLANE('',#120);
#120 = AXIS2_PLACEMENT_3D('',#121,#122,#123);
#121 = CARTESIAN_POINT('',(1.840274188482E-14,303.6091931872,
    206.73505625296));
#122 = DIRECTION('',(5.365275039614E-17,0.876215908677,0.481918749772));
#123 = DIRECTION('',(2.950901271788E-17,0.481918749772,-0.876215908677)
  );
#124 = ADVANCED_FACE('',(#125,#150),#161,.F.);
#125 = FACE_BOUND('',#126,.T.);
#126 = EDGE_LOOP('',(#127,#135,#136,#144));
#127 = ORIENTED_EDGE('',*,*,#128,.T.);
#128 = EDGE_CURVE('',#129,#61,#131,.T.);
#129 = VERTEX_POINT('',#130);
#130 = CARTESIAN_POINT('',(6.,307.1587464288,200.28132308641));
#131 = LINE('',#132,#133);
#132 = CARTESIAN_POINT('',(6.,274.73875780777,182.45032934484));
#133 = VECTOR('',#134,1.);
#134 = DIRECTION('',(-5.365275039614E-17,-0.876215908677,-0.481918749772
    ));
#135 = ORIENTED_EDGE('',*,*,#60,.F.);
#136 = ORIENTED_EDGE('',*,*,#137,.F.);
#137 = EDGE_CURVE('',#138,#51,#140,.T.);
#138 = VERTEX_POINT('',#139);
#139 = CARTESIAN_POINT('',(6.,300.0596399456,213.18878941951));
#140 = LINE('',#141,#142);
#141 = CARTESIAN_POINT('',(6.,267.63965132456,195.35779567794));
#142 = VECTOR('',#143,1.);
#143 = DIRECTION('',(-5.365275039614E-17,-0.876215908677,-0.481918749772
    ));
#144 = ORIENTED_EDGE('',*,*,#145,.F.);
#145 = EDGE_CURVE('',#129,#138,#146,.T.);
#146 = LINE('',#147,#148);
#147 = CARTESIAN_POINT('',(6.,303.6091931872,206.73505625296));
#148 = VECTOR('',#149,1.);
#149 = DIRECTION('',(-2.950901271788E-17,-0.481918749772,0.876215908677)
  );
#150 = FACE_BOUND('',#151,.T.);
#151 = EDGE_LOOP('',(#152));
#152 = ORIENTED_EDGE('',*,*,#153,.T.);
#153 = EDGE_CURVE('',#154,#154,#156,.T.);
#154 = VERTEX_POINT('',#155);
#155 = CARTESIAN_POINT('',(6.,324.20694055148,218.06381730331));
#156 = CIRCLE('',#157,10.507616285343);
#157 = AXIS2_PLACEMENT_3D('',#158,#159,#160);
#158 = CARTESIAN_POINT('',(6.,315.,213.));
#159 = DIRECTION('',(-1.,6.123233995737E-17,0.));
#160 = DIRECTION('',(5.365275039614E-17,0.876215908677,0.481918749772));
#161 = PLANE('',#162);
#162 = AXIS2_PLACEMENT_3D('',#163,#164,#165);
#163 = CARTESIAN_POINT('',(6.,315.,213.));
#164 = DIRECTION('',(-1.,6.123233995737E-17,0.));
#165 = DIRECTION('',(5.365275039614E-17,0.876215908677,0.481918749772));
#166 = ADVANCED_FACE('',(#167),#187,.F.);
#167 = FACE_BOUND('',#168,.T.);
#168 = EDGE_LOOP('',(#169,#178,#185,#186));
#169 = ORIENTED_EDGE('',*,*,#170,.T.);
#170 = EDGE_CURVE('',#171,#171,#173,.T.);
#171 = VERTEX_POINT('',#172);
#172 = CARTESIAN_POINT('',(-6.,324.20694055148,218.06381730331));
#173 = CIRCLE('',#174,10.507616285343);
#174 = AXIS2_PLACEMENT_3D('',#175,#176,#177);
#175 = CARTESIAN_POINT('',(-6.,315.,213.));
#176 = DIRECTION('',(-1.,6.123233995737E-17,0.));
#177 = DIRECTION('',(5.365275039614E-17,0.876215908677,0.481918749772));
#178 = ORIENTED_EDGE('',*,*,#179,.T.);
#179 = EDGE_CURVE('',#171,#154,#180,.T.);
#180 = CIRCLE('',#181,12.1);
#181 = AXIS2_PLACEMENT_3D('',#182,#183,#184);
#182 = CARTESIAN_POINT('',(1.928818708657E-14,315.,213.));
#183 = DIRECTION('',(0.,0.481918749772,-0.876215908677));
#184 = DIRECTION('',(-0.495867768595,0.760904177809,0.418497297795));
#185 = ORIENTED_EDGE('',*,*,#153,.F.);
#186 = ORIENTED_EDGE('',*,*,#179,.F.);
#187 = SPHERICAL_SURFACE('',#188,12.1);
#188 = AXIS2_PLACEMENT_3D('',#189,#190,#191);
#189 = CARTESIAN_POINT('',(1.928818708657E-14,315.,213.));
#190 = DIRECTION('',(1.,-6.123233995737E-17,-0.));
#191 = DIRECTION('',(5.365275039614E-17,0.876215908677,0.481918749772));
#192 = ADVANCED_FACE('',(#193),#203,.T.);
#193 = FACE_BOUND('',#194,.T.);
#194 = EDGE_LOOP('',(#195,#202));
#195 = ORIENTED_EDGE('',*,*,#196,.T.);
#196 = EDGE_CURVE('',#138,#129,#197,.T.);
#197 = CIRCLE('',#198,9.5);
#198 = AXIS2_PLACEMENT_3D('',#199,#200,#201);
#199 = CARTESIAN_POINT('',(1.859070133142E-14,303.6091931872,
    206.73505625296));
#200 = DIRECTION('',(5.365275039614E-17,0.876215908677,0.481918749772));
#201 = DIRECTION('',(2.950901271788E-17,0.481918749772,-0.876215908677)
  );
#202 = ORIENTED_EDGE('',*,*,#145,.T.);
#203 = PLANE('',#204);
#204 = AXIS2_PLACEMENT_3D('',#205,#206,#207);
#205 = CARTESIAN_POINT('',(1.840274188482E-14,303.6091931872,
    206.73505625296));
#206 = DIRECTION('',(5.365275039614E-17,0.876215908677,0.481918749772));
#207 = DIRECTION('',(2.950901271788E-17,0.481918749772,-0.876215908677)
  );
#208 = ADVANCED_FACE('',(#209),#219,.T.);
#209 = FACE_BOUND('',#210,.T.);
#210 = EDGE_LOOP('',(#211,#212));
#211 = ORIENTED_EDGE('',*,*,#42,.T.);
#212 = ORIENTED_EDGE('',*,*,#213,.T.);
#213 = EDGE_CURVE('',#33,#43,#214,.T.);
#214 = CIRCLE('',#215,9.5);
#215 = AXIS2_PLACEMENT_3D('',#216,#217,#218);
#216 = CARTESIAN_POINT('',(1.859070133142E-14,303.6091931872,
    206.73505625296));
#217 = DIRECTION('',(5.365275039614E-17,0.876215908677,0.481918749772));
#218 = DIRECTION('',(2.950901271788E-17,0.481918749772,-0.876215908677)
  );
#219 = PLANE('',#220);
#220 = AXIS2_PLACEMENT_3D('',#221,#222,#223);
#221 = CARTESIAN_POINT('',(1.840274188482E-14,303.6091931872,
    206.73505625296));
#222 = DIRECTION('',(5.365275039614E-17,0.876215908677,0.481918749772));
#223 = DIRECTION('',(2.950901271788E-17,0.481918749772,-0.876215908677)
  );
#224 = ADVANCED_FACE('',(#225),#276,.T.);
#225 = FACE_BOUND('',#226,.F.);
#226 = EDGE_LOOP('',(#227,#236,#242,#243,#244,#252,#261,#267,#268,#269,
    #270,#271,#272,#273,#274,#275));
#227 = ORIENTED_EDGE('',*,*,#228,.F.);
#228 = EDGE_CURVE('',#229,#229,#231,.T.);
#229 = VERTEX_POINT('',#230);
#230 = CARTESIAN_POINT('',(1.688588518758E-14,275.767432689,
    180.58001137896));
#231 = CIRCLE('',#232,9.5);
#232 = AXIS2_PLACEMENT_3D('',#233,#234,#235);
#233 = CARTESIAN_POINT('',(1.660554956676E-14,271.18920456616,
    188.90406251139));
#234 = DIRECTION('',(5.365275039614E-17,0.876215908677,0.481918749772));
#235 = DIRECTION('',(2.950901271788E-17,0.481918749772,-0.876215908677)
  );
#236 = ORIENTED_EDGE('',*,*,#237,.T.);
#237 = EDGE_CURVE('',#229,#104,#238,.T.);
#238 = LINE('',#239,#240);
#239 = CARTESIAN_POINT('',(1.688588518758E-14,275.767432689,
    180.58001137896));
#240 = VECTOR('',#241,1.);
#241 = DIRECTION('',(5.365275039614E-17,0.876215908677,0.481918749772));
#242 = ORIENTED_EDGE('',*,*,#112,.T.);
#243 = ORIENTED_EDGE('',*,*,#87,.T.);
#244 = ORIENTED_EDGE('',*,*,#245,.F.);
#245 = EDGE_CURVE('',#246,#22,#248,.T.);
#246 = VERTEX_POINT('',#247);
#247 = CARTESIAN_POINT('',(-6.,307.1587464288,200.28132308641));
#248 = LINE('',#249,#250);
#249 = CARTESIAN_POINT('',(-6.,274.73875780777,182.45032934484));
#250 = VECTOR('',#251,1.);
#251 = DIRECTION('',(-5.365275039614E-17,-0.876215908677,-0.481918749772
    ));
#252 = ORIENTED_EDGE('',*,*,#253,.T.);
#253 = EDGE_CURVE('',#246,#254,#256,.T.);
#254 = VERTEX_POINT('',#255);
#255 = CARTESIAN_POINT('',(-6.,300.0596399456,213.18878941951));
#256 = CIRCLE('',#257,9.5);
#257 = AXIS2_PLACEMENT_3D('',#258,#259,#260);
#258 = CARTESIAN_POINT('',(1.859070133142E-14,303.6091931872,
    206.73505625296));
#259 = DIRECTION('',(5.365275039614E-17,0.876215908677,0.481918749772));
#260 = DIRECTION('',(2.950901271788E-17,0.481918749772,-0.876215908677)
  );
#261 = ORIENTED_EDGE('',*,*,#262,.T.);
#262 = EDGE_CURVE('',#254,#24,#263,.T.);
#263 = LINE('',#264,#265);
#264 = CARTESIAN_POINT('',(-6.,267.63965132456,195.35779567794));
#265 = VECTOR('',#266,1.);
#266 = DIRECTION('',(-5.365275039614E-17,-0.876215908677,-0.481918749772
    ));
#267 = ORIENTED_EDGE('',*,*,#32,.T.);
#268 = ORIENTED_EDGE('',*,*,#213,.T.);
#269 = ORIENTED_EDGE('',*,*,#50,.T.);
#270 = ORIENTED_EDGE('',*,*,#137,.F.);
#271 = ORIENTED_EDGE('',*,*,#196,.T.);
#272 = ORIENTED_EDGE('',*,*,#128,.T.);
#273 = ORIENTED_EDGE('',*,*,#69,.T.);
#274 = ORIENTED_EDGE('',*,*,#103,.T.);
#275 = ORIENTED_EDGE('',*,*,#237,.F.);
#276 = CYLINDRICAL_SURFACE('',#277,9.5);
#277 = AXIS2_PLACEMENT_3D('',#278,#279,#280);
#278 = CARTESIAN_POINT('',(1.660554956676E-14,271.18920456616,
    188.90406251139));
#279 = DIRECTION('',(-5.365275039614E-17,-0.876215908677,-0.481918749772
    ));
#280 = DIRECTION('',(2.950901271788E-17,0.481918749772,-0.876215908677)
  );
#281 = ADVANCED_FACE('',(#282),#291,.T.);
#282 = FACE_BOUND('',#283,.T.);
#283 = EDGE_LOOP('',(#284,#290));
#284 = ORIENTED_EDGE('',*,*,#285,.T.);
#285 = EDGE_CURVE('',#254,#246,#286,.T.);
#286 = LINE('',#287,#288);
#287 = CARTESIAN_POINT('',(-6.,303.6091931872,206.73505625296));
#288 = VECTOR('',#289,1.);
#289 = DIRECTION('',(2.950901271788E-17,0.481918749772,-0.876215908677)
  );
#290 = ORIENTED_EDGE('',*,*,#253,.T.);
#291 = PLANE('',#292);
#292 = AXIS2_PLACEMENT_3D('',#293,#294,#295);
#293 = CARTESIAN_POINT('',(1.840274188482E-14,303.6091931872,
    206.73505625296));
#294 = DIRECTION('',(5.365275039614E-17,0.876215908677,0.481918749772));
#295 = DIRECTION('',(2.950901271788E-17,0.481918749772,-0.876215908677)
  );
#296 = ADVANCED_FACE('',(#297),#300,.F.);
#297 = FACE_BOUND('',#298,.F.);
#298 = EDGE_LOOP('',(#299));
#299 = ORIENTED_EDGE('',*,*,#228,.T.);
#300 = PLANE('',#301);
#301 = AXIS2_PLACEMENT_3D('',#302,#303,#304);
#302 = CARTESIAN_POINT('',(1.641759012016E-14,271.18920456616,
    188.90406251139));
#303 = DIRECTION('',(5.365275039614E-17,0.876215908677,0.481918749772));
#304 = DIRECTION('',(2.950901271788E-17,0.481918749772,-0.876215908677)
  );
#305 = ADVANCED_FACE('',(#306,#312),#315,.T.);
#306 = FACE_BOUND('',#307,.T.);
#307 = EDGE_LOOP('',(#308,#309,#310,#311));
#308 = ORIENTED_EDGE('',*,*,#262,.T.);
#309 = ORIENTED_EDGE('',*,*,#21,.F.);
#310 = ORIENTED_EDGE('',*,*,#245,.F.);
#311 = ORIENTED_EDGE('',*,*,#285,.F.);
#312 = FACE_BOUND('',#313,.T.);
#313 = EDGE_LOOP('',(#314));
#314 = ORIENTED_EDGE('',*,*,#170,.F.);
#315 = PLANE('',#316);
#316 = AXIS2_PLACEMENT_3D('',#317,#318,#319);
#317 = CARTESIAN_POINT('',(-6.,315.,213.));
#318 = DIRECTION('',(-1.,6.123233995737E-17,0.));
#319 = DIRECTION('',(5.365275039614E-17,0.876215908677,0.481918749772));
#320 = ( GEOMETRIC_REPRESENTATION_CONTEXT(3) 
GLOBAL_UNCERTAINTY_ASSIGNED_CONTEXT((#324)) GLOBAL_UNIT_ASSIGNED_CONTEXT
((#321,#322,#323)) REPRESENTATION_CONTEXT('Context #1',
  '3D Context with UNIT and UNCERTAINTY') );
#321 = ( LENGTH_UNIT() NAMED_UNIT(*) SI_UNIT(.MILLI.,.METRE.) );
#322 = ( NAMED_UNIT(*) PLANE_ANGLE_UNIT() SI_UNIT($,.RADIAN.) );
#323 = ( NAMED_UNIT(*) SI_UNIT($,.STERADIAN.) SOLID_ANGLE_UNIT() );
#324 = UNCERTAINTY_MEASURE_WITH_UNIT(LENGTH_MEASURE(1.E-07),#321,
  'distance_accuracy_value','confusion accuracy');
#325 = PRODUCT_RELATED_PRODUCT_CATEGORY('part',$,(#7));
ENDSEC;
END-ISO-10303-21;
