ISO-10303-21;
HEADER;
FILE_DESCRIPTION(('Open CASCADE Model'),'2;1');
FILE_NAME('Open CASCADE Shape Model','2026-09-05T18:16:32',('Author'),(
    'Open CASCADE'),'Open CASCADE STEP processor 7.9','Open CASCADE 7.9'
  ,'Unknown');
FILE_SCHEMA(('AUTOMOTIVE_DESIGN { 1 0 10303 214 1 1 1 1 }'));
ENDSEC;
DATA;
#1 = APPLICATION_PROTOCOL_DEFINITION('international standard',
  'automotive_design',2000,#2);
#2 = APPLICATION_CONTEXT(
  'core data for automotive mechanical design processes');
#3 = SHAPE_DEFINITION_REPRESENTATION(#4,#10);
#4 = PRODUCT_DEFINITION_SHAPE('','',#5);
#5 = PRODUCT_DEFINITION('design','',#6,#9);
#6 = PRODUCT_DEFINITION_FORMATION('','',#7);
#7 = PRODUCT('Open CASCADE STEP translator 7.9 1',
  'Open CASCADE STEP translator 7.9 1','',(#8));
#8 = PRODUCT_CONTEXT('',#2,'mechanical');
#9 = PRODUCT_DEFINITION_CONTEXT('part definition',#2,'design');
#10 = ADVANCED_BREP_SHAPE_REPRESENTATION('',(#11,#15),#684);
#11 = AXIS2_PLACEMENT_3D('',#12,#13,#14);
#12 = CARTESIAN_POINT('',(0.,0.,0.));
#13 = DIRECTION('',(0.,0.,1.));
#14 = DIRECTION('',(1.,0.,-0.));
#15 = MANIFOLD_SOLID_BREP('',#16);
#16 = CLOSED_SHELL('',(#17,#260,#310,#411,#462,#488,#514,#647,#670,#674)
  );
#17 = ADVANCED_FACE('',(#18),#33,.T.);
#18 = FACE_BOUND('',#19,.T.);
#19 = EDGE_LOOP('',(#20,#60,#94,#120,#149,#178,#207,#233));
#20 = ORIENTED_EDGE('',*,*,#21,.T.);
#21 = EDGE_CURVE('',#22,#24,#26,.T.);
#22 = VERTEX_POINT('',#23);
#23 = CARTESIAN_POINT('',(-6.,307.09992224737,200.24896978662));
#24 = VERTEX_POINT('',#25);
#25 = CARTESIAN_POINT('',(-6.,300.00081576416,213.15643611972));
#26 = SURFACE_CURVE('',#27,(#32,#44),.PCURVE_S1.);
#27 = CIRCLE('',#28,15.);
#28 = AXIS2_PLACEMENT_3D('',#29,#30,#31);
#29 = CARTESIAN_POINT('',(-6.,315.,213.));
#30 = DIRECTION('',(1.,-6.123233995737E-17,-3.08148791102E-33));
#31 = DIRECTION('',(-3.22493497759E-17,-0.526671850175,-0.850068680892)
  );
#32 = PCURVE('',#33,#38);
#33 = CYLINDRICAL_SURFACE('',#34,15.);
#34 = AXIS2_PLACEMENT_3D('',#35,#36,#37);
#35 = CARTESIAN_POINT('',(6.,315.,213.));
#36 = DIRECTION('',(-1.,6.123233995737E-17,0.));
#37 = DIRECTION('',(5.365275039614E-17,0.876215908677,0.481918749772));
#38 = DEFINITIONAL_REPRESENTATION('',(#39),#43);
#39 = LINE('',#40,#41);
#40 = CARTESIAN_POINT('',(8.91150548613,12.));
#41 = VECTOR('',#42,1.);
#42 = DIRECTION('',(-1.,-0.));
#43 = ( GEOMETRIC_REPRESENTATION_CONTEXT(2) 
PARAMETRIC_REPRESENTATION_CONTEXT() REPRESENTATION_CONTEXT('2D SPACE',''
  ) );
#44 = PCURVE('',#45,#50);
#45 = PLANE('',#46);
#46 = AXIS2_PLACEMENT_3D('',#47,#48,#49);
#47 = CARTESIAN_POINT('',(-6.,315.,213.));
#48 = DIRECTION('',(-1.,6.123233995737E-17,0.));
#49 = DIRECTION('',(5.365275039614E-17,0.876215908677,0.481918749772));
#50 = DEFINITIONAL_REPRESENTATION('',(#51),#59);
#51 = ( BOUNDED_CURVE() B_SPLINE_CURVE(2,(#52,#53,#54,#55,#56,#57,#58),
.UNSPECIFIED.,.T.,.F.) B_SPLINE_CURVE_WITH_KNOTS((1,2,2,2,2,1),(
    -2.094395102393,0.,2.094395102393,4.188790204786,6.28318530718,
8.377580409573),.UNSPECIFIED.) CURVE() GEOMETRIC_REPRESENTATION_ITEM() 
RATIONAL_B_SPLINE_CURVE((1.,0.5,1.,0.5,1.,0.5,1.)) REPRESENTATION_ITEM(
  '') );
#52 = CARTESIAN_POINT('',(-13.06713434537,7.365459931328));
#53 = CARTESIAN_POINT('',(-0.309783523199,29.998400526841));
#54 = CARTESIAN_POINT('',(12.912242583773,7.633740332092));
#55 = CARTESIAN_POINT('',(26.134268690744,-14.73091986265));
#56 = CARTESIAN_POINT('',(0.154891761599,-14.99920026342));
#57 = CARTESIAN_POINT('',(-25.82448516754,-15.26748066418));
#58 = CARTESIAN_POINT('',(-13.06713434537,7.365459931328));
#59 = ( GEOMETRIC_REPRESENTATION_CONTEXT(2) 
PARAMETRIC_REPRESENTATION_CONTEXT() REPRESENTATION_CONTEXT('2D SPACE',''
  ) );
#60 = ORIENTED_EDGE('',*,*,#61,.T.);
#61 = EDGE_CURVE('',#24,#62,#64,.T.);
#62 = VERTEX_POINT('',#63);
#63 = CARTESIAN_POINT('',(-5.85234995536,300.00284348738,213.29205570718
    ));
#64 = SURFACE_CURVE('',#65,(#71,#80),.PCURVE_S1.);
#65 = B_SPLINE_CURVE_WITH_KNOTS('',4,(#66,#67,#68,#69,#70),
  .UNSPECIFIED.,.F.,.F.,(5,5),(0.,1.),.PIECEWISE_BEZIER_KNOTS.);
#66 = CARTESIAN_POINT('',(-6.0000006,300.00081575831,213.15643555868));
#67 = CARTESIAN_POINT('',(-5.963296154659,300.00117371067,
    213.19075635781));
#68 = CARTESIAN_POINT('',(-5.926451575236,300.00163349744,
    213.22480041425));
#69 = CARTESIAN_POINT('',(-5.889468540648,300.00219133109,
    213.25856740565));
#70 = CARTESIAN_POINT('',(-5.852348622562,300.0028435108,213.29205690962
    ));
#71 = PCURVE('',#33,#72);
#72 = DEFINITIONAL_REPRESENTATION('',(#73),#79);
#73 = B_SPLINE_CURVE_WITH_KNOTS('',4,(#74,#75,#76,#77,#78),
  .UNSPECIFIED.,.F.,.F.,(5,5),(4.086698344068E-06,0.9999910237),
  .PIECEWISE_BEZIER_KNOTS.);
#74 = CARTESIAN_POINT('',(3.654865128229,12.));
#75 = CARTESIAN_POINT('',(3.657153275829,11.963296032411));
#76 = CARTESIAN_POINT('',(3.659423046206,11.926451934415));
#77 = CARTESIAN_POINT('',(3.661674447158,11.889469384863));
#78 = CARTESIAN_POINT('',(3.663907475396,11.85234995536));
#79 = ( GEOMETRIC_REPRESENTATION_CONTEXT(2) 
PARAMETRIC_REPRESENTATION_CONTEXT() REPRESENTATION_CONTEXT('2D SPACE',''
  ) );
#80 = PCURVE('',#81,#86);
#81 = CYLINDRICAL_SURFACE('',#82,9.5);
#82 = AXIS2_PLACEMENT_3D('',#83,#84,#85);
#83 = CARTESIAN_POINT('',(1.660554956676E-14,271.18920456616,
    188.90406251139));
#84 = DIRECTION('',(-5.365275039614E-17,-0.876215908677,-0.481918749772)
  );
#85 = DIRECTION('',(2.950901271788E-17,0.481918749772,-0.876215908677));
#86 = DEFINITIONAL_REPRESENTATION('',(#87),#93);
#87 = B_SPLINE_CURVE_WITH_KNOTS('',4,(#88,#89,#90,#91,#92),
  .UNSPECIFIED.,.F.,.F.,(5,5),(0.,1.),.PIECEWISE_BEZIER_KNOTS.);
#88 = CARTESIAN_POINT('',(-2.458004512956,-36.93286537912));
#89 = CARTESIAN_POINT('',(-2.462987833498,-36.94971885928));
#90 = CARTESIAN_POINT('',(-2.467963207002,-36.96652820088));
#91 = CARTESIAN_POINT('',(-2.472930928916,-36.98328992988));
#92 = CARTESIAN_POINT('',(-2.477891285929,-37.0000006));
#93 = ( GEOMETRIC_REPRESENTATION_CONTEXT(2) 
PARAMETRIC_REPRESENTATION_CONTEXT() REPRESENTATION_CONTEXT('2D SPACE',''
  ) );
#94 = ORIENTED_EDGE('',*,*,#95,.F.);
#95 = EDGE_CURVE('',#96,#62,#98,.T.);
#96 = VERTEX_POINT('',#97);
#97 = CARTESIAN_POINT('',(5.85234995536,300.00284348738,213.29205570718)
  );
#98 = SURFACE_CURVE('',#99,(#103,#109),.PCURVE_S1.);
#99 = LINE('',#100,#101);
#100 = CARTESIAN_POINT('',(6.,300.00284348738,213.29205570718));
#101 = VECTOR('',#102,1.);
#102 = DIRECTION('',(-1.,6.123233995737E-17,0.));
#103 = PCURVE('',#33,#104);
#104 = DEFINITIONAL_REPRESENTATION('',(#105),#108);
#105 = B_SPLINE_CURVE_WITH_KNOTS('',1,(#106,#107),.UNSPECIFIED.,.F.,.F.,
  (2,2),(0.14765004464,11.85234995536),.PIECEWISE_BEZIER_KNOTS.);
#106 = CARTESIAN_POINT('',(3.663907475396,0.14765004464));
#107 = CARTESIAN_POINT('',(3.663907475396,11.85234995536));
#108 = ( GEOMETRIC_REPRESENTATION_CONTEXT(2) 
PARAMETRIC_REPRESENTATION_CONTEXT() REPRESENTATION_CONTEXT('2D SPACE',''
  ) );
#109 = PCURVE('',#110,#115);
#110 = PLANE('',#111);
#111 = AXIS2_PLACEMENT_3D('',#112,#113,#114);
#112 = CARTESIAN_POINT('',(1.840274188482E-14,303.6091931872,
    206.73505625296));
#113 = DIRECTION('',(5.365275039614E-17,0.876215908677,0.481918749772));
#114 = DIRECTION('',(2.950901271788E-17,0.481918749772,-0.876215908677)
  );
#115 = DEFINITIONAL_REPRESENTATION('',(#116),#119);
#116 = B_SPLINE_CURVE_WITH_KNOTS('',1,(#117,#118),.UNSPECIFIED.,.F.,.F.,
  (2,2),(-5.999999999062E-07,12.0000006),.PIECEWISE_BEZIER_KNOTS.);
#117 = CARTESIAN_POINT('',(-7.483314773548,-6.0000006));
#118 = CARTESIAN_POINT('',(-7.483314773548,6.0000006));
#119 = ( GEOMETRIC_REPRESENTATION_CONTEXT(2) 
PARAMETRIC_REPRESENTATION_CONTEXT() REPRESENTATION_CONTEXT('2D SPACE',''
  ) );
#120 = ORIENTED_EDGE('',*,*,#121,.T.);
#121 = EDGE_CURVE('',#96,#122,#124,.T.);
#122 = VERTEX_POINT('',#123);
#123 = CARTESIAN_POINT('',(6.,300.00081576416,213.15643611972));
#124 = SURFACE_CURVE('',#125,(#131,#140),.PCURVE_S1.);
#125 = B_SPLINE_CURVE_WITH_KNOTS('',4,(#126,#127,#128,#129,#130),
  .UNSPECIFIED.,.F.,.F.,(5,5),(0.,1.),.PIECEWISE_BEZIER_KNOTS.);
#126 = CARTESIAN_POINT('',(5.852348622562,300.0028435108,213.29205690962
    ));
#127 = CARTESIAN_POINT('',(5.889468540648,300.00219133109,
    213.25856740565));
#128 = CARTESIAN_POINT('',(5.926451575236,300.00163349744,
    213.22480041425));
#129 = CARTESIAN_POINT('',(5.963296154659,300.00117371067,
    213.19075635781));
#130 = CARTESIAN_POINT('',(6.0000006,300.00081575831,213.15643555868));
#131 = PCURVE('',#33,#132);
#132 = DEFINITIONAL_REPRESENTATION('',(#133),#139);
#133 = B_SPLINE_CURVE_WITH_KNOTS('',4,(#134,#135,#136,#137,#138),
  .UNSPECIFIED.,.F.,.F.,(5,5),(8.976300540705E-06,0.999995913302),
  .PIECEWISE_BEZIER_KNOTS.);
#134 = CARTESIAN_POINT('',(3.663907475396,0.14765004464));
#135 = CARTESIAN_POINT('',(3.661674447158,0.110530615137));
#136 = CARTESIAN_POINT('',(3.659423046206,7.354806558515E-02));
#137 = CARTESIAN_POINT('',(3.657153275829,3.670396758859E-02));
#138 = CARTESIAN_POINT('',(3.654865128229,2.450159425782E-15));
#139 = ( GEOMETRIC_REPRESENTATION_CONTEXT(2) 
PARAMETRIC_REPRESENTATION_CONTEXT() REPRESENTATION_CONTEXT('2D SPACE',''
  ) );
#140 = PCURVE('',#81,#141);
#141 = DEFINITIONAL_REPRESENTATION('',(#142),#148);
#142 = B_SPLINE_CURVE_WITH_KNOTS('',4,(#143,#144,#145,#146,#147),
  .UNSPECIFIED.,.F.,.F.,(5,5),(0.,1.),.PIECEWISE_BEZIER_KNOTS.);
#143 = CARTESIAN_POINT('',(-3.805294021251,-37.0000006));
#144 = CARTESIAN_POINT('',(-3.810254378264,-36.98328992988));
#145 = CARTESIAN_POINT('',(-3.815222100177,-36.96652820088));
#146 = CARTESIAN_POINT('',(-3.820197473682,-36.94971885928));
#147 = CARTESIAN_POINT('',(-3.825180794224,-36.93286537912));
#148 = ( GEOMETRIC_REPRESENTATION_CONTEXT(2) 
PARAMETRIC_REPRESENTATION_CONTEXT() REPRESENTATION_CONTEXT('2D SPACE',''
  ) );
#149 = ORIENTED_EDGE('',*,*,#150,.T.);
#150 = EDGE_CURVE('',#122,#151,#153,.T.);
#151 = VERTEX_POINT('',#152);
#152 = CARTESIAN_POINT('',(6.,307.09992224737,200.24896978662));
#153 = SURFACE_CURVE('',#154,(#159,#166),.PCURVE_S1.);
#154 = CIRCLE('',#155,15.);
#155 = AXIS2_PLACEMENT_3D('',#156,#157,#158);
#156 = CARTESIAN_POINT('',(6.,315.,213.));
#157 = DIRECTION('',(-1.,6.123233995737E-17,1.059261469413E-33));
#158 = DIRECTION('',(-6.122900988078E-17,-0.999945615722,
    1.042907464824E-02));
#159 = PCURVE('',#33,#160);
#160 = DEFINITIONAL_REPRESENTATION('',(#161),#165);
#161 = LINE('',#162,#163);
#162 = CARTESIAN_POINT('',(3.654865128229,0.));
#163 = VECTOR('',#164,1.);
#164 = DIRECTION('',(1.,0.));
#165 = ( GEOMETRIC_REPRESENTATION_CONTEXT(2) 
PARAMETRIC_REPRESENTATION_CONTEXT() REPRESENTATION_CONTEXT('2D SPACE',''
  ) );
#166 = PCURVE('',#167,#172);
#167 = PLANE('',#168);
#168 = AXIS2_PLACEMENT_3D('',#169,#170,#171);
#169 = CARTESIAN_POINT('',(6.,315.,213.));
#170 = DIRECTION('',(-1.,6.123233995737E-17,0.));
#171 = DIRECTION('',(5.365275039614E-17,0.876215908677,0.481918749772));
#172 = DEFINITIONAL_REPRESENTATION('',(#173),#177);
#173 = CIRCLE('',#174,15.);
#174 = AXIS2_PLACEMENT_2D('',#175,#176);
#175 = CARTESIAN_POINT('',(0.,0.));
#176 = DIRECTION('',(-0.871142289691,-0.491030662089));
#177 = ( GEOMETRIC_REPRESENTATION_CONTEXT(2) 
PARAMETRIC_REPRESENTATION_CONTEXT() REPRESENTATION_CONTEXT('2D SPACE',''
  ) );
#178 = ORIENTED_EDGE('',*,*,#179,.T.);
#179 = EDGE_CURVE('',#151,#180,#182,.T.);
#180 = VERTEX_POINT('',#181);
#181 = CARTESIAN_POINT('',(5.85234995536,307.21554288702,200.17805679874
    ));
#182 = SURFACE_CURVE('',#183,(#189,#198),.PCURVE_S1.);
#183 = B_SPLINE_CURVE_WITH_KNOTS('',4,(#184,#185,#186,#187,#188),
  .UNSPECIFIED.,.F.,.F.,(5,5),(0.,1.),.PIECEWISE_BEZIER_KNOTS.);
#184 = CARTESIAN_POINT('',(6.0000006,307.09992177042,200.24897008212));
#185 = CARTESIAN_POINT('',(5.963296154659,307.12909839293,
    200.23089329916));
#186 = CARTESIAN_POINT('',(5.926451575236,307.1580958312,200.2130507165)
  );
#187 = CARTESIAN_POINT('',(5.889468540648,307.18691178476,
    200.19543930807));
#188 = CARTESIAN_POINT('',(5.852348622562,307.21554391506,
    200.17805617459));
#189 = PCURVE('',#33,#190);
#190 = DEFINITIONAL_REPRESENTATION('',(#191),#197);
#191 = B_SPLINE_CURVE_WITH_KNOTS('',4,(#192,#193,#194,#195,#196),
  .UNSPECIFIED.,.F.,.F.,(5,5),(4.086698312947E-06,0.9999910237),
  .PIECEWISE_BEZIER_KNOTS.);
#192 = CARTESIAN_POINT('',(8.91150548613,-6.547608119184E-15));
#193 = CARTESIAN_POINT('',(8.90921733853,3.670396758859E-02));
#194 = CARTESIAN_POINT('',(8.906947568153,7.354806558518E-02));
#195 = CARTESIAN_POINT('',(8.904696167201,0.110530615137));
#196 = CARTESIAN_POINT('',(8.902463138963,0.14765004464));
#197 = ( GEOMETRIC_REPRESENTATION_CONTEXT(2) 
PARAMETRIC_REPRESENTATION_CONTEXT() REPRESENTATION_CONTEXT('2D SPACE',''
  ) );
#198 = PCURVE('',#81,#199);
#199 = DEFINITIONAL_REPRESENTATION('',(#200),#206);
#200 = B_SPLINE_CURVE_WITH_KNOTS('',4,(#201,#202,#203,#204,#205),
  .UNSPECIFIED.,.F.,.F.,(5,5),(0.,1.),.PIECEWISE_BEZIER_KNOTS.);
#201 = CARTESIAN_POINT('',(-5.599597166546,-36.93286537912));
#202 = CARTESIAN_POINT('',(-5.604580487088,-36.94971885928));
#203 = CARTESIAN_POINT('',(-5.609555860592,-36.96652820088));
#204 = CARTESIAN_POINT('',(-5.614523582506,-36.98328992988));
#205 = CARTESIAN_POINT('',(-5.619483939518,-37.0000006));
#206 = ( GEOMETRIC_REPRESENTATION_CONTEXT(2) 
PARAMETRIC_REPRESENTATION_CONTEXT() REPRESENTATION_CONTEXT('2D SPACE',''
  ) );
#207 = ORIENTED_EDGE('',*,*,#208,.T.);
#208 = EDGE_CURVE('',#180,#209,#211,.T.);
#209 = VERTEX_POINT('',#210);
#210 = CARTESIAN_POINT('',(-5.85234995536,307.21554288702,
    200.17805679874));
#211 = SURFACE_CURVE('',#212,(#216,#222),.PCURVE_S1.);
#212 = LINE('',#213,#214);
#213 = CARTESIAN_POINT('',(6.,307.21554288702,200.17805679874));
#214 = VECTOR('',#215,1.);
#215 = DIRECTION('',(-1.,6.123233995737E-17,0.));
#216 = PCURVE('',#33,#217);
#217 = DEFINITIONAL_REPRESENTATION('',(#218),#221);
#218 = B_SPLINE_CURVE_WITH_KNOTS('',1,(#219,#220),.UNSPECIFIED.,.F.,.F.,
  (2,2),(0.14765004464,11.85234995536),.PIECEWISE_BEZIER_KNOTS.);
#219 = CARTESIAN_POINT('',(8.902463138963,0.14765004464));
#220 = CARTESIAN_POINT('',(8.902463138963,11.85234995536));
#221 = ( GEOMETRIC_REPRESENTATION_CONTEXT(2) 
PARAMETRIC_REPRESENTATION_CONTEXT() REPRESENTATION_CONTEXT('2D SPACE',''
  ) );
#222 = PCURVE('',#223,#228);
#223 = PLANE('',#224);
#224 = AXIS2_PLACEMENT_3D('',#225,#226,#227);
#225 = CARTESIAN_POINT('',(1.840274188482E-14,303.6091931872,
    206.73505625296));
#226 = DIRECTION('',(5.365275039614E-17,0.876215908677,0.481918749772));
#227 = DIRECTION('',(2.950901271788E-17,0.481918749772,-0.876215908677)
  );
#228 = DEFINITIONAL_REPRESENTATION('',(#229),#232);
#229 = B_SPLINE_CURVE_WITH_KNOTS('',1,(#230,#231),.UNSPECIFIED.,.F.,.F.,
  (2,2),(-5.999999999062E-07,12.0000006),.PIECEWISE_BEZIER_KNOTS.);
#230 = CARTESIAN_POINT('',(7.483314773548,-6.0000006));
#231 = CARTESIAN_POINT('',(7.483314773548,6.0000006));
#232 = ( GEOMETRIC_REPRESENTATION_CONTEXT(2) 
PARAMETRIC_REPRESENTATION_CONTEXT() REPRESENTATION_CONTEXT('2D SPACE',''
  ) );
#233 = ORIENTED_EDGE('',*,*,#234,.T.);
#234 = EDGE_CURVE('',#209,#22,#235,.T.);
#235 = SURFACE_CURVE('',#236,(#242,#251),.PCURVE_S1.);
#236 = B_SPLINE_CURVE_WITH_KNOTS('',4,(#237,#238,#239,#240,#241),
  .UNSPECIFIED.,.F.,.F.,(5,5),(0.,1.),.PIECEWISE_BEZIER_KNOTS.);
#237 = CARTESIAN_POINT('',(-5.852348622562,307.21554391506,
    200.17805617459));
#238 = CARTESIAN_POINT('',(-5.889468540648,307.18691178476,
    200.19543930807));
#239 = CARTESIAN_POINT('',(-5.926451575236,307.1580958312,200.2130507165
    ));
#240 = CARTESIAN_POINT('',(-5.963296154659,307.12909839293,
    200.23089329916));
#241 = CARTESIAN_POINT('',(-6.0000006,307.09992177042,200.24897008212));
#242 = PCURVE('',#33,#243);
#243 = DEFINITIONAL_REPRESENTATION('',(#244),#250);
#244 = B_SPLINE_CURVE_WITH_KNOTS('',4,(#245,#246,#247,#248,#249),
  .UNSPECIFIED.,.F.,.F.,(5,5),(8.976300337638E-06,0.999995913302),
  .PIECEWISE_BEZIER_KNOTS.);
#245 = CARTESIAN_POINT('',(8.902463138963,11.85234995536));
#246 = CARTESIAN_POINT('',(8.904696167201,11.889469384863));
#247 = CARTESIAN_POINT('',(8.906947568153,11.926451934415));
#248 = CARTESIAN_POINT('',(8.90921733853,11.963296032411));
#249 = CARTESIAN_POINT('',(8.91150548613,12.));
#250 = ( GEOMETRIC_REPRESENTATION_CONTEXT(2) 
PARAMETRIC_REPRESENTATION_CONTEXT() REPRESENTATION_CONTEXT('2D SPACE',''
  ) );
#251 = PCURVE('',#81,#252);
#252 = DEFINITIONAL_REPRESENTATION('',(#253),#259);
#253 = B_SPLINE_CURVE_WITH_KNOTS('',4,(#254,#255,#256,#257,#258),
  .UNSPECIFIED.,.F.,.F.,(5,5),(0.,1.),.PIECEWISE_BEZIER_KNOTS.);
#254 = CARTESIAN_POINT('',(-0.663701367661,-37.0000006));
#255 = CARTESIAN_POINT('',(-0.668661724674,-36.98328992988));
#256 = CARTESIAN_POINT('',(-0.673629446588,-36.96652820088));
#257 = CARTESIAN_POINT('',(-0.678604820092,-36.94971885928));
#258 = CARTESIAN_POINT('',(-0.683588140634,-36.93286537912));
#259 = ( GEOMETRIC_REPRESENTATION_CONTEXT(2) 
PARAMETRIC_REPRESENTATION_CONTEXT() REPRESENTATION_CONTEXT('2D SPACE',''
  ) );
#260 = ADVANCED_FACE('',(#261),#223,.T.);
#261 = FACE_BOUND('',#262,.T.);
#262 = EDGE_LOOP('',(#263,#287,#309));
#263 = ORIENTED_EDGE('',*,*,#264,.T.);
#264 = EDGE_CURVE('',#180,#265,#267,.T.);
#265 = VERTEX_POINT('',#266);
#266 = CARTESIAN_POINT('',(1.887103695224E-14,308.18742131003,
    198.41100512053));
#267 = SURFACE_CURVE('',#268,(#273,#280),.PCURVE_S1.);
#268 = CIRCLE('',#269,9.5);
#269 = AXIS2_PLACEMENT_3D('',#270,#271,#272);
#270 = CARTESIAN_POINT('',(1.859070133142E-14,303.6091931872,
    206.73505625296));
#271 = DIRECTION('',(5.365275039614E-17,0.876215908677,0.481918749772));
#272 = DIRECTION('',(2.950901271788E-17,0.481918749772,-0.876215908677)
  );
#273 = PCURVE('',#223,#274);
#274 = DEFINITIONAL_REPRESENTATION('',(#275),#279);
#275 = CIRCLE('',#276,9.5);
#276 = AXIS2_PLACEMENT_2D('',#277,#278);
#277 = CARTESIAN_POINT('',(8.636463994986E-16,-1.879594466024E-16));
#278 = DIRECTION('',(1.,0.));
#279 = ( GEOMETRIC_REPRESENTATION_CONTEXT(2) 
PARAMETRIC_REPRESENTATION_CONTEXT() REPRESENTATION_CONTEXT('2D SPACE',''
  ) );
#280 = PCURVE('',#81,#281);
#281 = DEFINITIONAL_REPRESENTATION('',(#282),#286);
#282 = LINE('',#283,#284);
#283 = CARTESIAN_POINT('',(-0.,-37.));
#284 = VECTOR('',#285,1.);
#285 = DIRECTION('',(-1.,0.));
#286 = ( GEOMETRIC_REPRESENTATION_CONTEXT(2) 
PARAMETRIC_REPRESENTATION_CONTEXT() REPRESENTATION_CONTEXT('2D SPACE',''
  ) );
#287 = ORIENTED_EDGE('',*,*,#288,.T.);
#288 = EDGE_CURVE('',#265,#209,#289,.T.);
#289 = SURFACE_CURVE('',#290,(#295,#302),.PCURVE_S1.);
#290 = CIRCLE('',#291,9.5);
#291 = AXIS2_PLACEMENT_3D('',#292,#293,#294);
#292 = CARTESIAN_POINT('',(1.859070133142E-14,303.6091931872,
    206.73505625296));
#293 = DIRECTION('',(5.365275039614E-17,0.876215908677,0.481918749772));
#294 = DIRECTION('',(2.950901271788E-17,0.481918749772,-0.876215908677)
  );
#295 = PCURVE('',#223,#296);
#296 = DEFINITIONAL_REPRESENTATION('',(#297),#301);
#297 = CIRCLE('',#298,9.5);
#298 = AXIS2_PLACEMENT_2D('',#299,#300);
#299 = CARTESIAN_POINT('',(8.636463994986E-16,-1.879594466024E-16));
#300 = DIRECTION('',(1.,0.));
#301 = ( GEOMETRIC_REPRESENTATION_CONTEXT(2) 
PARAMETRIC_REPRESENTATION_CONTEXT() REPRESENTATION_CONTEXT('2D SPACE',''
  ) );
#302 = PCURVE('',#81,#303);
#303 = DEFINITIONAL_REPRESENTATION('',(#304),#308);
#304 = LINE('',#305,#306);
#305 = CARTESIAN_POINT('',(-0.,-37.));
#306 = VECTOR('',#307,1.);
#307 = DIRECTION('',(-1.,0.));
#308 = ( GEOMETRIC_REPRESENTATION_CONTEXT(2) 
PARAMETRIC_REPRESENTATION_CONTEXT() REPRESENTATION_CONTEXT('2D SPACE',''
  ) );
#309 = ORIENTED_EDGE('',*,*,#208,.F.);
#310 = ADVANCED_FACE('',(#311,#380),#167,.F.);
#311 = FACE_BOUND('',#312,.T.);
#312 = EDGE_LOOP('',(#313,#334,#335,#356));
#313 = ORIENTED_EDGE('',*,*,#314,.T.);
#314 = EDGE_CURVE('',#315,#151,#317,.T.);
#315 = VERTEX_POINT('',#316);
#316 = CARTESIAN_POINT('',(6.,307.1587464288,200.28132308641));
#317 = SURFACE_CURVE('',#318,(#322,#328),.PCURVE_S1.);
#318 = LINE('',#319,#320);
#319 = CARTESIAN_POINT('',(6.,274.73875780777,182.45032934484));
#320 = VECTOR('',#321,1.);
#321 = DIRECTION('',(-5.365275039614E-17,-0.876215908677,-0.481918749772
    ));
#322 = PCURVE('',#167,#323);
#323 = DEFINITIONAL_REPRESENTATION('',(#324),#327);
#324 = B_SPLINE_CURVE_WITH_KNOTS('',1,(#325,#326),.UNSPECIFIED.,.F.,.F.,
  (2,2),(-37.0000006,-32.),.PIECEWISE_BEZIER_KNOTS.);
#325 = CARTESIAN_POINT('',(-12.9999994,7.365459931328));
#326 = CARTESIAN_POINT('',(-18.,7.365459931328));
#327 = ( GEOMETRIC_REPRESENTATION_CONTEXT(2) 
PARAMETRIC_REPRESENTATION_CONTEXT() REPRESENTATION_CONTEXT('2D SPACE',''
  ) );
#328 = PCURVE('',#81,#329);
#329 = DEFINITIONAL_REPRESENTATION('',(#330),#333);
#330 = B_SPLINE_CURVE_WITH_KNOTS('',1,(#331,#332),.UNSPECIFIED.,.F.,.F.,
  (2,2),(-37.0000006,-32.),.PIECEWISE_BEZIER_KNOTS.);
#331 = CARTESIAN_POINT('',(-5.599597248007,-37.0000006));
#332 = CARTESIAN_POINT('',(-5.599597248007,-32.));
#333 = ( GEOMETRIC_REPRESENTATION_CONTEXT(2) 
PARAMETRIC_REPRESENTATION_CONTEXT() REPRESENTATION_CONTEXT('2D SPACE',''
  ) );
#334 = ORIENTED_EDGE('',*,*,#150,.F.);
#335 = ORIENTED_EDGE('',*,*,#336,.F.);
#336 = EDGE_CURVE('',#337,#122,#339,.T.);
#337 = VERTEX_POINT('',#338);
#338 = CARTESIAN_POINT('',(6.,300.0596399456,213.18878941951));
#339 = SURFACE_CURVE('',#340,(#344,#350),.PCURVE_S1.);
#340 = LINE('',#341,#342);
#341 = CARTESIAN_POINT('',(6.,267.63965132456,195.35779567794));
#342 = VECTOR('',#343,1.);
#343 = DIRECTION('',(-5.365275039614E-17,-0.876215908677,-0.481918749772
    ));
#344 = PCURVE('',#167,#345);
#345 = DEFINITIONAL_REPRESENTATION('',(#346),#349);
#346 = B_SPLINE_CURVE_WITH_KNOTS('',1,(#347,#348),.UNSPECIFIED.,.F.,.F.,
  (2,2),(-37.0000006,-32.),.PIECEWISE_BEZIER_KNOTS.);
#347 = CARTESIAN_POINT('',(-12.9999994,-7.365459931328));
#348 = CARTESIAN_POINT('',(-18.,-7.365459931328));
#349 = ( GEOMETRIC_REPRESENTATION_CONTEXT(2) 
PARAMETRIC_REPRESENTATION_CONTEXT() REPRESENTATION_CONTEXT('2D SPACE',''
  ) );
#350 = PCURVE('',#81,#351);
#351 = DEFINITIONAL_REPRESENTATION('',(#352),#355);
#352 = B_SPLINE_CURVE_WITH_KNOTS('',1,(#353,#354),.UNSPECIFIED.,.F.,.F.,
  (2,2),(-37.0000006,-32.),.PIECEWISE_BEZIER_KNOTS.);
#353 = CARTESIAN_POINT('',(-3.825180712762,-37.0000006));
#354 = CARTESIAN_POINT('',(-3.825180712762,-32.));
#355 = ( GEOMETRIC_REPRESENTATION_CONTEXT(2) 
PARAMETRIC_REPRESENTATION_CONTEXT() REPRESENTATION_CONTEXT('2D SPACE',''
  ) );
#356 = ORIENTED_EDGE('',*,*,#357,.F.);
#357 = EDGE_CURVE('',#315,#337,#358,.T.);
#358 = SURFACE_CURVE('',#359,(#363,#369),.PCURVE_S1.);
#359 = LINE('',#360,#361);
#360 = CARTESIAN_POINT('',(6.,303.6091931872,206.73505625296));
#361 = VECTOR('',#362,1.);
#362 = DIRECTION('',(-2.950901271788E-17,-0.481918749772,0.876215908677)
  );
#363 = PCURVE('',#167,#364);
#364 = DEFINITIONAL_REPRESENTATION('',(#365),#368);
#365 = B_SPLINE_CURVE_WITH_KNOTS('',1,(#366,#367),.UNSPECIFIED.,.F.,.F.,
  (2,2),(-9.5,9.5),.PIECEWISE_BEZIER_KNOTS.);
#366 = CARTESIAN_POINT('',(-13.,9.5));
#367 = CARTESIAN_POINT('',(-13.,-9.5));
#368 = ( GEOMETRIC_REPRESENTATION_CONTEXT(2) 
PARAMETRIC_REPRESENTATION_CONTEXT() REPRESENTATION_CONTEXT('2D SPACE',''
  ) );
#369 = PCURVE('',#370,#375);
#370 = PLANE('',#371);
#371 = AXIS2_PLACEMENT_3D('',#372,#373,#374);
#372 = CARTESIAN_POINT('',(1.840274188482E-14,303.6091931872,
    206.73505625296));
#373 = DIRECTION('',(5.365275039614E-17,0.876215908677,0.481918749772));
#374 = DIRECTION('',(2.950901271788E-17,0.481918749772,-0.876215908677)
  );
#375 = DEFINITIONAL_REPRESENTATION('',(#376),#379);
#376 = B_SPLINE_CURVE_WITH_KNOTS('',1,(#377,#378),.UNSPECIFIED.,.F.,.F.,
  (2,2),(-9.5,9.5),.PIECEWISE_BEZIER_KNOTS.);
#377 = CARTESIAN_POINT('',(9.5,-6.));
#378 = CARTESIAN_POINT('',(-9.5,-6.));
#379 = ( GEOMETRIC_REPRESENTATION_CONTEXT(2) 
PARAMETRIC_REPRESENTATION_CONTEXT() REPRESENTATION_CONTEXT('2D SPACE',''
  ) );
#380 = FACE_BOUND('',#381,.T.);
#381 = EDGE_LOOP('',(#382));
#382 = ORIENTED_EDGE('',*,*,#383,.T.);
#383 = EDGE_CURVE('',#384,#384,#386,.T.);
#384 = VERTEX_POINT('',#385);
#385 = CARTESIAN_POINT('',(6.,324.20694055148,218.06381730331));
#386 = SURFACE_CURVE('',#387,(#392,#399),.PCURVE_S1.);
#387 = CIRCLE('',#388,10.507616285343);
#388 = AXIS2_PLACEMENT_3D('',#389,#390,#391);
#389 = CARTESIAN_POINT('',(6.,315.,213.));
#390 = DIRECTION('',(-1.,6.123233995737E-17,0.));
#391 = DIRECTION('',(5.365275039614E-17,0.876215908677,0.481918749772));
#392 = PCURVE('',#167,#393);
#393 = DEFINITIONAL_REPRESENTATION('',(#394),#398);
#394 = CIRCLE('',#395,10.507616285343);
#395 = AXIS2_PLACEMENT_2D('',#396,#397);
#396 = CARTESIAN_POINT('',(0.,0.));
#397 = DIRECTION('',(1.,-0.));
#398 = ( GEOMETRIC_REPRESENTATION_CONTEXT(2) 
PARAMETRIC_REPRESENTATION_CONTEXT() REPRESENTATION_CONTEXT('2D SPACE',''
  ) );
#399 = PCURVE('',#400,#405);
#400 = SPHERICAL_SURFACE('',#401,12.1);
#401 = AXIS2_PLACEMENT_3D('',#402,#403,#404);
#402 = CARTESIAN_POINT('',(1.928818708657E-14,315.,213.));
#403 = DIRECTION('',(1.,-6.123233995737E-17,-0.));
#404 = DIRECTION('',(5.365275039614E-17,0.876215908677,0.481918749772));
#405 = DEFINITIONAL_REPRESENTATION('',(#406),#410);
#406 = LINE('',#407,#408);
#407 = CARTESIAN_POINT('',(-0.,0.518833822033));
#408 = VECTOR('',#409,1.);
#409 = DIRECTION('',(-1.,0.));
#410 = ( GEOMETRIC_REPRESENTATION_CONTEXT(2) 
PARAMETRIC_REPRESENTATION_CONTEXT() REPRESENTATION_CONTEXT('2D SPACE',''
  ) );
#411 = ADVANCED_FACE('',(#412),#400,.F.);
#412 = FACE_BOUND('',#413,.T.);
#413 = EDGE_LOOP('',(#414,#438,#460,#461));
#414 = ORIENTED_EDGE('',*,*,#415,.T.);
#415 = EDGE_CURVE('',#416,#416,#418,.T.);
#416 = VERTEX_POINT('',#417);
#417 = CARTESIAN_POINT('',(-6.,324.20694055148,218.06381730331));
#418 = SURFACE_CURVE('',#419,(#424,#431),.PCURVE_S1.);
#419 = CIRCLE('',#420,10.507616285343);
#420 = AXIS2_PLACEMENT_3D('',#421,#422,#423);
#421 = CARTESIAN_POINT('',(-6.,315.,213.));
#422 = DIRECTION('',(-1.,6.123233995737E-17,0.));
#423 = DIRECTION('',(5.365275039614E-17,0.876215908677,0.481918749772));
#424 = PCURVE('',#400,#425);
#425 = DEFINITIONAL_REPRESENTATION('',(#426),#430);
#426 = LINE('',#427,#428);
#427 = CARTESIAN_POINT('',(-0.,-0.518833822033));
#428 = VECTOR('',#429,1.);
#429 = DIRECTION('',(-1.,0.));
#430 = ( GEOMETRIC_REPRESENTATION_CONTEXT(2) 
PARAMETRIC_REPRESENTATION_CONTEXT() REPRESENTATION_CONTEXT('2D SPACE',''
  ) );
#431 = PCURVE('',#45,#432);
#432 = DEFINITIONAL_REPRESENTATION('',(#433),#437);
#433 = CIRCLE('',#434,10.507616285343);
#434 = AXIS2_PLACEMENT_2D('',#435,#436);
#435 = CARTESIAN_POINT('',(0.,0.));
#436 = DIRECTION('',(1.,0.));
#437 = ( GEOMETRIC_REPRESENTATION_CONTEXT(2) 
PARAMETRIC_REPRESENTATION_CONTEXT() REPRESENTATION_CONTEXT('2D SPACE',''
  ) );
#438 = ORIENTED_EDGE('',*,*,#439,.T.);
#439 = EDGE_CURVE('',#416,#384,#440,.T.);
#440 = SEAM_CURVE('',#441,(#446,#453),.PCURVE_S1.);
#441 = CIRCLE('',#442,12.1);
#442 = AXIS2_PLACEMENT_3D('',#443,#444,#445);
#443 = CARTESIAN_POINT('',(1.928818708657E-14,315.,213.));
#444 = DIRECTION('',(0.,0.481918749772,-0.876215908677));
#445 = DIRECTION('',(-0.495867768595,0.760904177809,0.418497297795));
#446 = PCURVE('',#400,#447);
#447 = DEFINITIONAL_REPRESENTATION('',(#448),#452);
#448 = LINE('',#449,#450);
#449 = CARTESIAN_POINT('',(-0.,-0.518833822033));
#450 = VECTOR('',#451,1.);
#451 = DIRECTION('',(-0.,1.));
#452 = ( GEOMETRIC_REPRESENTATION_CONTEXT(2) 
PARAMETRIC_REPRESENTATION_CONTEXT() REPRESENTATION_CONTEXT('2D SPACE',''
  ) );
#453 = PCURVE('',#400,#454);
#454 = DEFINITIONAL_REPRESENTATION('',(#455),#459);
#455 = LINE('',#456,#457);
#456 = CARTESIAN_POINT('',(-6.28318530718,-0.518833822033));
#457 = VECTOR('',#458,1.);
#458 = DIRECTION('',(-0.,1.));
#459 = ( GEOMETRIC_REPRESENTATION_CONTEXT(2) 
PARAMETRIC_REPRESENTATION_CONTEXT() REPRESENTATION_CONTEXT('2D SPACE',''
  ) );
#460 = ORIENTED_EDGE('',*,*,#383,.F.);
#461 = ORIENTED_EDGE('',*,*,#439,.F.);
#462 = ADVANCED_FACE('',(#463),#370,.T.);
#463 = FACE_BOUND('',#464,.T.);
#464 = EDGE_LOOP('',(#465,#487));
#465 = ORIENTED_EDGE('',*,*,#466,.T.);
#466 = EDGE_CURVE('',#337,#315,#467,.T.);
#467 = SURFACE_CURVE('',#468,(#473,#480),.PCURVE_S1.);
#468 = CIRCLE('',#469,9.5);
#469 = AXIS2_PLACEMENT_3D('',#470,#471,#472);
#470 = CARTESIAN_POINT('',(1.859070133142E-14,303.6091931872,
    206.73505625296));
#471 = DIRECTION('',(5.365275039614E-17,0.876215908677,0.481918749772));
#472 = DIRECTION('',(2.950901271788E-17,0.481918749772,-0.876215908677)
  );
#473 = PCURVE('',#370,#474);
#474 = DEFINITIONAL_REPRESENTATION('',(#475),#479);
#475 = CIRCLE('',#476,9.5);
#476 = AXIS2_PLACEMENT_2D('',#477,#478);
#477 = CARTESIAN_POINT('',(8.636463994986E-16,-1.879594466024E-16));
#478 = DIRECTION('',(1.,0.));
#479 = ( GEOMETRIC_REPRESENTATION_CONTEXT(2) 
PARAMETRIC_REPRESENTATION_CONTEXT() REPRESENTATION_CONTEXT('2D SPACE',''
  ) );
#480 = PCURVE('',#81,#481);
#481 = DEFINITIONAL_REPRESENTATION('',(#482),#486);
#482 = LINE('',#483,#484);
#483 = CARTESIAN_POINT('',(-0.,-37.));
#484 = VECTOR('',#485,1.);
#485 = DIRECTION('',(-1.,0.));
#486 = ( GEOMETRIC_REPRESENTATION_CONTEXT(2) 
PARAMETRIC_REPRESENTATION_CONTEXT() REPRESENTATION_CONTEXT('2D SPACE',''
  ) );
#487 = ORIENTED_EDGE('',*,*,#357,.T.);
#488 = ADVANCED_FACE('',(#489),#110,.T.);
#489 = FACE_BOUND('',#490,.T.);
#490 = EDGE_LOOP('',(#491,#492));
#491 = ORIENTED_EDGE('',*,*,#95,.T.);
#492 = ORIENTED_EDGE('',*,*,#493,.T.);
#493 = EDGE_CURVE('',#62,#96,#494,.T.);
#494 = SURFACE_CURVE('',#495,(#500,#507),.PCURVE_S1.);
#495 = CIRCLE('',#496,9.5);
#496 = AXIS2_PLACEMENT_3D('',#497,#498,#499);
#497 = CARTESIAN_POINT('',(1.859070133142E-14,303.6091931872,
    206.73505625296));
#498 = DIRECTION('',(5.365275039614E-17,0.876215908677,0.481918749772));
#499 = DIRECTION('',(2.950901271788E-17,0.481918749772,-0.876215908677)
  );
#500 = PCURVE('',#110,#501);
#501 = DEFINITIONAL_REPRESENTATION('',(#502),#506);
#502 = CIRCLE('',#503,9.5);
#503 = AXIS2_PLACEMENT_2D('',#504,#505);
#504 = CARTESIAN_POINT('',(8.636463994986E-16,-1.879594466024E-16));
#505 = DIRECTION('',(1.,0.));
#506 = ( GEOMETRIC_REPRESENTATION_CONTEXT(2) 
PARAMETRIC_REPRESENTATION_CONTEXT() REPRESENTATION_CONTEXT('2D SPACE',''
  ) );
#507 = PCURVE('',#81,#508);
#508 = DEFINITIONAL_REPRESENTATION('',(#509),#513);
#509 = LINE('',#510,#511);
#510 = CARTESIAN_POINT('',(-0.,-37.));
#511 = VECTOR('',#512,1.);
#512 = DIRECTION('',(-1.,0.));
#513 = ( GEOMETRIC_REPRESENTATION_CONTEXT(2) 
PARAMETRIC_REPRESENTATION_CONTEXT() REPRESENTATION_CONTEXT('2D SPACE',''
  ) );
#514 = ADVANCED_FACE('',(#515),#81,.T.);
#515 = FACE_BOUND('',#516,.F.);
#516 = EDGE_LOOP('',(#517,#546,#567,#568,#569,#590,#619,#638,#639,#640,
    #641,#642,#643,#644,#645,#646));
#517 = ORIENTED_EDGE('',*,*,#518,.F.);
#518 = EDGE_CURVE('',#519,#519,#521,.T.);
#519 = VERTEX_POINT('',#520);
#520 = CARTESIAN_POINT('',(1.688588518758E-14,275.767432689,
    180.58001137896));
#521 = SURFACE_CURVE('',#522,(#527,#534),.PCURVE_S1.);
#522 = CIRCLE('',#523,9.5);
#523 = AXIS2_PLACEMENT_3D('',#524,#525,#526);
#524 = CARTESIAN_POINT('',(1.660554956676E-14,271.18920456616,
    188.90406251139));
#525 = DIRECTION('',(5.365275039614E-17,0.876215908677,0.481918749772));
#526 = DIRECTION('',(2.950901271788E-17,0.481918749772,-0.876215908677)
  );
#527 = PCURVE('',#81,#528);
#528 = DEFINITIONAL_REPRESENTATION('',(#529),#533);
#529 = LINE('',#530,#531);
#530 = CARTESIAN_POINT('',(-0.,0.));
#531 = VECTOR('',#532,1.);
#532 = DIRECTION('',(-1.,0.));
#533 = ( GEOMETRIC_REPRESENTATION_CONTEXT(2) 
PARAMETRIC_REPRESENTATION_CONTEXT() REPRESENTATION_CONTEXT('2D SPACE',''
  ) );
#534 = PCURVE('',#535,#540);
#535 = PLANE('',#536);
#536 = AXIS2_PLACEMENT_3D('',#537,#538,#539);
#537 = CARTESIAN_POINT('',(1.641759012016E-14,271.18920456616,
    188.90406251139));
#538 = DIRECTION('',(5.365275039614E-17,0.876215908677,0.481918749772));
#539 = DIRECTION('',(2.950901271788E-17,0.481918749772,-0.876215908677)
  );
#540 = DEFINITIONAL_REPRESENTATION('',(#541),#545);
#541 = CIRCLE('',#542,9.5);
#542 = AXIS2_PLACEMENT_2D('',#543,#544);
#543 = CARTESIAN_POINT('',(8.636463994986E-16,-1.879594466024E-16));
#544 = DIRECTION('',(1.,0.));
#545 = ( GEOMETRIC_REPRESENTATION_CONTEXT(2) 
PARAMETRIC_REPRESENTATION_CONTEXT() REPRESENTATION_CONTEXT('2D SPACE',''
  ) );
#546 = ORIENTED_EDGE('',*,*,#547,.T.);
#547 = EDGE_CURVE('',#519,#265,#548,.T.);
#548 = SEAM_CURVE('',#549,(#553,#560),.PCURVE_S1.);
#549 = LINE('',#550,#551);
#550 = CARTESIAN_POINT('',(1.688588518758E-14,275.767432689,
    180.58001137896));
#551 = VECTOR('',#552,1.);
#552 = DIRECTION('',(5.365275039614E-17,0.876215908677,0.481918749772));
#553 = PCURVE('',#81,#554);
#554 = DEFINITIONAL_REPRESENTATION('',(#555),#559);
#555 = LINE('',#556,#557);
#556 = CARTESIAN_POINT('',(-6.28318530718,0.));
#557 = VECTOR('',#558,1.);
#558 = DIRECTION('',(-0.,-1.));
#559 = ( GEOMETRIC_REPRESENTATION_CONTEXT(2) 
PARAMETRIC_REPRESENTATION_CONTEXT() REPRESENTATION_CONTEXT('2D SPACE',''
  ) );
#560 = PCURVE('',#81,#561);
#561 = DEFINITIONAL_REPRESENTATION('',(#562),#566);
#562 = LINE('',#563,#564);
#563 = CARTESIAN_POINT('',(-0.,0.));
#564 = VECTOR('',#565,1.);
#565 = DIRECTION('',(-0.,-1.));
#566 = ( GEOMETRIC_REPRESENTATION_CONTEXT(2) 
PARAMETRIC_REPRESENTATION_CONTEXT() REPRESENTATION_CONTEXT('2D SPACE',''
  ) );
#567 = ORIENTED_EDGE('',*,*,#288,.T.);
#568 = ORIENTED_EDGE('',*,*,#234,.T.);
#569 = ORIENTED_EDGE('',*,*,#570,.F.);
#570 = EDGE_CURVE('',#571,#22,#573,.T.);
#571 = VERTEX_POINT('',#572);
#572 = CARTESIAN_POINT('',(-6.,307.1587464288,200.28132308641));
#573 = SURFACE_CURVE('',#574,(#578,#584),.PCURVE_S1.);
#574 = LINE('',#575,#576);
#575 = CARTESIAN_POINT('',(-6.,274.73875780777,182.45032934484));
#576 = VECTOR('',#577,1.);
#577 = DIRECTION('',(-5.365275039614E-17,-0.876215908677,-0.481918749772
    ));
#578 = PCURVE('',#81,#579);
#579 = DEFINITIONAL_REPRESENTATION('',(#580),#583);
#580 = B_SPLINE_CURVE_WITH_KNOTS('',1,(#581,#582),.UNSPECIFIED.,.F.,.F.,
  (2,2),(-37.0000006,-32.),.PIECEWISE_BEZIER_KNOTS.);
#581 = CARTESIAN_POINT('',(-0.683588059172,-37.0000006));
#582 = CARTESIAN_POINT('',(-0.683588059172,-32.));
#583 = ( GEOMETRIC_REPRESENTATION_CONTEXT(2) 
PARAMETRIC_REPRESENTATION_CONTEXT() REPRESENTATION_CONTEXT('2D SPACE',''
  ) );
#584 = PCURVE('',#45,#585);
#585 = DEFINITIONAL_REPRESENTATION('',(#586),#589);
#586 = B_SPLINE_CURVE_WITH_KNOTS('',1,(#587,#588),.UNSPECIFIED.,.F.,.F.,
  (2,2),(-37.0000006,-32.),.PIECEWISE_BEZIER_KNOTS.);
#587 = CARTESIAN_POINT('',(-12.9999994,7.365459931328));
#588 = CARTESIAN_POINT('',(-18.,7.365459931328));
#589 = ( GEOMETRIC_REPRESENTATION_CONTEXT(2) 
PARAMETRIC_REPRESENTATION_CONTEXT() REPRESENTATION_CONTEXT('2D SPACE',''
  ) );
#590 = ORIENTED_EDGE('',*,*,#591,.T.);
#591 = EDGE_CURVE('',#571,#592,#594,.T.);
#592 = VERTEX_POINT('',#593);
#593 = CARTESIAN_POINT('',(-6.,300.0596399456,213.18878941951));
#594 = SURFACE_CURVE('',#595,(#600,#607),.PCURVE_S1.);
#595 = CIRCLE('',#596,9.5);
#596 = AXIS2_PLACEMENT_3D('',#597,#598,#599);
#597 = CARTESIAN_POINT('',(1.859070133142E-14,303.6091931872,
    206.73505625296));
#598 = DIRECTION('',(5.365275039614E-17,0.876215908677,0.481918749772));
#599 = DIRECTION('',(2.950901271788E-17,0.481918749772,-0.876215908677)
  );
#600 = PCURVE('',#81,#601);
#601 = DEFINITIONAL_REPRESENTATION('',(#602),#606);
#602 = LINE('',#603,#604);
#603 = CARTESIAN_POINT('',(-0.,-37.));
#604 = VECTOR('',#605,1.);
#605 = DIRECTION('',(-1.,0.));
#606 = ( GEOMETRIC_REPRESENTATION_CONTEXT(2) 
PARAMETRIC_REPRESENTATION_CONTEXT() REPRESENTATION_CONTEXT('2D SPACE',''
  ) );
#607 = PCURVE('',#608,#613);
#608 = PLANE('',#609);
#609 = AXIS2_PLACEMENT_3D('',#610,#611,#612);
#610 = CARTESIAN_POINT('',(1.840274188482E-14,303.6091931872,
    206.73505625296));
#611 = DIRECTION('',(5.365275039614E-17,0.876215908677,0.481918749772));
#612 = DIRECTION('',(2.950901271788E-17,0.481918749772,-0.876215908677)
  );
#613 = DEFINITIONAL_REPRESENTATION('',(#614),#618);
#614 = CIRCLE('',#615,9.5);
#615 = AXIS2_PLACEMENT_2D('',#616,#617);
#616 = CARTESIAN_POINT('',(8.636463994986E-16,-1.879594466024E-16));
#617 = DIRECTION('',(1.,0.));
#618 = ( GEOMETRIC_REPRESENTATION_CONTEXT(2) 
PARAMETRIC_REPRESENTATION_CONTEXT() REPRESENTATION_CONTEXT('2D SPACE',''
  ) );
#619 = ORIENTED_EDGE('',*,*,#620,.T.);
#620 = EDGE_CURVE('',#592,#24,#621,.T.);
#621 = SURFACE_CURVE('',#622,(#626,#632),.PCURVE_S1.);
#622 = LINE('',#623,#624);
#623 = CARTESIAN_POINT('',(-6.,267.63965132456,195.35779567794));
#624 = VECTOR('',#625,1.);
#625 = DIRECTION('',(-5.365275039614E-17,-0.876215908677,-0.481918749772
    ));
#626 = PCURVE('',#81,#627);
#627 = DEFINITIONAL_REPRESENTATION('',(#628),#631);
#628 = B_SPLINE_CURVE_WITH_KNOTS('',1,(#629,#630),.UNSPECIFIED.,.F.,.F.,
  (2,2),(-37.0000006,-32.),.PIECEWISE_BEZIER_KNOTS.);
#629 = CARTESIAN_POINT('',(-2.458004594417,-37.0000006));
#630 = CARTESIAN_POINT('',(-2.458004594417,-32.));
#631 = ( GEOMETRIC_REPRESENTATION_CONTEXT(2) 
PARAMETRIC_REPRESENTATION_CONTEXT() REPRESENTATION_CONTEXT('2D SPACE',''
  ) );
#632 = PCURVE('',#45,#633);
#633 = DEFINITIONAL_REPRESENTATION('',(#634),#637);
#634 = B_SPLINE_CURVE_WITH_KNOTS('',1,(#635,#636),.UNSPECIFIED.,.F.,.F.,
  (2,2),(-37.0000006,-32.),.PIECEWISE_BEZIER_KNOTS.);
#635 = CARTESIAN_POINT('',(-12.9999994,-7.365459931328));
#636 = CARTESIAN_POINT('',(-18.,-7.365459931328));
#637 = ( GEOMETRIC_REPRESENTATION_CONTEXT(2) 
PARAMETRIC_REPRESENTATION_CONTEXT() REPRESENTATION_CONTEXT('2D SPACE',''
  ) );
#638 = ORIENTED_EDGE('',*,*,#61,.T.);
#639 = ORIENTED_EDGE('',*,*,#493,.T.);
#640 = ORIENTED_EDGE('',*,*,#121,.T.);
#641 = ORIENTED_EDGE('',*,*,#336,.F.);
#642 = ORIENTED_EDGE('',*,*,#466,.T.);
#643 = ORIENTED_EDGE('',*,*,#314,.T.);
#644 = ORIENTED_EDGE('',*,*,#179,.T.);
#645 = ORIENTED_EDGE('',*,*,#264,.T.);
#646 = ORIENTED_EDGE('',*,*,#547,.F.);
#647 = ADVANCED_FACE('',(#648),#608,.T.);
#648 = FACE_BOUND('',#649,.T.);
#649 = EDGE_LOOP('',(#650,#669));
#650 = ORIENTED_EDGE('',*,*,#651,.T.);
#651 = EDGE_CURVE('',#592,#571,#652,.T.);
#652 = SURFACE_CURVE('',#653,(#657,#663),.PCURVE_S1.);
#653 = LINE('',#654,#655);
#654 = CARTESIAN_POINT('',(-6.,303.6091931872,206.73505625296));
#655 = VECTOR('',#656,1.);
#656 = DIRECTION('',(2.950901271788E-17,0.481918749772,-0.876215908677)
  );
#657 = PCURVE('',#608,#658);
#658 = DEFINITIONAL_REPRESENTATION('',(#659),#662);
#659 = B_SPLINE_CURVE_WITH_KNOTS('',1,(#660,#661),.UNSPECIFIED.,.F.,.F.,
  (2,2),(-9.5,9.5),.PIECEWISE_BEZIER_KNOTS.);
#660 = CARTESIAN_POINT('',(-9.5,6.));
#661 = CARTESIAN_POINT('',(9.5,6.));
#662 = ( GEOMETRIC_REPRESENTATION_CONTEXT(2) 
PARAMETRIC_REPRESENTATION_CONTEXT() REPRESENTATION_CONTEXT('2D SPACE',''
  ) );
#663 = PCURVE('',#45,#664);
#664 = DEFINITIONAL_REPRESENTATION('',(#665),#668);
#665 = B_SPLINE_CURVE_WITH_KNOTS('',1,(#666,#667),.UNSPECIFIED.,.F.,.F.,
  (2,2),(-9.5,9.5),.PIECEWISE_BEZIER_KNOTS.);
#666 = CARTESIAN_POINT('',(-13.,-9.5));
#667 = CARTESIAN_POINT('',(-13.,9.5));
#668 = ( GEOMETRIC_REPRESENTATION_CONTEXT(2) 
PARAMETRIC_REPRESENTATION_CONTEXT() REPRESENTATION_CONTEXT('2D SPACE',''
  ) );
#669 = ORIENTED_EDGE('',*,*,#591,.T.);
#670 = ADVANCED_FACE('',(#671),#535,.F.);
#671 = FACE_BOUND('',#672,.F.);
#672 = EDGE_LOOP('',(#673));
#673 = ORIENTED_EDGE('',*,*,#518,.T.);
#674 = ADVANCED_FACE('',(#675,#681),#45,.T.);
#675 = FACE_BOUND('',#676,.T.);
#676 = EDGE_LOOP('',(#677,#678,#679,#680));
#677 = ORIENTED_EDGE('',*,*,#620,.T.);
#678 = ORIENTED_EDGE('',*,*,#21,.F.);
#679 = ORIENTED_EDGE('',*,*,#570,.F.);
#680 = ORIENTED_EDGE('',*,*,#651,.F.);
#681 = FACE_BOUND('',#682,.T.);
#682 = EDGE_LOOP('',(#683));
#683 = ORIENTED_EDGE('',*,*,#415,.F.);
#684 = ( GEOMETRIC_REPRESENTATION_CONTEXT(3) 
GLOBAL_UNCERTAINTY_ASSIGNED_CONTEXT((#688)) GLOBAL_UNIT_ASSIGNED_CONTEXT
((#685,#686,#687)) REPRESENTATION_CONTEXT('Context #1',
  '3D Context with UNIT and UNCERTAINTY') );
#685 = ( LENGTH_UNIT() NAMED_UNIT(*) SI_UNIT(.MILLI.,.METRE.) );
#686 = ( NAMED_UNIT(*) PLANE_ANGLE_UNIT() SI_UNIT($,.RADIAN.) );
#687 = ( NAMED_UNIT(*) SI_UNIT($,.STERADIAN.) SOLID_ANGLE_UNIT() );
#688 = UNCERTAINTY_MEASURE_WITH_UNIT(LENGTH_MEASURE(1.E-07),#685,
  'distance_accuracy_value','confusion accuracy');
#689 = PRODUCT_RELATED_PRODUCT_CATEGORY('part',$,(#7));
ENDSEC;
END-ISO-10303-21;
