ISO-10303-21;
HEADER;
FILE_DESCRIPTION(('Open CASCADE Model'),'2;1');
FILE_NAME('Open CASCADE Shape Model','2026-09-05T18:16:32',('Author'),(
    'Open CASCADE'),'Open CASCADE STEP processor 7.9','Open CASCADE 7.9'
  ,'Unknown');
FILE_SCHEMA(('AUTOMOTIVE_DESIGN { 1 0 10303 214 1 1 1 1 }'));
ENDSEC;
DATA;
#1 = APPLICATION_PROTOCOL_DEFINITION('international standard',
  'automotive_design',2000,#2);
#2 = APPLICATION_CONTEXT(
  'core data for automotive mechanical design processes');
#3 = SHAPE_DEFINITION_REPRESENTATION(#4,#10);
#4 = PRODUCT_DEFINITION_SHAPE('','',#5);
#5 = PRODUCT_DEFINITION('design','',#6,#9);
#6 = PRODUCT_DEFINITION_FORMATION('','',#7);
#7 = PRODUCT('Open CASCADE STEP translator 7.9 3',
  'Open CASCADE STEP translator 7.9 3','',(#8));
#8 = PRODUCT_CONTEXT('',#2,'mechanical');
#9 = PRODUCT_DEFINITION_CONTEXT('part definition',#2,'design');
#10 = ADVANCED_BREP_SHAPE_REPRESENTATION('',(#11,#15),#827);
#11 = AXIS2_PLACEMENT_3D('',#12,#13,#14);
#12 = CARTESIAN_POINT('',(0.,0.,0.));
#13 = DIRECTION('',(0.,0.,1.));
#14 = DIRECTION('',(1.,0.,-0.));
#15 = MANIFOLD_SOLID_BREP('',#16);
#16 = CLOSED_SHELL('',(#17,#290,#344,#472,#533,#595,#620,#791,#813,#817)
  );
#17 = ADVANCED_FACE('',(#18),#36,.T.);
#18 = FACE_BOUND('',#19,.T.);
#19 = EDGE_LOOP('',(#20,#77,#119,#145,#172,#212,#239,#265));
#20 = ORIENTED_EDGE('',*,*,#21,.T.);
#21 = EDGE_CURVE('',#22,#24,#26,.T.);
#22 = VERTEX_POINT('',#23);
#23 = CARTESIAN_POINT('',(-6.,307.09992224737,200.24896978662));
#24 = VERTEX_POINT('',#25);
#25 = CARTESIAN_POINT('',(-6.,300.00081576416,213.15643611972));
#26 = SURFACE_CURVE('',#27,(#35,#61),.PCURVE_S1.);
#27 = ( BOUNDED_CURVE() B_SPLINE_CURVE(2,(#28,#29,#30,#31,#32,#33,#34),
.UNSPECIFIED.,.F.,.F.) B_SPLINE_CURVE_WITH_KNOTS((3,2,2,3),(0.,
    1.752213452634,3.504426905267,5.256640357901),
.PIECEWISE_BEZIER_KNOTS.) CURVE() GEOMETRIC_REPRESENTATION_ITEM() 
RATIONAL_B_SPLINE_CURVE((1.,0.640147005183,1.,0.640147005183,1.,
0.640147005183,1.)) REPRESENTATION_ITEM('') );
#28 = CARTESIAN_POINT('',(-6.,307.09992224737,200.24896978662));
#29 = CARTESIAN_POINT('',(-6.,322.40267301585,190.76793814627));
#30 = CARTESIAN_POINT('',(-6.,328.9671336793,207.53015751739));
#31 = CARTESIAN_POINT('',(-6.,335.53159434275,224.29237688851));
#32 = CARTESIAN_POINT('',(-6.,317.86007601569,227.72480781485));
#33 = CARTESIAN_POINT('',(-6.,300.18855768864,231.15723874119));
#34 = CARTESIAN_POINT('',(-6.,300.00081576416,213.15643611972));
#35 = PCURVE('',#36,#51);
#36 = ( BOUNDED_SURFACE() B_SPLINE_SURFACE(2,1,(
    (#37,#38)
    ,(#39,#40)
    ,(#41,#42)
    ,(#43,#44)
    ,(#45,#46)
    ,(#47,#48)
,(#49,#50
    )),.UNSPECIFIED.,.F.,.F.,.F.) B_SPLINE_SURFACE_WITH_KNOTS((3,2,2,3),
  (2,2),(3.654865128229,5.407078580863,7.159292033496,8.91150548613),(
    -6.547608119184E-15,12.),.PIECEWISE_BEZIER_KNOTS.) 
GEOMETRIC_REPRESENTATION_ITEM() RATIONAL_B_SPLINE_SURFACE((
    (1.,1.)
    ,(0.640147005183,0.640147005183)
    ,(1.,1.)
    ,(0.640147005183,0.640147005183)
    ,(1.,1.)
    ,(0.640147005183,0.640147005183)
,(1.,1.))) REPRESENTATION_ITEM('') SURFACE() );
#37 = CARTESIAN_POINT('',(6.,300.00081576416,213.15643611972));
#38 = CARTESIAN_POINT('',(-6.,300.00081576416,213.15643611972));
#39 = CARTESIAN_POINT('',(6.,300.18855768864,231.15723874119));
#40 = CARTESIAN_POINT('',(-6.,300.18855768864,231.15723874119));
#41 = CARTESIAN_POINT('',(6.,317.86007601569,227.72480781485));
#42 = CARTESIAN_POINT('',(-6.,317.86007601569,227.72480781485));
#43 = CARTESIAN_POINT('',(6.,335.53159434275,224.29237688851));
#44 = CARTESIAN_POINT('',(-6.,335.53159434275,224.29237688851));
#45 = CARTESIAN_POINT('',(6.,328.9671336793,207.53015751739));
#46 = CARTESIAN_POINT('',(-6.,328.9671336793,207.53015751739));
#47 = CARTESIAN_POINT('',(6.,322.40267301585,190.76793814627));
#48 = CARTESIAN_POINT('',(-6.,322.40267301585,190.76793814627));
#49 = CARTESIAN_POINT('',(6.,307.09992224737,200.24896978662));
#50 = CARTESIAN_POINT('',(-6.,307.09992224737,200.24896978662));
#51 = DEFINITIONAL_REPRESENTATION('',(#52),#60);
#52 = B_SPLINE_CURVE_WITH_KNOTS('',2,(#53,#54,#55,#56,#57,#58,#59),
  .UNSPECIFIED.,.F.,.F.,(3,2,2,3),(0.,1.752213452634,3.504426905267,
    5.256640357901),.PIECEWISE_BEZIER_KNOTS.);
#53 = CARTESIAN_POINT('',(8.91150548613,12.));
#54 = CARTESIAN_POINT('',(8.035398759813,12.));
#55 = CARTESIAN_POINT('',(7.159292033496,12.));
#56 = CARTESIAN_POINT('',(6.28318530718,12.));
#57 = CARTESIAN_POINT('',(5.407078580863,12.));
#58 = CARTESIAN_POINT('',(4.530971854546,12.));
#59 = CARTESIAN_POINT('',(3.654865128229,12.));
#60 = ( GEOMETRIC_REPRESENTATION_CONTEXT(2) 
PARAMETRIC_REPRESENTATION_CONTEXT() REPRESENTATION_CONTEXT('2D SPACE',''
  ) );
#61 = PCURVE('',#62,#67);
#62 = B_SPLINE_SURFACE_WITH_KNOTS('',1,1,(
    (#63,#64)
    ,(#65,#66
    )),.UNSPECIFIED.,.F.,.F.,.F.,(2,2),(2,2),(-13.06713434537,15.),(-15.
    ,15.),.PIECEWISE_BEZIER_KNOTS.);
#63 = CARTESIAN_POINT('',(-6.,296.32158775918,219.84594158332));
#64 = CARTESIAN_POINT('',(-6.,310.77915025235,193.55946432302));
#65 = CARTESIAN_POINT('',(-6.,320.91445738356,233.37201987673));
#66 = CARTESIAN_POINT('',(-6.,335.37201987673,207.08554261643));
#67 = DEFINITIONAL_REPRESENTATION('',(#68),#76);
#68 = ( BOUNDED_CURVE() B_SPLINE_CURVE(2,(#69,#70,#71,#72,#73,#74,#75),
.UNSPECIFIED.,.F.,.F.) B_SPLINE_CURVE_WITH_KNOTS((3,2,2,3),(0.,
    1.752213452634,3.504426905267,5.256640357901),
.PIECEWISE_BEZIER_KNOTS.) CURVE() GEOMETRIC_REPRESENTATION_ITEM() 
RATIONAL_B_SPLINE_CURVE((1.,0.640147005183,1.,0.640147005183,1.,
0.640147005183,1.)) REPRESENTATION_ITEM('') );
#69 = CARTESIAN_POINT('',(-13.06713434537,7.365459931328));
#70 = CARTESIAN_POINT('',(-4.227707590184,23.047573203689));
#71 = CARTESIAN_POINT('',(9.602205077749,11.523786601844));
#72 = CARTESIAN_POINT('',(23.432117745682,2.84217094304E-14));
#73 = CARTESIAN_POINT('',(9.602205077749,-11.52378660184));
#74 = CARTESIAN_POINT('',(-4.227707590184,-23.04757320368));
#75 = CARTESIAN_POINT('',(-13.06713434537,-7.365459931328));
#76 = ( GEOMETRIC_REPRESENTATION_CONTEXT(2) 
PARAMETRIC_REPRESENTATION_CONTEXT() REPRESENTATION_CONTEXT('2D SPACE',''
  ) );
#77 = ORIENTED_EDGE('',*,*,#78,.T.);
#78 = EDGE_CURVE('',#24,#79,#81,.T.);
#79 = VERTEX_POINT('',#80);
#80 = CARTESIAN_POINT('',(-5.85234995536,300.00284348738,213.29205570718
    ));
#81 = SURFACE_CURVE('',#82,(#88,#96),.PCURVE_S1.);
#82 = B_SPLINE_CURVE_WITH_KNOTS('',4,(#83,#84,#85,#86,#87),
  .UNSPECIFIED.,.F.,.F.,(5,5),(0.,1.),.PIECEWISE_BEZIER_KNOTS.);
#83 = CARTESIAN_POINT('',(-6.0000006,300.00081575831,213.15643555868));
#84 = CARTESIAN_POINT('',(-5.963296154659,300.00117371067,
    213.19075635781));
#85 = CARTESIAN_POINT('',(-5.926451575236,300.00163349744,
    213.22480041425));
#86 = CARTESIAN_POINT('',(-5.889468540648,300.00219133109,
    213.25856740565));
#87 = CARTESIAN_POINT('',(-5.852348622562,300.0028435108,213.29205690962
    ));
#88 = PCURVE('',#36,#89);
#89 = DEFINITIONAL_REPRESENTATION('',(#90),#95);
#90 = B_SPLINE_CURVE_WITH_KNOTS('',3,(#91,#92,#93,#94),.UNSPECIFIED.,.F.
  ,.F.,(4,4),(4.086698344068E-06,0.9999910237),
  .PIECEWISE_BEZIER_KNOTS.);
#91 = CARTESIAN_POINT('',(3.654865128229,12.));
#92 = CARTESIAN_POINT('',(3.658344298347,11.951061369281));
#93 = CARTESIAN_POINT('',(3.66177410455,11.901842520763));
#94 = CARTESIAN_POINT('',(3.665155201012,11.85234995536));
#95 = ( GEOMETRIC_REPRESENTATION_CONTEXT(2) 
PARAMETRIC_REPRESENTATION_CONTEXT() REPRESENTATION_CONTEXT('2D SPACE',''
  ) );
#96 = PCURVE('',#97,#112);
#97 = ( BOUNDED_SURFACE() B_SPLINE_SURFACE(2,1,(
    (#98,#99)
    ,(#100,#101)
    ,(#102,#103)
    ,(#104,#105)
    ,(#106,#107)
    ,(#108,#109)
,(#110,#111
    )),.UNSPECIFIED.,.T.,.F.,.F.) B_SPLINE_SURFACE_WITH_KNOTS((1,2,2,2,2
    ,1),(2,2),(-2.094395102393,0.,2.094395102393,4.188790204786,
    6.28318530718,8.377580409573),(-37.,0.),.UNSPECIFIED.) 
GEOMETRIC_REPRESENTATION_ITEM() RATIONAL_B_SPLINE_SURFACE((
    (1.,1.)
    ,(0.5,0.5)
    ,(1.,1.)
    ,(0.5,0.5)
    ,(1.,1.)
    ,(0.5,0.5)
,(1.,1.))) REPRESENTATION_ITEM('') SURFACE() );
#98 = CARTESIAN_POINT('',(1.887103695224E-14,308.18742131003,
    198.41100512053));
#99 = CARTESIAN_POINT('',(1.688588518758E-14,275.767432689,
    180.58001137896));
#100 = CARTESIAN_POINT('',(-16.4544826719,308.18742131003,
    198.41100512053));
#101 = CARTESIAN_POINT('',(-16.4544826719,275.767432689,180.58001137896)
  );
#102 = CARTESIAN_POINT('',(-8.227241335952,301.32007912578,
    210.89708181917));
#103 = CARTESIAN_POINT('',(-8.227241335952,268.90009050475,
    193.0660880776));
#104 = CARTESIAN_POINT('',(1.57032011714E-14,294.45273694153,
    223.38315851781));
#105 = CARTESIAN_POINT('',(1.371804940674E-14,262.03274832049,
    205.55216477624));
#106 = CARTESIAN_POINT('',(8.227241335952,301.32007912578,
    210.89708181917));
#107 = CARTESIAN_POINT('',(8.227241335952,268.90009050475,193.0660880776
    ));
#108 = CARTESIAN_POINT('',(16.454482671904,308.18742131003,
    198.41100512053));
#109 = CARTESIAN_POINT('',(16.454482671904,275.767432689,180.58001137896
    ));
#110 = CARTESIAN_POINT('',(1.887103695224E-14,308.18742131003,
    198.41100512053));
#111 = CARTESIAN_POINT('',(1.688588518758E-14,275.767432689,
    180.58001137896));
#112 = DEFINITIONAL_REPRESENTATION('',(#113),#118);
#113 = B_SPLINE_CURVE_WITH_KNOTS('',3,(#114,#115,#116,#117),
  .UNSPECIFIED.,.F.,.F.,(4,4),(4.086698344068E-06,0.9999910237),
  .PIECEWISE_BEZIER_KNOTS.);
#114 = CARTESIAN_POINT('',(2.496321417008,-36.93286565462));
#115 = CARTESIAN_POINT('',(2.503109801166,-36.95533666912));
#116 = CARTESIAN_POINT('',(2.509857889727,-36.97771939761));
#117 = CARTESIAN_POINT('',(2.516568106271,-37.));
#118 = ( GEOMETRIC_REPRESENTATION_CONTEXT(2) 
PARAMETRIC_REPRESENTATION_CONTEXT() REPRESENTATION_CONTEXT('2D SPACE',''
  ) );
#119 = ORIENTED_EDGE('',*,*,#120,.F.);
#120 = EDGE_CURVE('',#121,#79,#123,.T.);
#121 = VERTEX_POINT('',#122);
#122 = CARTESIAN_POINT('',(5.85234995536,300.00284348738,213.29205570718
    ));
#123 = SURFACE_CURVE('',#124,(#127,#134),.PCURVE_S1.);
#124 = B_SPLINE_CURVE_WITH_KNOTS('',1,(#125,#126),.UNSPECIFIED.,.F.,.F.,
  (2,2),(0.14765004464,11.85234995536),.PIECEWISE_BEZIER_KNOTS.);
#125 = CARTESIAN_POINT('',(5.85234995536,300.00284348738,213.29205570718
    ));
#126 = CARTESIAN_POINT('',(-5.85234995536,300.00284348738,
    213.29205570718));
#127 = PCURVE('',#36,#128);
#128 = DEFINITIONAL_REPRESENTATION('',(#129),#133);
#129 = B_SPLINE_CURVE_WITH_KNOTS('',2,(#130,#131,#132),.UNSPECIFIED.,.F.
  ,.F.,(3,3),(0.14765004464,11.85234995536),.PIECEWISE_BEZIER_KNOTS.);
#130 = CARTESIAN_POINT('',(3.665155201012,0.14765004464));
#131 = CARTESIAN_POINT('',(3.665155201012,6.));
#132 = CARTESIAN_POINT('',(3.665155201012,11.85234995536));
#133 = ( GEOMETRIC_REPRESENTATION_CONTEXT(2) 
PARAMETRIC_REPRESENTATION_CONTEXT() REPRESENTATION_CONTEXT('2D SPACE',''
  ) );
#134 = PCURVE('',#135,#140);
#135 = B_SPLINE_SURFACE_WITH_KNOTS('',1,1,(
    (#136,#137)
    ,(#138,#139
    )),.UNSPECIFIED.,.F.,.F.,.F.,(2,2),(2,2),(-9.5,-7.483314773548),(
    -5.85234995536,5.85234995536),.PIECEWISE_BEZIER_KNOTS.);
#136 = CARTESIAN_POINT('',(5.85234995536,299.03096506436,215.05910738539
    ));
#137 = CARTESIAN_POINT('',(-5.85234995536,299.03096506436,
    215.05910738539));
#138 = CARTESIAN_POINT('',(5.85234995536,300.00284348738,213.29205570718
    ));
#139 = CARTESIAN_POINT('',(-5.85234995536,300.00284348738,
    213.29205570718));
#140 = DEFINITIONAL_REPRESENTATION('',(#141),#144);
#141 = B_SPLINE_CURVE_WITH_KNOTS('',1,(#142,#143),.UNSPECIFIED.,.F.,.F.,
  (2,2),(0.14765004464,11.85234995536),.PIECEWISE_BEZIER_KNOTS.);
#142 = CARTESIAN_POINT('',(-7.483314773548,-5.85234995536));
#143 = CARTESIAN_POINT('',(-7.483314773548,5.85234995536));
#144 = ( GEOMETRIC_REPRESENTATION_CONTEXT(2) 
PARAMETRIC_REPRESENTATION_CONTEXT() REPRESENTATION_CONTEXT('2D SPACE',''
  ) );
#145 = ORIENTED_EDGE('',*,*,#146,.T.);
#146 = EDGE_CURVE('',#121,#147,#149,.T.);
#147 = VERTEX_POINT('',#148);
#148 = CARTESIAN_POINT('',(6.,300.00081576416,213.15643611972));
#149 = SURFACE_CURVE('',#150,(#156,#164),.PCURVE_S1.);
#150 = B_SPLINE_CURVE_WITH_KNOTS('',4,(#151,#152,#153,#154,#155),
  .UNSPECIFIED.,.F.,.F.,(5,5),(0.,1.),.PIECEWISE_BEZIER_KNOTS.);
#151 = CARTESIAN_POINT('',(5.852348622562,300.0028435108,213.29205690962
    ));
#152 = CARTESIAN_POINT('',(5.889468540648,300.00219133109,
    213.25856740565));
#153 = CARTESIAN_POINT('',(5.926451575236,300.00163349744,
    213.22480041425));
#154 = CARTESIAN_POINT('',(5.963296154659,300.00117371067,
    213.19075635781));
#155 = CARTESIAN_POINT('',(6.0000006,300.00081575831,213.15643555868));
#156 = PCURVE('',#36,#157);
#157 = DEFINITIONAL_REPRESENTATION('',(#158),#163);
#158 = B_SPLINE_CURVE_WITH_KNOTS('',3,(#159,#160,#161,#162),
  .UNSPECIFIED.,.F.,.F.,(4,4),(8.976300540705E-06,0.999995913302),
  .PIECEWISE_BEZIER_KNOTS.);
#159 = CARTESIAN_POINT('',(3.665155201012,0.14765004464));
#160 = CARTESIAN_POINT('',(3.66177410455,9.815747923735E-02));
#161 = CARTESIAN_POINT('',(3.658344298347,4.893863071915E-02));
#162 = CARTESIAN_POINT('',(3.654865128229,-2.143759127277E-16));
#163 = ( GEOMETRIC_REPRESENTATION_CONTEXT(2) 
PARAMETRIC_REPRESENTATION_CONTEXT() REPRESENTATION_CONTEXT('2D SPACE',''
  ) );
#164 = PCURVE('',#97,#165);
#165 = DEFINITIONAL_REPRESENTATION('',(#166),#171);
#166 = B_SPLINE_CURVE_WITH_KNOTS('',3,(#167,#168,#169,#170),
  .UNSPECIFIED.,.F.,.F.,(4,4),(8.976300540705E-06,0.999995913302),
  .PIECEWISE_BEZIER_KNOTS.);
#167 = CARTESIAN_POINT('',(3.766617200908,-37.));
#168 = CARTESIAN_POINT('',(3.773327417453,-36.97771939761));
#169 = CARTESIAN_POINT('',(3.780075506013,-36.95533666912));
#170 = CARTESIAN_POINT('',(3.786863890171,-36.93286565462));
#171 = ( GEOMETRIC_REPRESENTATION_CONTEXT(2) 
PARAMETRIC_REPRESENTATION_CONTEXT() REPRESENTATION_CONTEXT('2D SPACE',''
  ) );
#172 = ORIENTED_EDGE('',*,*,#173,.T.);
#173 = EDGE_CURVE('',#147,#174,#176,.T.);
#174 = VERTEX_POINT('',#175);
#175 = CARTESIAN_POINT('',(6.,307.09992224737,200.24896978662));
#176 = SURFACE_CURVE('',#177,(#185,#196),.PCURVE_S1.);
#177 = ( BOUNDED_CURVE() B_SPLINE_CURVE(2,(#178,#179,#180,#181,#182,#183
,#184),.UNSPECIFIED.,.F.,.F.) B_SPLINE_CURVE_WITH_KNOTS((3,2,2,3),(0.,
    1.752213452634,3.504426905267,5.256640357901),
.PIECEWISE_BEZIER_KNOTS.) CURVE() GEOMETRIC_REPRESENTATION_ITEM() 
RATIONAL_B_SPLINE_CURVE((1.,0.640147005183,1.,0.640147005183,1.,
0.640147005183,1.)) REPRESENTATION_ITEM('') );
#178 = CARTESIAN_POINT('',(6.,300.00081576416,213.15643611972));
#179 = CARTESIAN_POINT('',(6.,300.18855768864,231.15723874119));
#180 = CARTESIAN_POINT('',(6.,317.86007601569,227.72480781485));
#181 = CARTESIAN_POINT('',(6.,335.53159434275,224.29237688851));
#182 = CARTESIAN_POINT('',(6.,328.9671336793,207.53015751739));
#183 = CARTESIAN_POINT('',(6.,322.40267301585,190.76793814627));
#184 = CARTESIAN_POINT('',(6.,307.09992224737,200.24896978662));
#185 = PCURVE('',#36,#186);
#186 = DEFINITIONAL_REPRESENTATION('',(#187),#195);
#187 = B_SPLINE_CURVE_WITH_KNOTS('',2,(#188,#189,#190,#191,#192,#193,
    #194),.UNSPECIFIED.,.F.,.F.,(3,2,2,3),(0.,1.752213452634,
    3.504426905267,5.256640357901),.PIECEWISE_BEZIER_KNOTS.);
#188 = CARTESIAN_POINT('',(3.654865128229,8.881784197001E-16));
#189 = CARTESIAN_POINT('',(4.530971854546,1.095814669563E-16));
#190 = CARTESIAN_POINT('',(5.407078580863,0.));
#191 = CARTESIAN_POINT('',(6.28318530718,6.292266108899E-16));
#192 = CARTESIAN_POINT('',(7.159292033496,0.));
#193 = CARTESIAN_POINT('',(8.035398759813,1.150478590365E-15));
#194 = CARTESIAN_POINT('',(8.91150548613,-1.7763568394E-15));
#195 = ( GEOMETRIC_REPRESENTATION_CONTEXT(2) 
PARAMETRIC_REPRESENTATION_CONTEXT() REPRESENTATION_CONTEXT('2D SPACE',''
  ) );
#196 = PCURVE('',#197,#202);
#197 = B_SPLINE_SURFACE_WITH_KNOTS('',1,1,(
    (#198,#199)
    ,(#200,#201
    )),.UNSPECIFIED.,.F.,.F.,.F.,(2,2),(2,2),(-15.,13.067134345372),(
    -15.,15.),.PIECEWISE_BEZIER_KNOTS.);
#198 = CARTESIAN_POINT('',(6.,320.91445738356,233.37201987673));
#199 = CARTESIAN_POINT('',(6.,335.37201987673,207.08554261643));
#200 = CARTESIAN_POINT('',(6.,296.32158775918,219.84594158332));
#201 = CARTESIAN_POINT('',(6.,310.77915025235,193.55946432302));
#202 = DEFINITIONAL_REPRESENTATION('',(#203),#211);
#203 = ( BOUNDED_CURVE() B_SPLINE_CURVE(2,(#204,#205,#206,#207,#208,#209
,#210),.UNSPECIFIED.,.F.,.F.) B_SPLINE_CURVE_WITH_KNOTS((3,2,2,3),(0.,
    1.752213452634,3.504426905267,5.256640357901),
.PIECEWISE_BEZIER_KNOTS.) CURVE() GEOMETRIC_REPRESENTATION_ITEM() 
RATIONAL_B_SPLINE_CURVE((1.,0.640147005183,1.,0.640147005183,1.,
0.640147005183,1.)) REPRESENTATION_ITEM('') );
#204 = CARTESIAN_POINT('',(13.067134345372,-7.365459931328));
#205 = CARTESIAN_POINT('',(4.227707590184,-23.04757320368));
#206 = CARTESIAN_POINT('',(-9.602205077749,-11.52378660184));
#207 = CARTESIAN_POINT('',(-23.43211774568,2.84217094304E-14));
#208 = CARTESIAN_POINT('',(-9.602205077749,11.523786601844));
#209 = CARTESIAN_POINT('',(4.227707590184,23.047573203689));
#210 = CARTESIAN_POINT('',(13.067134345372,7.365459931328));
#211 = ( GEOMETRIC_REPRESENTATION_CONTEXT(2) 
PARAMETRIC_REPRESENTATION_CONTEXT() REPRESENTATION_CONTEXT('2D SPACE',''
  ) );
#212 = ORIENTED_EDGE('',*,*,#213,.T.);
#213 = EDGE_CURVE('',#174,#214,#216,.T.);
#214 = VERTEX_POINT('',#215);
#215 = CARTESIAN_POINT('',(5.85234995536,307.21554288702,200.17805679874
    ));
#216 = SURFACE_CURVE('',#217,(#223,#231),.PCURVE_S1.);
#217 = B_SPLINE_CURVE_WITH_KNOTS('',4,(#218,#219,#220,#221,#222),
  .UNSPECIFIED.,.F.,.F.,(5,5),(0.,1.),.PIECEWISE_BEZIER_KNOTS.);
#218 = CARTESIAN_POINT('',(6.0000006,307.09992177042,200.24897008212));
#219 = CARTESIAN_POINT('',(5.963296154659,307.12909839293,
    200.23089329916));
#220 = CARTESIAN_POINT('',(5.926451575236,307.1580958312,200.2130507165)
  );
#221 = CARTESIAN_POINT('',(5.889468540648,307.18691178476,
    200.19543930807));
#222 = CARTESIAN_POINT('',(5.852348622562,307.21554391506,
    200.17805617459));
#223 = PCURVE('',#36,#224);
#224 = DEFINITIONAL_REPRESENTATION('',(#225),#230);
#225 = B_SPLINE_CURVE_WITH_KNOTS('',3,(#226,#227,#228,#229),
  .UNSPECIFIED.,.F.,.F.,(4,4),(4.086698312947E-06,0.9999910237),
  .PIECEWISE_BEZIER_KNOTS.);
#226 = CARTESIAN_POINT('',(8.91150548613,-3.883072860084E-15));
#227 = CARTESIAN_POINT('',(8.908026316012,4.893863071916E-02));
#228 = CARTESIAN_POINT('',(8.904596509809,9.815747923736E-02));
#229 = CARTESIAN_POINT('',(8.901215413347,0.14765004464));
#230 = ( GEOMETRIC_REPRESENTATION_CONTEXT(2) 
PARAMETRIC_REPRESENTATION_CONTEXT() REPRESENTATION_CONTEXT('2D SPACE',''
  ) );
#231 = PCURVE('',#97,#232);
#232 = DEFINITIONAL_REPRESENTATION('',(#233),#238);
#233 = B_SPLINE_CURVE_WITH_KNOTS('',3,(#234,#235,#236,#237),
  .UNSPECIFIED.,.F.,.F.,(4,4),(4.086698312947E-06,0.9999910237),
  .PIECEWISE_BEZIER_KNOTS.);
#234 = CARTESIAN_POINT('',(5.56942692726,-36.93286565462));
#235 = CARTESIAN_POINT('',(5.575656318391,-36.95533666912));
#236 = CARTESIAN_POINT('',(5.581882224409,-36.97771939761));
#237 = CARTESIAN_POINT('',(5.588106258284,-37.));
#238 = ( GEOMETRIC_REPRESENTATION_CONTEXT(2) 
PARAMETRIC_REPRESENTATION_CONTEXT() REPRESENTATION_CONTEXT('2D SPACE',''
  ) );
#239 = ORIENTED_EDGE('',*,*,#240,.T.);
#240 = EDGE_CURVE('',#214,#241,#243,.T.);
#241 = VERTEX_POINT('',#242);
#242 = CARTESIAN_POINT('',(-5.85234995536,307.21554288702,
    200.17805679874));
#243 = SURFACE_CURVE('',#244,(#247,#254),.PCURVE_S1.);
#244 = B_SPLINE_CURVE_WITH_KNOTS('',1,(#245,#246),.UNSPECIFIED.,.F.,.F.,
  (2,2),(0.14765004464,11.85234995536),.PIECEWISE_BEZIER_KNOTS.);
#245 = CARTESIAN_POINT('',(5.85234995536,307.21554288702,200.17805679874
    ));
#246 = CARTESIAN_POINT('',(-5.85234995536,307.21554288702,
    200.17805679874));
#247 = PCURVE('',#36,#248);
#248 = DEFINITIONAL_REPRESENTATION('',(#249),#253);
#249 = B_SPLINE_CURVE_WITH_KNOTS('',2,(#250,#251,#252),.UNSPECIFIED.,.F.
  ,.F.,(3,3),(0.14765004464,11.85234995536),.PIECEWISE_BEZIER_KNOTS.);
#250 = CARTESIAN_POINT('',(8.901215413347,0.14765004464));
#251 = CARTESIAN_POINT('',(8.901215413347,6.));
#252 = CARTESIAN_POINT('',(8.901215413347,11.85234995536));
#253 = ( GEOMETRIC_REPRESENTATION_CONTEXT(2) 
PARAMETRIC_REPRESENTATION_CONTEXT() REPRESENTATION_CONTEXT('2D SPACE',''
  ) );
#254 = PCURVE('',#255,#260);
#255 = B_SPLINE_SURFACE_WITH_KNOTS('',1,1,(
    (#256,#257)
    ,(#258,#259
    )),.UNSPECIFIED.,.F.,.F.,.F.,(2,2),(2,2),(7.483314773548,9.5),(
    -5.85234995536,5.85234995536),.PIECEWISE_BEZIER_KNOTS.);
#256 = CARTESIAN_POINT('',(5.85234995536,307.21554288702,200.17805679874
    ));
#257 = CARTESIAN_POINT('',(-5.85234995536,307.21554288702,
    200.17805679874));
#258 = CARTESIAN_POINT('',(5.85234995536,308.18742131003,198.41100512053
    ));
#259 = CARTESIAN_POINT('',(-5.85234995536,308.18742131003,
    198.41100512053));
#260 = DEFINITIONAL_REPRESENTATION('',(#261),#264);
#261 = B_SPLINE_CURVE_WITH_KNOTS('',1,(#262,#263),.UNSPECIFIED.,.F.,.F.,
  (2,2),(0.14765004464,11.85234995536),.PIECEWISE_BEZIER_KNOTS.);
#262 = CARTESIAN_POINT('',(7.483314773548,-5.85234995536));
#263 = CARTESIAN_POINT('',(7.483314773548,5.85234995536));
#264 = ( GEOMETRIC_REPRESENTATION_CONTEXT(2) 
PARAMETRIC_REPRESENTATION_CONTEXT() REPRESENTATION_CONTEXT('2D SPACE',''
  ) );
#265 = ORIENTED_EDGE('',*,*,#266,.T.);
#266 = EDGE_CURVE('',#241,#22,#267,.T.);
#267 = SURFACE_CURVE('',#268,(#274,#282),.PCURVE_S1.);
#268 = B_SPLINE_CURVE_WITH_KNOTS('',4,(#269,#270,#271,#272,#273),
  .UNSPECIFIED.,.F.,.F.,(5,5),(0.,1.),.PIECEWISE_BEZIER_KNOTS.);
#269 = CARTESIAN_POINT('',(-5.852348622562,307.21554391506,
    200.17805617459));
#270 = CARTESIAN_POINT('',(-5.889468540648,307.18691178476,
    200.19543930807));
#271 = CARTESIAN_POINT('',(-5.926451575236,307.1580958312,200.2130507165
    ));
#272 = CARTESIAN_POINT('',(-5.963296154659,307.12909839293,
    200.23089329916));
#273 = CARTESIAN_POINT('',(-6.0000006,307.09992177042,200.24897008212));
#274 = PCURVE('',#36,#275);
#275 = DEFINITIONAL_REPRESENTATION('',(#276),#281);
#276 = B_SPLINE_CURVE_WITH_KNOTS('',3,(#277,#278,#279,#280),
  .UNSPECIFIED.,.F.,.F.,(4,4),(8.976300337638E-06,0.999995913302),
  .PIECEWISE_BEZIER_KNOTS.);
#277 = CARTESIAN_POINT('',(8.901215413347,11.85234995536));
#278 = CARTESIAN_POINT('',(8.904596509809,11.901842520763));
#279 = CARTESIAN_POINT('',(8.908026316012,11.951061369281));
#280 = CARTESIAN_POINT('',(8.91150548613,12.));
#281 = ( GEOMETRIC_REPRESENTATION_CONTEXT(2) 
PARAMETRIC_REPRESENTATION_CONTEXT() REPRESENTATION_CONTEXT('2D SPACE',''
  ) );
#282 = PCURVE('',#97,#283);
#283 = DEFINITIONAL_REPRESENTATION('',(#284),#289);
#284 = B_SPLINE_CURVE_WITH_KNOTS('',3,(#285,#286,#287,#288),
  .UNSPECIFIED.,.F.,.F.,(4,4),(8.976300337638E-06,0.999995913302),
  .PIECEWISE_BEZIER_KNOTS.);
#285 = CARTESIAN_POINT('',(0.695079048895,-37.));
#286 = CARTESIAN_POINT('',(0.70130308277,-36.97771939761));
#287 = CARTESIAN_POINT('',(0.707528988788,-36.95533666912));
#288 = CARTESIAN_POINT('',(0.713758379919,-36.93286565462));
#289 = ( GEOMETRIC_REPRESENTATION_CONTEXT(2) 
PARAMETRIC_REPRESENTATION_CONTEXT() REPRESENTATION_CONTEXT('2D SPACE',''
  ) );
#290 = ADVANCED_FACE('',(#291),#255,.T.);
#291 = FACE_BOUND('',#292,.T.);
#292 = EDGE_LOOP('',(#293,#319,#343));
#293 = ORIENTED_EDGE('',*,*,#294,.T.);
#294 = EDGE_CURVE('',#214,#295,#297,.T.);
#295 = VERTEX_POINT('',#296);
#296 = CARTESIAN_POINT('',(1.887103695224E-14,308.18742131003,
    198.41100512053));
#297 = SURFACE_CURVE('',#298,(#302,#309),.PCURVE_S1.);
#298 = ( BOUNDED_CURVE() B_SPLINE_CURVE(2,(#299,#300,#301),
.UNSPECIFIED.,.F.,.F.) B_SPLINE_CURVE_WITH_KNOTS((3,3),(5.619483761416,
6.28318530718),.PIECEWISE_BEZIER_KNOTS.) CURVE() 
GEOMETRIC_REPRESENTATION_ITEM() RATIONAL_B_SPLINE_CURVE((1.,
0.945440993554,1.)) REPRESENTATION_ITEM('') );
#299 = CARTESIAN_POINT('',(5.85234995536,307.21554288702,200.17805679874
    ));
#300 = CARTESIAN_POINT('',(3.273643886205,308.18742131003,
    198.41100512053));
#301 = CARTESIAN_POINT('',(2.119786587062E-14,308.18742131003,
    198.41100512053));
#302 = PCURVE('',#255,#303);
#303 = DEFINITIONAL_REPRESENTATION('',(#304),#308);
#304 = ( BOUNDED_CURVE() B_SPLINE_CURVE(2,(#305,#306,#307),
.UNSPECIFIED.,.F.,.F.) B_SPLINE_CURVE_WITH_KNOTS((3,3),(5.619483761416,
6.28318530718),.PIECEWISE_BEZIER_KNOTS.) CURVE() 
GEOMETRIC_REPRESENTATION_ITEM() RATIONAL_B_SPLINE_CURVE((1.,
0.945440993554,1.)) REPRESENTATION_ITEM('') );
#305 = CARTESIAN_POINT('',(7.483314773548,-5.85234995536));
#306 = CARTESIAN_POINT('',(9.5,-3.273643886205));
#307 = CARTESIAN_POINT('',(9.5,-2.514788364982E-15));
#308 = ( GEOMETRIC_REPRESENTATION_CONTEXT(2) 
PARAMETRIC_REPRESENTATION_CONTEXT() REPRESENTATION_CONTEXT('2D SPACE',''
  ) );
#309 = PCURVE('',#97,#310);
#310 = DEFINITIONAL_REPRESENTATION('',(#311),#318);
#311 = B_SPLINE_CURVE_WITH_KNOTS('',5,(#312,#313,#314,#315,#316,#317),
  .UNSPECIFIED.,.F.,.F.,(6,6),(5.619483761416,6.28318530718),
  .PIECEWISE_BEZIER_KNOTS.);
#312 = CARTESIAN_POINT('',(5.588106258284,-37.));
#313 = CARTESIAN_POINT('',(5.71074523244,-36.99999999999));
#314 = CARTESIAN_POINT('',(5.840607288641,-37.));
#315 = CARTESIAN_POINT('',(5.978546760038,-37.));
#316 = CARTESIAN_POINT('',(6.12560572847,-37.));
#317 = CARTESIAN_POINT('',(6.28318530718,-37.));
#318 = ( GEOMETRIC_REPRESENTATION_CONTEXT(2) 
PARAMETRIC_REPRESENTATION_CONTEXT() REPRESENTATION_CONTEXT('2D SPACE',''
  ) );
#319 = ORIENTED_EDGE('',*,*,#320,.T.);
#320 = EDGE_CURVE('',#295,#241,#321,.T.);
#321 = SURFACE_CURVE('',#322,(#326,#333),.PCURVE_S1.);
#322 = ( BOUNDED_CURVE() B_SPLINE_CURVE(2,(#323,#324,#325),
.UNSPECIFIED.,.F.,.F.) B_SPLINE_CURVE_WITH_KNOTS((3,3),(0.,
0.663701545764),.PIECEWISE_BEZIER_KNOTS.) CURVE() 
GEOMETRIC_REPRESENTATION_ITEM() RATIONAL_B_SPLINE_CURVE((1.,
0.945440993554,1.)) REPRESENTATION_ITEM('') );
#323 = CARTESIAN_POINT('',(1.887103695224E-14,308.18742131003,
    198.41100512053));
#324 = CARTESIAN_POINT('',(-3.273643886205,308.18742131003,
    198.41100512053));
#325 = CARTESIAN_POINT('',(-5.85234995536,307.21554288702,
    200.17805679874));
#326 = PCURVE('',#255,#327);
#327 = DEFINITIONAL_REPRESENTATION('',(#328),#332);
#328 = ( BOUNDED_CURVE() B_SPLINE_CURVE(2,(#329,#330,#331),
.UNSPECIFIED.,.F.,.F.) B_SPLINE_CURVE_WITH_KNOTS((3,3),(0.,
0.663701545764),.PIECEWISE_BEZIER_KNOTS.) CURVE() 
GEOMETRIC_REPRESENTATION_ITEM() RATIONAL_B_SPLINE_CURVE((1.,
0.945440993554,1.)) REPRESENTATION_ITEM('') );
#329 = CARTESIAN_POINT('',(9.5,-1.879594466024E-16));
#330 = CARTESIAN_POINT('',(9.5,3.273643886205));
#331 = CARTESIAN_POINT('',(7.483314773548,5.85234995536));
#332 = ( GEOMETRIC_REPRESENTATION_CONTEXT(2) 
PARAMETRIC_REPRESENTATION_CONTEXT() REPRESENTATION_CONTEXT('2D SPACE',''
  ) );
#333 = PCURVE('',#97,#334);
#334 = DEFINITIONAL_REPRESENTATION('',(#335),#342);
#335 = B_SPLINE_CURVE_WITH_KNOTS('',5,(#336,#337,#338,#339,#340,#341),
  .UNSPECIFIED.,.F.,.F.,(6,6),(0.,0.663701545764),
  .PIECEWISE_BEZIER_KNOTS.);
#336 = CARTESIAN_POINT('',(0.,-37.));
#337 = CARTESIAN_POINT('',(0.15757957871,-37.));
#338 = CARTESIAN_POINT('',(0.304638547143,-37.));
#339 = CARTESIAN_POINT('',(0.442578018538,-36.99999999999));
#340 = CARTESIAN_POINT('',(0.57244007474,-37.));
#341 = CARTESIAN_POINT('',(0.695079048895,-37.));
#342 = ( GEOMETRIC_REPRESENTATION_CONTEXT(2) 
PARAMETRIC_REPRESENTATION_CONTEXT() REPRESENTATION_CONTEXT('2D SPACE',''
  ) );
#343 = ORIENTED_EDGE('',*,*,#240,.F.);
#344 = ADVANCED_FACE('',(#345,#413),#197,.T.);
#345 = FACE_BOUND('',#346,.T.);
#346 = EDGE_LOOP('',(#347,#368,#369,#390));
#347 = ORIENTED_EDGE('',*,*,#348,.T.);
#348 = EDGE_CURVE('',#349,#174,#351,.T.);
#349 = VERTEX_POINT('',#350);
#350 = CARTESIAN_POINT('',(6.,307.1587464288,200.28132308641));
#351 = SURFACE_CURVE('',#352,(#355,#361),.PCURVE_S1.);
#352 = B_SPLINE_CURVE_WITH_KNOTS('',1,(#353,#354),.UNSPECIFIED.,.F.,.F.,
  (2,2),(-37.,-36.93286565462),.PIECEWISE_BEZIER_KNOTS.);
#353 = CARTESIAN_POINT('',(6.,307.1587464288,200.28132308641));
#354 = CARTESIAN_POINT('',(6.,307.09992224737,200.24896978662));
#355 = PCURVE('',#197,#356);
#356 = DEFINITIONAL_REPRESENTATION('',(#357),#360);
#357 = B_SPLINE_CURVE_WITH_KNOTS('',1,(#358,#359),.UNSPECIFIED.,.F.,.F.,
  (2,2),(-37.,-36.93286565462),.PIECEWISE_BEZIER_KNOTS.);
#358 = CARTESIAN_POINT('',(13.,7.365459931328));
#359 = CARTESIAN_POINT('',(13.067134345372,7.365459931328));
#360 = ( GEOMETRIC_REPRESENTATION_CONTEXT(2) 
PARAMETRIC_REPRESENTATION_CONTEXT() REPRESENTATION_CONTEXT('2D SPACE',''
  ) );
#361 = PCURVE('',#97,#362);
#362 = DEFINITIONAL_REPRESENTATION('',(#363),#367);
#363 = B_SPLINE_CURVE_WITH_KNOTS('',2,(#364,#365,#366),.UNSPECIFIED.,.F.
  ,.F.,(3,3),(-37.,-36.93286565462),.PIECEWISE_BEZIER_KNOTS.);
#364 = CARTESIAN_POINT('',(5.56942692726,-37.));
#365 = CARTESIAN_POINT('',(5.56942692726,-36.96643282731));
#366 = CARTESIAN_POINT('',(5.56942692726,-36.93286565462));
#367 = ( GEOMETRIC_REPRESENTATION_CONTEXT(2) 
PARAMETRIC_REPRESENTATION_CONTEXT() REPRESENTATION_CONTEXT('2D SPACE',''
  ) );
#368 = ORIENTED_EDGE('',*,*,#173,.F.);
#369 = ORIENTED_EDGE('',*,*,#370,.F.);
#370 = EDGE_CURVE('',#371,#147,#373,.T.);
#371 = VERTEX_POINT('',#372);
#372 = CARTESIAN_POINT('',(6.,300.0596399456,213.18878941951));
#373 = SURFACE_CURVE('',#374,(#377,#383),.PCURVE_S1.);
#374 = B_SPLINE_CURVE_WITH_KNOTS('',1,(#375,#376),.UNSPECIFIED.,.F.,.F.,
  (2,2),(-37.,-36.93286565462),.PIECEWISE_BEZIER_KNOTS.);
#375 = CARTESIAN_POINT('',(6.,300.0596399456,213.18878941951));
#376 = CARTESIAN_POINT('',(6.,300.00081576416,213.15643611972));
#377 = PCURVE('',#197,#378);
#378 = DEFINITIONAL_REPRESENTATION('',(#379),#382);
#379 = B_SPLINE_CURVE_WITH_KNOTS('',1,(#380,#381),.UNSPECIFIED.,.F.,.F.,
  (2,2),(-37.,-36.93286565462),.PIECEWISE_BEZIER_KNOTS.);
#380 = CARTESIAN_POINT('',(13.,-7.365459931328));
#381 = CARTESIAN_POINT('',(13.067134345372,-7.365459931328));
#382 = ( GEOMETRIC_REPRESENTATION_CONTEXT(2) 
PARAMETRIC_REPRESENTATION_CONTEXT() REPRESENTATION_CONTEXT('2D SPACE',''
  ) );
#383 = PCURVE('',#97,#384);
#384 = DEFINITIONAL_REPRESENTATION('',(#385),#389);
#385 = B_SPLINE_CURVE_WITH_KNOTS('',2,(#386,#387,#388),.UNSPECIFIED.,.F.
  ,.F.,(3,3),(-37.,-36.93286565462),.PIECEWISE_BEZIER_KNOTS.);
#386 = CARTESIAN_POINT('',(3.786863890171,-37.));
#387 = CARTESIAN_POINT('',(3.786863890171,-36.96643282731));
#388 = CARTESIAN_POINT('',(3.786863890171,-36.93286565462));
#389 = ( GEOMETRIC_REPRESENTATION_CONTEXT(2) 
PARAMETRIC_REPRESENTATION_CONTEXT() REPRESENTATION_CONTEXT('2D SPACE',''
  ) );
#390 = ORIENTED_EDGE('',*,*,#391,.F.);
#391 = EDGE_CURVE('',#349,#371,#392,.T.);
#392 = SURFACE_CURVE('',#393,(#396,#402),.PCURVE_S1.);
#393 = B_SPLINE_CURVE_WITH_KNOTS('',1,(#394,#395),.UNSPECIFIED.,.F.,.F.,
  (2,2),(-7.365459931328,7.365459931328),.PIECEWISE_BEZIER_KNOTS.);
#394 = CARTESIAN_POINT('',(6.,307.1587464288,200.28132308641));
#395 = CARTESIAN_POINT('',(6.,300.0596399456,213.18878941951));
#396 = PCURVE('',#197,#397);
#397 = DEFINITIONAL_REPRESENTATION('',(#398),#401);
#398 = B_SPLINE_CURVE_WITH_KNOTS('',1,(#399,#400),.UNSPECIFIED.,.F.,.F.,
  (2,2),(-7.365459931328,7.365459931328),.PIECEWISE_BEZIER_KNOTS.);
#399 = CARTESIAN_POINT('',(13.,7.365459931328));
#400 = CARTESIAN_POINT('',(13.,-7.365459931328));
#401 = ( GEOMETRIC_REPRESENTATION_CONTEXT(2) 
PARAMETRIC_REPRESENTATION_CONTEXT() REPRESENTATION_CONTEXT('2D SPACE',''
  ) );
#402 = PCURVE('',#403,#408);
#403 = B_SPLINE_SURFACE_WITH_KNOTS('',1,1,(
    (#404,#405)
    ,(#406,#407
    )),.UNSPECIFIED.,.F.,.F.,.F.,(2,2),(2,2),(-7.365459931328,
    7.365459931328),(-9.5,-6.),.PIECEWISE_BEZIER_KNOTS.);
#404 = CARTESIAN_POINT('',(9.5,300.0596399456,213.18878941951));
#405 = CARTESIAN_POINT('',(6.,300.0596399456,213.18878941951));
#406 = CARTESIAN_POINT('',(9.5,307.1587464288,200.28132308641));
#407 = CARTESIAN_POINT('',(6.,307.1587464288,200.28132308641));
#408 = DEFINITIONAL_REPRESENTATION('',(#409),#412);
#409 = B_SPLINE_CURVE_WITH_KNOTS('',1,(#410,#411),.UNSPECIFIED.,.F.,.F.,
  (2,2),(-7.365459931328,7.365459931328),.PIECEWISE_BEZIER_KNOTS.);
#410 = CARTESIAN_POINT('',(7.365459931328,-6.));
#411 = CARTESIAN_POINT('',(-7.365459931328,-6.));
#412 = ( GEOMETRIC_REPRESENTATION_CONTEXT(2) 
PARAMETRIC_REPRESENTATION_CONTEXT() REPRESENTATION_CONTEXT('2D SPACE',''
  ) );
#413 = FACE_BOUND('',#414,.T.);
#414 = EDGE_LOOP('',(#415));
#415 = ORIENTED_EDGE('',*,*,#416,.T.);
#416 = EDGE_CURVE('',#417,#417,#419,.T.);
#417 = VERTEX_POINT('',#418);
#418 = CARTESIAN_POINT('',(6.,324.20694055148,218.06381730331));
#419 = SURFACE_CURVE('',#420,(#428,#439),.PCURVE_S1.);
#420 = ( BOUNDED_CURVE() B_SPLINE_CURVE(2,(#421,#422,#423,#424,#425,#426
,#427),.UNSPECIFIED.,.T.,.F.) B_SPLINE_CURVE_WITH_KNOTS((1,2,2,2,2,1),(
    -2.094395102393,0.,2.094395102393,4.188790204786,6.28318530718,
8.377580409573),.UNSPECIFIED.) CURVE() GEOMETRIC_REPRESENTATION_ITEM() 
RATIONAL_B_SPLINE_CURVE((1.,0.5,1.,0.5,1.,0.5,1.)) REPRESENTATION_ITEM(
  '') );
#421 = CARTESIAN_POINT('',(6.,324.20694055148,218.06381730331));
#422 = CARTESIAN_POINT('',(6.,332.97772940108,202.11692848587));
#423 = CARTESIAN_POINT('',(6.,314.78192414905,202.49464693962));
#424 = CARTESIAN_POINT('',(6.,296.58611889702,202.87236539336));
#425 = CARTESIAN_POINT('',(6.,306.01113529946,218.44153575706));
#426 = CARTESIAN_POINT('',(6.,315.43615170189,234.01070612076));
#427 = CARTESIAN_POINT('',(6.,324.20694055148,218.06381730331));
#428 = PCURVE('',#197,#429);
#429 = DEFINITIONAL_REPRESENTATION('',(#430),#438);
#430 = ( BOUNDED_CURVE() B_SPLINE_CURVE(2,(#431,#432,#433,#434,#435,#436
,#437),.UNSPECIFIED.,.T.,.F.) B_SPLINE_CURVE_WITH_KNOTS((1,2,2,2,2,1),(
    -2.094395102393,0.,2.094395102393,4.188790204786,6.28318530718,
8.377580409573),.UNSPECIFIED.) CURVE() GEOMETRIC_REPRESENTATION_ITEM() 
RATIONAL_B_SPLINE_CURVE((1.,0.5,1.,0.5,1.,0.5,1.)) REPRESENTATION_ITEM(
  '') );
#431 = CARTESIAN_POINT('',(-10.50761628534,0.));
#432 = CARTESIAN_POINT('',(-10.50761628534,18.199725272652));
#433 = CARTESIAN_POINT('',(5.253808142671,9.099862636326));
#434 = CARTESIAN_POINT('',(21.015232570685,0.));
#435 = CARTESIAN_POINT('',(5.253808142671,-9.099862636326));
#436 = CARTESIAN_POINT('',(-10.50761628534,-18.19972527265));
#437 = CARTESIAN_POINT('',(-10.50761628534,0.));
#438 = ( GEOMETRIC_REPRESENTATION_CONTEXT(2) 
PARAMETRIC_REPRESENTATION_CONTEXT() REPRESENTATION_CONTEXT('2D SPACE',''
  ) );
#439 = PCURVE('',#440,#462);
#440 = ( BOUNDED_SURFACE() B_SPLINE_SURFACE(2,2,(
    (#441,#442,#443)
    ,(#444,#445,#446)
    ,(#447,#448,#449)
    ,(#450,#451,#452)
    ,(#453,#454,#455)
    ,(#456,#457,#458)
    ,(#459,#460,#461
)),.UNSPECIFIED.,.T.,.F.,.F.) B_SPLINE_SURFACE_WITH_KNOTS((1,2,2,2,2,1),
  (3,3),(-2.094395102393,0.,2.094395102393,4.188790204786,6.28318530718,
    8.377580409573),(-0.518833822033,0.518833822033),.UNSPECIFIED.) 
GEOMETRIC_REPRESENTATION_ITEM() RATIONAL_B_SPLINE_SURFACE((
    (1.,0.868398040111,1.)
    ,(0.5,0.434199020055,0.5)
    ,(1.,0.868398040111,1.)
    ,(0.5,0.434199020055,0.5)
    ,(1.,0.868398040111,1.)
    ,(0.5,0.434199020055,0.5)
,(1.,0.868398040111,1.))) REPRESENTATION_ITEM('') SURFACE() );
#441 = CARTESIAN_POINT('',(-6.,324.20694055148,218.06381730331));
#442 = CARTESIAN_POINT('',(2.003576855245E-14,327.20893185529,
    219.71491252041));
#443 = CARTESIAN_POINT('',(6.,324.20694055148,218.06381730331));
#444 = CARTESIAN_POINT('',(-6.,332.97772940108,202.11692848587));
#445 = CARTESIAN_POINT('',(2.074793554739E-14,338.83950150903,
    198.56842224089));
#446 = CARTESIAN_POINT('',(6.,332.97772940108,202.11692848587));
#447 = CARTESIAN_POINT('',(-6.,314.78192414905,202.49464693962));
#448 = CARTESIAN_POINT('',(1.92704798511E-14,314.71081889922,
    199.06929860003));
#449 = CARTESIAN_POINT('',(6.,314.78192414905,202.49464693962));
#450 = CARTESIAN_POINT('',(-6.,296.58611889702,202.87236539336));
#451 = CARTESIAN_POINT('',(1.779302415481E-14,290.5821362894,
    199.57017495917));
#452 = CARTESIAN_POINT('',(6.,296.58611889702,202.87236539336));
#453 = CARTESIAN_POINT('',(-6.,306.01113529946,218.44153575706));
#454 = CARTESIAN_POINT('',(1.855831285616E-14,303.08024924548,
    220.21578887955));
#455 = CARTESIAN_POINT('',(6.,306.01113529946,218.44153575706));
#456 = CARTESIAN_POINT('',(-6.,315.43615170189,234.01070612076));
#457 = CARTESIAN_POINT('',(1.932360155752E-14,315.57836220156,
    240.86140279993));
#458 = CARTESIAN_POINT('',(6.,315.43615170189,234.01070612076));
#459 = CARTESIAN_POINT('',(-6.,324.20694055148,218.06381730331));
#460 = CARTESIAN_POINT('',(2.003576855245E-14,327.20893185529,
    219.71491252041));
#461 = CARTESIAN_POINT('',(6.,324.20694055148,218.06381730331));
#462 = DEFINITIONAL_REPRESENTATION('',(#463),#471);
#463 = B_SPLINE_CURVE_WITH_KNOTS('',2,(#464,#465,#466,#467,#468,#469,
    #470),.UNSPECIFIED.,.F.,.F.,(3,2,2,3),(0.,2.094395102393,
    4.188790204786,6.28318530718),.PIECEWISE_BEZIER_KNOTS.);
#464 = CARTESIAN_POINT('',(0.,0.518833822033));
#465 = CARTESIAN_POINT('',(1.047197551197,0.518833822033));
#466 = CARTESIAN_POINT('',(2.094395102393,0.518833822033));
#467 = CARTESIAN_POINT('',(3.14159265359,0.518833822033));
#468 = CARTESIAN_POINT('',(4.188790204786,0.518833822033));
#469 = CARTESIAN_POINT('',(5.235987755983,0.518833822033));
#470 = CARTESIAN_POINT('',(6.28318530718,0.518833822033));
#471 = ( GEOMETRIC_REPRESENTATION_CONTEXT(2) 
PARAMETRIC_REPRESENTATION_CONTEXT() REPRESENTATION_CONTEXT('2D SPACE',''
  ) );
#472 = ADVANCED_FACE('',(#473),#440,.T.);
#473 = FACE_BOUND('',#474,.T.);
#474 = EDGE_LOOP('',(#475,#510,#531,#532));
#475 = ORIENTED_EDGE('',*,*,#476,.T.);
#476 = EDGE_CURVE('',#477,#477,#479,.T.);
#477 = VERTEX_POINT('',#478);
#478 = CARTESIAN_POINT('',(-6.,324.20694055148,218.06381730331));
#479 = SURFACE_CURVE('',#480,(#488,#499),.PCURVE_S1.);
#480 = ( BOUNDED_CURVE() B_SPLINE_CURVE(2,(#481,#482,#483,#484,#485,#486
,#487),.UNSPECIFIED.,.T.,.F.) B_SPLINE_CURVE_WITH_KNOTS((1,2,2,2,2,1),(
    -2.094395102393,0.,2.094395102393,4.188790204786,6.28318530718,
8.377580409573),.UNSPECIFIED.) CURVE() GEOMETRIC_REPRESENTATION_ITEM() 
RATIONAL_B_SPLINE_CURVE((1.,0.5,1.,0.5,1.,0.5,1.)) REPRESENTATION_ITEM(
  '') );
#481 = CARTESIAN_POINT('',(-6.,324.20694055148,218.06381730331));
#482 = CARTESIAN_POINT('',(-6.,332.97772940108,202.11692848587));
#483 = CARTESIAN_POINT('',(-6.,314.78192414905,202.49464693962));
#484 = CARTESIAN_POINT('',(-6.,296.58611889702,202.87236539336));
#485 = CARTESIAN_POINT('',(-6.,306.01113529946,218.44153575706));
#486 = CARTESIAN_POINT('',(-6.,315.43615170189,234.01070612076));
#487 = CARTESIAN_POINT('',(-6.,324.20694055148,218.06381730331));
#488 = PCURVE('',#440,#489);
#489 = DEFINITIONAL_REPRESENTATION('',(#490),#498);
#490 = B_SPLINE_CURVE_WITH_KNOTS('',2,(#491,#492,#493,#494,#495,#496,
    #497),.UNSPECIFIED.,.F.,.F.,(3,2,2,3),(0.,2.094395102393,
    4.188790204786,6.28318530718),.PIECEWISE_BEZIER_KNOTS.);
#491 = CARTESIAN_POINT('',(0.,-0.518833822033));
#492 = CARTESIAN_POINT('',(1.047197551197,-0.518833822033));
#493 = CARTESIAN_POINT('',(2.094395102393,-0.518833822033));
#494 = CARTESIAN_POINT('',(3.14159265359,-0.518833822033));
#495 = CARTESIAN_POINT('',(4.188790204786,-0.518833822033));
#496 = CARTESIAN_POINT('',(5.235987755983,-0.518833822033));
#497 = CARTESIAN_POINT('',(6.28318530718,-0.518833822033));
#498 = ( GEOMETRIC_REPRESENTATION_CONTEXT(2) 
PARAMETRIC_REPRESENTATION_CONTEXT() REPRESENTATION_CONTEXT('2D SPACE',''
  ) );
#499 = PCURVE('',#62,#500);
#500 = DEFINITIONAL_REPRESENTATION('',(#501),#509);
#501 = ( BOUNDED_CURVE() B_SPLINE_CURVE(2,(#502,#503,#504,#505,#506,#507
,#508),.UNSPECIFIED.,.T.,.F.) B_SPLINE_CURVE_WITH_KNOTS((1,2,2,2,2,1),(
    -2.094395102393,0.,2.094395102393,4.188790204786,6.28318530718,
8.377580409573),.UNSPECIFIED.) CURVE() GEOMETRIC_REPRESENTATION_ITEM() 
RATIONAL_B_SPLINE_CURVE((1.,0.5,1.,0.5,1.,0.5,1.)) REPRESENTATION_ITEM(
  '') );
#502 = CARTESIAN_POINT('',(10.507616285343,0.));
#503 = CARTESIAN_POINT('',(10.507616285343,18.199725272652));
#504 = CARTESIAN_POINT('',(-5.253808142671,9.099862636326));
#505 = CARTESIAN_POINT('',(-21.01523257068,0.));
#506 = CARTESIAN_POINT('',(-5.253808142671,-9.099862636326));
#507 = CARTESIAN_POINT('',(10.507616285343,-18.19972527265));
#508 = CARTESIAN_POINT('',(10.507616285343,0.));
#509 = ( GEOMETRIC_REPRESENTATION_CONTEXT(2) 
PARAMETRIC_REPRESENTATION_CONTEXT() REPRESENTATION_CONTEXT('2D SPACE',''
  ) );
#510 = ORIENTED_EDGE('',*,*,#511,.T.);
#511 = EDGE_CURVE('',#477,#417,#512,.T.);
#512 = SEAM_CURVE('',#513,(#517,#524),.PCURVE_S1.);
#513 = ( BOUNDED_CURVE() B_SPLINE_CURVE(2,(#514,#515,#516),
.UNSPECIFIED.,.F.,.F.) B_SPLINE_CURVE_WITH_KNOTS((3,3),(0.,
1.037667644066),.PIECEWISE_BEZIER_KNOTS.) CURVE() 
GEOMETRIC_REPRESENTATION_ITEM() RATIONAL_B_SPLINE_CURVE((1.,
0.868398040111,1.)) REPRESENTATION_ITEM('') );
#514 = CARTESIAN_POINT('',(-6.,324.20694055148,218.06381730331));
#515 = CARTESIAN_POINT('',(2.003576855245E-14,327.20893185529,
    219.71491252041));
#516 = CARTESIAN_POINT('',(6.,324.20694055148,218.06381730331));
#517 = PCURVE('',#440,#518);
#518 = DEFINITIONAL_REPRESENTATION('',(#519),#523);
#519 = B_SPLINE_CURVE_WITH_KNOTS('',2,(#520,#521,#522),.UNSPECIFIED.,.F.
  ,.F.,(3,3),(0.,1.037667644066),.PIECEWISE_BEZIER_KNOTS.);
#520 = CARTESIAN_POINT('',(0.,-0.518833822033));
#521 = CARTESIAN_POINT('',(0.,-3.520468230659E-16));
#522 = CARTESIAN_POINT('',(0.,0.518833822033));
#523 = ( GEOMETRIC_REPRESENTATION_CONTEXT(2) 
PARAMETRIC_REPRESENTATION_CONTEXT() REPRESENTATION_CONTEXT('2D SPACE',''
  ) );
#524 = PCURVE('',#440,#525);
#525 = DEFINITIONAL_REPRESENTATION('',(#526),#530);
#526 = B_SPLINE_CURVE_WITH_KNOTS('',2,(#527,#528,#529),.UNSPECIFIED.,.F.
  ,.F.,(3,3),(0.,1.037667644066),.PIECEWISE_BEZIER_KNOTS.);
#527 = CARTESIAN_POINT('',(6.28318530718,-0.518833822033));
#528 = CARTESIAN_POINT('',(6.28318530718,-3.520468230659E-16));
#529 = CARTESIAN_POINT('',(6.28318530718,0.518833822033));
#530 = ( GEOMETRIC_REPRESENTATION_CONTEXT(2) 
PARAMETRIC_REPRESENTATION_CONTEXT() REPRESENTATION_CONTEXT('2D SPACE',''
  ) );
#531 = ORIENTED_EDGE('',*,*,#416,.F.);
#532 = ORIENTED_EDGE('',*,*,#511,.F.);
#533 = ADVANCED_FACE('',(#534),#403,.T.);
#534 = FACE_BOUND('',#535,.T.);
#535 = EDGE_LOOP('',(#536,#594));
#536 = ORIENTED_EDGE('',*,*,#537,.T.);
#537 = EDGE_CURVE('',#371,#349,#538,.T.);
#538 = SURFACE_CURVE('',#539,(#543,#550),.PCURVE_S1.);
#539 = ( BOUNDED_CURVE() B_SPLINE_CURVE(2,(#540,#541,#542),
.UNSPECIFIED.,.F.,.F.) B_SPLINE_CURVE_WITH_KNOTS((3,3),(3.825180712762,
5.599597248007),.PIECEWISE_BEZIER_KNOTS.) CURVE() 
GEOMETRIC_REPRESENTATION_ITEM() RATIONAL_B_SPLINE_CURVE((1.,
0.631578947368,1.)) REPRESENTATION_ITEM('') );
#540 = CARTESIAN_POINT('',(6.,300.0596399456,213.18878941951));
#541 = CARTESIAN_POINT('',(15.041666666667,303.6091931872,
    206.73505625296));
#542 = CARTESIAN_POINT('',(6.,307.1587464288,200.28132308641));
#543 = PCURVE('',#403,#544);
#544 = DEFINITIONAL_REPRESENTATION('',(#545),#549);
#545 = ( BOUNDED_CURVE() B_SPLINE_CURVE(2,(#546,#547,#548),
.UNSPECIFIED.,.F.,.F.) B_SPLINE_CURVE_WITH_KNOTS((3,3),(3.825180712762,
5.599597248007),.PIECEWISE_BEZIER_KNOTS.) CURVE() 
GEOMETRIC_REPRESENTATION_ITEM() RATIONAL_B_SPLINE_CURVE((1.,
0.631578947368,1.)) REPRESENTATION_ITEM('') );
#546 = CARTESIAN_POINT('',(-7.365459931328,-6.));
#547 = CARTESIAN_POINT('',(0.,-15.04166666666));
#548 = CARTESIAN_POINT('',(7.365459931328,-6.));
#549 = ( GEOMETRIC_REPRESENTATION_CONTEXT(2) 
PARAMETRIC_REPRESENTATION_CONTEXT() REPRESENTATION_CONTEXT('2D SPACE',''
  ) );
#550 = PCURVE('',#97,#551);
#551 = DEFINITIONAL_REPRESENTATION('',(#552),#593);
#552 = B_SPLINE_CURVE_WITH_KNOTS('',7,(#553,#554,#555,#556,#557,#558,
    #559,#560,#561,#562,#563,#564,#565,#566,#567,#568,#569,#570,#571,
    #572,#573,#574,#575,#576,#577,#578,#579,#580,#581,#582,#583,#584,
    #585,#586,#587,#588,#589,#590,#591,#592),.UNSPECIFIED.,.F.,.F.,(8,6,
    6,6,7,7,8),(3.825180712762,4.046982779668,4.144021183939,
    4.189507935941,4.211540581442,4.22238477415,5.599597248007),
  .UNSPECIFIED.);
#553 = CARTESIAN_POINT('',(3.786863890171,-37.));
#554 = CARTESIAN_POINT('',(3.815153889875,-36.99999999999));
#555 = CARTESIAN_POINT('',(3.844203276443,-36.99999999999));
#556 = CARTESIAN_POINT('',(3.874048783546,-37.));
#557 = CARTESIAN_POINT('',(3.904730020624,-37.));
#558 = CARTESIAN_POINT('',(3.9362899821,-37.));
#559 = CARTESIAN_POINT('',(3.968775556597,-37.));
#560 = CARTESIAN_POINT('',(4.016877869808,-37.));
#561 = CARTESIAN_POINT('',(4.031704700602,-37.));
#562 = CARTESIAN_POINT('',(4.046722812764,-37.));
#563 = CARTESIAN_POINT('',(4.061936672092,-37.));
#564 = CARTESIAN_POINT('',(4.077350925957,-37.));
#565 = CARTESIAN_POINT('',(4.092970403302,-37.));
#566 = CARTESIAN_POINT('',(4.116220303299,-37.));
#567 = CARTESIAN_POINT('',(4.123686667755,-37.));
#568 = CARTESIAN_POINT('',(4.131199745563,-37.));
#569 = CARTESIAN_POINT('',(4.13876007427,-37.));
#570 = CARTESIAN_POINT('',(4.146368191428,-37.));
#571 = CARTESIAN_POINT('',(4.154024634586,-37.));
#572 = CARTESIAN_POINT('',(4.165462204862,-37.));
#573 = CARTESIAN_POINT('',(4.169205936382,-37.));
#574 = CARTESIAN_POINT('',(4.172961200481,-37.));
#575 = CARTESIAN_POINT('',(4.176728061783,-37.));
#576 = CARTESIAN_POINT('',(4.180506584913,-37.));
#577 = CARTESIAN_POINT('',(4.184296834498,-37.));
#578 = CARTESIAN_POINT('',(4.188098875161,-37.));
#579 = CARTESIAN_POINT('',(4.189970389508,-37.0000000001));
#580 = CARTESIAN_POINT('',(4.191844347679,-36.99999999968));
#581 = CARTESIAN_POINT('',(4.193711202803,-37.00000000005));
#582 = CARTESIAN_POINT('',(4.195583971072,-36.99999999994));
#583 = CARTESIAN_POINT('',(4.197450420423,-37.00000000005));
#584 = CARTESIAN_POINT('',(4.19931837546,-37.00000000001));
#585 = CARTESIAN_POINT('',(4.201184576418,-37.));
#586 = CARTESIAN_POINT('',(4.438203205655,-37.00000000002));
#587 = CARTESIAN_POINT('',(4.658425670938,-36.99999999999));
#588 = CARTESIAN_POINT('',(4.863992191915,-37.00000000004));
#589 = CARTESIAN_POINT('',(5.056594905891,-37.00000000003));
#590 = CARTESIAN_POINT('',(5.237619250353,-36.99999999998));
#591 = CARTESIAN_POINT('',(5.408233567,-37.00000000002));
#592 = CARTESIAN_POINT('',(5.56942692726,-37.));
#593 = ( GEOMETRIC_REPRESENTATION_CONTEXT(2) 
PARAMETRIC_REPRESENTATION_CONTEXT() REPRESENTATION_CONTEXT('2D SPACE',''
  ) );
#594 = ORIENTED_EDGE('',*,*,#391,.T.);
#595 = ADVANCED_FACE('',(#596),#135,.T.);
#596 = FACE_BOUND('',#597,.T.);
#597 = EDGE_LOOP('',(#598,#599));
#598 = ORIENTED_EDGE('',*,*,#120,.T.);
#599 = ORIENTED_EDGE('',*,*,#600,.T.);
#600 = EDGE_CURVE('',#79,#121,#601,.T.);
#601 = SURFACE_CURVE('',#602,(#606,#613),.PCURVE_S1.);
#602 = ( BOUNDED_CURVE() B_SPLINE_CURVE(2,(#603,#604,#605),
.UNSPECIFIED.,.F.,.F.) B_SPLINE_CURVE_WITH_KNOTS((3,3),(2.477891107826,
3.805294199354),.PIECEWISE_BEZIER_KNOTS.) CURVE() 
GEOMETRIC_REPRESENTATION_ITEM() RATIONAL_B_SPLINE_CURVE((1.,
0.787717344584,1.)) REPRESENTATION_ITEM('') );
#603 = CARTESIAN_POINT('',(-5.85234995536,300.00284348738,
    213.29205570718));
#604 = CARTESIAN_POINT('',(1.67578737443E-14,297.79717425133,
    217.30236340909));
#605 = CARTESIAN_POINT('',(5.85234995536,300.00284348738,213.29205570718
    ));
#606 = PCURVE('',#135,#607);
#607 = DEFINITIONAL_REPRESENTATION('',(#608),#612);
#608 = ( BOUNDED_CURVE() B_SPLINE_CURVE(2,(#609,#610,#611),
.UNSPECIFIED.,.F.,.F.) B_SPLINE_CURVE_WITH_KNOTS((3,3),(2.477891107826,
3.805294199354),.PIECEWISE_BEZIER_KNOTS.) CURVE() 
GEOMETRIC_REPRESENTATION_ITEM() RATIONAL_B_SPLINE_CURVE((1.,
0.787717344584,1.)) REPRESENTATION_ITEM('') );
#609 = CARTESIAN_POINT('',(-7.483314773548,5.85234995536));
#610 = CARTESIAN_POINT('',(-12.06016354129,1.288984621202E-15));
#611 = CARTESIAN_POINT('',(-7.483314773548,-5.85234995536));
#612 = ( GEOMETRIC_REPRESENTATION_CONTEXT(2) 
PARAMETRIC_REPRESENTATION_CONTEXT() REPRESENTATION_CONTEXT('2D SPACE',''
  ) );
#613 = PCURVE('',#97,#614);
#614 = DEFINITIONAL_REPRESENTATION('',(#615),#619);
#615 = B_SPLINE_CURVE_WITH_KNOTS('',2,(#616,#617,#618),.UNSPECIFIED.,.F.
  ,.F.,(3,3),(2.477891107826,3.805294199354),.PIECEWISE_BEZIER_KNOTS.);
#616 = CARTESIAN_POINT('',(2.516568106271,-37.));
#617 = CARTESIAN_POINT('',(3.14159265359,-37.));
#618 = CARTESIAN_POINT('',(3.766617200908,-37.));
#619 = ( GEOMETRIC_REPRESENTATION_CONTEXT(2) 
PARAMETRIC_REPRESENTATION_CONTEXT() REPRESENTATION_CONTEXT('2D SPACE',''
  ) );
#620 = ADVANCED_FACE('',(#621),#97,.F.);
#621 = FACE_BOUND('',#622,.F.);
#622 = EDGE_LOOP('',(#623,#663,#683,#684,#685,#706,#763,#782,#783,#784,
    #785,#786,#787,#788,#789,#790));
#623 = ORIENTED_EDGE('',*,*,#624,.F.);
#624 = EDGE_CURVE('',#625,#625,#627,.T.);
#625 = VERTEX_POINT('',#626);
#626 = CARTESIAN_POINT('',(1.688588518758E-14,275.767432689,
    180.58001137896));
#627 = SURFACE_CURVE('',#628,(#636,#647),.PCURVE_S1.);
#628 = ( BOUNDED_CURVE() B_SPLINE_CURVE(2,(#629,#630,#631,#632,#633,#634
,#635),.UNSPECIFIED.,.T.,.F.) B_SPLINE_CURVE_WITH_KNOTS((1,2,2,2,2,1),(
    -2.094395102393,0.,2.094395102393,4.188790204786,6.28318530718,
8.377580409573),.UNSPECIFIED.) CURVE() GEOMETRIC_REPRESENTATION_ITEM() 
RATIONAL_B_SPLINE_CURVE((1.,0.5,1.,0.5,1.,0.5,1.)) REPRESENTATION_ITEM(
  '') );
#629 = CARTESIAN_POINT('',(1.688588518758E-14,275.767432689,
    180.58001137896));
#630 = CARTESIAN_POINT('',(-16.4544826719,275.767432689,180.58001137896)
  );
#631 = CARTESIAN_POINT('',(-8.227241335952,268.90009050475,
    193.0660880776));
#632 = CARTESIAN_POINT('',(1.371804940674E-14,262.03274832049,
    205.55216477624));
#633 = CARTESIAN_POINT('',(8.227241335952,268.90009050475,193.0660880776
    ));
#634 = CARTESIAN_POINT('',(16.454482671904,275.767432689,180.58001137896
    ));
#635 = CARTESIAN_POINT('',(1.688588518758E-14,275.767432689,
    180.58001137896));
#636 = PCURVE('',#97,#637);
#637 = DEFINITIONAL_REPRESENTATION('',(#638),#646);
#638 = B_SPLINE_CURVE_WITH_KNOTS('',2,(#639,#640,#641,#642,#643,#644,
    #645),.UNSPECIFIED.,.F.,.F.,(3,2,2,3),(0.,2.094395102393,
    4.188790204786,6.28318530718),.PIECEWISE_BEZIER_KNOTS.);
#639 = CARTESIAN_POINT('',(0.,0.));
#640 = CARTESIAN_POINT('',(1.047197551197,-1.305653750694E-14));
#641 = CARTESIAN_POINT('',(2.094395102393,4.980710790941E-14));
#642 = CARTESIAN_POINT('',(3.14159265359,-1.247232620303E-13));
#643 = CARTESIAN_POINT('',(4.188790204786,0.));
#644 = CARTESIAN_POINT('',(5.235987755983,6.760218036596E-15));
#645 = CARTESIAN_POINT('',(6.28318530718,0.));
#646 = ( GEOMETRIC_REPRESENTATION_CONTEXT(2) 
PARAMETRIC_REPRESENTATION_CONTEXT() REPRESENTATION_CONTEXT('2D SPACE',''
  ) );
#647 = PCURVE('',#648,#653);
#648 = B_SPLINE_SURFACE_WITH_KNOTS('',1,1,(
    (#649,#650)
    ,(#651,#652
    )),.UNSPECIFIED.,.F.,.F.,.F.,(2,2),(2,2),(-9.5,9.5),(-9.5,9.5),
  .PIECEWISE_BEZIER_KNOTS.);
#649 = CARTESIAN_POINT('',(9.5,266.61097644333,197.22811364382));
#650 = CARTESIAN_POINT('',(-9.5,266.61097644333,197.22811364382));
#651 = CARTESIAN_POINT('',(9.5,275.767432689,180.58001137896));
#652 = CARTESIAN_POINT('',(-9.5,275.767432689,180.58001137896));
#653 = DEFINITIONAL_REPRESENTATION('',(#654),#662);
#654 = ( BOUNDED_CURVE() B_SPLINE_CURVE(2,(#655,#656,#657,#658,#659,#660
,#661),.UNSPECIFIED.,.T.,.F.) B_SPLINE_CURVE_WITH_KNOTS((1,2,2,2,2,1),(
    -2.094395102393,0.,2.094395102393,4.188790204786,6.28318530718,
8.377580409573),.UNSPECIFIED.) CURVE() GEOMETRIC_REPRESENTATION_ITEM() 
RATIONAL_B_SPLINE_CURVE((1.,0.5,1.,0.5,1.,0.5,1.)) REPRESENTATION_ITEM(
  '') );
#655 = CARTESIAN_POINT('',(9.5,-1.879594466024E-16));
#656 = CARTESIAN_POINT('',(9.5,16.454482671904));
#657 = CARTESIAN_POINT('',(-4.75,8.227241335952));
#658 = CARTESIAN_POINT('',(-19.,2.138869471778E-15));
#659 = CARTESIAN_POINT('',(-4.75,-8.227241335952));
#660 = CARTESIAN_POINT('',(9.5,-16.4544826719));
#661 = CARTESIAN_POINT('',(9.5,-1.879594466024E-16));
#662 = ( GEOMETRIC_REPRESENTATION_CONTEXT(2) 
PARAMETRIC_REPRESENTATION_CONTEXT() REPRESENTATION_CONTEXT('2D SPACE',''
  ) );
#663 = ORIENTED_EDGE('',*,*,#664,.T.);
#664 = EDGE_CURVE('',#625,#295,#665,.T.);
#665 = SEAM_CURVE('',#666,(#669,#676),.PCURVE_S1.);
#666 = B_SPLINE_CURVE_WITH_KNOTS('',1,(#667,#668),.UNSPECIFIED.,.F.,.F.,
  (2,2),(0.,37.),.PIECEWISE_BEZIER_KNOTS.);
#667 = CARTESIAN_POINT('',(1.688588518758E-14,275.767432689,
    180.58001137896));
#668 = CARTESIAN_POINT('',(1.887103695224E-14,308.18742131003,
    198.41100512053));
#669 = PCURVE('',#97,#670);
#670 = DEFINITIONAL_REPRESENTATION('',(#671),#675);
#671 = B_SPLINE_CURVE_WITH_KNOTS('',2,(#672,#673,#674),.UNSPECIFIED.,.F.
  ,.F.,(3,3),(0.,37.),.PIECEWISE_BEZIER_KNOTS.);
#672 = CARTESIAN_POINT('',(6.28318530718,0.));
#673 = CARTESIAN_POINT('',(6.28318530718,-18.5));
#674 = CARTESIAN_POINT('',(6.28318530718,-37.));
#675 = ( GEOMETRIC_REPRESENTATION_CONTEXT(2) 
PARAMETRIC_REPRESENTATION_CONTEXT() REPRESENTATION_CONTEXT('2D SPACE',''
  ) );
#676 = PCURVE('',#97,#677);
#677 = DEFINITIONAL_REPRESENTATION('',(#678),#682);
#678 = B_SPLINE_CURVE_WITH_KNOTS('',2,(#679,#680,#681),.UNSPECIFIED.,.F.
  ,.F.,(3,3),(0.,37.),.PIECEWISE_BEZIER_KNOTS.);
#679 = CARTESIAN_POINT('',(0.,0.));
#680 = CARTESIAN_POINT('',(8.881784197001E-16,-18.5));
#681 = CARTESIAN_POINT('',(0.,-37.));
#682 = ( GEOMETRIC_REPRESENTATION_CONTEXT(2) 
PARAMETRIC_REPRESENTATION_CONTEXT() REPRESENTATION_CONTEXT('2D SPACE',''
  ) );
#683 = ORIENTED_EDGE('',*,*,#320,.T.);
#684 = ORIENTED_EDGE('',*,*,#266,.T.);
#685 = ORIENTED_EDGE('',*,*,#686,.F.);
#686 = EDGE_CURVE('',#687,#22,#689,.T.);
#687 = VERTEX_POINT('',#688);
#688 = CARTESIAN_POINT('',(-6.,307.1587464288,200.28132308641));
#689 = SURFACE_CURVE('',#690,(#693,#700),.PCURVE_S1.);
#690 = B_SPLINE_CURVE_WITH_KNOTS('',1,(#691,#692),.UNSPECIFIED.,.F.,.F.,
  (2,2),(-37.,-36.93286565462),.PIECEWISE_BEZIER_KNOTS.);
#691 = CARTESIAN_POINT('',(-6.,307.1587464288,200.28132308641));
#692 = CARTESIAN_POINT('',(-6.,307.09992224737,200.24896978662));
#693 = PCURVE('',#97,#694);
#694 = DEFINITIONAL_REPRESENTATION('',(#695),#699);
#695 = B_SPLINE_CURVE_WITH_KNOTS('',2,(#696,#697,#698),.UNSPECIFIED.,.F.
  ,.F.,(3,3),(-37.,-36.93286565462),.PIECEWISE_BEZIER_KNOTS.);
#696 = CARTESIAN_POINT('',(0.713758379919,-37.));
#697 = CARTESIAN_POINT('',(0.713758379919,-36.96643282731));
#698 = CARTESIAN_POINT('',(0.713758379919,-36.93286565462));
#699 = ( GEOMETRIC_REPRESENTATION_CONTEXT(2) 
PARAMETRIC_REPRESENTATION_CONTEXT() REPRESENTATION_CONTEXT('2D SPACE',''
  ) );
#700 = PCURVE('',#62,#701);
#701 = DEFINITIONAL_REPRESENTATION('',(#702),#705);
#702 = B_SPLINE_CURVE_WITH_KNOTS('',1,(#703,#704),.UNSPECIFIED.,.F.,.F.,
  (2,2),(-37.,-36.93286565462),.PIECEWISE_BEZIER_KNOTS.);
#703 = CARTESIAN_POINT('',(-13.,7.365459931328));
#704 = CARTESIAN_POINT('',(-13.06713434537,7.365459931328));
#705 = ( GEOMETRIC_REPRESENTATION_CONTEXT(2) 
PARAMETRIC_REPRESENTATION_CONTEXT() REPRESENTATION_CONTEXT('2D SPACE',''
  ) );
#706 = ORIENTED_EDGE('',*,*,#707,.T.);
#707 = EDGE_CURVE('',#687,#708,#710,.T.);
#708 = VERTEX_POINT('',#709);
#709 = CARTESIAN_POINT('',(-6.,300.0596399456,213.18878941951));
#710 = SURFACE_CURVE('',#711,(#715,#751),.PCURVE_S1.);
#711 = ( BOUNDED_CURVE() B_SPLINE_CURVE(2,(#712,#713,#714),
.UNSPECIFIED.,.F.,.F.) B_SPLINE_CURVE_WITH_KNOTS((3,3),(0.683588059172,
2.458004594417),.PIECEWISE_BEZIER_KNOTS.) CURVE() 
GEOMETRIC_REPRESENTATION_ITEM() RATIONAL_B_SPLINE_CURVE((1.,
0.631578947368,1.)) REPRESENTATION_ITEM('') );
#712 = CARTESIAN_POINT('',(-6.,307.1587464288,200.28132308641));
#713 = CARTESIAN_POINT('',(-15.04166666666,303.6091931872,
    206.73505625296));
#714 = CARTESIAN_POINT('',(-6.,300.0596399456,213.18878941951));
#715 = PCURVE('',#97,#716);
#716 = DEFINITIONAL_REPRESENTATION('',(#717),#750);
#717 = B_SPLINE_CURVE_WITH_KNOTS('',7,(#718,#719,#720,#721,#722,#723,
    #724,#725,#726,#727,#728,#729,#730,#731,#732,#733,#734,#735,#736,
    #737,#738,#739,#740,#741,#742,#743,#744,#745,#746,#747,#748,#749),
  .UNSPECIFIED.,.F.,.F.,(8,6,6,6,6,8),(0.683588059172,1.570796326795,
    2.014400460606,2.069850977333,2.075915877599,2.458004594417),
  .UNSPECIFIED.);
#718 = CARTESIAN_POINT('',(0.713758379919,-37.));
#719 = CARTESIAN_POINT('',(0.817600192975,-37.));
#720 = CARTESIAN_POINT('',(0.925351178156,-37.));
#721 = CARTESIAN_POINT('',(1.037277170421,-37.));
#722 = CARTESIAN_POINT('',(1.153672202084,-37.));
#723 = CARTESIAN_POINT('',(1.274866541345,-37.));
#724 = CARTESIAN_POINT('',(1.401234730822,-37.));
#725 = CARTESIAN_POINT('',(1.599188015875,-37.));
#726 = CARTESIAN_POINT('',(1.666572980031,-37.));
#727 = CARTESIAN_POINT('',(1.735411467789,-37.));
#728 = CARTESIAN_POINT('',(1.805760438631,-37.));
#729 = CARTESIAN_POINT('',(1.877680862276,-37.));
#730 = CARTESIAN_POINT('',(1.951237718684,-37.));
#731 = CARTESIAN_POINT('',(2.035907796492,-37.));
#732 = CARTESIAN_POINT('',(2.045342244925,-37.));
#733 = CARTESIAN_POINT('',(2.054803481597,-37.));
#734 = CARTESIAN_POINT('',(2.064291644757,-37.));
#735 = CARTESIAN_POINT('',(2.073806872654,-37.));
#736 = CARTESIAN_POINT('',(2.083349303539,-37.));
#737 = CARTESIAN_POINT('',(2.093965694776,-37.00000000009));
#738 = CARTESIAN_POINT('',(2.0950130121,-36.99999999997));
#739 = CARTESIAN_POINT('',(2.096060964104,-37.00000000011));
#740 = CARTESIAN_POINT('',(2.097104434892,-36.99999999982));
#741 = CARTESIAN_POINT('',(2.098150322066,-37.00000000008));
#742 = CARTESIAN_POINT('',(2.099193590622,-37.00000000005));
#743 = CARTESIAN_POINT('',(2.165933898807,-37.));
#744 = CARTESIAN_POINT('',(2.228104542893,-37.));
#745 = CARTESIAN_POINT('',(2.287087746687,-37.));
#746 = CARTESIAN_POINT('',(2.34317119138,-37.));
#747 = CARTESIAN_POINT('',(2.396600256485,-37.));
#748 = CARTESIAN_POINT('',(2.447587379742,-37.));
#749 = CARTESIAN_POINT('',(2.496321417008,-37.));
#750 = ( GEOMETRIC_REPRESENTATION_CONTEXT(2) 
PARAMETRIC_REPRESENTATION_CONTEXT() REPRESENTATION_CONTEXT('2D SPACE',''
  ) );
#751 = PCURVE('',#752,#757);
#752 = B_SPLINE_SURFACE_WITH_KNOTS('',1,1,(
    (#753,#754)
    ,(#755,#756
    )),.UNSPECIFIED.,.F.,.F.,.F.,(2,2),(2,2),(-7.365459931328,
    7.365459931328),(6.,9.5),.PIECEWISE_BEZIER_KNOTS.);
#753 = CARTESIAN_POINT('',(-6.,300.0596399456,213.18878941951));
#754 = CARTESIAN_POINT('',(-9.5,300.0596399456,213.18878941951));
#755 = CARTESIAN_POINT('',(-6.,307.1587464288,200.28132308641));
#756 = CARTESIAN_POINT('',(-9.5,307.1587464288,200.28132308641));
#757 = DEFINITIONAL_REPRESENTATION('',(#758),#762);
#758 = ( BOUNDED_CURVE() B_SPLINE_CURVE(2,(#759,#760,#761),
.UNSPECIFIED.,.F.,.F.) B_SPLINE_CURVE_WITH_KNOTS((3,3),(0.683588059172,
2.458004594417),.PIECEWISE_BEZIER_KNOTS.) CURVE() 
GEOMETRIC_REPRESENTATION_ITEM() RATIONAL_B_SPLINE_CURVE((1.,
0.631578947368,1.)) REPRESENTATION_ITEM('') );
#759 = CARTESIAN_POINT('',(7.365459931328,6.));
#760 = CARTESIAN_POINT('',(0.,15.041666666667));
#761 = CARTESIAN_POINT('',(-7.365459931328,6.));
#762 = ( GEOMETRIC_REPRESENTATION_CONTEXT(2) 
PARAMETRIC_REPRESENTATION_CONTEXT() REPRESENTATION_CONTEXT('2D SPACE',''
  ) );
#763 = ORIENTED_EDGE('',*,*,#764,.T.);
#764 = EDGE_CURVE('',#708,#24,#765,.T.);
#765 = SURFACE_CURVE('',#766,(#769,#776),.PCURVE_S1.);
#766 = B_SPLINE_CURVE_WITH_KNOTS('',1,(#767,#768),.UNSPECIFIED.,.F.,.F.,
  (2,2),(-37.,-36.93286565462),.PIECEWISE_BEZIER_KNOTS.);
#767 = CARTESIAN_POINT('',(-6.,300.0596399456,213.18878941951));
#768 = CARTESIAN_POINT('',(-6.,300.00081576416,213.15643611972));
#769 = PCURVE('',#97,#770);
#770 = DEFINITIONAL_REPRESENTATION('',(#771),#775);
#771 = B_SPLINE_CURVE_WITH_KNOTS('',2,(#772,#773,#774),.UNSPECIFIED.,.F.
  ,.F.,(3,3),(-37.,-36.93286565462),.PIECEWISE_BEZIER_KNOTS.);
#772 = CARTESIAN_POINT('',(2.496321417008,-37.));
#773 = CARTESIAN_POINT('',(2.496321417008,-36.96643282731));
#774 = CARTESIAN_POINT('',(2.496321417008,-36.93286565462));
#775 = ( GEOMETRIC_REPRESENTATION_CONTEXT(2) 
PARAMETRIC_REPRESENTATION_CONTEXT() REPRESENTATION_CONTEXT('2D SPACE',''
  ) );
#776 = PCURVE('',#62,#777);
#777 = DEFINITIONAL_REPRESENTATION('',(#778),#781);
#778 = B_SPLINE_CURVE_WITH_KNOTS('',1,(#779,#780),.UNSPECIFIED.,.F.,.F.,
  (2,2),(-37.,-36.93286565462),.PIECEWISE_BEZIER_KNOTS.);
#779 = CARTESIAN_POINT('',(-13.,-7.365459931328));
#780 = CARTESIAN_POINT('',(-13.06713434537,-7.365459931328));
#781 = ( GEOMETRIC_REPRESENTATION_CONTEXT(2) 
PARAMETRIC_REPRESENTATION_CONTEXT() REPRESENTATION_CONTEXT('2D SPACE',''
  ) );
#782 = ORIENTED_EDGE('',*,*,#78,.T.);
#783 = ORIENTED_EDGE('',*,*,#600,.T.);
#784 = ORIENTED_EDGE('',*,*,#146,.T.);
#785 = ORIENTED_EDGE('',*,*,#370,.F.);
#786 = ORIENTED_EDGE('',*,*,#537,.T.);
#787 = ORIENTED_EDGE('',*,*,#348,.T.);
#788 = ORIENTED_EDGE('',*,*,#213,.T.);
#789 = ORIENTED_EDGE('',*,*,#294,.T.);
#790 = ORIENTED_EDGE('',*,*,#664,.F.);
#791 = ADVANCED_FACE('',(#792),#752,.T.);
#792 = FACE_BOUND('',#793,.T.);
#793 = EDGE_LOOP('',(#794,#812));
#794 = ORIENTED_EDGE('',*,*,#795,.T.);
#795 = EDGE_CURVE('',#708,#687,#796,.T.);
#796 = SURFACE_CURVE('',#797,(#800,#806),.PCURVE_S1.);
#797 = B_SPLINE_CURVE_WITH_KNOTS('',1,(#798,#799),.UNSPECIFIED.,.F.,.F.,
  (2,2),(-7.365459931328,7.365459931328),.PIECEWISE_BEZIER_KNOTS.);
#798 = CARTESIAN_POINT('',(-6.,300.0596399456,213.18878941951));
#799 = CARTESIAN_POINT('',(-6.,307.1587464288,200.28132308641));
#800 = PCURVE('',#752,#801);
#801 = DEFINITIONAL_REPRESENTATION('',(#802),#805);
#802 = B_SPLINE_CURVE_WITH_KNOTS('',1,(#803,#804),.UNSPECIFIED.,.F.,.F.,
  (2,2),(-7.365459931328,7.365459931328),.PIECEWISE_BEZIER_KNOTS.);
#803 = CARTESIAN_POINT('',(-7.365459931328,6.));
#804 = CARTESIAN_POINT('',(7.365459931328,6.));
#805 = ( GEOMETRIC_REPRESENTATION_CONTEXT(2) 
PARAMETRIC_REPRESENTATION_CONTEXT() REPRESENTATION_CONTEXT('2D SPACE',''
  ) );
#806 = PCURVE('',#62,#807);
#807 = DEFINITIONAL_REPRESENTATION('',(#808),#811);
#808 = B_SPLINE_CURVE_WITH_KNOTS('',1,(#809,#810),.UNSPECIFIED.,.F.,.F.,
  (2,2),(-7.365459931328,7.365459931328),.PIECEWISE_BEZIER_KNOTS.);
#809 = CARTESIAN_POINT('',(-13.,-7.365459931328));
#810 = CARTESIAN_POINT('',(-13.,7.365459931328));
#811 = ( GEOMETRIC_REPRESENTATION_CONTEXT(2) 
PARAMETRIC_REPRESENTATION_CONTEXT() REPRESENTATION_CONTEXT('2D SPACE',''
  ) );
#812 = ORIENTED_EDGE('',*,*,#707,.T.);
#813 = ADVANCED_FACE('',(#814),#648,.F.);
#814 = FACE_BOUND('',#815,.F.);
#815 = EDGE_LOOP('',(#816));
#816 = ORIENTED_EDGE('',*,*,#624,.T.);
#817 = ADVANCED_FACE('',(#818,#824),#62,.T.);
#818 = FACE_BOUND('',#819,.T.);
#819 = EDGE_LOOP('',(#820,#821,#822,#823));
#820 = ORIENTED_EDGE('',*,*,#764,.T.);
#821 = ORIENTED_EDGE('',*,*,#21,.F.);
#822 = ORIENTED_EDGE('',*,*,#686,.F.);
#823 = ORIENTED_EDGE('',*,*,#795,.F.);
#824 = FACE_BOUND('',#825,.T.);
#825 = EDGE_LOOP('',(#826));
#826 = ORIENTED_EDGE('',*,*,#476,.F.);
#827 = ( GEOMETRIC_REPRESENTATION_CONTEXT(3) 
GLOBAL_UNCERTAINTY_ASSIGNED_CONTEXT((#831)) GLOBAL_UNIT_ASSIGNED_CONTEXT
((#828,#829,#830)) REPRESENTATION_CONTEXT('Context #1',
  '3D Context with UNIT and UNCERTAINTY') );
#828 = ( LENGTH_UNIT() NAMED_UNIT(*) SI_UNIT(.MILLI.,.METRE.) );
#829 = ( NAMED_UNIT(*) PLANE_ANGLE_UNIT() SI_UNIT($,.RADIAN.) );
#830 = ( NAMED_UNIT(*) SI_UNIT($,.STERADIAN.) SOLID_ANGLE_UNIT() );
#831 = UNCERTAINTY_MEASURE_WITH_UNIT(LENGTH_MEASURE(2.E-07),#828,
  'distance_accuracy_value','confusion accuracy');
#832 = PRODUCT_RELATED_PRODUCT_CATEGORY('part',$,(#7));
ENDSEC;
END-ISO-10303-21;
