ISO-10303-21;
HEADER;
FILE_DESCRIPTION(('Open CASCADE Model'),'2;1');
FILE_NAME('Open CASCADE Shape Model','2026-09-02T22:44:39',('Author'),(
    'Open CASCADE'),'Open CASCADE STEP processor 7.8','Open CASCADE 7.8'
  ,'Unknown');
FILE_SCHEMA(('AUTOMOTIVE_DESIGN { 1 0 10303 214 1 1 1 1 }'));
ENDSEC;
DATA;
#1 = APPLICATION_PROTOCOL_DEFINITION('international standard',
  'automotive_design',2000,#2);
#2 = APPLICATION_CONTEXT(
  'core data for automotive mechanical design processes');
#3 = SHAPE_DEFINITION_REPRESENTATION(#4,#10);
#4 = PRODUCT_DEFINITION_SHAPE('','',#5);
#5 = PRODUCT_DEFINITION('design','',#6,#9);
#6 = PRODUCT_DEFINITION_FORMATION('','',#7);
#7 = PRODUCT('Open CASCADE STEP translator 7.8 22',
  'Open CASCADE STEP translator 7.8 22','',(#8));
#8 = PRODUCT_CONTEXT('',#2,'mechanical');
#9 = PRODUCT_DEFINITION_CONTEXT('part definition',#2,'design');
#10 = ADVANCED_BREP_SHAPE_REPRESENTATION('',(#11,#15),#1060);
#11 = AXIS2_PLACEMENT_3D('',#12,#13,#14);
#12 = CARTESIAN_POINT('',(0.,0.,0.));
#13 = DIRECTION('',(0.,0.,1.));
#14 = DIRECTION('',(1.,0.,-0.));
#15 = MANIFOLD_SOLID_BREP('',#16);
#16 = CLOSED_SHELL('',(#17,#264,#340,#475,#618,#665,#672,#767,#793,#820,
    #847,#897,#925,#1000,#1027,#1054));
#17 = ADVANCED_FACE('',(#18,#196),#32,.F.);
#18 = FACE_BOUND('',#19,.F.);
#19 = EDGE_LOOP('',(#20,#55,#84,#112,#141,#169));
#20 = ORIENTED_EDGE('',*,*,#21,.T.);
#21 = EDGE_CURVE('',#22,#24,#26,.T.);
#22 = VERTEX_POINT('',#23);
#23 = CARTESIAN_POINT('',(-215.2673658721,-96.94212815079,
    202.03433774133));
#24 = VERTEX_POINT('',#25);
#25 = CARTESIAN_POINT('',(-206.144677174,-112.7598366,202.02632552222));
#26 = SURFACE_CURVE('',#27,(#31,#43),.PCURVE_S1.);
#27 = LINE('',#28,#29);
#28 = CARTESIAN_POINT('',(-215.2673658721,-96.94212815079,
    202.03433774133));
#29 = VECTOR('',#30,1.);
#30 = DIRECTION('',(0.499602736346,-0.866254531475,-4.387880285753E-04)
  );
#31 = PCURVE('',#32,#37);
#32 = PLANE('',#33);
#33 = AXIS2_PLACEMENT_3D('',#34,#35,#36);
#34 = CARTESIAN_POINT('',(-198.5050834133,-97.82105049688,
    215.50316919537));
#35 = DIRECTION('',(-0.598704065061,-0.345661953128,0.722544985893));
#36 = DIRECTION('',(0.626059540551,0.360722747909,0.691323767005));
#37 = DEFINITIONAL_REPRESENTATION('',(#38),#42);
#38 = LINE('',#39,#40);
#39 = CARTESIAN_POINT('',(-19.4884628688,9.129942686906));
#40 = VECTOR('',#41,1.);
#41 = DIRECTION('',(-1.110223024625E-16,-1.));
#42 = ( GEOMETRIC_REPRESENTATION_CONTEXT(2) 
PARAMETRIC_REPRESENTATION_CONTEXT() REPRESENTATION_CONTEXT('2D SPACE',''
  ) );
#43 = PCURVE('',#44,#49);
#44 = PLANE('',#45);
#45 = AXIS2_PLACEMENT_3D('',#46,#47,#48);
#46 = CARTESIAN_POINT('',(-215.2673658721,-96.94212815079,
    202.03433774133));
#47 = DIRECTION('',(-0.626059540551,-0.360722747909,-0.691323767005));
#48 = DIRECTION('',(0.499602736346,-0.866254531475,-4.387880285753E-04)
  );
#49 = DEFINITIONAL_REPRESENTATION('',(#50),#54);
#50 = LINE('',#51,#52);
#51 = CARTESIAN_POINT('',(-0.,0.));
#52 = VECTOR('',#53,1.);
#53 = DIRECTION('',(1.,1.110223024625E-16));
#54 = ( GEOMETRIC_REPRESENTATION_CONTEXT(2) 
PARAMETRIC_REPRESENTATION_CONTEXT() REPRESENTATION_CONTEXT('2D SPACE',''
  ) );
#55 = ORIENTED_EDGE('',*,*,#56,.T.);
#56 = EDGE_CURVE('',#24,#57,#59,.T.);
#57 = VERTEX_POINT('',#58);
#58 = CARTESIAN_POINT('',(-205.6897568385,-113.0467038601,
    202.26603870289));
#59 = SURFACE_CURVE('',#60,(#65,#72),.PCURVE_S1.);
#60 = CIRCLE('',#61,0.499511098858);
#61 = AXIS2_PLACEMENT_3D('',#62,#63,#64);
#62 = CARTESIAN_POINT('',(-205.8319534849,-112.5796515838,
    202.37164941675));
#63 = DIRECTION('',(-0.598704065061,-0.345661953128,0.722544985893));
#64 = DIRECTION('',(-0.626059540551,-0.360722747909,-0.691323767005));
#65 = PCURVE('',#32,#66);
#66 = DEFINITIONAL_REPRESENTATION('',(#67),#71);
#67 = CIRCLE('',#68,0.499511098858);
#68 = AXIS2_PLACEMENT_2D('',#69,#70);
#69 = CARTESIAN_POINT('',(-18.98895176994,-9.129942686906));
#70 = DIRECTION('',(-1.,-3.208544541167E-14));
#71 = ( GEOMETRIC_REPRESENTATION_CONTEXT(2) 
PARAMETRIC_REPRESENTATION_CONTEXT() REPRESENTATION_CONTEXT('2D SPACE',''
  ) );
#72 = PCURVE('',#73,#78);
#73 = CYLINDRICAL_SURFACE('',#74,0.499511098858);
#74 = AXIS2_PLACEMENT_3D('',#75,#76,#77);
#75 = CARTESIAN_POINT('',(-205.8319534849,-112.5796515838,
    202.37164941675));
#76 = DIRECTION('',(-0.598704065061,-0.345661953128,0.722544985893));
#77 = DIRECTION('',(0.626059540551,0.360722747909,0.691323767005));
#78 = DEFINITIONAL_REPRESENTATION('',(#79),#83);
#79 = LINE('',#80,#81);
#80 = CARTESIAN_POINT('',(3.14159265359,0.));
#81 = VECTOR('',#82,1.);
#82 = DIRECTION('',(1.,0.));
#83 = ( GEOMETRIC_REPRESENTATION_CONTEXT(2) 
PARAMETRIC_REPRESENTATION_CONTEXT() REPRESENTATION_CONTEXT('2D SPACE',''
  ) );
#84 = ORIENTED_EDGE('',*,*,#85,.T.);
#85 = EDGE_CURVE('',#57,#86,#88,.T.);
#86 = VERTEX_POINT('',#87);
#87 = CARTESIAN_POINT('',(-194.23794035,-111.8367036826,212.33392409501)
  );
#88 = SURFACE_CURVE('',#89,(#93,#100),.PCURVE_S1.);
#89 = LINE('',#90,#91);
#90 = CARTESIAN_POINT('',(-205.6897568385,-113.0467038601,
    202.26603870289));
#91 = VECTOR('',#92,1.);
#92 = DIRECTION('',(0.748675828874,7.910516962109E-02,0.658199723032));
#93 = PCURVE('',#32,#94);
#94 = DEFINITIONAL_REPRESENTATION('',(#95),#99);
#95 = LINE('',#96,#97);
#96 = CARTESIAN_POINT('',(-19.14141577984,-9.605617012015));
#97 = VECTOR('',#98,1.);
#98 = DIRECTION('',(0.952279791574,-0.305226470935));
#99 = ( GEOMETRIC_REPRESENTATION_CONTEXT(2) 
PARAMETRIC_REPRESENTATION_CONTEXT() REPRESENTATION_CONTEXT('2D SPACE',''
  ) );
#100 = PCURVE('',#101,#106);
#101 = PLANE('',#102);
#102 = AXIS2_PLACEMENT_3D('',#103,#104,#105);
#103 = CARTESIAN_POINT('',(-205.6897568385,-113.0467038601,
    202.26603870289));
#104 = DIRECTION('',(0.28467164548,-0.935018816013,-0.211428162649));
#105 = DIRECTION('',(0.748675828874,7.910516962109E-02,0.658199723032));
#106 = DEFINITIONAL_REPRESENTATION('',(#107),#111);
#107 = LINE('',#108,#109);
#108 = CARTESIAN_POINT('',(0.,0.));
#109 = VECTOR('',#110,1.);
#110 = DIRECTION('',(1.,1.387778780781E-16));
#111 = ( GEOMETRIC_REPRESENTATION_CONTEXT(2) 
PARAMETRIC_REPRESENTATION_CONTEXT() REPRESENTATION_CONTEXT('2D SPACE',''
  ) );
#112 = ORIENTED_EDGE('',*,*,#113,.T.);
#113 = EDGE_CURVE('',#86,#114,#116,.T.);
#114 = VERTEX_POINT('',#115);
#115 = CARTESIAN_POINT('',(-208.5009890186,-87.10619353318,
    212.34645095796));
#116 = SURFACE_CURVE('',#117,(#122,#129),.PCURVE_S1.);
#117 = CIRCLE('',#118,14.98970175332);
#118 = AXIS2_PLACEMENT_3D('',#119,#120,#121);
#119 = CARTESIAN_POINT('',(-198.5050834133,-97.82105049688,
    215.50316919537));
#120 = DIRECTION('',(-0.598704065061,-0.345661953128,0.722544985893));
#121 = DIRECTION('',(0.28467164548,-0.935018816013,-0.211428162649));
#122 = PCURVE('',#32,#123);
#123 = DEFINITIONAL_REPRESENTATION('',(#124),#128);
#124 = CIRCLE('',#125,14.98970175332);
#125 = AXIS2_PLACEMENT_2D('',#126,#127);
#126 = CARTESIAN_POINT('',(2.224210293461E-15,-1.774945475381E-15));
#127 = DIRECTION('',(-0.305226470935,-0.952279791574));
#128 = ( GEOMETRIC_REPRESENTATION_CONTEXT(2) 
PARAMETRIC_REPRESENTATION_CONTEXT() REPRESENTATION_CONTEXT('2D SPACE',''
  ) );
#129 = PCURVE('',#130,#135);
#130 = CYLINDRICAL_SURFACE('',#131,14.98970175332);
#131 = AXIS2_PLACEMENT_3D('',#132,#133,#134);
#132 = CARTESIAN_POINT('',(-198.5050834133,-97.82105049688,
    215.50316919537));
#133 = DIRECTION('',(-0.598704065061,-0.345661953128,0.722544985893));
#134 = DIRECTION('',(0.626059540551,0.360722747909,0.691323767005));
#135 = DEFINITIONAL_REPRESENTATION('',(#136),#140);
#136 = LINE('',#137,#138);
#137 = CARTESIAN_POINT('',(-1.880972566754,0.));
#138 = VECTOR('',#139,1.);
#139 = DIRECTION('',(1.,0.));
#140 = ( GEOMETRIC_REPRESENTATION_CONTEXT(2) 
PARAMETRIC_REPRESENTATION_CONTEXT() REPRESENTATION_CONTEXT('2D SPACE',''
  ) );
#141 = ORIENTED_EDGE('',*,*,#142,.T.);
#142 = EDGE_CURVE('',#114,#143,#145,.T.);
#143 = VERTEX_POINT('',#144);
#144 = CARTESIAN_POINT('',(-215.2877419254,-96.40488533157,
    202.2744683624));
#145 = SURFACE_CURVE('',#146,(#150,#157),.PCURVE_S1.);
#146 = LINE('',#147,#148);
#147 = CARTESIAN_POINT('',(-208.5009890186,-87.10619353318,
    212.34645095796));
#148 = VECTOR('',#149,1.);
#149 = DIRECTION('',(-0.443691868705,-0.607912796768,-0.658467582475));
#150 = PCURVE('',#32,#151);
#151 = DEFINITIONAL_REPRESENTATION('',(#152),#156);
#152 = LINE('',#153,#154);
#153 = CARTESIAN_POINT('',(-4.575253766529,14.27439006141));
#154 = VECTOR('',#155,1.);
#155 = DIRECTION('',(-0.952279791574,-0.305226470935));
#156 = ( GEOMETRIC_REPRESENTATION_CONTEXT(2) 
PARAMETRIC_REPRESENTATION_CONTEXT() REPRESENTATION_CONTEXT('2D SPACE',''
  ) );
#157 = PCURVE('',#158,#163);
#158 = PLANE('',#159);
#159 = AXIS2_PLACEMENT_3D('',#160,#161,#162);
#160 = CARTESIAN_POINT('',(-208.5009890186,-87.10619353318,
    212.34645095796));
#161 = DIRECTION('',(-0.666851533795,0.714814553353,-0.210592464704));
#162 = DIRECTION('',(-0.443691868705,-0.607912796768,-0.658467582475));
#163 = DEFINITIONAL_REPRESENTATION('',(#164),#168);
#164 = LINE('',#165,#166);
#165 = CARTESIAN_POINT('',(0.,0.));
#166 = VECTOR('',#167,1.);
#167 = DIRECTION('',(1.,-1.387778780781E-16));
#168 = ( GEOMETRIC_REPRESENTATION_CONTEXT(2) 
PARAMETRIC_REPRESENTATION_CONTEXT() REPRESENTATION_CONTEXT('2D SPACE',''
  ) );
#169 = ORIENTED_EDGE('',*,*,#170,.T.);
#170 = EDGE_CURVE('',#143,#22,#171,.T.);
#171 = SURFACE_CURVE('',#172,(#177,#184),.PCURVE_S1.);
#172 = CIRCLE('',#173,0.499511098858);
#173 = AXIS2_PLACEMENT_3D('',#174,#175,#176);
#174 = CARTESIAN_POINT('',(-214.954642183,-96.7619431346,202.37966163585
    ));
#175 = DIRECTION('',(-0.598704065061,-0.345661953128,0.722544985893));
#176 = DIRECTION('',(-0.666851533795,0.714814553353,-0.210592464704));
#177 = PCURVE('',#32,#178);
#178 = DEFINITIONAL_REPRESENTATION('',(#179),#183);
#179 = CIRCLE('',#180,0.499511098858);
#180 = AXIS2_PLACEMENT_2D('',#181,#182);
#181 = CARTESIAN_POINT('',(-18.98895176994,9.129942686906));
#182 = DIRECTION('',(-0.305226470935,0.952279791574));
#183 = ( GEOMETRIC_REPRESENTATION_CONTEXT(2) 
PARAMETRIC_REPRESENTATION_CONTEXT() REPRESENTATION_CONTEXT('2D SPACE',''
  ) );
#184 = PCURVE('',#185,#190);
#185 = CYLINDRICAL_SURFACE('',#186,0.499511098858);
#186 = AXIS2_PLACEMENT_3D('',#187,#188,#189);
#187 = CARTESIAN_POINT('',(-214.954642183,-96.7619431346,202.37966163585
    ));
#188 = DIRECTION('',(-0.598704065061,-0.345661953128,0.722544985893));
#189 = DIRECTION('',(0.626059540551,0.360722747909,0.691323767005));
#190 = DEFINITIONAL_REPRESENTATION('',(#191),#195);
#191 = LINE('',#192,#193);
#192 = CARTESIAN_POINT('',(1.880972566754,0.));
#193 = VECTOR('',#194,1.);
#194 = DIRECTION('',(1.,0.));
#195 = ( GEOMETRIC_REPRESENTATION_CONTEXT(2) 
PARAMETRIC_REPRESENTATION_CONTEXT() REPRESENTATION_CONTEXT('2D SPACE',''
  ) );
#196 = FACE_BOUND('',#197,.F.);
#197 = EDGE_LOOP('',(#198,#233));
#198 = ORIENTED_EDGE('',*,*,#199,.T.);
#199 = EDGE_CURVE('',#200,#202,#204,.T.);
#200 = VERTEX_POINT('',#201);
#201 = CARTESIAN_POINT('',(-204.7656788188,-101.4282779759,
    208.58993152532));
#202 = VERTEX_POINT('',#203);
#203 = CARTESIAN_POINT('',(-192.2444880078,-94.2138230178,
    222.41640686542));
#204 = SURFACE_CURVE('',#205,(#210,#221),.PCURVE_S1.);
#205 = CIRCLE('',#206,10.);
#206 = AXIS2_PLACEMENT_3D('',#207,#208,#209);
#207 = CARTESIAN_POINT('',(-198.5050834133,-97.82105049688,
    215.50316919537));
#208 = DIRECTION('',(0.598704065061,0.345661953128,-0.722544985893));
#209 = DIRECTION('',(-0.626059540551,-0.360722747909,-0.691323767005));
#210 = PCURVE('',#32,#211);
#211 = DEFINITIONAL_REPRESENTATION('',(#212),#220);
#212 = ( BOUNDED_CURVE() B_SPLINE_CURVE(2,(#213,#214,#215,#216,#217,#218
,#219),.UNSPECIFIED.,.T.,.F.) B_SPLINE_CURVE_WITH_KNOTS((1,2,2,2,2,1),(
    -2.094395102393,0.,2.094395102393,4.188790204786,6.28318530718,
8.377580409573),.UNSPECIFIED.) CURVE() GEOMETRIC_REPRESENTATION_ITEM() 
RATIONAL_B_SPLINE_CURVE((1.,0.5,1.,0.5,1.,0.5,1.)) REPRESENTATION_ITEM(
  '') );
#213 = CARTESIAN_POINT('',(-10.,-2.885168500006E-15));
#214 = CARTESIAN_POINT('',(-10.,17.320508075689));
#215 = CARTESIAN_POINT('',(5.,8.660254037844));
#216 = CARTESIAN_POINT('',(20.,2.894794172164E-15));
#217 = CARTESIAN_POINT('',(5.,-8.660254037844));
#218 = CARTESIAN_POINT('',(-10.,-17.32050807568));
#219 = CARTESIAN_POINT('',(-10.,-2.885168500006E-15));
#220 = ( GEOMETRIC_REPRESENTATION_CONTEXT(2) 
PARAMETRIC_REPRESENTATION_CONTEXT() REPRESENTATION_CONTEXT('2D SPACE',''
  ) );
#221 = PCURVE('',#222,#227);
#222 = CYLINDRICAL_SURFACE('',#223,10.);
#223 = AXIS2_PLACEMENT_3D('',#224,#225,#226);
#224 = CARTESIAN_POINT('',(-198.5050834133,-97.82105049688,
    215.50316919537));
#225 = DIRECTION('',(-0.598704065061,-0.345661953128,0.722544985893));
#226 = DIRECTION('',(0.626059540551,0.360722747909,0.691323767005));
#227 = DEFINITIONAL_REPRESENTATION('',(#228),#232);
#228 = LINE('',#229,#230);
#229 = CARTESIAN_POINT('',(3.14159265359,0.));
#230 = VECTOR('',#231,1.);
#231 = DIRECTION('',(-1.,0.));
#232 = ( GEOMETRIC_REPRESENTATION_CONTEXT(2) 
PARAMETRIC_REPRESENTATION_CONTEXT() REPRESENTATION_CONTEXT('2D SPACE',''
  ) );
#233 = ORIENTED_EDGE('',*,*,#234,.T.);
#234 = EDGE_CURVE('',#202,#200,#235,.T.);
#235 = SURFACE_CURVE('',#236,(#241,#252),.PCURVE_S1.);
#236 = CIRCLE('',#237,10.);
#237 = AXIS2_PLACEMENT_3D('',#238,#239,#240);
#238 = CARTESIAN_POINT('',(-198.5050834133,-97.82105049688,
    215.50316919537));
#239 = DIRECTION('',(0.598704065061,0.345661953128,-0.722544985893));
#240 = DIRECTION('',(0.626059540551,0.360722747909,0.691323767005));
#241 = PCURVE('',#32,#242);
#242 = DEFINITIONAL_REPRESENTATION('',(#243),#251);
#243 = ( BOUNDED_CURVE() B_SPLINE_CURVE(2,(#244,#245,#246,#247,#248,#249
,#250),.UNSPECIFIED.,.T.,.F.) B_SPLINE_CURVE_WITH_KNOTS((1,2,2,2,2,1),(
    -2.094395102393,0.,2.094395102393,4.188790204786,6.28318530718,
8.377580409573),.UNSPECIFIED.) CURVE() GEOMETRIC_REPRESENTATION_ITEM() 
RATIONAL_B_SPLINE_CURVE((1.,0.5,1.,0.5,1.,0.5,1.)) REPRESENTATION_ITEM(
  '') );
#244 = CARTESIAN_POINT('',(10.,-6.647224507557E-16));
#245 = CARTESIAN_POINT('',(10.,-17.32050807568));
#246 = CARTESIAN_POINT('',(-5.,-8.660254037844));
#247 = CARTESIAN_POINT('',(-20.,-6.444685122926E-15));
#248 = CARTESIAN_POINT('',(-5.,8.660254037844));
#249 = CARTESIAN_POINT('',(10.,17.320508075689));
#250 = CARTESIAN_POINT('',(10.,-6.647224507557E-16));
#251 = ( GEOMETRIC_REPRESENTATION_CONTEXT(2) 
PARAMETRIC_REPRESENTATION_CONTEXT() REPRESENTATION_CONTEXT('2D SPACE',''
  ) );
#252 = PCURVE('',#253,#258);
#253 = CYLINDRICAL_SURFACE('',#254,10.);
#254 = AXIS2_PLACEMENT_3D('',#255,#256,#257);
#255 = CARTESIAN_POINT('',(-198.5050834133,-97.82105049688,
    215.50316919537));
#256 = DIRECTION('',(-0.598704065061,-0.345661953128,0.722544985893));
#257 = DIRECTION('',(0.626059540551,0.360722747909,0.691323767005));
#258 = DEFINITIONAL_REPRESENTATION('',(#259),#263);
#259 = LINE('',#260,#261);
#260 = CARTESIAN_POINT('',(6.28318530718,0.));
#261 = VECTOR('',#262,1.);
#262 = DIRECTION('',(-1.,0.));
#263 = ( GEOMETRIC_REPRESENTATION_CONTEXT(2) 
PARAMETRIC_REPRESENTATION_CONTEXT() REPRESENTATION_CONTEXT('2D SPACE',''
  ) );
#264 = ADVANCED_FACE('',(#265),#44,.T.);
#265 = FACE_BOUND('',#266,.F.);
#266 = EDGE_LOOP('',(#267,#297,#318,#319));
#267 = ORIENTED_EDGE('',*,*,#268,.T.);
#268 = EDGE_CURVE('',#269,#271,#273,.T.);
#269 = VERTEX_POINT('',#270);
#270 = CARTESIAN_POINT('',(-221.5537585552,-100.5715786586,
    209.62106009321));
#271 = VERTEX_POINT('',#272);
#272 = CARTESIAN_POINT('',(-212.4310707037,-116.3892875918,
    209.61304694111));
#273 = SURFACE_CURVE('',#274,(#278,#285),.PCURVE_S1.);
#274 = LINE('',#275,#276);
#275 = CARTESIAN_POINT('',(-221.5538227982,-100.5716155514,
    209.62098921183));
#276 = VECTOR('',#277,1.);
#277 = DIRECTION('',(0.499606205416,-0.86625253265,-4.349573129122E-04)
  );
#278 = PCURVE('',#44,#279);
#279 = DEFINITIONAL_REPRESENTATION('',(#280),#284);
#280 = LINE('',#281,#282);
#281 = CARTESIAN_POINT('',(-1.063550070235E-07,10.5));
#282 = VECTOR('',#283,1.);
#283 = DIRECTION('',(1.,1.110223024625E-16));
#284 = ( GEOMETRIC_REPRESENTATION_CONTEXT(2) 
PARAMETRIC_REPRESENTATION_CONTEXT() REPRESENTATION_CONTEXT('2D SPACE',''
  ) );
#285 = PCURVE('',#286,#291);
#286 = CYLINDRICAL_SURFACE('',#287,0.5);
#287 = AXIS2_PLACEMENT_3D('',#288,#289,#290);
#288 = CARTESIAN_POINT('',(-221.2778665873,-100.3268245437,
    209.96675459387));
#289 = DIRECTION('',(0.499602736346,-0.866254531475,-4.387880285753E-04)
  );
#290 = DIRECTION('',(-0.598704065061,-0.345661953128,0.722544985893));
#291 = DEFINITIONAL_REPRESENTATION('',(#292),#296);
#292 = LINE('',#293,#294);
#293 = CARTESIAN_POINT('',(1.570796326795,7.4334559271E-02));
#294 = VECTOR('',#295,1.);
#295 = DIRECTION('',(0.,1.));
#296 = ( GEOMETRIC_REPRESENTATION_CONTEXT(2) 
PARAMETRIC_REPRESENTATION_CONTEXT() REPRESENTATION_CONTEXT('2D SPACE',''
  ) );
#297 = ORIENTED_EDGE('',*,*,#298,.F.);
#298 = EDGE_CURVE('',#24,#271,#299,.T.);
#299 = SURFACE_CURVE('',#300,(#304,#311),.PCURVE_S1.);
#300 = LINE('',#301,#302);
#301 = CARTESIAN_POINT('',(-206.144677174,-112.7598366,202.02632552222)
  );
#302 = VECTOR('',#303,1.);
#303 = DIRECTION('',(-0.59870414569,-0.345661999214,0.722544897036));
#304 = PCURVE('',#44,#305);
#305 = DEFINITIONAL_REPRESENTATION('',(#306),#310);
#306 = LINE('',#307,#308);
#307 = CARTESIAN_POINT('',(18.259885373812,-2.6645352591E-15));
#308 = VECTOR('',#309,1.);
#309 = DIRECTION('',(-3.207735188582E-10,1.));
#310 = ( GEOMETRIC_REPRESENTATION_CONTEXT(2) 
PARAMETRIC_REPRESENTATION_CONTEXT() REPRESENTATION_CONTEXT('2D SPACE',''
  ) );
#311 = PCURVE('',#73,#312);
#312 = DEFINITIONAL_REPRESENTATION('',(#313),#317);
#313 = LINE('',#314,#315);
#314 = CARTESIAN_POINT('',(3.14159265359,0.));
#315 = VECTOR('',#316,1.);
#316 = DIRECTION('',(-6.421731717816E-10,1.));
#317 = ( GEOMETRIC_REPRESENTATION_CONTEXT(2) 
PARAMETRIC_REPRESENTATION_CONTEXT() REPRESENTATION_CONTEXT('2D SPACE',''
  ) );
#318 = ORIENTED_EDGE('',*,*,#21,.F.);
#319 = ORIENTED_EDGE('',*,*,#320,.T.);
#320 = EDGE_CURVE('',#22,#269,#321,.T.);
#321 = SURFACE_CURVE('',#322,(#326,#333),.PCURVE_S1.);
#322 = LINE('',#323,#324);
#323 = CARTESIAN_POINT('',(-215.2673658721,-96.94212815079,
    202.03433774133));
#324 = VECTOR('',#325,1.);
#325 = DIRECTION('',(-0.598710183415,-0.345665466709,0.722538235251));
#326 = PCURVE('',#44,#327);
#327 = DEFINITIONAL_REPRESENTATION('',(#328),#332);
#328 = LINE('',#329,#330);
#329 = CARTESIAN_POINT('',(-0.,0.));
#330 = VECTOR('',#331,1.);
#331 = DIRECTION('',(-1.012900663344E-08,1.));
#332 = ( GEOMETRIC_REPRESENTATION_CONTEXT(2) 
PARAMETRIC_REPRESENTATION_CONTEXT() REPRESENTATION_CONTEXT('2D SPACE',''
  ) );
#333 = PCURVE('',#185,#334);
#334 = DEFINITIONAL_REPRESENTATION('',(#335),#339);
#335 = LINE('',#336,#337);
#336 = CARTESIAN_POINT('',(3.14159265359,0.));
#337 = VECTOR('',#338,1.);
#338 = DIRECTION('',(-2.027367958362E-08,1.));
#339 = ( GEOMETRIC_REPRESENTATION_CONTEXT(2) 
PARAMETRIC_REPRESENTATION_CONTEXT() REPRESENTATION_CONTEXT('2D SPACE',''
  ) );
#340 = ADVANCED_FACE('',(#341),#286,.T.);
#341 = FACE_BOUND('',#342,.T.);
#342 = EDGE_LOOP('',(#343,#397,#398,#449));
#343 = ORIENTED_EDGE('',*,*,#344,.T.);
#344 = EDGE_CURVE('',#345,#269,#347,.T.);
#345 = VERTEX_POINT('',#346);
#346 = CARTESIAN_POINT('',(-221.5401093103,-100.5643008577,
    210.32784993511));
#347 = SURFACE_CURVE('',#348,(#357,#363),.PCURVE_S1.);
#348 = B_SPLINE_CURVE_WITH_KNOTS('',3,(#349,#350,#351,#352,#353,#354,
    #355,#356),.UNSPECIFIED.,.F.,.F.,(4,1,1,1,1,4),(0.,0.2,0.4,0.6,0.8,
    1.),.QUASI_UNIFORM_KNOTS.);
#349 = CARTESIAN_POINT('',(-221.5401093103,-100.5643008577,
    210.32784993511));
#350 = CARTESIAN_POINT('',(-221.5729455188,-100.5832204135,
    210.29158447615));
#351 = CARTESIAN_POINT('',(-221.6282584112,-100.6155455699,
    210.20727418212));
#352 = CARTESIAN_POINT('',(-221.6738443044,-100.6415955738,
    210.05674485818));
#353 = CARTESIAN_POINT('',(-221.6768008236,-100.6431818622,
    209.89771341985));
#354 = CARTESIAN_POINT('',(-221.6366242361,-100.6202465278,
    209.74508108102));
#355 = CARTESIAN_POINT('',(-221.5849075374,-100.5895623339,
    209.65850377656));
#356 = CARTESIAN_POINT('',(-221.5538227982,-100.5716155514,
    209.62098921183));
#357 = PCURVE('',#286,#358);
#358 = DEFINITIONAL_REPRESENTATION('',(#359),#362);
#359 = B_SPLINE_CURVE_WITH_KNOTS('',1,(#360,#361),.UNSPECIFIED.,.F.,.F.,
  (2,2),(0.,1.),.PIECEWISE_BEZIER_KNOTS.);
#360 = CARTESIAN_POINT('',(4.177513666164E-04,7.4539306842E-02));
#361 = CARTESIAN_POINT('',(1.570796326795,7.4334559271E-02));
#362 = ( GEOMETRIC_REPRESENTATION_CONTEXT(2) 
PARAMETRIC_REPRESENTATION_CONTEXT() REPRESENTATION_CONTEXT('2D SPACE',''
  ) );
#363 = PCURVE('',#364,#369);
#364 = SPHERICAL_SURFACE('',#365,0.5);
#365 = AXIS2_PLACEMENT_3D('',#366,#367,#368);
#366 = CARTESIAN_POINT('',(-221.2407446072,-100.3917833196,209.966438078
    ));
#367 = DIRECTION('',(-3.416044921132E-02,0.912285624834,0.408127434057)
  );
#368 = DIRECTION('',(-0.800241529908,0.21966509254,-0.557997079679));
#369 = DEFINITIONAL_REPRESENTATION('',(#370),#396);
#370 = B_SPLINE_CURVE_WITH_KNOTS('',3,(#371,#372,#373,#374,#375,#376,
    #377,#378,#379,#380,#381,#382,#383,#384,#385,#386,#387,#388,#389,
    #390,#391,#392,#393,#394,#395),.UNSPECIFIED.,.F.,.F.,(4,1,1,1,1,1,1,
    1,1,1,1,1,1,1,1,1,1,1,1,1,1,1,4),(0.,4.545454545455E-02,
    9.090909090909E-02,0.136363636364,0.181818181818,0.227272727273,
    0.272727272727,0.318181818182,0.363636363636,0.409090909091,
    0.454545454545,0.5,0.545454545455,0.590909090909,0.636363636364,
    0.681818181818,0.727272727273,0.772727272727,0.818181818182,
    0.863636363636,0.909090909091,0.954545454545,1.),
  .QUASI_UNIFORM_KNOTS.);
#371 = CARTESIAN_POINT('',(1.570793874432,6.865130458444E-04));
#372 = CARTESIAN_POINT('',(1.551541113892,-1.337638468934E-02));
#373 = CARTESIAN_POINT('',(1.513085940761,-4.151780963355E-02));
#374 = CARTESIAN_POINT('',(1.455293431829,-8.361928169736E-02));
#375 = CARTESIAN_POINT('',(1.397128724215,-0.125454102725));
#376 = CARTESIAN_POINT('',(1.338335165749,-0.166860798716));
#377 = CARTESIAN_POINT('',(1.278638799039,-0.207671897115));
#378 = CARTESIAN_POINT('',(1.21782271041,-0.247729852783));
#379 = CARTESIAN_POINT('',(1.155723336036,-0.286872636192));
#380 = CARTESIAN_POINT('',(1.092176615535,-0.324926105586));
#381 = CARTESIAN_POINT('',(1.027028962616,-0.361711154374));
#382 = CARTESIAN_POINT('',(0.960117139484,-0.397049652316));
#383 = CARTESIAN_POINT('',(0.891256567591,-0.43075655894));
#384 = CARTESIAN_POINT('',(0.820294711784,-0.46263190837));
#385 = CARTESIAN_POINT('',(0.747107452012,-0.492464729011));
#386 = CARTESIAN_POINT('',(0.671594110562,-0.520045592042));
#387 = CARTESIAN_POINT('',(0.593735935961,-0.545104417783));
#388 = CARTESIAN_POINT('',(0.51361482431,-0.567354668663));
#389 = CARTESIAN_POINT('',(0.431401503216,-0.586528106182));
#390 = CARTESIAN_POINT('',(0.347360742886,-0.602365600649));
#391 = CARTESIAN_POINT('',(0.261815782629,-0.614703085827));
#392 = CARTESIAN_POINT('',(0.175126816954,-0.623504062918));
#393 = CARTESIAN_POINT('',(8.770608317466E-02,-0.62874842693));
#394 = CARTESIAN_POINT('',(2.922228547304E-02,-0.629903230978));
#395 = CARTESIAN_POINT('',(0.,-0.629899608242));
#396 = ( GEOMETRIC_REPRESENTATION_CONTEXT(2) 
PARAMETRIC_REPRESENTATION_CONTEXT() REPRESENTATION_CONTEXT('2D SPACE',''
  ) );
#397 = ORIENTED_EDGE('',*,*,#268,.T.);
#398 = ORIENTED_EDGE('',*,*,#399,.F.);
#399 = EDGE_CURVE('',#400,#271,#402,.T.);
#400 = VERTEX_POINT('',#401);
#401 = CARTESIAN_POINT('',(-212.4176246695,-116.3816550299,
    210.3198381176));
#402 = SURFACE_CURVE('',#403,(#408,#415),.PCURVE_S1.);
#403 = CIRCLE('',#404,0.5);
#404 = AXIS2_PLACEMENT_3D('',#405,#406,#407);
#405 = CARTESIAN_POINT('',(-212.1180038809,-116.2089885108,
    209.9587097258));
#406 = DIRECTION('',(0.499602736346,-0.866254531475,-4.387880285753E-04)
  );
#407 = DIRECTION('',(-0.598704065061,-0.345661953128,0.722544985893));
#408 = PCURVE('',#286,#409);
#409 = DEFINITIONAL_REPRESENTATION('',(#410),#414);
#410 = LINE('',#411,#412);
#411 = CARTESIAN_POINT('',(-1.099218372574E-15,18.334292508811));
#412 = VECTOR('',#413,1.);
#413 = DIRECTION('',(1.,0.));
#414 = ( GEOMETRIC_REPRESENTATION_CONTEXT(2) 
PARAMETRIC_REPRESENTATION_CONTEXT() REPRESENTATION_CONTEXT('2D SPACE',''
  ) );
#415 = PCURVE('',#416,#421);
#416 = SPHERICAL_SURFACE('',#417,0.5);
#417 = AXIS2_PLACEMENT_3D('',#418,#419,#420);
#418 = CARTESIAN_POINT('',(-212.1180072548,-116.2089904757,
    209.95870599017));
#419 = DIRECTION('',(-0.772480510668,0.487636350292,-0.406798046347));
#420 = DIRECTION('',(-0.211724592614,-0.80170356369,-0.558966987262));
#421 = DEFINITIONAL_REPRESENTATION('',(#422),#448);
#422 = B_SPLINE_CURVE_WITH_KNOTS('',3,(#423,#424,#425,#426,#427,#428,
    #429,#430,#431,#432,#433,#434,#435,#436,#437,#438,#439,#440,#441,
    #442,#443,#444,#445,#446,#447),.UNSPECIFIED.,.F.,.F.,(4,1,1,1,1,1,1,
    1,1,1,1,1,1,1,1,1,1,1,1,1,1,1,4),(4.171085466519E-04,
    7.179798210339E-02,0.14317885566,0.214559729217,0.285940602774,
    0.35732147633,0.428702349887,0.500083223444,0.571464097001,
    0.642844970557,0.714225844114,0.785606717671,0.856987591228,
    0.928368464784,0.999749338341,1.071130211898,1.142511085454,
    1.213891959011,1.285272832568,1.356653706125,1.428034579681,
    1.499415453238,1.570796326795),.QUASI_UNIFORM_KNOTS.);
#423 = CARTESIAN_POINT('',(1.570467986725,2.393190403919E-04));
#424 = CARTESIAN_POINT('',(1.551238630204,1.425233689846E-02));
#425 = CARTESIAN_POINT('',(1.512779559582,4.227865311867E-02));
#426 = CARTESIAN_POINT('',(1.454885791456,8.417689997664E-02));
#427 = CARTESIAN_POINT('',(1.396582835608,0.125792910141));
#428 = CARTESIAN_POINT('',(1.337666442793,0.166981965219));
#429 = CARTESIAN_POINT('',(1.2779324584,0.207595044755));
#430 = CARTESIAN_POINT('',(1.217177460442,0.247477174935));
#431 = CARTESIAN_POINT('',(1.155199996859,0.286466164307));
#432 = CARTESIAN_POINT('',(1.091802571629,0.324391402263));
#433 = CARTESIAN_POINT('',(1.02679458128,0.361072896344));
#434 = CARTESIAN_POINT('',(0.959996392987,0.396320622199));
#435 = CARTESIAN_POINT('',(0.891244734204,0.429934323139));
#436 = CARTESIAN_POINT('',(0.820399499964,0.461703915667));
#437 = CARTESIAN_POINT('',(0.747351964519,0.491410682094));
#438 = CARTESIAN_POINT('',(0.672034193435,0.518829440187));
#439 = CARTESIAN_POINT('',(0.594429179653,0.543731858128));
#440 = CARTESIAN_POINT('',(0.514580901884,0.56589104388));
#441 = CARTESIAN_POINT('',(0.432603106905,0.585087370662));
#442 = CARTESIAN_POINT('',(0.348685469248,0.601115574526));
#443 = CARTESIAN_POINT('',(0.263095117035,0.613792092221));
#444 = CARTESIAN_POINT('',(0.176173753551,0.622964631504));
#445 = CARTESIAN_POINT('',(8.832352396433E-02,0.628513709965));
#446 = CARTESIAN_POINT('',(2.944402541633E-02,0.629758503864));
#447 = CARTESIAN_POINT('',(0.,0.62975460767));
#448 = ( GEOMETRIC_REPRESENTATION_CONTEXT(2) 
PARAMETRIC_REPRESENTATION_CONTEXT() REPRESENTATION_CONTEXT('2D SPACE',''
  ) );
#449 = ORIENTED_EDGE('',*,*,#450,.F.);
#450 = EDGE_CURVE('',#345,#400,#451,.T.);
#451 = SURFACE_CURVE('',#452,(#456,#463),.PCURVE_S1.);
#452 = LINE('',#453,#454);
#453 = CARTESIAN_POINT('',(-221.5401093103,-100.5643008577,
    210.32784993511));
#454 = VECTOR('',#455,1.);
#455 = DIRECTION('',(0.499602747366,-0.866254525126,-4.387758596931E-04)
  );
#456 = PCURVE('',#286,#457);
#457 = DEFINITIONAL_REPRESENTATION('',(#458),#462);
#458 = LINE('',#459,#460);
#459 = CARTESIAN_POINT('',(4.177513666164E-04,7.4539306842E-02));
#460 = VECTOR('',#461,1.);
#461 = DIRECTION('',(-3.520458028618E-08,1.));
#462 = ( GEOMETRIC_REPRESENTATION_CONTEXT(2) 
PARAMETRIC_REPRESENTATION_CONTEXT() REPRESENTATION_CONTEXT('2D SPACE',''
  ) );
#463 = PCURVE('',#464,#469);
#464 = PLANE('',#465);
#465 = AXIS2_PLACEMENT_3D('',#466,#467,#468);
#466 = CARTESIAN_POINT('',(-205.090828129,-101.6233319812,
    223.45116404019));
#467 = DIRECTION('',(-0.598704065061,-0.345661953128,0.722544985893));
#468 = DIRECTION('',(0.626059540551,0.360722747909,0.691323767005));
#469 = DEFINITIONAL_REPRESENTATION('',(#470),#474);
#470 = LINE('',#471,#472);
#471 = CARTESIAN_POINT('',(-18.98867174447,9.12973804569));
#472 = VECTOR('',#473,1.);
#473 = DIRECTION('',(1.760229095815E-08,-1.));
#474 = ( GEOMETRIC_REPRESENTATION_CONTEXT(2) 
PARAMETRIC_REPRESENTATION_CONTEXT() REPRESENTATION_CONTEXT('2D SPACE',''
  ) );
#475 = ADVANCED_FACE('',(#476,#560),#464,.T.);
#476 = FACE_BOUND('',#477,.F.);
#477 = EDGE_LOOP('',(#478,#505,#534,#559));
#478 = ORIENTED_EDGE('',*,*,#479,.F.);
#479 = EDGE_CURVE('',#480,#345,#482,.T.);
#480 = VERTEX_POINT('',#481);
#481 = CARTESIAN_POINT('',(-214.7533079674,-91.26588229427,
    220.39974203514));
#482 = SURFACE_CURVE('',#483,(#487,#494),.PCURVE_S1.);
#483 = LINE('',#484,#485);
#484 = CARTESIAN_POINT('',(-214.7533079674,-91.26588229427,
    220.39974203514));
#485 = VECTOR('',#486,1.);
#486 = DIRECTION('',(-0.443700958573,-0.607903049081,-0.658470456649));
#487 = PCURVE('',#464,#488);
#488 = DEFINITIONAL_REPRESENTATION('',(#489),#493);
#489 = LINE('',#490,#491);
#490 = CARTESIAN_POINT('',(-4.422640531062,13.79825016562));
#491 = VECTOR('',#492,1.);
#492 = DIRECTION('',(-0.952283953145,-0.305213486896));
#493 = ( GEOMETRIC_REPRESENTATION_CONTEXT(2) 
PARAMETRIC_REPRESENTATION_CONTEXT() REPRESENTATION_CONTEXT('2D SPACE',''
  ) );
#494 = PCURVE('',#495,#500);
#495 = CYLINDRICAL_SURFACE('',#496,0.5);
#496 = AXIS2_PLACEMENT_3D('',#497,#498,#499);
#497 = CARTESIAN_POINT('',(-214.4209742482,-91.04786232323,
    220.08741650976));
#498 = DIRECTION('',(-0.443691868705,-0.607912796768,-0.658467582475));
#499 = DIRECTION('',(-0.598704065061,-0.345661953128,0.722544985893));
#500 = DEFINITIONAL_REPRESENTATION('',(#501),#504);
#501 = B_SPLINE_CURVE_WITH_KNOTS('',1,(#502,#503),.UNSPECIFIED.,.F.,.F.,
  (2,2),(0.,15.295890648272),.PIECEWISE_BEZIER_KNOTS.);
#502 = CARTESIAN_POINT('',(0.,7.433466562681E-02));
#503 = CARTESIAN_POINT('',(4.171085433917E-04,15.370225312477));
#504 = ( GEOMETRIC_REPRESENTATION_CONTEXT(2) 
PARAMETRIC_REPRESENTATION_CONTEXT() REPRESENTATION_CONTEXT('2D SPACE',''
  ) );
#505 = ORIENTED_EDGE('',*,*,#506,.F.);
#506 = EDGE_CURVE('',#507,#480,#509,.T.);
#507 = VERTEX_POINT('',#508);
#508 = CARTESIAN_POINT('',(-200.9660208884,-115.171475759,
    220.38763302116));
#509 = SURFACE_CURVE('',#510,(#515,#522),.PCURVE_S1.);
#510 = CIRCLE('',#511,14.48970175332);
#511 = AXIS2_PLACEMENT_3D('',#512,#513,#514);
#512 = CARTESIAN_POINT('',(-205.090828129,-101.6233319812,
    223.45116404019));
#513 = DIRECTION('',(-0.598704065061,-0.345661953128,0.722544985893));
#514 = DIRECTION('',(0.28467164548,-0.935018816013,-0.211428162649));
#515 = PCURVE('',#464,#516);
#516 = DEFINITIONAL_REPRESENTATION('',(#517),#521);
#517 = CIRCLE('',#518,14.48970175332);
#518 = AXIS2_PLACEMENT_2D('',#519,#520);
#519 = CARTESIAN_POINT('',(-6.839924951957E-16,-1.586010972208E-14));
#520 = DIRECTION('',(-0.305226470935,-0.952279791574));
#521 = ( GEOMETRIC_REPRESENTATION_CONTEXT(2) 
PARAMETRIC_REPRESENTATION_CONTEXT() REPRESENTATION_CONTEXT('2D SPACE',''
  ) );
#522 = PCURVE('',#523,#528);
#523 = TOROIDAL_SURFACE('',#524,14.48970175332,0.5);
#524 = AXIS2_PLACEMENT_3D('',#525,#526,#527);
#525 = CARTESIAN_POINT('',(-204.7914760965,-101.4505010047,
    223.08989154725));
#526 = DIRECTION('',(-0.598704065061,-0.345661953128,0.722544985893));
#527 = DIRECTION('',(0.28095544023,-0.935399603773,-0.214689594222));
#528 = DEFINITIONAL_REPRESENTATION('',(#529),#533);
#529 = LINE('',#530,#531);
#530 = CARTESIAN_POINT('',(4.959049009063E-03,1.570796326795));
#531 = VECTOR('',#532,1.);
#532 = DIRECTION('',(1.,6.492626998781E-16));
#533 = ( GEOMETRIC_REPRESENTATION_CONTEXT(2) 
PARAMETRIC_REPRESENTATION_CONTEXT() REPRESENTATION_CONTEXT('2D SPACE',''
  ) );
#534 = ORIENTED_EDGE('',*,*,#535,.F.);
#535 = EDGE_CURVE('',#400,#507,#536,.T.);
#536 = SURFACE_CURVE('',#537,(#541,#548),.PCURVE_S1.);
#537 = LINE('',#538,#539);
#538 = CARTESIAN_POINT('',(-212.4176246695,-116.3816550299,
    210.3198381176));
#539 = VECTOR('',#540,1.);
#540 = DIRECTION('',(0.748671939036,7.911793654746E-02,0.658202613043));
#541 = PCURVE('',#464,#542);
#542 = DEFINITIONAL_REPRESENTATION('',(#543),#547);
#543 = LINE('',#544,#545);
#544 = CARTESIAN_POINT('',(-18.98867142306,-9.129738486223));
#545 = VECTOR('',#546,1.);
#546 = DIRECTION('',(0.952283959558,-0.305213466885));
#547 = ( GEOMETRIC_REPRESENTATION_CONTEXT(2) 
PARAMETRIC_REPRESENTATION_CONTEXT() REPRESENTATION_CONTEXT('2D SPACE',''
  ) );
#548 = PCURVE('',#549,#554);
#549 = CYLINDRICAL_SURFACE('',#550,0.5);
#550 = AXIS2_PLACEMENT_3D('',#551,#552,#553);
#551 = CARTESIAN_POINT('',(-212.1741379117,-116.2145252162,
    209.90954807977));
#552 = DIRECTION('',(0.748675828874,7.910516962109E-02,0.658199723032));
#553 = DIRECTION('',(-0.598704065061,-0.345661953128,0.722544985893));
#554 = DEFINITIONAL_REPRESENTATION('',(#555),#558);
#555 = B_SPLINE_CURVE_WITH_KNOTS('',1,(#556,#557),.UNSPECIFIED.,.F.,.F.,
  (2,2),(0.,15.295890207742),.PIECEWISE_BEZIER_KNOTS.);
#556 = CARTESIAN_POINT('',(4.177513650781E-04,7.453930684178E-02));
#557 = CARTESIAN_POINT('',(0.,15.370429513158));
#558 = ( GEOMETRIC_REPRESENTATION_CONTEXT(2) 
PARAMETRIC_REPRESENTATION_CONTEXT() REPRESENTATION_CONTEXT('2D SPACE',''
  ) );
#559 = ORIENTED_EDGE('',*,*,#450,.F.);
#560 = FACE_BOUND('',#561,.F.);
#561 = EDGE_LOOP('',(#562,#592));
#562 = ORIENTED_EDGE('',*,*,#563,.F.);
#563 = EDGE_CURVE('',#564,#566,#568,.T.);
#564 = VERTEX_POINT('',#565);
#565 = CARTESIAN_POINT('',(-211.3514235345,-105.2305594603,
    216.53792637014));
#566 = VERTEX_POINT('',#567);
#567 = CARTESIAN_POINT('',(-198.8302327235,-98.0161045022,
    230.36440171024));
#568 = SURFACE_CURVE('',#569,(#574,#585),.PCURVE_S1.);
#569 = CIRCLE('',#570,10.);
#570 = AXIS2_PLACEMENT_3D('',#571,#572,#573);
#571 = CARTESIAN_POINT('',(-205.090828129,-101.6233319812,
    223.45116404019));
#572 = DIRECTION('',(0.598704065061,0.345661953128,-0.722544985893));
#573 = DIRECTION('',(-0.626059540551,-0.360722747909,-0.691323767005));
#574 = PCURVE('',#464,#575);
#575 = DEFINITIONAL_REPRESENTATION('',(#576),#584);
#576 = ( BOUNDED_CURVE() B_SPLINE_CURVE(2,(#577,#578,#579,#580,#581,#582
,#583),.UNSPECIFIED.,.T.,.F.) B_SPLINE_CURVE_WITH_KNOTS((1,2,2,2,2,1),(
    -2.094395102393,0.,2.094395102393,4.188790204786,6.28318530718,
8.377580409573),.UNSPECIFIED.) CURVE() GEOMETRIC_REPRESENTATION_ITEM() 
RATIONAL_B_SPLINE_CURVE((1.,0.5,1.,0.5,1.,0.5,1.)) REPRESENTATION_ITEM(
  '') );
#577 = CARTESIAN_POINT('',(-10.,-1.697033274671E-14));
#578 = CARTESIAN_POINT('',(-10.,17.320508075689));
#579 = CARTESIAN_POINT('',(5.,8.660254037844));
#580 = CARTESIAN_POINT('',(20.,-1.119037007454E-14));
#581 = CARTESIAN_POINT('',(5.,-8.660254037844));
#582 = CARTESIAN_POINT('',(-10.,-17.32050807568));
#583 = CARTESIAN_POINT('',(-10.,-1.697033274671E-14));
#584 = ( GEOMETRIC_REPRESENTATION_CONTEXT(2) 
PARAMETRIC_REPRESENTATION_CONTEXT() REPRESENTATION_CONTEXT('2D SPACE',''
  ) );
#585 = PCURVE('',#222,#586);
#586 = DEFINITIONAL_REPRESENTATION('',(#587),#591);
#587 = LINE('',#588,#589);
#588 = CARTESIAN_POINT('',(3.14159265359,11.));
#589 = VECTOR('',#590,1.);
#590 = DIRECTION('',(-1.,0.));
#591 = ( GEOMETRIC_REPRESENTATION_CONTEXT(2) 
PARAMETRIC_REPRESENTATION_CONTEXT() REPRESENTATION_CONTEXT('2D SPACE',''
  ) );
#592 = ORIENTED_EDGE('',*,*,#593,.F.);
#593 = EDGE_CURVE('',#566,#564,#594,.T.);
#594 = SURFACE_CURVE('',#595,(#600,#611),.PCURVE_S1.);
#595 = CIRCLE('',#596,10.);
#596 = AXIS2_PLACEMENT_3D('',#597,#598,#599);
#597 = CARTESIAN_POINT('',(-205.090828129,-101.6233319812,
    223.45116404019));
#598 = DIRECTION('',(0.598704065061,0.345661953128,-0.722544985893));
#599 = DIRECTION('',(0.626059540551,0.360722747909,0.691323767005));
#600 = PCURVE('',#464,#601);
#601 = DEFINITIONAL_REPRESENTATION('',(#602),#610);
#602 = ( BOUNDED_CURVE() B_SPLINE_CURVE(2,(#603,#604,#605,#606,#607,#608
,#609),.UNSPECIFIED.,.T.,.F.) B_SPLINE_CURVE_WITH_KNOTS((1,2,2,2,2,1),(
    -2.094395102393,0.,2.094395102393,4.188790204786,6.28318530718,
8.377580409573),.UNSPECIFIED.) CURVE() GEOMETRIC_REPRESENTATION_ITEM() 
RATIONAL_B_SPLINE_CURVE((1.,0.5,1.,0.5,1.,0.5,1.)) REPRESENTATION_ITEM(
  '') );
#603 = CARTESIAN_POINT('',(10.,-1.474988669746E-14));
#604 = CARTESIAN_POINT('',(10.,-17.32050807568));
#605 = CARTESIAN_POINT('',(-5.,-8.660254037844));
#606 = CARTESIAN_POINT('',(-20.,-2.052984936963E-14));
#607 = CARTESIAN_POINT('',(-5.,8.660254037844));
#608 = CARTESIAN_POINT('',(10.,17.320508075689));
#609 = CARTESIAN_POINT('',(10.,-1.474988669746E-14));
#610 = ( GEOMETRIC_REPRESENTATION_CONTEXT(2) 
PARAMETRIC_REPRESENTATION_CONTEXT() REPRESENTATION_CONTEXT('2D SPACE',''
  ) );
#611 = PCURVE('',#253,#612);
#612 = DEFINITIONAL_REPRESENTATION('',(#613),#617);
#613 = LINE('',#614,#615);
#614 = CARTESIAN_POINT('',(6.28318530718,11.));
#615 = VECTOR('',#616,1.);
#616 = DIRECTION('',(-1.,0.));
#617 = ( GEOMETRIC_REPRESENTATION_CONTEXT(2) 
PARAMETRIC_REPRESENTATION_CONTEXT() REPRESENTATION_CONTEXT('2D SPACE',''
  ) );
#618 = ADVANCED_FACE('',(#619),#222,.F.);
#619 = FACE_BOUND('',#620,.F.);
#620 = EDGE_LOOP('',(#621,#622,#643,#644));
#621 = ORIENTED_EDGE('',*,*,#199,.F.);
#622 = ORIENTED_EDGE('',*,*,#623,.T.);
#623 = EDGE_CURVE('',#200,#564,#624,.T.);
#624 = SURFACE_CURVE('',#625,(#629,#636),.PCURVE_S1.);
#625 = LINE('',#626,#627);
#626 = CARTESIAN_POINT('',(-204.7656788188,-101.4282779759,
    208.58993152532));
#627 = VECTOR('',#628,1.);
#628 = DIRECTION('',(-0.598704065061,-0.345661953128,0.722544985893));
#629 = PCURVE('',#222,#630);
#630 = DEFINITIONAL_REPRESENTATION('',(#631),#635);
#631 = LINE('',#632,#633);
#632 = CARTESIAN_POINT('',(3.14159265359,0.));
#633 = VECTOR('',#634,1.);
#634 = DIRECTION('',(0.,1.));
#635 = ( GEOMETRIC_REPRESENTATION_CONTEXT(2) 
PARAMETRIC_REPRESENTATION_CONTEXT() REPRESENTATION_CONTEXT('2D SPACE',''
  ) );
#636 = PCURVE('',#253,#637);
#637 = DEFINITIONAL_REPRESENTATION('',(#638),#642);
#638 = LINE('',#639,#640);
#639 = CARTESIAN_POINT('',(3.14159265359,0.));
#640 = VECTOR('',#641,1.);
#641 = DIRECTION('',(0.,1.));
#642 = ( GEOMETRIC_REPRESENTATION_CONTEXT(2) 
PARAMETRIC_REPRESENTATION_CONTEXT() REPRESENTATION_CONTEXT('2D SPACE',''
  ) );
#643 = ORIENTED_EDGE('',*,*,#563,.T.);
#644 = ORIENTED_EDGE('',*,*,#645,.F.);
#645 = EDGE_CURVE('',#202,#566,#646,.T.);
#646 = SURFACE_CURVE('',#647,(#651,#658),.PCURVE_S1.);
#647 = LINE('',#648,#649);
#648 = CARTESIAN_POINT('',(-192.2444880078,-94.2138230178,
    222.41640686542));
#649 = VECTOR('',#650,1.);
#650 = DIRECTION('',(-0.598704065061,-0.345661953128,0.722544985893));
#651 = PCURVE('',#222,#652);
#652 = DEFINITIONAL_REPRESENTATION('',(#653),#657);
#653 = LINE('',#654,#655);
#654 = CARTESIAN_POINT('',(0.,0.));
#655 = VECTOR('',#656,1.);
#656 = DIRECTION('',(0.,1.));
#657 = ( GEOMETRIC_REPRESENTATION_CONTEXT(2) 
PARAMETRIC_REPRESENTATION_CONTEXT() REPRESENTATION_CONTEXT('2D SPACE',''
  ) );
#658 = PCURVE('',#253,#659);
#659 = DEFINITIONAL_REPRESENTATION('',(#660),#664);
#660 = LINE('',#661,#662);
#661 = CARTESIAN_POINT('',(6.28318530718,0.));
#662 = VECTOR('',#663,1.);
#663 = DIRECTION('',(0.,1.));
#664 = ( GEOMETRIC_REPRESENTATION_CONTEXT(2) 
PARAMETRIC_REPRESENTATION_CONTEXT() REPRESENTATION_CONTEXT('2D SPACE',''
  ) );
#665 = ADVANCED_FACE('',(#666),#253,.F.);
#666 = FACE_BOUND('',#667,.F.);
#667 = EDGE_LOOP('',(#668,#669,#670,#671));
#668 = ORIENTED_EDGE('',*,*,#234,.F.);
#669 = ORIENTED_EDGE('',*,*,#645,.T.);
#670 = ORIENTED_EDGE('',*,*,#593,.T.);
#671 = ORIENTED_EDGE('',*,*,#623,.F.);
#672 = ADVANCED_FACE('',(#673),#495,.T.);
#673 = FACE_BOUND('',#674,.T.);
#674 = EDGE_LOOP('',(#675,#699,#722,#766));
#675 = ORIENTED_EDGE('',*,*,#676,.T.);
#676 = EDGE_CURVE('',#480,#677,#679,.T.);
#677 = VERTEX_POINT('',#678);
#678 = CARTESIAN_POINT('',(-214.7873817018,-90.73564404103,
    219.93317330984));
#679 = SURFACE_CURVE('',#680,(#685,#692),.PCURVE_S1.);
#680 = CIRCLE('',#681,0.5);
#681 = AXIS2_PLACEMENT_3D('',#682,#683,#684);
#682 = CARTESIAN_POINT('',(-214.4539559349,-91.09305131771,
    220.03846954219));
#683 = DIRECTION('',(-0.443691868705,-0.607912796768,-0.658467582475));
#684 = DIRECTION('',(-0.598704065061,-0.345661953128,0.722544985893));
#685 = PCURVE('',#495,#686);
#686 = DEFINITIONAL_REPRESENTATION('',(#687),#691);
#687 = LINE('',#688,#689);
#688 = CARTESIAN_POINT('',(0.,7.433466562681E-02));
#689 = VECTOR('',#690,1.);
#690 = DIRECTION('',(1.,0.));
#691 = ( GEOMETRIC_REPRESENTATION_CONTEXT(2) 
PARAMETRIC_REPRESENTATION_CONTEXT() REPRESENTATION_CONTEXT('2D SPACE',''
  ) );
#692 = PCURVE('',#523,#693);
#693 = DEFINITIONAL_REPRESENTATION('',(#694),#698);
#694 = LINE('',#695,#696);
#695 = CARTESIAN_POINT('',(3.766904182518,1.570796326805));
#696 = VECTOR('',#697,1.);
#697 = DIRECTION('',(-2.261727773471E-15,-1.));
#698 = ( GEOMETRIC_REPRESENTATION_CONTEXT(2) 
PARAMETRIC_REPRESENTATION_CONTEXT() REPRESENTATION_CONTEXT('2D SPACE',''
  ) );
#699 = ORIENTED_EDGE('',*,*,#700,.T.);
#700 = EDGE_CURVE('',#677,#701,#703,.T.);
#701 = VERTEX_POINT('',#702);
#702 = CARTESIAN_POINT('',(-221.5741355071,-100.0343348726,
    209.86119043228));
#703 = SURFACE_CURVE('',#704,(#708,#715),.PCURVE_S1.);
#704 = LINE('',#705,#706);
#705 = CARTESIAN_POINT('',(-214.7873817018,-90.73564404103,
    219.93317330984));
#706 = VECTOR('',#707,1.);
#707 = DIRECTION('',(-0.443691927542,-0.607912733699,-0.658467601056));
#708 = PCURVE('',#495,#709);
#709 = DEFINITIONAL_REPRESENTATION('',(#710),#714);
#710 = LINE('',#711,#712);
#711 = CARTESIAN_POINT('',(1.570796326795,7.433466562656E-02));
#712 = VECTOR('',#713,1.);
#713 = DIRECTION('',(0.,1.));
#714 = ( GEOMETRIC_REPRESENTATION_CONTEXT(2) 
PARAMETRIC_REPRESENTATION_CONTEXT() REPRESENTATION_CONTEXT('2D SPACE',''
  ) );
#715 = PCURVE('',#158,#716);
#716 = DEFINITIONAL_REPRESENTATION('',(#717),#721);
#717 = LINE('',#718,#719);
#718 = CARTESIAN_POINT('',(9.592326932761E-13,10.5));
#719 = VECTOR('',#720,1.);
#720 = DIRECTION('',(1.,-1.387778780781E-16));
#721 = ( GEOMETRIC_REPRESENTATION_CONTEXT(2) 
PARAMETRIC_REPRESENTATION_CONTEXT() REPRESENTATION_CONTEXT('2D SPACE',''
  ) );
#722 = ORIENTED_EDGE('',*,*,#723,.F.);
#723 = EDGE_CURVE('',#345,#701,#724,.T.);
#724 = SURFACE_CURVE('',#725,(#730,#737),.PCURVE_S1.);
#725 = CIRCLE('',#726,0.5);
#726 = AXIS2_PLACEMENT_3D('',#727,#728,#729);
#727 = CARTESIAN_POINT('',(-221.2407409958,-100.3917871711,
    209.96643922789));
#728 = DIRECTION('',(-0.443691868705,-0.607912796768,-0.658467582475));
#729 = DIRECTION('',(-0.598704065061,-0.345661953128,0.722544985893));
#730 = PCURVE('',#495,#731);
#731 = DEFINITIONAL_REPRESENTATION('',(#732),#736);
#732 = LINE('',#733,#734);
#733 = CARTESIAN_POINT('',(-4.760636329593E-13,15.370501982531));
#734 = VECTOR('',#735,1.);
#735 = DIRECTION('',(1.,1.13116425559E-15));
#736 = ( GEOMETRIC_REPRESENTATION_CONTEXT(2) 
PARAMETRIC_REPRESENTATION_CONTEXT() REPRESENTATION_CONTEXT('2D SPACE',''
  ) );
#737 = PCURVE('',#364,#738);
#738 = DEFINITIONAL_REPRESENTATION('',(#739),#765);
#739 = B_SPLINE_CURVE_WITH_KNOTS('',3,(#740,#741,#742,#743,#744,#745,
    #746,#747,#748,#749,#750,#751,#752,#753,#754,#755,#756,#757,#758,
    #759,#760,#761,#762,#763,#764),.UNSPECIFIED.,.F.,.F.,(4,1,1,1,1,1,1,
    1,1,1,1,1,1,1,1,1,1,1,1,1,1,1,4),(4.171085499718E-04,
    7.179798210656E-02,0.143178855663,0.21455972922,0.285940602776,
    0.357321476333,0.428702349889,0.500083223446,0.571464097003,
    0.642844970559,0.714225844116,0.785606717672,0.856987591229,
    0.928368464786,0.999749338342,1.071130211899,1.142511085455,
    1.213891959012,1.285272832569,1.356653706125,1.428034579682,
    1.499415453238,1.570796326795),.QUASI_UNIFORM_KNOTS.);
#740 = CARTESIAN_POINT('',(1.570467986725,2.393190577327E-04));
#741 = CARTESIAN_POINT('',(1.551238630204,1.425233691577E-02));
#742 = CARTESIAN_POINT('',(1.512779559582,4.227865313592E-02));
#743 = CARTESIAN_POINT('',(1.454885791456,8.417689999376E-02));
#744 = CARTESIAN_POINT('',(1.396582835608,0.125792910158));
#745 = CARTESIAN_POINT('',(1.337666442793,0.166981965236));
#746 = CARTESIAN_POINT('',(1.2779324584,0.207595044772));
#747 = CARTESIAN_POINT('',(1.217177460442,0.247477174951));
#748 = CARTESIAN_POINT('',(1.155199996859,0.286466164324));
#749 = CARTESIAN_POINT('',(1.091802571629,0.324391402279));
#750 = CARTESIAN_POINT('',(1.02679458128,0.36107289636));
#751 = CARTESIAN_POINT('',(0.959996392987,0.396320622215));
#752 = CARTESIAN_POINT('',(0.891244734204,0.429934323154));
#753 = CARTESIAN_POINT('',(0.820399499964,0.461703915683));
#754 = CARTESIAN_POINT('',(0.747351964519,0.491410682109));
#755 = CARTESIAN_POINT('',(0.672034193436,0.518829440202));
#756 = CARTESIAN_POINT('',(0.594429179654,0.543731858143));
#757 = CARTESIAN_POINT('',(0.514580901884,0.565891043894));
#758 = CARTESIAN_POINT('',(0.432603106905,0.585087370676));
#759 = CARTESIAN_POINT('',(0.348685469248,0.60111557454));
#760 = CARTESIAN_POINT('',(0.263095117035,0.613792092235));
#761 = CARTESIAN_POINT('',(0.176173753551,0.622964631518));
#762 = CARTESIAN_POINT('',(8.832352396441E-02,0.628513709978));
#763 = CARTESIAN_POINT('',(2.944402541635E-02,0.629758503878));
#764 = CARTESIAN_POINT('',(0.,0.629754607684));
#765 = ( GEOMETRIC_REPRESENTATION_CONTEXT(2) 
PARAMETRIC_REPRESENTATION_CONTEXT() REPRESENTATION_CONTEXT('2D SPACE',''
  ) );
#766 = ORIENTED_EDGE('',*,*,#479,.F.);
#767 = ADVANCED_FACE('',(#768),#364,.T.);
#768 = FACE_BOUND('',#769,.T.);
#769 = EDGE_LOOP('',(#770,#771,#772));
#770 = ORIENTED_EDGE('',*,*,#344,.F.);
#771 = ORIENTED_EDGE('',*,*,#723,.T.);
#772 = ORIENTED_EDGE('',*,*,#773,.T.);
#773 = EDGE_CURVE('',#701,#269,#774,.T.);
#774 = SURFACE_CURVE('',#775,(#780,#786),.PCURVE_S1.);
#775 = CIRCLE('',#776,0.499511098858);
#776 = AXIS2_PLACEMENT_3D('',#777,#778,#779);
#777 = CARTESIAN_POINT('',(-221.2410348662,-100.3913936424,
    209.96638398773));
#778 = DIRECTION('',(-0.598704065061,-0.345661953128,0.722544985893));
#779 = DIRECTION('',(-0.666851533794,0.714814553354,-0.210592464704));
#780 = PCURVE('',#364,#781);
#781 = DEFINITIONAL_REPRESENTATION('',(#782),#785);
#782 = B_SPLINE_CURVE_WITH_KNOTS('',1,(#783,#784),.UNSPECIFIED.,.F.,.F.,
  (2,2),(0.,1.260620086836),.PIECEWISE_BEZIER_KNOTS.);
#783 = CARTESIAN_POINT('',(0.,0.629899547998));
#784 = CARTESIAN_POINT('',(0.,-0.629899622895));
#785 = ( GEOMETRIC_REPRESENTATION_CONTEXT(2) 
PARAMETRIC_REPRESENTATION_CONTEXT() REPRESENTATION_CONTEXT('2D SPACE',''
  ) );
#786 = PCURVE('',#185,#787);
#787 = DEFINITIONAL_REPRESENTATION('',(#788),#792);
#788 = LINE('',#789,#790);
#789 = CARTESIAN_POINT('',(1.880972566754,10.5));
#790 = VECTOR('',#791,1.);
#791 = DIRECTION('',(1.,0.));
#792 = ( GEOMETRIC_REPRESENTATION_CONTEXT(2) 
PARAMETRIC_REPRESENTATION_CONTEXT() REPRESENTATION_CONTEXT('2D SPACE',''
  ) );
#793 = ADVANCED_FACE('',(#794),#185,.T.);
#794 = FACE_BOUND('',#795,.T.);
#795 = EDGE_LOOP('',(#796,#817,#818,#819));
#796 = ORIENTED_EDGE('',*,*,#797,.F.);
#797 = EDGE_CURVE('',#143,#701,#798,.T.);
#798 = SURFACE_CURVE('',#799,(#803,#810),.PCURVE_S1.);
#799 = LINE('',#800,#801);
#800 = CARTESIAN_POINT('',(-215.2877419254,-96.40488533157,
    202.2744683624));
#801 = VECTOR('',#802,1.);
#802 = DIRECTION('',(-0.59870415063,-0.345661861057,0.722544959037));
#803 = PCURVE('',#185,#804);
#804 = DEFINITIONAL_REPRESENTATION('',(#805),#809);
#805 = LINE('',#806,#807);
#806 = CARTESIAN_POINT('',(1.88097256676,0.));
#807 = VECTOR('',#808,1.);
#808 = DIRECTION('',(-6.421892224345E-10,1.));
#809 = ( GEOMETRIC_REPRESENTATION_CONTEXT(2) 
PARAMETRIC_REPRESENTATION_CONTEXT() REPRESENTATION_CONTEXT('2D SPACE',''
  ) );
#810 = PCURVE('',#158,#811);
#811 = DEFINITIONAL_REPRESENTATION('',(#812),#816);
#812 = LINE('',#813,#814);
#813 = CARTESIAN_POINT('',(15.296094847535,-9.769962616701E-15));
#814 = VECTOR('',#815,1.);
#815 = DIRECTION('',(-3.207816789974E-10,1.));
#816 = ( GEOMETRIC_REPRESENTATION_CONTEXT(2) 
PARAMETRIC_REPRESENTATION_CONTEXT() REPRESENTATION_CONTEXT('2D SPACE',''
  ) );
#817 = ORIENTED_EDGE('',*,*,#170,.T.);
#818 = ORIENTED_EDGE('',*,*,#320,.T.);
#819 = ORIENTED_EDGE('',*,*,#773,.F.);
#820 = ADVANCED_FACE('',(#821),#158,.T.);
#821 = FACE_BOUND('',#822,.F.);
#822 = EDGE_LOOP('',(#823,#824,#825,#826));
#823 = ORIENTED_EDGE('',*,*,#700,.T.);
#824 = ORIENTED_EDGE('',*,*,#797,.F.);
#825 = ORIENTED_EDGE('',*,*,#142,.F.);
#826 = ORIENTED_EDGE('',*,*,#827,.T.);
#827 = EDGE_CURVE('',#114,#677,#828,.T.);
#828 = SURFACE_CURVE('',#829,(#833,#840),.PCURVE_S1.);
#829 = LINE('',#830,#831);
#830 = CARTESIAN_POINT('',(-208.5009890186,-87.10619353318,
    212.34645095796));
#831 = VECTOR('',#832,1.);
#832 = DIRECTION('',(-0.598704065061,-0.345661953128,0.722544985893));
#833 = PCURVE('',#158,#834);
#834 = DEFINITIONAL_REPRESENTATION('',(#835),#839);
#835 = LINE('',#836,#837);
#836 = CARTESIAN_POINT('',(0.,0.));
#837 = VECTOR('',#838,1.);
#838 = DIRECTION('',(5.542788450441E-14,1.));
#839 = ( GEOMETRIC_REPRESENTATION_CONTEXT(2) 
PARAMETRIC_REPRESENTATION_CONTEXT() REPRESENTATION_CONTEXT('2D SPACE',''
  ) );
#840 = PCURVE('',#130,#841);
#841 = DEFINITIONAL_REPRESENTATION('',(#842),#846);
#842 = LINE('',#843,#844);
#843 = CARTESIAN_POINT('',(1.880972566754,0.));
#844 = VECTOR('',#845,1.);
#845 = DIRECTION('',(3.552713678801E-15,1.));
#846 = ( GEOMETRIC_REPRESENTATION_CONTEXT(2) 
PARAMETRIC_REPRESENTATION_CONTEXT() REPRESENTATION_CONTEXT('2D SPACE',''
  ) );
#847 = ADVANCED_FACE('',(#848),#130,.T.);
#848 = FACE_BOUND('',#849,.T.);
#849 = EDGE_LOOP('',(#850,#873,#874,#875));
#850 = ORIENTED_EDGE('',*,*,#851,.F.);
#851 = EDGE_CURVE('',#86,#852,#854,.T.);
#852 = VERTEX_POINT('',#853);
#853 = CARTESIAN_POINT('',(-200.5243330331,-115.4661541905,
    219.92064644689));
#854 = SURFACE_CURVE('',#855,(#859,#866),.PCURVE_S1.);
#855 = LINE('',#856,#857);
#856 = CARTESIAN_POINT('',(-194.23794035,-111.8367036826,212.33392409501
    ));
#857 = VECTOR('',#858,1.);
#858 = DIRECTION('',(-0.598704065061,-0.345661953128,0.722544985893));
#859 = PCURVE('',#130,#860);
#860 = DEFINITIONAL_REPRESENTATION('',(#861),#865);
#861 = LINE('',#862,#863);
#862 = CARTESIAN_POINT('',(-1.880972566754,0.));
#863 = VECTOR('',#864,1.);
#864 = DIRECTION('',(-4.060244204343E-15,1.));
#865 = ( GEOMETRIC_REPRESENTATION_CONTEXT(2) 
PARAMETRIC_REPRESENTATION_CONTEXT() REPRESENTATION_CONTEXT('2D SPACE',''
  ) );
#866 = PCURVE('',#101,#867);
#867 = DEFINITIONAL_REPRESENTATION('',(#868),#872);
#868 = LINE('',#869,#870);
#869 = CARTESIAN_POINT('',(15.296094847535,1.798561299893E-14));
#870 = VECTOR('',#871,1.);
#871 = DIRECTION('',(-6.122186091417E-14,1.));
#872 = ( GEOMETRIC_REPRESENTATION_CONTEXT(2) 
PARAMETRIC_REPRESENTATION_CONTEXT() REPRESENTATION_CONTEXT('2D SPACE',''
  ) );
#873 = ORIENTED_EDGE('',*,*,#113,.T.);
#874 = ORIENTED_EDGE('',*,*,#827,.T.);
#875 = ORIENTED_EDGE('',*,*,#876,.F.);
#876 = EDGE_CURVE('',#852,#677,#877,.T.);
#877 = SURFACE_CURVE('',#878,(#883,#890),.PCURVE_S1.);
#878 = CIRCLE('',#879,14.98970175332);
#879 = AXIS2_PLACEMENT_3D('',#880,#881,#882);
#880 = CARTESIAN_POINT('',(-204.7914760965,-101.4505010047,
    223.08989154725));
#881 = DIRECTION('',(-0.598704065061,-0.345661953128,0.722544985893));
#882 = DIRECTION('',(0.28467164548,-0.935018816013,-0.211428162649));
#883 = PCURVE('',#130,#884);
#884 = DEFINITIONAL_REPRESENTATION('',(#885),#889);
#885 = LINE('',#886,#887);
#886 = CARTESIAN_POINT('',(-1.880972566754,10.5));
#887 = VECTOR('',#888,1.);
#888 = DIRECTION('',(1.,0.));
#889 = ( GEOMETRIC_REPRESENTATION_CONTEXT(2) 
PARAMETRIC_REPRESENTATION_CONTEXT() REPRESENTATION_CONTEXT('2D SPACE',''
  ) );
#890 = PCURVE('',#523,#891);
#891 = DEFINITIONAL_REPRESENTATION('',(#892),#896);
#892 = LINE('',#893,#894);
#893 = CARTESIAN_POINT('',(4.959049009063E-03,0.));
#894 = VECTOR('',#895,1.);
#895 = DIRECTION('',(1.,0.));
#896 = ( GEOMETRIC_REPRESENTATION_CONTEXT(2) 
PARAMETRIC_REPRESENTATION_CONTEXT() REPRESENTATION_CONTEXT('2D SPACE',''
  ) );
#897 = ADVANCED_FACE('',(#898),#523,.T.);
#898 = FACE_BOUND('',#899,.T.);
#899 = EDGE_LOOP('',(#900,#922,#923,#924));
#900 = ORIENTED_EDGE('',*,*,#901,.T.);
#901 = EDGE_CURVE('',#507,#852,#902,.T.);
#902 = SURFACE_CURVE('',#903,(#908,#915),.PCURVE_S1.);
#903 = CIRCLE('',#904,0.5);
#904 = AXIS2_PLACEMENT_3D('',#905,#906,#907);
#905 = CARTESIAN_POINT('',(-200.6666688558,-114.9986447825,
    220.02636052822));
#906 = DIRECTION('',(0.748675828874,7.910516962109E-02,0.658199723032));
#907 = DIRECTION('',(-0.598704065061,-0.345661953128,0.722544985893));
#908 = PCURVE('',#523,#909);
#909 = DEFINITIONAL_REPRESENTATION('',(#910),#914);
#910 = LINE('',#911,#912);
#911 = CARTESIAN_POINT('',(4.959049008963E-03,1.570796326805));
#912 = VECTOR('',#913,1.);
#913 = DIRECTION('',(2.149083128503E-15,-1.));
#914 = ( GEOMETRIC_REPRESENTATION_CONTEXT(2) 
PARAMETRIC_REPRESENTATION_CONTEXT() REPRESENTATION_CONTEXT('2D SPACE',''
  ) );
#915 = PCURVE('',#549,#916);
#916 = DEFINITIONAL_REPRESENTATION('',(#917),#921);
#917 = LINE('',#918,#919);
#918 = CARTESIAN_POINT('',(0.,15.370429513158));
#919 = VECTOR('',#920,1.);
#920 = DIRECTION('',(1.,0.));
#921 = ( GEOMETRIC_REPRESENTATION_CONTEXT(2) 
PARAMETRIC_REPRESENTATION_CONTEXT() REPRESENTATION_CONTEXT('2D SPACE',''
  ) );
#922 = ORIENTED_EDGE('',*,*,#876,.T.);
#923 = ORIENTED_EDGE('',*,*,#676,.F.);
#924 = ORIENTED_EDGE('',*,*,#506,.F.);
#925 = ADVANCED_FACE('',(#926),#549,.T.);
#926 = FACE_BOUND('',#927,.T.);
#927 = EDGE_LOOP('',(#928,#977,#998,#999));
#928 = ORIENTED_EDGE('',*,*,#929,.T.);
#929 = EDGE_CURVE('',#400,#930,#932,.T.);
#930 = VERTEX_POINT('',#931);
#931 = CARTESIAN_POINT('',(-211.9761495216,-116.6761543679,
    209.85276105477));
#932 = SURFACE_CURVE('',#933,(#942,#948),.PCURVE_S1.);
#933 = B_SPLINE_CURVE_WITH_KNOTS('',3,(#934,#935,#936,#937,#938,#939,
    #940,#941),.UNSPECIFIED.,.F.,.F.,(4,1,1,1,1,4),(0.,0.2,0.4,0.6,0.8,
    1.),.QUASI_UNIFORM_KNOTS.);
#934 = CARTESIAN_POINT('',(-212.4176246695,-116.3816550299,
    210.3198381176));
#935 = CARTESIAN_POINT('',(-212.4026900122,-116.4306983112,
    210.30874477403));
#936 = CARTESIAN_POINT('',(-212.3626622147,-116.5226984052,
    210.2748860143));
#937 = CARTESIAN_POINT('',(-212.2789591211,-116.6304339639,
    210.19240816741));
#938 = CARTESIAN_POINT('',(-212.179589247,-116.6965826102,
    210.08727853123));
#939 = CARTESIAN_POINT('',(-212.0736884922,-116.7147928672,
    209.96942168893));
#940 = CARTESIAN_POINT('',(-212.007205153,-116.6941970263,
    209.89025387177));
#941 = CARTESIAN_POINT('',(-211.9761204138,-116.6762502438,
    209.85273930704));
#942 = PCURVE('',#549,#943);
#943 = DEFINITIONAL_REPRESENTATION('',(#944),#947);
#944 = B_SPLINE_CURVE_WITH_KNOTS('',1,(#945,#946),.UNSPECIFIED.,.F.,.F.,
  (2,2),(0.,1.),.PIECEWISE_BEZIER_KNOTS.);
#945 = CARTESIAN_POINT('',(4.177513650781E-04,7.453930684178E-02));
#946 = CARTESIAN_POINT('',(1.570796326795,7.433455926978E-02));
#947 = ( GEOMETRIC_REPRESENTATION_CONTEXT(2) 
PARAMETRIC_REPRESENTATION_CONTEXT() REPRESENTATION_CONTEXT('2D SPACE',''
  ) );
#948 = PCURVE('',#416,#949);
#949 = DEFINITIONAL_REPRESENTATION('',(#950),#976);
#950 = B_SPLINE_CURVE_WITH_KNOTS('',3,(#951,#952,#953,#954,#955,#956,
    #957,#958,#959,#960,#961,#962,#963,#964,#965,#966,#967,#968,#969,
    #970,#971,#972,#973,#974,#975),.UNSPECIFIED.,.F.,.F.,(4,1,1,1,1,1,1,
    1,1,1,1,1,1,1,1,1,1,1,1,1,1,1,4),(0.,4.545454545455E-02,
    9.090909090909E-02,0.136363636364,0.181818181818,0.227272727273,
    0.272727272727,0.318181818182,0.363636363636,0.409090909091,
    0.454545454545,0.5,0.545454545455,0.590909090909,0.636363636364,
    0.681818181818,0.727272727273,0.772727272727,0.818181818182,
    0.863636363636,0.909090909091,0.954545454545,1.),
  .QUASI_UNIFORM_KNOTS.);
#951 = CARTESIAN_POINT('',(1.570793874435,6.865130318627E-04));
#952 = CARTESIAN_POINT('',(1.551541113894,-1.337638470333E-02));
#953 = CARTESIAN_POINT('',(1.513085940761,-4.151780964777E-02));
#954 = CARTESIAN_POINT('',(1.455293431827,-8.361928171216E-02));
#955 = CARTESIAN_POINT('',(1.397128724212,-0.12545410274));
#956 = CARTESIAN_POINT('',(1.338335165743,-0.166860798732));
#957 = CARTESIAN_POINT('',(1.278638799032,-0.20767189713));
#958 = CARTESIAN_POINT('',(1.217822710403,-0.247729852797));
#959 = CARTESIAN_POINT('',(1.155723336028,-0.286872636205));
#960 = CARTESIAN_POINT('',(1.092176615528,-0.324926105599));
#961 = CARTESIAN_POINT('',(1.027028962609,-0.361711154386));
#962 = CARTESIAN_POINT('',(0.960117139479,-0.397049652328));
#963 = CARTESIAN_POINT('',(0.891256567588,-0.430756558953));
#964 = CARTESIAN_POINT('',(0.820294711783,-0.462631908383));
#965 = CARTESIAN_POINT('',(0.747107452012,-0.492464729024));
#966 = CARTESIAN_POINT('',(0.671594110563,-0.520045592055));
#967 = CARTESIAN_POINT('',(0.593735935961,-0.545104417794));
#968 = CARTESIAN_POINT('',(0.51361482431,-0.567354668672));
#969 = CARTESIAN_POINT('',(0.431401503215,-0.58652810619));
#970 = CARTESIAN_POINT('',(0.347360742885,-0.602365600656));
#971 = CARTESIAN_POINT('',(0.261815782628,-0.614703085835));
#972 = CARTESIAN_POINT('',(0.175126816953,-0.623504062927));
#973 = CARTESIAN_POINT('',(8.770608317423E-02,-0.628748426941));
#974 = CARTESIAN_POINT('',(2.92222854729E-02,-0.629903230989));
#975 = CARTESIAN_POINT('',(0.,-0.629899608253));
#976 = ( GEOMETRIC_REPRESENTATION_CONTEXT(2) 
PARAMETRIC_REPRESENTATION_CONTEXT() REPRESENTATION_CONTEXT('2D SPACE',''
  ) );
#977 = ORIENTED_EDGE('',*,*,#978,.T.);
#978 = EDGE_CURVE('',#930,#852,#979,.T.);
#979 = SURFACE_CURVE('',#980,(#984,#991),.PCURVE_S1.);
#980 = LINE('',#981,#982);
#981 = CARTESIAN_POINT('',(-211.9761204138,-116.6762502438,
    209.85273930704));
#982 = VECTOR('',#983,1.);
#983 = DIRECTION('',(0.748673920697,7.911143706743E-02,0.658201140224));
#984 = PCURVE('',#549,#985);
#985 = DEFINITIONAL_REPRESENTATION('',(#986),#990);
#986 = LINE('',#987,#988);
#987 = CARTESIAN_POINT('',(1.570796326795,7.433455926978E-02));
#988 = VECTOR('',#989,1.);
#989 = DIRECTION('',(0.,1.));
#990 = ( GEOMETRIC_REPRESENTATION_CONTEXT(2) 
PARAMETRIC_REPRESENTATION_CONTEXT() REPRESENTATION_CONTEXT('2D SPACE',''
  ) );
#991 = PCURVE('',#101,#992);
#992 = DEFINITIONAL_REPRESENTATION('',(#993),#997);
#993 = LINE('',#994,#995);
#994 = CARTESIAN_POINT('',(-1.063544955993E-07,10.5));
#995 = VECTOR('',#996,1.);
#996 = DIRECTION('',(1.,8.326672684689E-17));
#997 = ( GEOMETRIC_REPRESENTATION_CONTEXT(2) 
PARAMETRIC_REPRESENTATION_CONTEXT() REPRESENTATION_CONTEXT('2D SPACE',''
  ) );
#998 = ORIENTED_EDGE('',*,*,#901,.F.);
#999 = ORIENTED_EDGE('',*,*,#535,.F.);
#1000 = ADVANCED_FACE('',(#1001),#101,.T.);
#1001 = FACE_BOUND('',#1002,.F.);
#1002 = EDGE_LOOP('',(#1003,#1004,#1005,#1006));
#1003 = ORIENTED_EDGE('',*,*,#978,.T.);
#1004 = ORIENTED_EDGE('',*,*,#851,.F.);
#1005 = ORIENTED_EDGE('',*,*,#85,.F.);
#1006 = ORIENTED_EDGE('',*,*,#1007,.T.);
#1007 = EDGE_CURVE('',#57,#930,#1008,.T.);
#1008 = SURFACE_CURVE('',#1009,(#1013,#1020),.PCURVE_S1.);
#1009 = LINE('',#1010,#1011);
#1010 = CARTESIAN_POINT('',(-205.6897568385,-113.0467038601,
    202.26603870289));
#1011 = VECTOR('',#1012,1.);
#1012 = DIRECTION('',(-0.598701292865,-0.345671084149,0.722542914646));
#1013 = PCURVE('',#101,#1014);
#1014 = DEFINITIONAL_REPRESENTATION('',(#1015),#1019);
#1015 = LINE('',#1016,#1017);
#1016 = CARTESIAN_POINT('',(0.,0.));
#1017 = VECTOR('',#1018,1.);
#1018 = DIRECTION('',(-1.012900629691E-08,1.));
#1019 = ( GEOMETRIC_REPRESENTATION_CONTEXT(2) 
PARAMETRIC_REPRESENTATION_CONTEXT() REPRESENTATION_CONTEXT('2D SPACE',''
  ) );
#1020 = PCURVE('',#73,#1021);
#1021 = DEFINITIONAL_REPRESENTATION('',(#1022),#1026);
#1022 = LINE('',#1023,#1024);
#1023 = CARTESIAN_POINT('',(4.402212740419,0.));
#1024 = VECTOR('',#1025,1.);
#1025 = DIRECTION('',(-2.027367878003E-08,1.));
#1026 = ( GEOMETRIC_REPRESENTATION_CONTEXT(2) 
PARAMETRIC_REPRESENTATION_CONTEXT() REPRESENTATION_CONTEXT('2D SPACE',''
  ) );
#1027 = ADVANCED_FACE('',(#1028),#73,.T.);
#1028 = FACE_BOUND('',#1029,.T.);
#1029 = EDGE_LOOP('',(#1030,#1031,#1032,#1033));
#1030 = ORIENTED_EDGE('',*,*,#298,.F.);
#1031 = ORIENTED_EDGE('',*,*,#56,.T.);
#1032 = ORIENTED_EDGE('',*,*,#1007,.T.);
#1033 = ORIENTED_EDGE('',*,*,#1034,.F.);
#1034 = EDGE_CURVE('',#271,#930,#1035,.T.);
#1035 = SURFACE_CURVE('',#1036,(#1041,#1048),.PCURVE_S1.);
#1036 = CIRCLE('',#1037,0.499511098858);
#1037 = AXIS2_PLACEMENT_3D('',#1038,#1039,#1040);
#1038 = CARTESIAN_POINT('',(-212.118346168,-116.2091020917,
    209.95837176863));
#1039 = DIRECTION('',(-0.598704065061,-0.345661953128,0.722544985893));
#1040 = DIRECTION('',(-0.626059540551,-0.360722747909,-0.691323767005));
#1041 = PCURVE('',#73,#1042);
#1042 = DEFINITIONAL_REPRESENTATION('',(#1043),#1047);
#1043 = LINE('',#1044,#1045);
#1044 = CARTESIAN_POINT('',(3.14159265359,10.5));
#1045 = VECTOR('',#1046,1.);
#1046 = DIRECTION('',(1.,0.));
#1047 = ( GEOMETRIC_REPRESENTATION_CONTEXT(2) 
PARAMETRIC_REPRESENTATION_CONTEXT() REPRESENTATION_CONTEXT('2D SPACE',''
  ) );
#1048 = PCURVE('',#416,#1049);
#1049 = DEFINITIONAL_REPRESENTATION('',(#1050),#1053);
#1050 = B_SPLINE_CURVE_WITH_KNOTS('',1,(#1051,#1052),.UNSPECIFIED.,.F.,
  .F.,(2,2),(0.,1.26062008683),.PIECEWISE_BEZIER_KNOTS.);
#1051 = CARTESIAN_POINT('',(0.,0.629899547982));
#1052 = CARTESIAN_POINT('',(0.,-0.629899622905));
#1053 = ( GEOMETRIC_REPRESENTATION_CONTEXT(2) 
PARAMETRIC_REPRESENTATION_CONTEXT() REPRESENTATION_CONTEXT('2D SPACE',''
  ) );
#1054 = ADVANCED_FACE('',(#1055),#416,.T.);
#1055 = FACE_BOUND('',#1056,.T.);
#1056 = EDGE_LOOP('',(#1057,#1058,#1059));
#1057 = ORIENTED_EDGE('',*,*,#929,.F.);
#1058 = ORIENTED_EDGE('',*,*,#399,.T.);
#1059 = ORIENTED_EDGE('',*,*,#1034,.T.);
#1060 = ( GEOMETRIC_REPRESENTATION_CONTEXT(3) 
GLOBAL_UNCERTAINTY_ASSIGNED_CONTEXT((#1064)) 
GLOBAL_UNIT_ASSIGNED_CONTEXT((#1061,#1062,#1063)) REPRESENTATION_CONTEXT
('Context #1','3D Context with UNIT and UNCERTAINTY') );
#1061 = ( LENGTH_UNIT() NAMED_UNIT(*) SI_UNIT(.MILLI.,.METRE.) );
#1062 = ( NAMED_UNIT(*) PLANE_ANGLE_UNIT() SI_UNIT($,.RADIAN.) );
#1063 = ( NAMED_UNIT(*) SI_UNIT($,.STERADIAN.) SOLID_ANGLE_UNIT() );
#1064 = UNCERTAINTY_MEASURE_WITH_UNIT(LENGTH_MEASURE(2.E-04),#1061,
  'distance_accuracy_value','confusion accuracy');
#1065 = PRODUCT_RELATED_PRODUCT_CATEGORY('part',$,(#7));
ENDSEC;
END-ISO-10303-21;
